<?xml version="1.0" encoding="utf-8"?>
<!-- Generator: Adobe Illustrator 26.3.1, SVG Export Plug-In . SVG Version: 6.00 Build 0)  -->
<svg version="1.1" id="Layer_1" xmlns="http://www.w3.org/2000/svg" xmlns:xlink="http://www.w3.org/1999/xlink" x="0px" y="0px"
	 viewBox="0 0 300 300" style="enable-background:new 0 0 300 300;" xml:space="preserve">
<style type="text/css">
	.st0{fill:#00457F;}
</style>
<g>
	<g>
		<g>
			<g>
				<path class="st0" d="M252.6,132.5c0-3.2-2.4-6.5-5.5-7.4L128.8,88.8c-0.6-0.2-1.2-0.3-1.7-0.3c-0.8,0-1.9,0.2-2.8,1.1
					c-1,1.1-1.1,2.8-0.3,4.6l22,47.8c1.2,2.5,4.1,5.4,6.6,6.6l24.4,11l5.8,2.6l-5.6,2.9l-83.4,43.5l-17.5,9.1l13.8-14l15.2-15.3
					l0.1-0.1c2.1-2,3.7-5.6,3.7-8.4l0-133.6c0-3.2-2.4-6.5-5.5-7.4L54.1,23.8c-0.6-0.2-1.2-0.3-1.7-0.3c-1.1,0-2.1,0.3-2.9,1
					c-1.3,1-2,2.5-2,4.3v202.7c0,2.9,1.9,6.6,4.3,8.3l50.3,35.3c1.3,0.9,3.1,1.5,5,1.5c1.6,0,3.1-0.4,4.3-1.1L248,194
					c2.6-1.6,4.6-5.1,4.6-8.1L252.6,132.5z M244.8,188.7l-136.6,81.4l-0.1,0.1c-0.3,0.1-0.7,0.2-1.1,0.2c-0.3,0-0.9,0-1.4-0.3
					l-50.4-35.3c-0.8-0.6-1.7-2.3-1.7-3.3V30l48.4,14.8l0.1,0.1c0.4,0.2,0.8,0.8,0.9,1.2l0,0.1l0,133.7c0,1.1-0.9,3.2-1.8,4
					c-0.1,0.1-0.1,0.1-0.2,0.2L70.4,215c-2,2-2.2,5.2-0.5,7.5c1.7,2.3,4.7,3,7.4,1.7l108.4-56.6c2.3-1.2,3.7-3.3,3.6-5.6
					c-0.1-2.3-1.5-4.3-4-5.3l-30.2-13.7c-1.2-0.6-3-2.3-3.6-3.5l-20-43.4L245.4,131l0.1,0.1c0.4,0.2,0.8,0.8,0.9,1.2l0,0.1l0,53.5
					C246.4,186.8,245.6,188.2,244.8,188.7z"/>
			</g>
		</g>
	</g>
	<g>
		<g>
			<g>
				<g>
					<path class="st0" d="M70.9,131.9v3.1c0,2.2-1.8,4-4,4c-2.2,0-4-1.8-4-4v-3.1c0-2.2,1.8-4,4-4C69.1,127.9,70.9,129.7,70.9,131.9
						z"/>
				</g>
			</g>
		</g>
	</g>
	<g>
		<g>
			<g>
				<g>
					<path class="st0" d="M70.9,49.9v64.5c0,2.2-1.8,4-4,4c-2.2,0-4-1.8-4-4V49.9c0-2.2,1.8-4,4-4C69.1,45.8,70.9,47.6,70.9,49.9z"
						/>
				</g>
			</g>
		</g>
	</g>
</g>
</svg>
