<?xml version="1.0" encoding="utf-8"?>
<!-- Generator: Adobe Illustrator 26.3.1, SVG Export Plug-In . SVG Version: 6.00 Build 0)  -->
<svg version="1.1" id="Layer_1" xmlns="http://www.w3.org/2000/svg" xmlns:xlink="http://www.w3.org/1999/xlink" x="0px" y="0px"
	 viewBox="0 0 300 300" style="enable-background:new 0 0 300 300;" xml:space="preserve">
<style type="text/css">
	.st0{fill:#FFFFFF;}
	.st1{fill:#606060;}
	.st2{stroke:#000000;stroke-width:0.5;stroke-miterlimit:10;}
</style>
<g>
	<g>
		<g>
			<path class="st0" d="M152.54,27.54v24.98c0,1.4-1.14,2.54-2.54,2.54c-1.4,0-2.54-1.14-2.54-2.54V27.54c0-1.4,1.14-2.54,2.54-2.54
				C151.4,25,152.54,26.14,152.54,27.54z"/>
			<path class="st0" d="M150,55.44c-1.61,0-2.92-1.31-2.92-2.92V27.54c0-1.61,1.31-2.92,2.92-2.92s2.92,1.31,2.92,2.92v24.98
				C152.92,54.13,151.61,55.44,150,55.44z M150,25.38c-1.2,0-2.17,0.97-2.17,2.17v24.98c0,1.2,0.97,2.17,2.17,2.17
				s2.17-0.97,2.17-2.17V27.54C152.17,26.35,151.2,25.38,150,25.38z"/>
		</g>
	</g>
	<g>
		<g>
			<path class="st0" d="M85.3,81.86c-1,1-2.61,1-3.6,0L64.04,64.2c-0.99-0.99-0.99-2.6,0-3.59c1-0.99,2.6-0.99,3.6,0L85.3,78.27
				C86.29,79.26,86.29,80.87,85.3,81.86z"/>
			<path class="st0" d="M83.5,82.99C83.5,82.99,83.49,82.99,83.5,82.99c-0.79,0-1.52-0.31-2.06-0.86L63.77,64.47
				c-0.55-0.55-0.85-1.28-0.85-2.06s0.3-1.51,0.85-2.06c1.14-1.13,2.99-1.13,4.13,0L85.57,78c0.55,0.55,0.85,1.28,0.85,2.06
				s-0.3,1.51-0.85,2.06C85.02,82.68,84.28,82.99,83.5,82.99z M65.84,60.24c-0.56,0-1.11,0.21-1.54,0.63
				c-0.41,0.41-0.63,0.95-0.63,1.53s0.22,1.12,0.63,1.53L81.97,81.6c0.41,0.41,0.95,0.64,1.53,0.64c0,0,0,0,0.01,0
				c0.58,0,1.13-0.23,1.54-0.64c0.41-0.41,0.63-0.95,0.63-1.53s-0.22-1.12-0.63-1.53L67.38,60.87
				C66.95,60.45,66.4,60.24,65.84,60.24z"/>
		</g>
	</g>
	<g>
		<g>
			<path class="st0" d="M58.5,146.57c0,1.4-1.14,2.54-2.54,2.54H30.99c-1.4,0-2.54-1.14-2.54-2.54c0-1.4,1.14-2.54,2.54-2.54h24.97
				C57.36,144.03,58.5,145.17,58.5,146.57z"/>
			<path class="st0" d="M55.95,149.49H30.98c-1.61,0-2.92-1.31-2.92-2.92s1.31-2.92,2.92-2.92h24.97c1.61,0,2.92,1.31,2.92,2.92
				S57.56,149.49,55.95,149.49z M30.98,144.4c-1.2,0-2.17,0.97-2.17,2.17s0.97,2.17,2.17,2.17h24.97c1.2,0,2.17-0.97,2.17-2.17
				s-0.97-2.17-2.17-2.17H30.98z"/>
		</g>
	</g>
	<g>
		<g>
			<path class="st0" d="M85.3,214.86l-17.66,17.66c-0.99,0.99-2.6,0.99-3.6,0c-0.47-0.48-0.74-1.12-0.74-1.8
				c0-0.68,0.26-1.32,0.74-1.8l17.66-17.66c0.99-0.99,2.6-0.99,3.6,0C86.29,212.25,86.29,213.87,85.3,214.86z"/>
			<path class="st0" d="M65.84,233.63c-0.75,0-1.5-0.28-2.07-0.85c-0.55-0.56-0.85-1.29-0.85-2.06c0-0.78,0.3-1.52,0.85-2.06
				L81.44,211c1.13-1.13,2.99-1.13,4.13,0c1.14,1.14,1.14,2.99,0,4.12l-17.66,17.66C67.34,233.35,66.59,233.63,65.84,233.63z
				 M83.5,210.9c-0.56,0-1.11,0.21-1.53,0.63L64.3,229.19c-0.4,0.4-0.63,0.95-0.63,1.53c0,0.57,0.22,1.12,0.63,1.53
				c0.85,0.84,2.23,0.84,3.07,0l17.66-17.66c0.84-0.84,0.84-2.22,0-3.06C84.61,211.11,84.06,210.9,83.5,210.9z"/>
		</g>
	</g>
	<g>
		<g>
			<path class="st0" d="M235.96,232.52c-1,0.99-2.61,0.99-3.6,0l-17.66-17.66c-0.99-0.99-0.99-2.6,0-3.59
				c0.49-0.49,1.15-0.75,1.81-0.75c0.65,0,1.3,0.25,1.8,0.75l17.66,17.66C236.95,229.92,236.95,231.53,235.96,232.52z"/>
			<path class="st0" d="M234.16,233.63c-0.75,0-1.5-0.28-2.06-0.85l-17.66-17.66c-1.14-1.14-1.14-2.99,0-4.12
				c1.09-1.09,3.03-1.1,4.13,0l17.66,17.66c1.14,1.14,1.14,2.99,0,4.12l0,0C235.65,233.35,234.9,233.63,234.16,233.63z
				 M216.5,210.89c-0.58,0-1.13,0.23-1.54,0.64c-0.84,0.84-0.84,2.22,0,3.06l17.66,17.66c0.84,0.84,2.22,0.84,3.07,0
				c0.84-0.84,0.84-2.22,0-3.06l-17.66-17.66C217.63,211.12,217.07,210.89,216.5,210.89z"/>
		</g>
	</g>
	<g>
		<g>
			<path class="st0" d="M271.56,146.57c0,1.4-1.14,2.54-2.54,2.54h-24.97c-1.4,0-2.54-1.14-2.54-2.54c0-1.4,1.14-2.54,2.54-2.54
				h24.97C270.42,144.03,271.56,145.17,271.56,146.57z"/>
			<path class="st0" d="M269.02,149.49h-24.97c-1.61,0-2.92-1.31-2.92-2.92s1.31-2.92,2.92-2.92h24.97c1.61,0,2.92,1.31,2.92,2.92
				S270.62,149.49,269.02,149.49z M244.05,144.4c-1.2,0-2.17,0.97-2.17,2.17s0.97,2.17,2.17,2.17h24.97c1.2,0,2.17-0.97,2.17-2.17
				s-0.97-2.17-2.17-2.17H244.05z"/>
		</g>
	</g>
	<g>
		<g>
			<path class="st0" d="M235.96,64.2L218.3,81.86c-0.99,1-2.6,1-3.6,0c-0.99-0.99-0.99-2.6,0-3.59l17.66-17.66
				c0.99-0.99,2.6-0.99,3.6,0C236.95,61.6,236.95,63.21,235.96,64.2z"/>
			<path class="st0" d="M216.5,82.99c-0.78,0-1.52-0.3-2.07-0.86c-0.55-0.55-0.85-1.28-0.85-2.06s0.3-1.51,0.85-2.06l17.66-17.66
				c1.13-1.13,2.99-1.13,4.13,0c0.55,0.55,0.85,1.28,0.85,2.06s-0.3,1.51-0.85,2.06l-17.66,17.66
				C218.02,82.68,217.29,82.99,216.5,82.99C216.51,82.99,216.5,82.99,216.5,82.99z M234.16,60.24c-0.56,0-1.11,0.21-1.53,0.63
				l-17.66,17.66c-0.41,0.41-0.63,0.95-0.63,1.53s0.22,1.12,0.63,1.53c0.41,0.41,0.96,0.64,1.54,0.64c0.57-0.02,1.12-0.23,1.53-0.64
				l17.66-17.67c0.41-0.41,0.63-0.95,0.63-1.53s-0.22-1.12-0.63-1.53C235.27,60.45,234.71,60.24,234.16,60.24z"/>
		</g>
	</g>
	<g>
		<path class="st0" d="M201.67,189.99c13.13-13.72,20.36-31.79,20.36-50.91C222.02,98.78,189.72,66,150,66
			c-13.91,0-27.41,4.04-39.04,11.66c-11.31,7.43-20.35,17.86-26.1,30.2c-0.28,0.62-0.31,1.3-0.08,1.95c0.23,0.64,0.7,1.15,1.31,1.43
			c0.62,0.28,1.31,0.32,1.95,0.08c0.64-0.23,1.15-0.7,1.43-1.31C100.5,86.36,124.26,71.08,150,71.08c36.91,0,66.94,30.5,66.94,68
			c0,17.8-6.73,34.63-18.94,47.39c-6.79,7.11-12.55,13.75-14.02,23.19l-0.16,0.99h-66.62l-0.18-0.95
			c-1.85-9.71-8.63-16.68-14.61-22.83c-12.46-12.81-19.33-29.78-19.33-47.79c0-4.45,0.42-8.89,1.26-13.22
			c0.27-1.37-0.64-2.71-2.01-2.98c-0.16-0.04-0.32-0.05-0.48-0.05c-1.19,0-2.26,0.85-2.5,2.06c-0.9,4.64-1.35,9.42-1.35,14.19
			c0,19.34,7.38,37.58,20.77,51.33c8,8.23,13.68,14.82,13.68,24.65l0.21,21.82c0,6.47,3.3,12.32,8.82,15.69l0.57,0.34v4.72
			c0,9.58,7.78,17.36,17.36,17.36h22.72c9.58,0,17.36-7.78,17.36-17.36v-4.72l0.56-0.34c5.53-3.37,8.83-9.22,8.83-15.67
			c-0.01-9.23-0.03-23.1-0.07-24.31l-0.01-0.08l0.01-0.16C189.51,203.35,195.04,196.9,201.67,189.99z M174.37,257.64
			c0,6.77-5.5,12.27-12.27,12.27h-22.72c-6.77,0-12.27-5.5-12.27-12.27v-2.77l1.32,0.19c0.86,0.12,1.72,0.18,2.55,0.18h39.51
			c0.83,0,1.7-0.06,2.55-0.18l1.32-0.19V257.64z M173.71,235.49h10.05v1.41c0,7.31-5.94,13.26-13.26,13.26h-39.51
			c-7.32,0-13.26-5.95-13.26-13.26v-1.41h38.7c1.4,0,2.54-1.14,2.54-2.54c0-1.4-1.14-2.54-2.54-2.54h-38.7v-14.66h65.92l0.13,14.66
			h-10.06c-1.4,0-2.54,1.14-2.54,2.54C171.16,234.35,172.31,235.49,173.71,235.49z M170.5,250.54h-39.51
			c-7.52,0-13.64-6.12-13.64-13.64v-1.79h39.07c1.2,0,2.17-0.97,2.17-2.17c0-1.2-0.97-2.17-2.17-2.17h-39.07v-15.42h66.66
			l0.14,15.42h-10.44c-1.2,0-2.17,0.97-2.17,2.17c0,1.2,0.97,2.17,2.17,2.17h10.43v1.79C184.14,244.42,178.02,250.54,170.5,250.54z
			 M118.1,235.86v1.04c0,7.11,5.78,12.89,12.89,12.89h39.51c7.11,0,12.89-5.78,12.89-12.89v-1.04h-9.68c-1.61,0-2.92-1.31-2.92-2.92
			s1.31-2.92,2.92-2.92h9.68l-0.12-13.92H118.1v13.92h38.32c1.61,0,2.92,1.31,2.92,2.92s-1.31,2.92-2.92,2.92H118.1z"/>
	</g>
	<g>
		<g>
			<path class="st0" d="M186.35,133.95l-7.34,9.45c-0.41,0.53-1.02,0.88-1.69,0.96c-0.68,0.09-1.34-0.09-1.88-0.51
				c-0.54-0.41-0.88-1.01-0.97-1.69c-0.08-0.68,0.1-1.34,0.51-1.88l7.32-9.43c0.92-1.13,1.33-2.64,1.14-4.16
				c-0.19-1.51-0.97-2.88-2.09-3.71c-1.13-0.92-2.64-1.32-4.16-1.14c-1.51,0.19-2.88,0.97-3.73,2.12l-26.66,34.33
				c-0.41,0.57-1.1,0.91-1.89,0.94c-0.78,0.04-1.5-0.25-1.99-0.82l-16.69-18.47c-2.07-2.29-5.62-2.47-7.91-0.4
				c-1.11,1.01-1.77,2.38-1.85,3.88c-0.07,1.5,0.43,2.94,1.44,4.05l23.19,25.66c1.06,1.24,2.65,1.92,4.39,1.86
				c1.73-0.07,3.27-0.86,4.22-2.15l14.66-18.88c0.41-0.53,1.01-0.88,1.69-0.97c0.68-0.08,1.34,0.1,1.88,0.51
				c1.11,0.87,1.31,2.46,0.45,3.57l-14.69,18.9c-1.81,2.46-4.73,3.94-8.01,4.07s-6.33-1.13-8.35-3.47l-23.21-25.69
				c-1.92-2.12-2.9-4.85-2.75-7.71c0.14-2.86,1.38-5.48,3.5-7.4c2.05-1.85,4.61-2.76,7.17-2.76c2.93,0,5.83,1.19,7.94,3.52
				l14.65,16.22l24.78-31.91c1.76-2.25,4.28-3.69,7.12-4.05c2.83-0.36,5.63,0.4,7.89,2.16c2.25,1.76,3.69,4.28,4.05,7.12
				C188.88,128.9,188.1,131.7,186.35,133.95z"/>
			<path class="st0" d="M145.26,180.41c-3.22,0-6.17-1.3-8.17-3.61l-23.21-25.68c-1.99-2.2-3-5.03-2.84-7.98
				c0.15-2.95,1.43-5.67,3.63-7.66c2.04-1.84,4.67-2.85,7.42-2.85c3.13,0,6.13,1.33,8.22,3.65l14.35,15.89l24.5-31.56
				c1.82-2.34,4.44-3.83,7.37-4.19c2.92-0.38,5.83,0.42,8.17,2.24c2.34,1.82,3.82,4.44,4.19,7.37c0.38,2.92-0.42,5.83-2.24,8.17v0
				l-7.34,9.45c-0.48,0.62-1.16,1.01-1.94,1.1c-0.78,0.11-1.54-0.11-2.16-0.59c-0.61-0.46-1-1.15-1.11-1.93
				c-0.09-0.78,0.12-1.54,0.59-2.16l7.32-9.43c0.86-1.06,1.24-2.47,1.06-3.88c-0.18-1.41-0.89-2.67-1.94-3.46
				c-1.05-0.85-2.46-1.24-3.89-1.07c-1.41,0.18-2.68,0.9-3.48,1.97l-26.66,34.33c-0.48,0.65-1.27,1.05-2.17,1.08
				c-0.89,0.05-1.73-0.3-2.29-0.95l-16.69-18.46c-1.93-2.14-5.24-2.31-7.38-0.38c-1.04,0.94-1.65,2.23-1.72,3.62
				c-0.07,1.41,0.41,2.75,1.35,3.78l23.19,25.66c0.99,1.16,2.48,1.8,4.1,1.73c1.61-0.07,3.05-0.79,3.93-2l14.67-18.89
				c0.47-0.61,1.16-1.01,1.93-1.11c0.78-0.09,1.55,0.12,2.16,0.59c1.27,0.99,1.5,2.83,0.52,4.1l-14.69,18.91
				c-1.86,2.54-4.89,4.07-8.29,4.21C145.58,180.41,145.42,180.41,145.26,180.41z M122.08,133.38c-2.56,0-5.01,0.94-6.91,2.66
				c-2.04,1.85-3.24,4.38-3.38,7.14c-0.15,2.75,0.79,5.39,2.65,7.44l23.21,25.69c1.95,2.26,4.88,3.46,8.05,3.35
				c3.18-0.13,6-1.55,7.73-3.91l14.69-18.91c0.73-0.94,0.55-2.31-0.39-3.05c-0.45-0.35-1.02-0.5-1.6-0.44
				c-0.57,0.08-1.08,0.37-1.43,0.83l-14.66,18.88c-1.01,1.38-2.66,2.22-4.5,2.29c-1.84,0.06-3.56-0.66-4.69-1.99l-23.19-25.65
				c-1.07-1.18-1.62-2.71-1.54-4.32c0.09-1.59,0.79-3.06,1.97-4.14c2.45-2.21,6.23-2.02,8.44,0.43l16.69,18.47
				c0.41,0.48,1.03,0.73,1.69,0.69c0.67-0.03,1.26-0.31,1.6-0.79l26.66-34.33c0.92-1.23,2.37-2.06,3.98-2.26
				c1.62-0.19,3.25,0.25,4.44,1.22c1.21,0.9,2.02,2.35,2.23,3.96c0.2,1.62-0.24,3.24-1.22,4.44l-7.31,9.42
				c-0.35,0.46-0.51,1.03-0.44,1.6c0.08,0.58,0.36,1.08,0.82,1.43c0.46,0.36,1.02,0.52,1.6,0.44c0.58-0.07,1.09-0.36,1.44-0.82
				l7.34-9.45c1.69-2.18,2.43-4.89,2.08-7.61c-0.34-2.73-1.73-5.17-3.91-6.87c-2.18-1.69-4.89-2.43-7.61-2.08
				c-2.73,0.34-5.17,1.73-6.87,3.91l-25.05,32.27l-14.96-16.55C127.79,134.62,125,133.38,122.08,133.38z"/>
		</g>
	</g>
</g>
</svg>
