<?xml version="1.0" encoding="utf-8"?>
<!-- Generator: Adobe Illustrator 26.3.1, SVG Export Plug-In . SVG Version: 6.00 Build 0)  -->
<svg version="1.1" id="Layer_1" xmlns="http://www.w3.org/2000/svg" xmlns:xlink="http://www.w3.org/1999/xlink" x="0px" y="0px"
	 viewBox="0 0 300 300" style="enable-background:new 0 0 300 300;" xml:space="preserve">
<style type="text/css">
	.st0{fill:#00457F;}
</style>
<g>
	<g>
		<g>
			<g>
				<path class="st0" d="M152.5,27.7v25c0,1.4-1.1,2.5-2.5,2.5s-2.5-1.1-2.5-2.5v-25c0-1.4,1.1-2.5,2.5-2.5
					C151.4,25.2,152.5,26.3,152.5,27.7z"/>
				<path class="st0" d="M150,56.8c-2.2,0-4-1.8-4-4v-25c0-2.2,1.8-4,4-4s4,1.8,4,4v25C154,54.9,152.2,56.8,150,56.8z M150,26.7
					c-0.6,0-1,0.5-1,1v25c0,0.6,0.5,1,1,1s1-0.5,1-1v-25C151,27.2,150.6,26.7,150,26.7z"/>
			</g>
			<g>
				<path class="st0" d="M150,55.6c-1.6,0-2.9-1.3-2.9-2.9v-25c0-1.6,1.3-2.9,2.9-2.9s2.9,1.3,2.9,2.9v25
					C152.9,54.3,151.6,55.6,150,55.6z M150,25.6c-1.2,0-2.2,1-2.2,2.2v25c0,1.2,1,2.2,2.2,2.2s2.2-1,2.2-2.2v-25
					C152.2,26.5,151.2,25.6,150,25.6z"/>
				<path class="st0" d="M150,57.1c-2.4,0-4.4-2-4.4-4.4v-25c0-2.4,2-4.4,4.4-4.4c2.4,0,4.4,2,4.4,4.4v25
					C154.4,55.1,152.4,57.1,150,57.1z M150,27.1c-0.4,0-0.7,0.3-0.7,0.7v25c0,0.4,0.3,0.7,0.7,0.7s0.7-0.3,0.7-0.7v-25
					C150.7,27.4,150.4,27.1,150,27.1z"/>
			</g>
		</g>
	</g>
	<g>
		<g>
			<g>
				<path class="st0" d="M85.3,82.1c-1,1-2.6,1-3.6,0L64,64.4c-1-1-1-2.6,0-3.6c1-1,2.6-1,3.6,0l17.7,17.7
					C86.3,79.4,86.3,81.1,85.3,82.1z"/>
				<path class="st0" d="M83.5,84.3C83.5,84.3,83.5,84.3,83.5,84.3c-1.1,0-2.1-0.4-2.9-1.2L63,65.5c-1.6-1.6-1.6-4.1,0-5.7
					c1.6-1.6,4.1-1.6,5.7,0l17.7,17.7c0.8,0.8,1.2,1.8,1.2,2.9c0,1.1-0.4,2.1-1.2,2.9l0,0l0,0c0,0,0,0,0,0
					C85.6,83.9,84.6,84.3,83.5,84.3z M65.8,61.6c-0.3,0-0.5,0.1-0.7,0.3c-0.2,0.2-0.3,0.5-0.3,0.7c0,0.3,0.1,0.5,0.3,0.7L82.8,81
					c0.2,0.2,0.5,0.3,0.7,0.3c0,0,0,0,0,0c0.3,0,0.5-0.1,0.7-0.3v0c0.2-0.2,0.3-0.5,0.3-0.7s-0.1-0.5-0.3-0.7L66.6,61.9
					C66.4,61.7,66.1,61.6,65.8,61.6z"/>
			</g>
			<g>
				<path class="st0" d="M83.5,83.2C83.5,83.2,83.5,83.2,83.5,83.2c-0.8,0-1.5-0.3-2.1-0.9L63.8,64.7c-0.5-0.6-0.8-1.3-0.8-2.1
					s0.3-1.5,0.8-2.1c1.1-1.1,3-1.1,4.1,0l17.7,17.7c0.6,0.6,0.8,1.3,0.8,2.1s-0.3,1.5-0.8,2.1C85,82.9,84.3,83.2,83.5,83.2z
					 M65.8,60.4c-0.6,0-1.1,0.2-1.5,0.6c-0.4,0.4-0.6,1-0.6,1.5s0.2,1.1,0.6,1.5L82,81.8c0.4,0.4,0.9,0.6,1.5,0.6c0,0,0,0,0,0
					c0.6,0,1.1-0.2,1.5-0.6c0.4-0.4,0.6-0.9,0.6-1.5s-0.2-1.1-0.6-1.5L67.4,61.1C66.9,60.6,66.4,60.4,65.8,60.4z"/>
				<path class="st0" d="M83.5,84.7L83.5,84.7c-1.2,0-2.3-0.5-3.1-1.3L62.7,65.7c-0.8-0.8-1.3-1.9-1.3-3.1c0-1.2,0.5-2.3,1.3-3.1
					c1.7-1.7,4.5-1.7,6.2,0l17.7,17.7c0.8,0.8,1.3,1.9,1.3,3.1s-0.5,2.3-1.3,3.1C85.8,84.2,84.7,84.7,83.5,84.7z M65.8,61.9
					c-0.1,0-0.3,0-0.5,0.2c-0.1,0.1-0.2,0.3-0.2,0.5c0,0.2,0.1,0.3,0.2,0.5L83,80.7c0.3,0.3,0.7,0.3,1,0c0.1-0.1,0.2-0.3,0.2-0.5
					s-0.1-0.3-0.2-0.5L66.3,62.1C66.2,62,66,61.9,65.8,61.9z"/>
			</g>
		</g>
	</g>
	<g>
		<g>
			<g>
				<path class="st0" d="M58.5,146.8c0,1.4-1.1,2.5-2.5,2.5H31c-1.4,0-2.5-1.1-2.5-2.5s1.1-2.5,2.5-2.5h25
					C57.4,144.2,58.5,145.4,58.5,146.8z"/>
				<path class="st0" d="M56,150.8H31c-2.2,0-4-1.8-4-4s1.8-4,4-4h25c1,0,2.1,0.4,2.8,1.2c0.8,0.8,1.2,1.8,1.2,2.9
					C60,149,58.2,150.8,56,150.8z M56,145.7C56,145.7,56,145.7,56,145.7H31c-0.6,0-1,0.5-1,1s0.5,1,1,1h25c0.6,0,1-0.5,1-1
					c0-0.3-0.1-0.5-0.3-0.7C56.5,145.8,56.2,145.7,56,145.7z"/>
			</g>
			<g>
				<path class="st0" d="M56,149.7H31c-1.6,0-2.9-1.3-2.9-2.9s1.3-2.9,2.9-2.9h25c1.6,0,2.9,1.3,2.9,2.9S57.6,149.7,56,149.7z
					 M31,144.6c-1.2,0-2.2,1-2.2,2.2s1,2.2,2.2,2.2h25c1.2,0,2.2-1,2.2-2.2s-1-2.2-2.2-2.2H31z"/>
				<path class="st0" d="M56,151.2H31c-2.4,0-4.4-2-4.4-4.4s2-4.4,4.4-4.4h25c2.4,0,4.4,2,4.4,4.4S58.4,151.2,56,151.2z M31,146.1
					c-0.4,0-0.7,0.3-0.7,0.7s0.3,0.7,0.7,0.7h25c0.4,0,0.7-0.3,0.7-0.7s-0.3-0.7-0.7-0.7H31z"/>
			</g>
		</g>
	</g>
	<g>
		<g>
			<g>
				<path class="st0" d="M85.3,215l-17.7,17.7c-1,1-2.6,1-3.6,0c-0.5-0.5-0.7-1.1-0.7-1.8c0-0.7,0.3-1.3,0.7-1.8l17.7-17.7
					c1-1,2.6-1,3.6,0C86.3,212.4,86.3,214.1,85.3,215z"/>
				<path class="st0" d="M65.8,234.9c-1,0-2.1-0.4-2.9-1.2c-0.8-0.8-1.2-1.8-1.2-2.9c0-1.1,0.4-2.1,1.2-2.9l17.7-17.7
					c1.6-1.6,4.1-1.6,5.7,0c0.8,0.8,1.2,1.8,1.2,2.9c0,1.1-0.4,2.1-1.2,2.9l-17.7,17.7C67.9,234.5,66.9,234.9,65.8,234.9z
					 M83.5,212.2c-0.3,0-0.5,0.1-0.7,0.3l-17.7,17.7c-0.2,0.2-0.3,0.5-0.3,0.7c0,0.3,0.1,0.5,0.3,0.8c0.4,0.4,1.1,0.4,1.5,0
					L84.2,214c0.2-0.2,0.3-0.4,0.3-0.7c0-0.3-0.1-0.6-0.3-0.8C84,212.3,83.8,212.2,83.5,212.2z"/>
			</g>
			<g>
				<path class="st0" d="M65.8,233.8c-0.8,0-1.5-0.3-2.1-0.9c-0.5-0.6-0.8-1.3-0.8-2.1c0-0.8,0.3-1.5,0.8-2.1l17.7-17.7
					c1.1-1.1,3-1.1,4.1,0c1.1,1.1,1.1,3,0,4.1L67.9,233C67.3,233.5,66.6,233.8,65.8,233.8z M83.5,211.1c-0.6,0-1.1,0.2-1.5,0.6
					l-17.7,17.7c-0.4,0.4-0.6,0.9-0.6,1.5c0,0.6,0.2,1.1,0.6,1.5c0.8,0.8,2.2,0.8,3.1,0L85,214.8c0.8-0.8,0.8-2.2,0-3.1
					C84.6,211.3,84.1,211.1,83.5,211.1z"/>
				<path class="st0" d="M65.8,235.3c-1.2,0-2.3-0.5-3.1-1.3c-0.8-0.8-1.3-2-1.3-3.1c0-1.2,0.5-2.3,1.3-3.1l17.7-17.6
					c1.7-1.7,4.5-1.7,6.2,0c0.8,0.8,1.3,2,1.3,3.1c0,1.2-0.5,2.3-1.3,3.1L69,234C68.1,234.9,67,235.3,65.8,235.3z M83.5,212.6
					c-0.1,0-0.3,0-0.5,0.2l-17.7,17.7c-0.1,0.1-0.2,0.3-0.2,0.5c0,0.2,0.1,0.3,0.2,0.5c0.3,0.3,0.7,0.3,0.9,0L84,213.7
					c0.2-0.2,0.2-0.4,0.2-0.5s0-0.3-0.2-0.5C83.8,212.6,83.7,212.6,83.5,212.6z"/>
			</g>
		</g>
	</g>
	<g>
		<g>
			<g>
				<path class="st0" d="M236,232.7c-1,1-2.6,1-3.6,0l-17.7-17.7c-1-1-1-2.6,0-3.6c0.5-0.5,1.1-0.8,1.8-0.8c0.6,0,1.3,0.2,1.8,0.8
					l17.7,17.7C236.9,230.1,236.9,231.7,236,232.7z"/>
				<path class="st0" d="M234.2,235c-1,0-2.1-0.4-2.9-1.2l-17.7-17.7c-1.6-1.6-1.6-4.1,0-5.7c0.8-0.8,1.8-1.2,2.9-1.2
					c1.1,0,2.1,0.4,2.9,1.2l17.7,17.7c0.8,0.8,1.2,1.8,1.2,2.9c0,1.1-0.4,2.1-1.2,2.9l0,0C236.2,234.6,235.2,235,234.2,235z
					 M216.5,212.2c-0.3,0-0.6,0.1-0.7,0.3c-0.2,0.2-0.3,0.5-0.3,0.7s0.1,0.5,0.3,0.7l17.7,17.7c0.4,0.4,1.1,0.4,1.5,0
					c0.2-0.2,0.3-0.5,0.3-0.7c0-0.3-0.1-0.5-0.3-0.7l-17.7-17.7C217,212.3,216.8,212.2,216.5,212.2z"/>
			</g>
			<g>
				<path class="st0" d="M234.2,233.8c-0.8,0-1.5-0.3-2.1-0.9l-17.7-17.7c-1.1-1.1-1.1-3,0-4.1c1.1-1.1,3-1.1,4.1,0l17.7,17.7
					c1.1,1.1,1.1,3,0,4.1l0,0C235.6,233.5,234.9,233.8,234.2,233.8z M216.5,211.1c-0.6,0-1.1,0.2-1.5,0.6c-0.8,0.8-0.8,2.2,0,3.1
					l17.7,17.7c0.8,0.8,2.2,0.8,3.1,0c0.8-0.8,0.8-2.2,0-3.1L218,211.7C217.6,211.3,217.1,211.1,216.5,211.1z"/>
				<path class="st0" d="M234.2,235.3c-1.2,0-2.3-0.5-3.1-1.3l-17.7-17.7c-0.8-0.8-1.3-1.9-1.3-3.1c0-1.2,0.5-2.3,1.3-3.1
					c0.8-0.8,1.9-1.3,3.1-1.3c0,0,0,0,0,0c1.2,0,2.3,0.5,3.1,1.3l17.7,17.7c0.8,0.8,1.3,2,1.3,3.1c0,1.2-0.5,2.3-1.3,3.1
					C236.4,234.9,235.3,235.3,234.2,235.3z M216.5,212.6c-0.2,0-0.4,0.1-0.5,0.2c-0.3,0.3-0.3,0.7,0,0.9l17.7,17.7
					c0.3,0.3,0.7,0.3,1,0c0.2-0.2,0.2-0.7,0-0.9L217,212.8C216.8,212.7,216.7,212.6,216.5,212.6z"/>
			</g>
		</g>
	</g>
	<g>
		<g>
			<g>
				<path class="st0" d="M271.6,146.8c0,1.4-1.1,2.5-2.5,2.5h-25c-1.4,0-2.5-1.1-2.5-2.5s1.1-2.5,2.5-2.5h25
					C270.4,144.2,271.6,145.4,271.6,146.8z"/>
				<path class="st0" d="M269,150.8h-25c-2.2,0-4-1.8-4-4s1.8-4,4-4h25c0,0,0,0,0,0c1.1,0,2.1,0.4,2.8,1.2c0.8,0.8,1.2,1.8,1.2,2.9
					C273.1,149,271.2,150.8,269,150.8z M269,145.7C269,145.7,269,145.7,269,145.7h-25c-0.6,0-1,0.5-1,1s0.5,1,1,1h25
					c0.6,0,1-0.5,1-1c0-0.3-0.1-0.5-0.3-0.7C269.6,145.8,269.3,145.7,269,145.7z"/>
			</g>
			<g>
				<path class="st0" d="M269,149.7h-25c-1.6,0-2.9-1.3-2.9-2.9s1.3-2.9,2.9-2.9h25c1.6,0,2.9,1.3,2.9,2.9S270.6,149.7,269,149.7z
					 M244.1,144.6c-1.2,0-2.2,1-2.2,2.2s1,2.2,2.2,2.2h25c1.2,0,2.2-1,2.2-2.2s-1-2.2-2.2-2.2H244.1z"/>
				<path class="st0" d="M269,151.2h-25c-2.4,0-4.4-2-4.4-4.4s2-4.4,4.4-4.4h25c2.4,0,4.4,2,4.4,4.4S271.5,151.2,269,151.2z
					 M244,146.1c-0.4,0-0.7,0.3-0.7,0.7s0.3,0.7,0.7,0.7h25c0.4,0,0.7-0.3,0.7-0.7s-0.3-0.7-0.7-0.7H244z"/>
			</g>
		</g>
	</g>
	<g>
		<g>
			<g>
				<path class="st0" d="M236,64.4l-17.7,17.7c-1,1-2.6,1-3.6,0c-1-1-1-2.6,0-3.6l17.7-17.7c1-1,2.6-1,3.6,0
					C236.9,61.8,236.9,63.4,236,64.4z"/>
				<path class="st0" d="M216.5,84.3c-1.1,0-2.1-0.4-2.9-1.2c-0.8-0.8-1.2-1.8-1.2-2.9c0-1.1,0.4-2.1,1.2-2.9l17.7-17.7
					c1.6-1.6,4.1-1.6,5.7,0c0.8,0.8,1.2,1.8,1.2,2.8c0,1.1-0.4,2.1-1.2,2.9l-17.7,17.7C218.6,83.9,217.6,84.3,216.5,84.3
					C216.5,84.3,216.5,84.3,216.5,84.3z M234.2,61.6c-0.3,0-0.5,0.1-0.7,0.3l-17.7,17.7c-0.2,0.2-0.3,0.5-0.3,0.7s0.1,0.5,0.3,0.7
					c0.2,0.2,0.5,0.3,0.7,0.3c0,0,0,0,0,0c0.3,0,0.5-0.1,0.7-0.3l17.7-17.7c0.2-0.2,0.3-0.5,0.3-0.7c0-0.3-0.1-0.5-0.3-0.7
					C234.7,61.7,234.4,61.6,234.2,61.6z"/>
			</g>
			<g>
				<path class="st0" d="M216.5,83.2c-0.8,0-1.5-0.3-2.1-0.9c-0.6-0.6-0.9-1.3-0.9-2.1s0.3-1.5,0.9-2.1l17.7-17.7
					c1.1-1.1,3-1.1,4.1,0c0.6,0.5,0.9,1.3,0.9,2.1s-0.3,1.5-0.9,2.1l-17.7,17.7C218,82.9,217.3,83.2,216.5,83.2
					C216.5,83.2,216.5,83.2,216.5,83.2z M234.2,60.4c-0.6,0-1.1,0.2-1.5,0.6L215,78.7c-0.4,0.4-0.6,0.9-0.6,1.5s0.2,1.1,0.6,1.5
					c0.4,0.4,1,0.6,1.5,0.6c0.6,0,1.1-0.2,1.5-0.6l17.7-17.7c0.4-0.4,0.6-1,0.6-1.5s-0.2-1.1-0.6-1.5
					C235.3,60.6,234.7,60.4,234.2,60.4z"/>
				<path class="st0" d="M216.5,84.7L216.5,84.7c-1.2,0-2.3-0.5-3.1-1.3c-0.8-0.8-1.3-1.9-1.3-3.1s0.5-2.3,1.3-3.1L231,59.5
					c1.7-1.7,4.5-1.7,6.2,0c0.8,0.8,1.3,1.9,1.3,3.1c0,1.2-0.5,2.3-1.3,3.1l-17.7,17.7C218.8,84.2,217.7,84.7,216.5,84.7L216.5,84.7
					z M234.2,61.9c-0.1,0-0.3,0-0.5,0.2L216,79.8c-0.1,0.1-0.2,0.3-0.2,0.5s0.1,0.3,0.2,0.5c0.1,0.1,0.3,0.2,0.5,0.2
					c0.1,0,0.3,0,0.5-0.2L234.6,63c0.1-0.1,0.2-0.3,0.2-0.5s-0.1-0.3-0.2-0.5C234.5,62,234.3,61.9,234.2,61.9z"/>
			</g>
		</g>
	</g>
	<g>
		<g>
			<path class="st0" d="M201.7,190.2c13.1-13.7,20.4-31.8,20.4-50.9c0-40.3-32.3-73.1-72-73.1c-13.9,0-27.4,4-39,11.7
				C99.7,85.3,90.6,95.7,84.9,108c-0.3,0.6-0.3,1.3-0.1,1.9c0.2,0.6,0.7,1.2,1.3,1.4c0.6,0.3,1.3,0.3,1.9,0.1
				c0.6-0.2,1.2-0.7,1.4-1.3c11-23.6,34.8-38.9,60.5-38.9c36.9,0,66.9,30.5,66.9,68c0,17.8-6.7,34.6-18.9,47.4
				c-6.8,7.1-12.6,13.8-14,23.2l-0.2,1h-66.6l-0.2-0.9c-1.8-9.7-8.6-16.7-14.6-22.8c-12.5-12.8-19.3-29.8-19.3-47.8
				c0-4.4,0.4-8.9,1.3-13.2c0.3-1.4-0.6-2.7-2-3c-0.2,0-0.3-0.1-0.5-0.1c-1.2,0-2.3,0.8-2.5,2.1c-0.9,4.6-1.3,9.4-1.3,14.2
				c0,19.3,7.4,37.6,20.8,51.3c8,8.2,13.7,14.8,13.7,24.6l0.2,21.8c0,6.5,3.3,12.3,8.8,15.7l0.6,0.3v4.7c0,9.6,7.8,17.4,17.4,17.4
				h22.7c9.6,0,17.4-7.8,17.4-17.4v-4.7l0.6-0.3c5.5-3.4,8.8-9.2,8.8-15.7c0-9.2,0-23.1-0.1-24.3l0-0.1l0-0.2
				C189.5,203.5,195,197.1,201.7,190.2z M174.4,257.8c0,6.8-5.5,12.3-12.3,12.3h-22.7c-6.8,0-12.3-5.5-12.3-12.3v-2.8l1.3,0.2
				c0.9,0.1,1.7,0.2,2.6,0.2h39.5c0.8,0,1.7-0.1,2.6-0.2l1.3-0.2L174.4,257.8L174.4,257.8z M173.7,235.7h10.1v1.4
				c0,7.3-5.9,13.3-13.3,13.3H131c-7.3,0-13.3-5.9-13.3-13.3v-1.4h38.7c1.4,0,2.5-1.1,2.5-2.5s-1.1-2.5-2.5-2.5h-38.7v-14.7h65.9
				l0.1,14.7h-10.1c-1.4,0-2.5,1.1-2.5,2.5C171.2,234.5,172.3,235.7,173.7,235.7z M170.5,250.7H131c-7.5,0-13.6-6.1-13.6-13.6v-1.8
				h39.1c1.2,0,2.2-1,2.2-2.2s-1-2.2-2.2-2.2h-39.1v-15.4H184l0.1,15.4h-10.4c-1.2,0-2.2,1-2.2,2.2s1,2.2,2.2,2.2h10.4v1.8
				C184.1,244.6,178,250.7,170.5,250.7z M118.1,236.1v1c0,7.1,5.8,12.9,12.9,12.9h39.5c7.1,0,12.9-5.8,12.9-12.9v-1h-9.7
				c-1.6,0-2.9-1.3-2.9-2.9s1.3-2.9,2.9-2.9h9.7l-0.1-13.9h-65.2v13.9h38.3c1.6,0,2.9,1.3,2.9,2.9s-1.3,2.9-2.9,2.9H118.1z"/>
			<path class="st0" d="M162.1,276.7h-22.7c-10.4,0-18.9-8.5-18.9-18.9v-3.9c-5.9-3.7-9.4-10-9.4-16.9l-0.2-21.8
				c0-9.3-5.5-15.6-13.3-23.6c-13.7-14-21.2-32.6-21.2-52.4c0-4.9,0.5-9.8,1.4-14.5c0.4-1.9,2-3.3,4-3.3c0.2,0,0.5,0,0.8,0.1
				c1,0.2,1.9,0.8,2.5,1.7c0.6,0.9,0.8,2,0.6,3c-0.8,4.2-1.2,8.6-1.2,12.9c0,17.6,6.7,34.2,18.9,46.7c6.1,6.3,13,13.3,15,23.3h64.1
				c1.6-9.7,7.5-16.5,14.4-23.7c11.9-12.5,18.5-28.9,18.5-46.4c0-36.7-29.4-66.5-65.4-66.5c-25.2,0-48.4,14.9-59.2,38.1
				c-0.4,1-1.3,1.7-2.3,2.1c-1,0.4-2.1,0.3-3.1-0.1c-1-0.5-1.7-1.3-2.1-2.3c-0.4-1-0.3-2.1,0.1-3.1c5.9-12.6,15.1-23.2,26.6-30.8
				c11.9-7.8,25.7-11.9,39.9-11.9c40.5,0,73.5,33.5,73.5,74.6c0,19.5-7.4,37.9-20.8,51.9l0,0c-6.4,6.7-11.8,12.9-12.4,21.4l0,0
				l0,0.1c0,0.9,0.1,9.1,0.1,24.4c0,6.9-3.5,13.2-9.4,16.9v3.9C181,268.2,172.5,276.7,162.1,276.7z M81.9,124.5
				c-0.5,0-0.9,0.4-1,0.9c-0.9,4.5-1.3,9.2-1.3,13.9c0,19,7.2,36.8,20.3,50.3c8.3,8.5,14.1,15.3,14.1,25.7l0.2,21.8
				c0,5.9,3,11.3,8.1,14.4l1.3,0.8v5.6c0,8.7,7.1,15.9,15.9,15.9h22.7c8.7,0,15.9-7.1,15.9-15.9v-5.6l1.3-0.8
				c5.1-3.1,8.1-8.5,8.1-14.4c0-18.4,0-23.4-0.1-24.2l0-0.3l0-0.2c0.7-9.5,6.5-16.2,13.3-23.3l0,0c12.9-13.4,19.9-31.2,19.9-49.9
				c0-39.5-31.6-71.6-70.5-71.6c-13.6,0-26.8,3.9-38.2,11.4c-11.1,7.3-19.9,17.5-25.6,29.6c-0.1,0.3-0.1,0.5,0,0.8
				c0.1,0.3,0.3,0.5,0.5,0.6c0.2,0.1,0.5,0.2,0.8,0c0.3-0.1,0.5-0.3,0.6-0.5c11.3-24.2,35.6-39.8,61.9-39.8
				c37.7,0,68.4,31.2,68.4,69.5c0,18.2-6.9,35.4-19.4,48.4c-6.6,6.9-12.2,13.4-13.6,22.4l-0.4,2.3H116l-0.4-2.2
				c-1.8-9.3-8.4-16.1-14.2-22.1c-12.7-13.1-19.8-30.4-19.8-48.8c0-4.6,0.4-9.1,1.3-13.5c0.1-0.3,0-0.5-0.2-0.8
				c-0.2-0.2-0.4-0.4-0.7-0.4C81.9,124.5,81.9,124.5,81.9,124.5z M162.1,271.6h-22.7c-7.6,0-13.8-6.2-13.8-13.8v-4.5l3,0.4
				c0.8,0.1,1.6,0.2,2.3,0.2h39.5c0.8,0,1.6-0.1,2.3-0.2l3-0.4l0,4.5C175.9,265.4,169.7,271.6,162.1,271.6z M128.6,256.8v1
				c0,5.9,4.8,10.8,10.8,10.8h22.7c5.8,0,10.5-4.6,10.8-10.3v-1.5c-0.8,0.1-1.6,0.1-2.4,0.1H131
				C130.2,256.9,129.4,256.9,128.6,256.8z M170.5,252.2H131c-8.3,0-15.1-6.8-15.1-15.1v-3.3h40.6c0.4,0,0.7-0.3,0.7-0.7
				s-0.3-0.7-0.7-0.7h-40.6V214h69.6l0.2,18.4h-12c-0.4,0-0.7,0.3-0.7,0.7s0.3,0.7,0.7,0.7h11.9v3.3
				C185.6,245.4,178.8,252.2,170.5,252.2z M119.6,237.5c0.2,6.1,5.3,10.9,11.4,10.9h39.5c6.1,0,11.1-4.9,11.4-10.9h-8.2
				c-2.4,0-4.4-2-4.4-4.4s2-4.4,4.4-4.4h8.2l-0.1-10.9h-62.2v10.9h36.8c2.4,0,4.4,2,4.4,4.4s-2,4.4-4.4,4.4H119.6z"/>
		</g>
	</g>
	<g>
		<g>
			<g>
				<path class="st0" d="M186.4,134.1l-7.3,9.4c-0.4,0.5-1,0.9-1.7,1c-0.7,0.1-1.3-0.1-1.9-0.5c-0.5-0.4-0.9-1-1-1.7
					c-0.1-0.7,0.1-1.3,0.5-1.9l7.3-9.4c0.9-1.1,1.3-2.6,1.1-4.2c-0.2-1.5-1-2.9-2.1-3.7c-1.1-0.9-2.6-1.3-4.2-1.1
					c-1.5,0.2-2.9,1-3.7,2.1l-26.7,34.3c-0.4,0.6-1.1,0.9-1.9,0.9c-0.8,0-1.5-0.2-2-0.8l-16.7-18.5c-2.1-2.3-5.6-2.5-7.9-0.4
					c-1.1,1-1.8,2.4-1.8,3.9c-0.1,1.5,0.4,2.9,1.4,4.1l23.2,25.7c1.1,1.2,2.6,1.9,4.4,1.9c1.7-0.1,3.3-0.9,4.2-2.1l14.7-18.9
					c0.4-0.5,1-0.9,1.7-1c0.7-0.1,1.3,0.1,1.9,0.5c1.1,0.9,1.3,2.5,0.4,3.6l-14.7,18.9c-1.8,2.5-4.7,3.9-8,4.1s-6.3-1.1-8.4-3.5
					l-23.2-25.7c-1.9-2.1-2.9-4.9-2.8-7.7c0.1-2.9,1.4-5.5,3.5-7.4c2.1-1.9,4.6-2.8,7.2-2.8c2.9,0,5.8,1.2,7.9,3.5l14.6,16.2
					l24.8-31.9c1.8-2.2,4.3-3.7,7.1-4.1c2.8-0.4,5.6,0.4,7.9,2.2c2.2,1.8,3.7,4.3,4.1,7.1C188.9,129.1,188.1,131.9,186.4,134.1z"/>
				<path class="st0" d="M145.2,181.7c-3.5,0-6.8-1.4-9-4L113,152.1c-2.2-2.4-3.3-5.5-3.1-8.8c0.2-3.2,1.6-6.2,4-8.4
					c2.3-2,5.2-3.1,8.2-3.1c3.4,0,6.7,1.5,9.1,4l13.5,14.9l23.7-30.5c2-2.6,4.9-4.2,8.1-4.6c3.2-0.4,6.4,0.5,9,2.5
					c2.6,2,4.2,4.9,4.6,8.1c0.5,3.2-0.4,6.4-2.4,9l-7.3,9.4c-0.7,0.8-1.6,1.4-2.7,1.5c-1.1,0.1-2.1-0.1-3-0.8
					c-0.8-0.6-1.4-1.6-1.5-2.7c-0.1-1.1,0.2-2.1,0.8-3l7.3-9.4c0.7-0.8,1-1.9,0.8-3.1c-0.1-1.1-0.7-2.1-1.5-2.7
					c-0.9-0.7-2-1-3.1-0.9c-1.1,0.1-2.1,0.7-2.7,1.5L148,159.4c-0.6,0.9-1.8,1.5-3,1.5c-1.2,0.1-2.4-0.4-3.2-1.3l-16.7-18.4
					c-0.7-0.8-1.7-1.3-2.8-1.3c-1.1-0.1-2.1,0.3-3,1c-0.8,0.7-1.3,1.8-1.4,2.8c-0.1,1.1,0.3,2.2,1.1,3l23.2,25.7
					c0.8,0.9,2,1.4,3.2,1.4c1.3-0.1,2.4-0.6,3.1-1.5l14.7-18.9c0.7-0.8,1.6-1.4,2.7-1.5c1.1-0.1,2.1,0.2,3,0.8
					c1.8,1.4,2.1,3.9,0.7,5.7l-14.7,18.9c-2.1,2.8-5.4,4.5-9.1,4.6C145.6,181.7,145.4,181.7,145.2,181.7z M122,134.7
					c-2.3,0-4.5,0.8-6.2,2.4c-1.8,1.6-2.9,3.9-3,6.4c-0.1,2.5,0.7,4.8,2.4,6.6l23.2,25.7c1.7,2,4.3,3.1,7.2,3
					c2.8-0.1,5.3-1.4,6.9-3.5l14.7-18.9c0.4-0.5,0.3-1.1-0.2-1.5c-0.2-0.2-0.5-0.2-0.8-0.2c-0.3,0-0.5,0.2-0.7,0.4L150.9,174
					c-1.2,1.6-3.2,2.6-5.3,2.7c-2.2,0.1-4.2-0.8-5.6-2.4l-23.2-25.6c-1.3-1.4-1.9-3.2-1.8-5.1c0.1-1.9,0.9-3.6,2.3-4.9
					c1.4-1.3,3.2-1.9,5.1-1.8c1.9,0.1,3.6,0.9,4.9,2.3l16.7,18.5c0.3,0.3,0.6,0.3,0.8,0.3c0.3,0,0.6-0.1,0.7-0.3l26.7-34.4
					c1.1-1.5,2.8-2.4,4.7-2.7c1.9-0.2,3.9,0.3,5.3,1.5c1.4,1,2.4,2.8,2.6,4.7c0.2,1.9-0.3,3.9-1.5,5.3l-7.3,9.4
					c-0.2,0.2-0.2,0.5-0.2,0.8c0,0.3,0.2,0.5,0.4,0.7c0.2,0.2,0.5,0.3,0.8,0.2c0.3,0,0.5-0.2,0.7-0.4l7.3-9.5c1.5-2,2.2-4.4,1.8-6.7
					c-0.3-2.5-1.5-4.6-3.5-6.1c-1.9-1.5-4.3-2.2-6.8-1.9c-2.4,0.3-4.6,1.5-6.1,3.5l-25.9,33.3l-15.9-17.5
					C127.1,135.8,124.6,134.7,122,134.7z"/>
			</g>
			<g>
				<path class="st0" d="M145.3,180.6c-3.2,0-6.2-1.3-8.2-3.6l-23.2-25.7c-2-2.2-3-5-2.8-8c0.2-2.9,1.4-5.7,3.6-7.7
					c2-1.8,4.7-2.9,7.4-2.9c3.1,0,6.1,1.3,8.2,3.6l14.4,15.9l24.5-31.6c1.8-2.3,4.4-3.8,7.4-4.2c2.9-0.4,5.8,0.4,8.2,2.2
					s3.8,4.4,4.2,7.4c0.4,2.9-0.4,5.8-2.2,8.2l0,0l-7.3,9.4c-0.5,0.6-1.2,1-1.9,1.1c-0.8,0.1-1.5-0.1-2.2-0.6
					c-0.6-0.5-1-1.1-1.1-1.9c-0.1-0.8,0.1-1.5,0.6-2.2l7.3-9.4c0.9-1.1,1.2-2.5,1.1-3.9c-0.2-1.4-0.9-2.7-1.9-3.5
					c-1.1-0.8-2.5-1.2-3.9-1.1c-1.4,0.2-2.7,0.9-3.5,2l-26.7,34.3c-0.5,0.6-1.3,1.1-2.2,1.1c-0.9,0.1-1.7-0.3-2.3-0.9l-16.7-18.5
					c-1.9-2.1-5.2-2.3-7.4-0.4c-1,0.9-1.7,2.2-1.7,3.6c-0.1,1.4,0.4,2.8,1.3,3.8l23.2,25.7c1,1.2,2.5,1.8,4.1,1.7
					c1.6-0.1,3.1-0.8,3.9-2l14.7-18.9c0.5-0.6,1.2-1,1.9-1.1c0.8-0.1,1.6,0.1,2.2,0.6c1.3,1,1.5,2.8,0.5,4.1L154,176.4
					c-1.9,2.5-4.9,4.1-8.3,4.2C145.6,180.6,145.4,180.6,145.3,180.6z M122.1,133.6c-2.6,0-5,0.9-6.9,2.7c-2,1.9-3.2,4.4-3.4,7.1
					c-0.2,2.8,0.8,5.4,2.7,7.4l23.2,25.7c1.9,2.3,4.9,3.5,8.1,3.4c3.2-0.1,6-1.6,7.7-3.9l14.7-18.9c0.7-0.9,0.6-2.3-0.4-3.1
					c-0.4-0.4-1-0.5-1.6-0.4c-0.6,0.1-1.1,0.4-1.4,0.8L150,173.3c-1,1.4-2.7,2.2-4.5,2.3c-1.8,0.1-3.6-0.7-4.7-2l-23.2-25.6
					c-1.1-1.2-1.6-2.7-1.5-4.3c0.1-1.6,0.8-3.1,2-4.1c2.4-2.2,6.2-2,8.4,0.4l16.7,18.5c0.4,0.5,1,0.7,1.7,0.7c0.7,0,1.3-0.3,1.6-0.8
					l26.7-34.3c0.9-1.2,2.4-2.1,4-2.3c1.6-0.2,3.2,0.2,4.4,1.2c1.2,0.9,2,2.3,2.2,4c0.2,1.6-0.2,3.2-1.2,4.4l-7.3,9.4
					c-0.4,0.5-0.5,1-0.4,1.6c0.1,0.6,0.4,1.1,0.8,1.4c0.5,0.4,1,0.5,1.6,0.4c0.6-0.1,1.1-0.4,1.4-0.8l7.3-9.4
					c1.7-2.2,2.4-4.9,2.1-7.6c-0.3-2.7-1.7-5.2-3.9-6.9c-2.2-1.7-4.9-2.4-7.6-2.1c-2.7,0.3-5.2,1.7-6.9,3.9l-25.1,32.3l-15-16.6
					C127.8,134.8,125,133.6,122.1,133.6z"/>
				<path class="st0" d="M145.6,182.1l-0.1,0l-0.2,0c-3.6,0-7-1.5-9.3-4.1l-23.2-25.7c-2.3-2.5-3.4-5.7-3.2-9.1
					c0.2-3.4,1.6-6.4,4.1-8.7c2.3-2.1,5.3-3.2,8.4-3.2c3.6,0,7,1.5,9.3,4.1l13.1,14.6l23.4-30.1c2.1-2.7,5-4.3,8.4-4.8
					c3.3-0.4,6.6,0.5,9.3,2.5c2.6,2.1,4.3,5,4.8,8.4c0.4,3.3-0.5,6.6-2.5,9.3l-7.3,9.4c-0.7,0.9-1.8,1.5-3,1.7
					c-1.1,0.2-2.3-0.2-3.2-0.9c-0.9-0.7-1.5-1.7-1.7-2.9c-0.1-1.2,0.2-2.3,0.9-3.3l7.3-9.4c0.6-0.8,0.9-1.8,0.8-2.8
					c-0.1-1-0.6-1.9-1.4-2.5c-0.8-0.6-1.8-0.9-2.8-0.8c-1,0.1-1.9,0.6-2.5,1.4l-26.7,34.4c-0.7,1-1.9,1.6-3.3,1.7
					c-1.3,0.1-2.6-0.5-3.5-1.5l-16.7-18.4c-1.4-1.5-3.7-1.6-5.3-0.3c-0.7,0.7-1.2,1.6-1.2,2.6c0,1,0.3,2,1,2.7l23.2,25.7
					c0.7,0.8,1.8,1.3,2.9,1.2c1.2,0,2.2-0.6,2.8-1.4l14.7-18.9c0.7-0.9,1.8-1.5,2.9-1.7c1.2-0.1,2.3,0.2,3.3,0.9
					c1.9,1.5,2.3,4.3,0.8,6.2l-14.7,18.9c-2.1,2.9-5.5,4.6-9.4,4.8L145.6,182.1z M122.1,135.1c-2.2,0-4.3,0.8-5.9,2.3
					c-1.7,1.6-2.8,3.7-2.9,6.1c-0.1,2.4,0.7,4.6,2.3,6.4l23.2,25.7c1.7,1.9,4.2,2.9,6.9,2.9c2.7-0.1,5.1-1.3,6.6-3.3l14.7-18.9
					c0.2-0.3,0.2-0.7-0.1-1c-0.1-0.1-0.3-0.1-0.5-0.1c-0.1,0-0.3,0.1-0.4,0.2l-14.7,18.9c-1.3,1.7-3.3,2.8-5.6,2.9
					c-2.3,0.1-4.5-0.8-5.9-2.5l-23.2-25.6c-1.3-1.5-2-3.4-1.9-5.4c0.1-2,1-3.8,2.5-5.2c1.5-1.3,3.4-2,5.4-1.9c2,0.1,3.8,1,5.2,2.5
					l16.7,18.5c0.1,0.1,0.3,0.2,0.5,0.2c0.3,0,0.4-0.1,0.5-0.2L172,123c1.2-1.5,3-2.6,5-2.8c2-0.2,4.1,0.3,5.6,1.5
					c1.5,1.1,2.5,2.9,2.8,4.9c0.3,2-0.3,4.1-1.5,5.6l-7.3,9.4c-0.1,0.1-0.2,0.3-0.1,0.5c0,0.2,0.2,0.4,0.2,0.4
					c0.2,0.1,0.3,0.2,0.5,0.1c0.2,0,0.3-0.1,0.5-0.2l7.3-9.5c1.4-1.9,2.1-4.2,1.8-6.5c-0.3-2.3-1.5-4.4-3.3-5.9
					c-1.9-1.4-4.2-2.1-6.5-1.8c-2.3,0.3-4.4,1.5-5.9,3.3l-26.1,33.7L128.6,138C127,136.1,124.6,135.1,122.1,135.1z"/>
			</g>
		</g>
	</g>
</g>
</svg>
