<?xml version="1.0" encoding="utf-8"?>
<!-- Generator: Adobe Illustrator 26.3.1, SVG Export Plug-In . SVG Version: 6.00 Build 0)  -->
<svg version="1.1" id="Layer_1" xmlns="http://www.w3.org/2000/svg" xmlns:xlink="http://www.w3.org/1999/xlink" x="0px" y="0px"
	 viewBox="0 0 300 300" style="enable-background:new 0 0 300 300;" xml:space="preserve">
<style type="text/css">
	.st0{fill:#FFFFFF;}
</style>
<g>
	<g>
		<path class="st0" d="M271.1,119.8l-0.2-0.6c-2.5-5.5-6.5-8.4-12.3-8.7H43.9c-4.7,0-7.7,0.9-10.2,2.9c-3.7,3-5.4,6.8-5.4,11.6
			v129.7c0,10.2,2.4,13.8,11.8,17.1h220c5.1-1.4,8.4-3.8,10.2-7.7c0.5-1.3,1-2.7,1.5-4V121.9C271.5,121.2,271.3,120.5,271.1,119.8z
			 M266.1,256.1c0,6.8-3.2,9.9-10,9.9H44c-7,0-10-3-10-10.1V126.4c0-7.2,2.9-10.2,10.1-10.2H150c34.8,0,70.8,0,106.2-0.1
			c6.9,0,9.9,3.1,9.9,10V256.1z"/>
	</g>
	<g>
		<path class="st0" d="M271.7,40.1c-3.7-9.7-6.8-11.8-17.3-11.8H41.5c-7.2,0.3-13.1,6.1-13.2,13c-0.1,7.2-0.1,14.5,0,21.6
			c0,3.6,0,7.2,0,10.8c0,0.5,0.1,1,0.2,1.4c1.4,7.3,7,11.7,14.9,11.7h215c5.2-0.3,9.1-2.7,11.6-7.1c0.5-0.9,0.8-1.9,1.2-2.9
			c0.2-0.6,0.4-1.1,0.6-1.7C271.8,63.6,271.8,51.7,271.7,40.1z M266.1,71.3c0,6.6-3.1,9.8-9.6,9.8H43.7c-6.5,0-9.7-3.2-9.7-9.7V43.7
			c0-6.7,3.2-9.8,9.9-9.8H150c34.6,0,70.4,0,105.7-0.1c7.5,0,10.4,2.9,10.4,10.5V71.3z"/>
	</g>
	<g>
		<path class="st0" d="M226.3,142.7h-59.9c-8.2,0-13.3,5.1-13.3,13.3v70.1c0,8.2,5.1,13.3,13.2,13.3h59.9c8.2,0,13.3-5.1,13.3-13.3
			V156C239.5,147.8,234.4,142.7,226.3,142.7z M233.8,225.3c0,6-2.5,8.4-8.5,8.4h-58.2c-5.8,0-8.3-2.5-8.3-8.3v-68.8
			c0-5.5,2.5-8.1,8-8.1h58.9c5.5,0,8.1,2.5,8.1,8V225.3z"/>
	</g>
	<g>
		<path class="st0" d="M127.8,156.2c-0.5,1.7-1.7,2.5-3.5,2.5H64.6c-0.8,0-1.5,0-2.2-0.1c-2-0.2-3.3-1.6-3.3-3.4
			c0-1.9,1.3-3.4,3.1-3.7c0.9-0.1,2-0.1,3.2-0.1c18.9,0,38.5,0,57.7,0.1c1.2,0,2.6,0.4,3.7,1.1C128.4,153.6,128.1,155.3,127.8,156.2
			z"/>
	</g>
	<g>
		<path class="st0" d="M127.7,187.1c-0.5,1.6-1.6,2.4-3.5,2.4h-21.4c-3.1,0.1-6.2,0.1-9.4,0.1H62.5c-2-0.2-3.4-1.6-3.5-3.6
			c0-2,1.4-3.5,3.5-3.6c0.4,0,0.9,0,1.3,0c0.4,0,0.9,0,1.3,0c0.5,0,0.9,0,1.4,0H123c1.2,0,2.6,0.4,3.5,0.9
			C128.2,184.3,127.9,186.1,127.7,187.1z"/>
	</g>
	<g>
		<path class="st0" d="M127.8,217.7c-0.4,1.6-1.7,2.5-3.5,2.5c-2.2,0-4.3,0-6.5,0c-2.2,0-4.3,0-6.5,0c-2.2,0-4.3,0-6.5,0
			c-3.8,0.2-7.6,0.2-11.3,0.2H64.6c-0.8,0-1.5,0-2.2-0.1c-2-0.2-3.3-1.6-3.3-3.4c-0.1-1.9,1.2-3.4,3.1-3.7c0.5-0.1,1.1-0.1,1.7-0.1
			h59.2c1.2,0,2.3,0.2,3.1,0.6C127.6,214.3,128.2,216.2,127.8,217.7z"/>
	</g>
</g>
</svg>
