<?xml version="1.0" encoding="utf-8"?>
<!-- Generator: Adobe Illustrator 26.3.1, SVG Export Plug-In . SVG Version: 6.00 Build 0)  -->
<svg version="1.1" id="Layer_1" xmlns="http://www.w3.org/2000/svg" xmlns:xlink="http://www.w3.org/1999/xlink" x="0px" y="0px"
	 viewBox="0 0 300 300" style="enable-background:new 0 0 300 300;" xml:space="preserve">
<style type="text/css">
	.st0{fill:#00457F;}
</style>
<g>
	<g>
		<g>
			<path class="st0" d="M227.4,213.9c0,7.5-6.1,13.6-13.6,13.6c-1.9,0-3.7-0.4-5.3-1.1c-1.7-0.7-3.3-1.8-4.5-3.2
				c-2.3-2.4-3.7-5.7-3.7-9.3c0-7.5,6.1-13.6,13.6-13.6c3.6,0,6.9,1.4,9.3,3.7c1.4,1.3,2.4,2.8,3.2,4.6
				C227,210.2,227.4,212,227.4,213.9z"/>
			<path class="st0" d="M213.8,229c-2.1,0-4.1-0.4-5.9-1.2c-1.9-0.8-3.6-2-5-3.5c-2.6-2.8-4.1-6.5-4.1-10.3
				c0-8.3,6.8-15.1,15.1-15.1c3.9,0,7.5,1.5,10.4,4.1c1.5,1.4,2.7,3.1,3.5,5c0.8,1.9,1.2,3.9,1.2,5.9
				C228.9,222.2,222.1,229,213.8,229z M213.8,201.8c-6.7,0-12.1,5.4-12.1,12.1c0,3.1,1.2,6,3.3,8.3c1.1,1.2,2.5,2.2,4,2.8
				c1.5,0.7,3.1,1,4.8,1c6.7,0,12.1-5.4,12.1-12.1c0-1.6-0.3-3.2-1-4.8c-0.7-1.5-1.6-2.9-2.8-4C219.9,203,216.9,201.8,213.8,201.8z"
				/>
		</g>
		<path class="st0" d="M227,208.2c-0.8-1.8-1.9-3.5-3.4-4.8c-2.7-2.5-6.2-3.9-9.9-3.9c-7.9,0-14.4,6.5-14.4,14.4
			c0,3.7,1.4,7.2,3.9,9.9c1.3,1.4,3,2.6,4.8,3.4c1.8,0.8,3.7,1.2,5.7,1.2c8,0,14.4-6.5,14.4-14.4C228.2,211.9,227.8,210,227,208.2z
			 M208.8,225.7c-1.6-0.7-3.1-1.7-4.3-3c-2.2-2.4-3.5-5.5-3.5-8.8c0-7.1,5.7-12.8,12.8-12.8c3.3,0,6.4,1.2,8.8,3.5
			c1.3,1.2,2.3,2.6,3,4.3c0.7,1.6,1,3.3,1,5c0,7.1-5.7,12.8-12.8,12.8C212.1,226.7,210.4,226.4,208.8,225.7z M213.8,228.2
			c-2,0-3.9-0.4-5.6-1.2c-1.8-0.8-3.4-1.9-4.8-3.4c-2.5-2.7-3.9-6.1-3.9-9.8c0-7.9,6.4-14.3,14.3-14.3c3.7,0,7.1,1.4,9.8,3.9
			c1.4,1.3,2.6,2.9,3.3,4.8c0.8,1.8,1.2,3.7,1.2,5.6C228.1,221.8,221.7,228.2,213.8,228.2z M213.8,202.6c-6.2,0-11.3,5.1-11.3,11.3
			c0,2.9,1.1,5.6,3.1,7.7c1.1,1.1,2.4,2,3.8,2.7l0,0c1.4,0.6,2.9,0.9,4.4,0.9c6.2,0,11.3-5.1,11.3-11.3c0-1.5-0.3-3-0.9-4.4
			c-0.6-1.5-1.5-2.7-2.6-3.8C219.4,203.7,216.7,202.6,213.8,202.6z"/>
	</g>
	<g>
		<g>
			<path class="st0" d="M95.6,213.7c0,2.6-0.8,5.1-2.1,7.2c-1,1.6-2.2,2.9-3.7,3.9c-2.2,1.6-4.9,2.5-7.8,2.5
				c-7.5,0-13.6-6.1-13.6-13.6c0-3,1-5.8,2.7-8.1c1.1-1.5,2.4-2.7,4-3.6c2-1.2,4.4-1.9,6.9-1.9C89.5,200.1,95.6,206.2,95.6,213.7z"
				/>
			<path class="st0" d="M82,228.8c-8.3,0-15.1-6.8-15.1-15.1c0-3.3,1-6.4,3-9c1.2-1.6,2.7-3,4.5-4c2.3-1.4,5-2.1,7.7-2.1
				c8.3,0,15.1,6.8,15.1,15.1c0,2.8-0.8,5.6-2.3,8c-1.1,1.7-2.5,3.2-4.1,4.3C88.2,227.9,85.2,228.8,82,228.8z M82,201.6
				c-2.2,0-4.3,0.6-6.1,1.7c-1.4,0.8-2.6,1.9-3.6,3.2c-1.6,2.1-2.4,4.6-2.4,7.2c0,6.7,5.4,12.1,12.1,12.1c2.5,0,4.9-0.8,6.9-2.2
				c1.3-0.9,2.5-2.1,3.3-3.5c1.2-1.9,1.9-4.1,1.9-6.4C94.1,207.1,88.7,201.6,82,201.6z"/>
		</g>
		<path class="st0" d="M82,199.3c-2.6,0-5.1,0.7-7.3,2c-1.7,1-3.1,2.3-4.2,3.8c-1.9,2.5-2.8,5.5-2.8,8.6c0,7.9,6.5,14.4,14.4,14.4
			c3,0,5.8-0.9,8.3-2.6c1.6-1.1,2.9-2.5,3.9-4.2c1.4-2.3,2.2-4.9,2.2-7.6C96.4,205.8,90,199.3,82,199.3z M82,226.5
			c-7.1,0-12.8-5.7-12.8-12.8c0-2.8,0.9-5.4,2.5-7.6c1-1.4,2.3-2.5,3.8-3.4c2-1.2,4.2-1.8,6.5-1.8c7.1,0,12.8,5.7,12.8,12.8
			c0,2.4-0.7,4.8-2,6.8c-0.9,1.5-2.1,2.7-3.5,3.7C87.2,225.7,84.7,226.5,82,226.5z M82,228c-7.9,0-14.3-6.4-14.3-14.3
			c0-3.1,1-6,2.8-8.5c1.1-1.5,2.6-2.8,4.2-3.8c2.2-1.3,4.7-2,7.3-2c7.9,0,14.3,6.4,14.3,14.3c0,2.7-0.8,5.3-2.2,7.6
			c-1,1.6-2.3,3-3.9,4.1C87.8,227.1,85,228,82,228z M82,202.4c-2,0-4,0.5-5.7,1.6c-1.3,0.8-2.4,1.8-3.3,3c-1.5,2-2.2,4.3-2.2,6.7
			c0,6.2,5.1,11.3,11.3,11.3c2.3,0,4.6-0.7,6.5-2c1.2-0.9,2.3-2,3.1-3.3c1.1-1.8,1.7-3.9,1.7-6C93.3,207.5,88.3,202.4,82,202.4z"/>
	</g>
	<g>
		<path class="st0" d="M271.9,175.8c-1.9-8.6-4.6-17.2-8.2-25.8v0c-1-2.3-2-4.7-3.1-7v0c-9.9-21.4-24.6-42.2-43.1-60.6
			c-13.8-13.8-29-25.6-44.7-34.7c-0.6,1.7-1.4,3.3-2.4,4.9c15.2,8.9,29.9,20.3,43.3,33.7c19.4,19.4,34.5,41.4,44.1,63.8v0l0,0
			c1,2.3,1.9,4.6,2.8,7v0l0,0c2.5,6.6,4.5,13.3,5.9,19.9c6.8,30.9,1.3,57.3-15.6,74.1s-43.2,22.4-74.1,15.6
			c-6.6-1.5-13.3-3.5-19.9-5.9h0c-2.3-0.9-4.6-1.8-7-2.8h0c-16.6-7.1-33-17.2-48.2-29.9c-1.1,1.5-2.3,2.8-3.7,4
			c14.2,11.8,29.4,21.5,44.9,28.7v0h0c2.3,1.1,4.6,2.1,7,3h0c8.6,3.5,17.2,6.3,25.8,8.2c9,2,17.7,3,25.9,3c21.6,0,40-6.8,53.2-20
			C273.1,236.8,279.2,208.7,271.9,175.8z M124.2,28.2c-32.8-7.2-60.9-1.2-79.1,17c-18.2,18.2-24.3,46.3-17,79.1
			c1.9,8.6,4.6,17.2,8.2,25.8l0,0v0c1,2.3,2,4.7,3,7c6.4,13.8,14.7,27.3,24.8,40.1c1.2-1.3,2.6-2.5,4.1-3.5
			c-10.9-13.9-19.7-28.6-26.1-43.5v0c-1-2.3-1.9-4.6-2.8-7v0c-2.5-6.6-4.5-13.3-5.9-19.9C26.5,92.2,32,65.9,48.9,49
			c12.2-12.2,29.2-18.4,49.4-18.4c7.8,0,16.1,0.9,24.7,2.8c1,0.2,2,0.5,3.1,0.7c0.4-1.8,1-3.5,1.8-5.1
			C126.7,28.7,125.5,28.4,124.2,28.2z"/>
		<path class="st0" d="M201.7,276.5c-8.4,0-17.2-1-26.3-3c-8.5-1.9-17.2-4.6-25.8-8.2l-0.2-0.1c-2.1-0.9-4.3-1.8-6.7-2.9h-1.2l0-0.6
			c-15.4-7.2-30.3-16.8-44.4-28.5l-1.4-1.1l1.3-1.2c1.3-1.1,2.4-2.4,3.4-3.7l0.9-1.3l1.2,1c15.1,12.5,31.1,22.5,47.6,29.6h0l0.3,0.1
			c2,0.9,4.2,1.8,6.7,2.7l0.2,0.1c6.7,2.5,13.3,4.5,19.7,5.9c30.4,6.7,56.2,1.3,72.8-15.2c16.5-16.5,21.9-42.3,15.2-72.8
			c-1.4-6.4-3.3-12.9-5.8-19.4l-0.2-0.2l0-0.4c-0.8-2.2-1.7-4.3-2.6-6.4l-0.2-0.2l0-0.3c-9.6-22.3-24.7-44.1-43.7-63
			c-13.3-13.3-27.7-24.5-43-33.5l-1.3-0.8l0.8-1.3c0.9-1.4,1.7-3,2.3-4.6l0.6-1.7l1.6,0.9c16,9.3,31.1,21.1,45,35
			c18.4,18.4,33.4,39.5,43.4,61.1l0.1,0.3c1,2.2,2,4.5,2.9,6.7l0.1,0.3c3.5,8.6,6.2,17.2,8.1,25.7c7.4,33.3,1.2,61.9-17.4,80.5
			C242.6,269.4,223.8,276.5,201.7,276.5z M150.3,262.3L150.3,262.3l0.3,0.1c8.5,3.5,17.1,6.2,25.5,8.1c8.8,2,17.5,2.9,25.6,2.9
			c21.3,0,39.3-6.8,52.1-19.6c17.9-17.8,23.8-45.5,16.6-77.7l0,0c-1.9-8.4-4.6-17-8.1-25.5l-0.1-0.3c-0.9-2.2-1.9-4.5-2.9-6.6
			l-0.1-0.3c-9.8-21.1-24.6-41.8-42.6-59.9c-13.2-13.2-27.7-24.5-42.9-33.6c-0.3,0.7-0.7,1.5-1.1,2.2c15,8.9,29.2,20.1,42.3,33.2
			c19.3,19.3,34.7,41.5,44.4,64.2l0,0.1c1,2.2,1.9,4.6,2.8,6.9l0,0.1c2.5,6.7,4.5,13.5,6,20.1c6.9,31.4,1.3,58.3-16,75.5
			c-17.3,17.3-44.1,22.9-75.5,16c-6.5-1.4-13.2-3.4-19.9-5.9h0l-0.3-0.1c-2.5-0.9-4.7-1.8-6.8-2.7l-0.3-0.1
			c-16.4-7-32.4-16.8-47.4-29.1c-0.5,0.6-1,1.2-1.6,1.8c13.8,11.3,28.3,20.5,43.3,27.4l0.9,0.4C146.6,260.8,148.5,261.6,150.3,262.3
			z M64,199.5l-1.1-1.4c-10.2-12.9-18.6-26.5-25-40.4c-1-2.2-2-4.5-3-7l0-0.1c-3.6-8.7-6.4-17.4-8.2-26C19.2,91.3,25.4,62.8,44,44.1
			c18.6-18.6,47.2-24.8,80.5-17.4l0,0c1.2,0.3,2.5,0.6,3.7,0.9L130,28l-0.8,1.7c-0.7,1.5-1.3,3.1-1.6,4.8l-0.3,1.5l-1.5-0.4
			c-1-0.3-2-0.5-3.1-0.7c-8.5-1.9-16.7-2.8-24.4-2.8c-19.8,0-36.6,6.2-48.3,18c-16.5,16.5-21.9,42.3-15.2,72.8
			c1.4,6.5,3.4,13.2,5.9,19.7l0.1,0.3c0.9,2.3,1.8,4.6,2.7,6.7l0.1,0.3c6.3,14.8,15,29.2,25.8,42.9l1,1.3l-1.3,0.9
			c-1.4,1-2.7,2.1-3.8,3.3L64,199.5z M37.7,149.8c1,2.4,1.9,4.5,2.9,6.7c6.1,13.2,14,26.1,23.6,38.5c0.6-0.6,1.2-1.1,1.8-1.6
			c-10.6-13.6-19.1-28-25.4-42.7l-0.1-0.3c-0.9-2.1-1.8-4.4-2.7-6.7l-0.1-0.3c-2.5-6.6-4.5-13.3-5.9-19.9C24.9,92,30.6,65.2,47.9,48
			c12.4-12.4,29.8-18.9,50.5-18.9c7.9,0,16.4,1,25.1,2.9c0.6,0.1,1.1,0.2,1.7,0.4c0.2-0.8,0.5-1.5,0.8-2.3c-0.6-0.2-1.3-0.3-1.9-0.4
			C91.6,22.5,64,28.4,46.2,46.3C28.3,64.1,22.4,91.7,29.5,124c1.8,8.3,4.5,16.8,8,25.3l0.2,0.2L37.7,149.8z"/>
	</g>
	<g>
		<g>
			<path class="st0" d="M163.6,39.4c0,1-0.1,2.1-0.3,3c-0.4,1.8-1.2,3.5-2.2,4.9c-2.5,3.4-6.5,5.7-11,5.7s-8.6-2.2-11-5.7
				c-1.1-1.5-1.8-3.1-2.2-4.9c-0.2-1-0.3-2-0.3-3c0-0.8,0.1-1.5,0.2-2.3c0.3-1.8,1-3.5,1.9-5c2.4-3.8,6.6-6.3,11.5-6.3
				c4.8,0,9.1,2.5,11.5,6.3c1,1.5,1.6,3.2,1.9,5C163.5,37.9,163.6,38.6,163.6,39.4z"/>
			<path class="st0" d="M150,54.5c-4.8,0-9.4-2.3-12.2-6.3c-1.2-1.7-2-3.5-2.5-5.5c-0.3-1.1-0.4-2.2-0.4-3.4c0-0.9,0.1-1.7,0.2-2.5
				c0.3-2,1.1-3.9,2.2-5.6c2.8-4.4,7.6-7,12.7-7c5.2,0,9.9,2.6,12.7,7c1.1,1.7,1.8,3.6,2.2,5.6c0.1,0.8,0.2,1.6,0.2,2.5
				c0,1.1-0.1,2.3-0.4,3.4c-0.5,2-1.3,3.8-2.5,5.5C159.4,52.2,154.8,54.5,150,54.5z M150,27.3c-4.1,0-8,2.1-10.2,5.6
				c-0.9,1.4-1.5,2.9-1.7,4.5c-0.1,0.6-0.2,1.3-0.2,2c0,0.9,0.1,1.8,0.3,2.7c0.4,1.6,1,3,2,4.4c2.3,3.1,5.9,5,9.8,5
				c3.9,0,7.5-1.9,9.8-5c1-1.3,1.6-2.8,2-4.4c0.2-0.9,0.3-1.8,0.3-2.7c0-0.7-0.1-1.4-0.2-2c-0.3-1.6-0.9-3.1-1.7-4.5
				C158,29.4,154.1,27.3,150,27.3z"/>
		</g>
		<path class="st0" d="M164.2,37c-0.3-1.9-1-3.7-2.1-5.3C159.5,27.5,155,25,150,25s-9.5,2.5-12.1,6.7c-1,1.6-1.8,3.4-2.1,5.3
			c-0.1,0.8-0.2,1.6-0.2,2.4c0,1.1,0.1,2.2,0.4,3.2c0.4,1.9,1.2,3.6,2.4,5.2c2.7,3.7,7.1,6,11.7,6s9-2.2,11.7-6
			c1.1-1.6,1.9-3.3,2.4-5.2c0.2-1,0.4-2.1,0.4-3.2C164.4,38.6,164.3,37.8,164.2,37z M162.5,42.2c-0.4,1.7-1.1,3.2-2.1,4.6
			c-2.4,3.3-6.3,5.3-10.4,5.3s-8-2-10.4-5.3c-1-1.4-1.7-2.9-2.1-4.6c-0.2-0.9-0.3-1.9-0.3-2.8c0-0.7,0.1-1.4,0.2-2.1
			c0.3-1.7,0.9-3.3,1.8-4.7c2.4-3.7,6.4-5.9,10.8-5.9s8.4,2.2,10.8,5.9c0.9,1.5,1.6,3,1.8,4.8c0.1,0.7,0.2,1.4,0.2,2.1
			C162.8,40.3,162.7,41.3,162.5,42.2z M150,53.7c-4.6,0-8.9-2.2-11.6-5.9c-1.1-1.6-1.9-3.3-2.3-5.2c-0.2-1-0.4-2.1-0.4-3.2
			c0-0.8,0.1-1.6,0.2-2.4c0.3-1.9,1-3.6,2-5.3c2.6-4.1,7.2-6.6,12.1-6.6c4.9,0,9.4,2.5,12.1,6.6c1,1.6,1.7,3.4,2,5.3
			c0.1,0.8,0.2,1.6,0.2,2.4c0,1.1-0.1,2.1-0.4,3.2v0c-0.4,1.9-1.2,3.6-2.3,5.2C158.9,51.5,154.6,53.7,150,53.7z M150,28.1
			c-3.9,0-7.4,2-9.5,5.2c-0.8,1.3-1.4,2.7-1.6,4.2c-0.1,0.6-0.2,1.3-0.2,1.9c0,0.8,0.1,1.7,0.3,2.5c0.3,1.5,1,2.8,1.9,4.1
			c2.1,2.9,5.6,4.7,9.2,4.7c3.6,0,7-1.8,9.2-4.7c0.9-1.2,1.5-2.6,1.9-4.1c0.2-0.8,0.3-1.7,0.3-2.5c0-0.6-0.1-1.3-0.2-1.9
			c-0.2-1.5-0.8-2.9-1.6-4.2C157.4,30.1,153.9,28.1,150,28.1z"/>
	</g>
	<g>
		<path class="st0" d="M195.7,230.2c-14.5,11.7-30,21.1-45.6,27.8h0l0,0c-2.3,1-4.6,1.9-7,2.8h0c-6.7,2.5-13.3,4.5-20,5.9
			c-30.9,6.8-57.3,1.3-74.1-15.6C32,234.3,26.5,208,33.3,177c1.5-6.6,3.5-13.3,5.9-19.9c0.9-2.3,1.8-4.7,2.8-7v0
			c9.6-22.4,24.7-44.4,44.1-63.8c13.4-13.4,28.1-24.8,43.3-33.7c-1-1.5-1.8-3.1-2.4-4.9c-15.7,9.2-30.9,20.9-44.7,34.7
			c-18.5,18.5-33.2,39.3-43.1,60.6l0,0c-1.1,2.3-2.1,4.6-3,7v0c-3.5,8.6-6.3,17.2-8.2,25.8c-7.2,32.8-1.2,60.9,17,79.1
			c13.2,13.2,31.6,20,53.2,20c8.2,0,16.9-1,25.9-3c8.6-1.9,17.2-4.6,25.8-8.2l0,0c2.3-1,4.6-2,7-3l0,0h0
			c14.7-6.8,29.2-15.9,42.8-26.9C198.3,232.8,196.9,231.6,195.7,230.2z M254.9,45.2c-18.2-18.2-46.3-24.3-79.1-17
			c-1.2,0.3-2.4,0.6-3.7,0.9c0.8,1.6,1.4,3.3,1.8,5.1c1-0.3,2.1-0.5,3.1-0.7c8.7-1.9,16.9-2.8,24.7-2.8c20.2,0,37.2,6.3,49.4,18.4
			c16.9,16.9,22.4,43.2,15.6,74.1c-1.5,6.6-3.5,13.3-5.9,19.9v0c-0.9,2.3-1.8,4.7-2.8,7v0c-6.7,15.7-16.1,31.1-27.8,45.7
			c1.4,1.2,2.6,2.6,3.6,4.1c11-13.6,20.1-28,27-42.8v0c1.1-2.3,2.1-4.7,3.1-7v0c3.5-8.6,6.3-17.2,8.2-25.8
			C279.2,91.5,273.1,63.4,254.9,45.2z"/>
		<path class="st0" d="M98.3,276.5c-22.1,0-40.9-7.1-54.2-20.4c-18.6-18.6-24.8-47.2-17.4-80.5c1.9-8.5,4.6-17.2,8.2-25.8l0.1-0.2
			c0.9-2.2,1.9-4.5,3.1-7l0.1-0.2C48,120.8,63,99.7,81.3,81.4c13.8-13.9,29-25.6,45-35l1.6-0.9l0.6,1.7c0.6,1.6,1.3,3.1,2.3,4.6
			l0.8,1.3l-1.3,0.8c-15.2,8.9-29.7,20.2-43,33.5c-19,19-34.1,40.8-43.7,63.1v0l-0.1,0.3c-0.9,2.1-1.8,4.4-2.8,6.9
			c-2.5,6.7-4.5,13.3-5.9,19.7c-6.7,30.4-1.3,56.2,15.2,72.8c16.5,16.5,42.3,21.9,72.8,15.2c6.5-1.4,13.2-3.4,19.7-5.9l0.3-0.1
			c2.2-0.8,4.3-1.7,6.4-2.6l0.2-0.2l0.3,0c15.6-6.7,30.7-15.9,45-27.5l1.1-0.9l1,1.1c1.2,1.3,2.5,2.5,3.8,3.4l1.6,1.1l-1.5,1.3
			c-13.7,11.1-28.2,20.2-43.1,27.1l0,0c-0.1,0-0.2,0.1-0.3,0.1l0,0c-2.3,1.1-4.4,2-6.5,2.8l-0.2,0.1c-8.7,3.6-17.4,6.4-26,8.2
			C115.5,275.5,106.7,276.5,98.3,276.5z M37.8,150.4L37.8,150.4l-0.1,0.3c-3.5,8.5-6.2,17.1-8.1,25.5c-7.1,32.3-1.2,59.9,16.6,77.7
			C59,266.7,77,273.5,98.3,273.5c8.2,0,16.8-1,25.6-2.9c8.3-1.8,16.8-4.5,25.2-8l0,0l0.3-0.1c2.1-0.9,4.3-1.8,6.7-2.9l0.2-0.2l0.3,0
			c14-6.5,27.7-15.1,40.7-25.4c-0.6-0.5-1.2-1.1-1.8-1.6c-14.3,11.4-29.4,20.5-44.9,27.1l-0.1,0c-2.3,1-4.6,1.9-7,2.8l-0.3,0.1
			c-6.6,2.5-13.3,4.5-19.9,5.9c-31.4,6.9-58.3,1.3-75.5-16c-17.3-17.3-22.9-44.1-16-75.5c1.4-6.6,3.5-13.3,6-20.1
			c0.9-2.5,1.8-4.7,2.7-6.8l0.1-0.3c9.7-22.7,25.1-44.9,44.4-64.3c13.1-13.1,27.3-24.2,42.3-33.2c-0.4-0.7-0.8-1.4-1.1-2.1
			C111.1,59,96.7,70.3,83.4,83.5c-18.1,18.1-32.9,39-42.8,60.2l-0.1,0.2C39.5,146.3,38.6,148.4,37.8,150.4z M233.7,202.3l-1.1-1.6
			c-1-1.4-2.1-2.7-3.4-3.8l-1.1-1l0.9-1.1c11.6-14.4,20.8-29.5,27.5-45v0l0.1-0.3c0.9-2.1,1.8-4.3,2.7-6.7l0.1-0.3
			c2.5-6.6,4.4-13.2,5.9-19.7c6.7-30.4,1.3-56.2-15.2-72.8c-11.8-11.8-28.5-18-48.3-18c-7.7,0-16,0.9-24.4,2.8c-1,0.2-2,0.5-3,0.7
			l-1.5,0.4l-0.3-1.5c-0.4-1.7-0.9-3.3-1.6-4.8l-0.8-1.7l1.8-0.4c1.2-0.3,2.5-0.6,3.7-0.9c33.3-7.4,61.9-1.2,80.5,17.4l0,0
			c18.6,18.6,24.8,47.2,17.4,80.5c-1.9,8.5-4.6,17.1-8.1,25.7v0l-0.1,0.3c-1,2.4-2,4.7-3,6.8l-0.1,0.3c-6.9,14.9-16,29.4-27.1,43.1
			L233.7,202.3z M232.2,195.6c0.6,0.6,1.1,1.2,1.6,1.8c10.3-13,18.9-26.6,25.4-40.7v0l0.1-0.3c1-2.1,2-4.3,2.9-6.7l0.1-0.2
			c3.5-8.5,6.2-17.1,8.1-25.5c7.1-32.3,1.2-59.9-16.6-77.7l0,0c-17.9-17.9-45.5-23.8-77.7-16.6c-0.6,0.1-1.3,0.3-1.9,0.4
			c0.3,0.7,0.5,1.5,0.8,2.3c0.6-0.1,1.1-0.3,1.7-0.4c8.7-1.9,17.1-2.9,25.1-2.9c20.7,0,38.1,6.5,50.5,18.9
			c17.3,17.3,22.9,44.1,16,75.5c-1.4,6.6-3.4,13.2-5.9,19.9v0l-0.1,0.3c-0.9,2.4-1.8,4.6-2.7,6.8l-0.1,0.2
			C252.7,166.2,243.5,181.3,232.2,195.6z"/>
	</g>
	<g>
		<path class="st0" d="M199.2,110.8c1.1,0,2.1,0.6,2.7,1.7c0.4,0.7,0.4,1.5,0.1,2.3c-0.3,0.8-0.8,1.4-1.6,1.7
			c-5.8,2.7-18.4,7.4-37.8,8.5c-0.7,0-1.2,0.6-1.2,1.3v85.3c0,0.7,0.6,1.3,1.3,1.3c0.7,0,1.3-0.6,1.3-1.3v-84l0.7-0.1
			c18.8-1.4,31.1-6,36.8-8.6c1.4-0.7,2.4-1.8,2.9-3.2c0.5-1.4,0.4-3-0.2-4.3c-0.9-2-2.9-3.2-5-3.2c-0.8,0-1.5,0.2-2.2,0.5
			c-7.1,3.1-22.6,8.3-47.3,8.3c-24.6,0-39.8-5.2-46.6-8.2c-0.7-0.3-1.5-0.5-2.3-0.5c-2.1,0-4,1.2-5,3.1c-0.7,1.4-0.8,2.9-0.3,4.4
			c0.5,1.4,1.5,2.6,2.9,3.3c5.6,2.7,17.8,7.3,36.8,8.7l0.7,0.1v84c0,0.7,0.6,1.3,1.3,1.3c0.7,0,1.3-0.6,1.3-1.3v-85.2
			c0-0.7-0.6-1.3-1.2-1.3c-19.7-1.1-32.1-5.8-37.8-8.5c-0.7-0.3-1.3-1-1.5-1.7c-0.3-0.8-0.2-1.6,0.2-2.3c0.5-1,1.5-1.6,2.6-1.6
			c0.4,0,0.8,0.1,1.2,0.2c7.1,3.2,22.6,8.5,47.7,8.5c25.2,0,41.1-5.3,48.4-8.5C198.4,110.9,198.8,110.8,199.2,110.8z"/>
		<path class="st0" d="M162.7,214.5c-1.6,0-2.8-1.3-2.8-2.8v-85.3c0-1.5,1.2-2.7,2.7-2.8c19.2-1.1,31.6-5.7,37.3-8.4
			c0.4-0.2,0.6-0.5,0.8-0.8c0.1-0.4,0.1-0.8-0.1-1.2c-0.3-0.7-1.1-1-1.9-0.7c-7.3,3.2-23.5,8.6-49,8.6c-25.3,0-41.2-5.4-48.3-8.6
			c-0.7-0.3-1.5,0-1.9,0.7c-0.2,0.4-0.2,0.8-0.1,1.2c0.1,0.4,0.4,0.7,0.8,0.8c5.6,2.7,17.9,7.3,37.3,8.4c1.5,0.1,2.7,1.3,2.7,2.8
			v85.2c0,1.6-1.3,2.8-2.8,2.8s-2.8-1.3-2.8-2.8V129c-18.9-1.4-31.1-6.1-36.7-8.7c-1.8-0.8-3.1-2.3-3.7-4.1
			c-0.6-1.8-0.5-3.8,0.4-5.5c1.2-2.4,3.7-3.9,6.3-3.9c1,0,1.9,0.2,2.9,0.6c6.8,3,21.7,8.1,46,8.1c24.4,0,39.8-5.1,46.7-8.2
			c0.9-0.4,1.9-0.6,2.8-0.6c2.7,0,5.2,1.5,6.4,4c0.8,1.7,1,3.7,0.3,5.5c-0.6,1.8-2,3.3-3.7,4.1c-5.7,2.6-17.9,7.3-36.6,8.7v82.6
			C165.5,213.2,164.3,214.5,162.7,214.5z"/>
	</g>
	<g id="XMLID_00000016780971871740397480000014684850471668799146_">
		<g id="XMLID_00000078005152135426661810000004003319499225708704_">
			<g id="XMLID_00000158715414800095256920000000824032174715649693_">
				<g id="XMLID_00000080891161305674850020000010801534076047798438_">
					<g id="XMLID_00000035509948925456497690000004766320435316924584_">
						<g id="XMLID_00000173157363911939297750000016152855884791289767_">
							<g>
								<g>
									<path class="st0" d="M150,214c-1.3,0-2.4-1.1-2.4-2.4v-42.4c0-1.3,1.1-2.4,2.4-2.4c1.3,0,2.4,1.1,2.4,2.4v42.4
										C152.4,212.9,151.3,214,150,214z"/>
									<path class="st0" d="M150,214.5c-1.6,0-2.9-1.3-2.9-2.9v-42.4c0-1.6,1.3-2.9,2.9-2.9c1.6,0,2.9,1.3,2.9,2.9v42.4
										C152.9,213.2,151.6,214.5,150,214.5z M150,167.3c-1,0-1.9,0.8-1.9,1.9v42.4c0,1,0.8,1.9,1.9,1.9c1,0,1.9-0.8,1.9-1.9v-42.4
										C151.9,168.1,151.1,167.3,150,167.3z"/>
								</g>
								<path class="st0" d="M150,166c-1.8,0-3.2,1.4-3.2,3.2v42.4c0,1.8,1.4,3.2,3.2,3.2s3.2-1.4,3.2-3.2v-42.4
									C153.2,167.4,151.8,166,150,166z M151.6,211.6c0,0.9-0.7,1.6-1.6,1.6s-1.6-0.7-1.6-1.6v-42.4c0-0.9,0.7-1.6,1.6-1.6
									s1.6,0.7,1.6,1.6V211.6z M150,213.7c-1.2,0-2.1-0.9-2.1-2.1v-42.4c0-1.2,0.9-2.1,2.1-2.1s2.1,0.9,2.1,2.1v42.4
									C152.1,212.8,151.2,213.7,150,213.7z M150,168.1c-0.6,0-1.1,0.5-1.1,1.1v42.4c0,0.6,0.5,1.1,1.1,1.1s1.1-0.5,1.1-1.1v-42.4
									C151.1,168.6,150.6,168.1,150,168.1z"/>
							</g>
							<g>
								<path class="st0" d="M150,166.5c-1.5,0-2.7,1.2-2.7,2.7v42.4c0,1.5,1.2,2.7,2.7,2.7c1.5,0,2.7-1.2,2.7-2.7v-42.4
									C152.7,167.7,151.5,166.5,150,166.5z M152.1,211.6c0,1.2-1,2.1-2.1,2.1s-2.1-1-2.1-2.1v-42.4c0-1.2,1-2.1,2.1-2.1
									s2.1,1,2.1,2.1V211.6z M150,214.2c-1.4,0-2.6-1.2-2.6-2.6v-42.4c0-1.4,1.2-2.6,2.6-2.6s2.6,1.2,2.6,2.6v42.4
									C152.6,213.1,151.5,214.2,150,214.2z M150,167.6c-0.9,0-1.6,0.7-1.6,1.6v42.4c0,0.9,0.7,1.6,1.6,1.6c0.9,0,1.6-0.7,1.6-1.6
									v-42.4C151.6,168.3,150.9,167.6,150,167.6z"/>
								<path class="st0" d="M152.7,170.7c-0.1-0.1-0.2-0.3-0.3-0.4c-0.1-0.1-0.2-0.2-0.3-0.3c-0.2-0.2-0.3-0.3-0.5-0.4
									c-0.5-0.3-1-0.5-1.6-0.5c-0.6,0-1.1,0.2-1.6,0.5c-0.2,0.1-0.4,0.3-0.5,0.4c-0.1,0.1-0.2,0.2-0.3,0.3
									c-0.1,0.1-0.2,0.3-0.3,0.4c-0.2,0.4-0.3,0.9-0.3,1.4v36.7c0,0.5,0.1,1,0.3,1.4c0.1,0.2,0.2,0.3,0.3,0.4
									c0.1,0.1,0.2,0.2,0.3,0.3c0.2,0.2,0.3,0.3,0.5,0.4c0.5,0.3,1,0.5,1.6,0.5c0.6,0,1.1-0.2,1.6-0.5c0.2-0.1,0.4-0.3,0.5-0.4
									c0.1-0.1,0.2-0.2,0.3-0.3c0.1-0.1,0.2-0.3,0.3-0.4c0.2-0.4,0.3-0.9,0.3-1.4v-36.7C153,171.6,152.9,171.1,152.7,170.7z
									 M151.2,208.7c0,0.6-0.5,1.1-1.1,1.1s-1.1-0.5-1.1-1.1v-36.7c0-0.6,0.5-1.1,1.1-1.1s1.1,0.5,1.1,1.1V208.7z M150,210.4
									c-0.9,0-1.6-0.7-1.6-1.6v-36.7c0-0.9,0.7-1.6,1.6-1.6c0.9,0,1.6,0.7,1.6,1.6v36.7C151.7,209.6,150.9,210.4,150,210.4z
									 M150,171.4c-0.4,0-0.6,0.3-0.6,0.6v36.7c0,0.4,0.3,0.6,0.6,0.6c0.4,0,0.6-0.3,0.6-0.6v-36.7
									C150.7,171.7,150.4,171.4,150,171.4z"/>
							</g>
						</g>
					</g>
				</g>
			</g>
		</g>
	</g>
	<g id="XMLID_00000085240846292545961450000006329007194416954794_">
		<g id="XMLID_00000168090080292858299490000017330577872452881282_">
			<g id="XMLID_00000035508950803878004560000000300542771449062841_">
				<g id="XMLID_00000109708317039025027290000004297405341433272978_">
					<g id="XMLID_00000156572320622990969650000008545937154499113105_">
						<g id="XMLID_00000167381657520876926150000018276127482036519348_">
							<g id="XMLID_00000029016871356447865750000015043719411674855332_">
								<g id="XMLID_00000001631772027949134630000006345804055687512754_">
									<g id="XMLID_00000049221279956597217950000002945766703944807821_">
										<g>
											<path class="st0" d="M150,86.2c-7.2,0-13,5.8-13,13c0,7.2,5.8,13,13,13s13-5.8,13-13C163,92,157.2,86.2,150,86.2z
												 M150,107.7c-4.7,0-8.5-3.8-8.5-8.5s3.8-8.5,8.5-8.5s8.5,3.8,8.5,8.5S154.7,107.7,150,107.7z M150,108.1c-5,0-9-4-9-9
												s4-9,9-9s9,4,9,9S155,108.1,150,108.1z M150,91.2c-4.4,0-8,3.6-8,8s3.6,8,8,8c4.4,0,8-3.6,8-8S154.4,91.2,150,91.2z"/>
											<path class="st0" d="M150,90.1c-5,0-9,4-9,9c0,5,4,9,9,9c5,0,9-4,9-9C159,94.2,155,90.1,150,90.1z M150,107.7
												c-4.7,0-8.5-3.8-8.5-8.5s3.8-8.5,8.5-8.5s8.5,3.8,8.5,8.5S154.7,107.7,150,107.7z M150,90.1c-5,0-9,4-9,9c0,5,4,9,9,9
												c5,0,9-4,9-9C159,94.2,155,90.1,150,90.1z M150,107.7c-4.7,0-8.5-3.8-8.5-8.5s3.8-8.5,8.5-8.5s8.5,3.8,8.5,8.5
												S154.7,107.7,150,107.7z M150,90.1c-5,0-9,4-9,9c0,5,4,9,9,9c5,0,9-4,9-9C159,94.2,155,90.1,150,90.1z M150,107.7
												c-4.7,0-8.5-3.8-8.5-8.5s3.8-8.5,8.5-8.5s8.5,3.8,8.5,8.5S154.7,107.7,150,107.7z M150,90.1c-5,0-9,4-9,9c0,5,4,9,9,9
												c5,0,9-4,9-9C159,94.2,155,90.1,150,90.1z M150,107.7c-4.7,0-8.5-3.8-8.5-8.5s3.8-8.5,8.5-8.5s8.5,3.8,8.5,8.5
												S154.7,107.7,150,107.7z M150,85.4c-7.6,0-13.8,6.2-13.8,13.8c0,7.6,6.2,13.8,13.8,13.8s13.8-6.2,13.8-13.8
												C163.8,91.6,157.6,85.4,150,85.4z M150,111.4c-6.7,0-12.2-5.5-12.2-12.2c0-6.7,5.5-12.2,12.2-12.2s12.2,5.5,12.2,12.2
												C162.2,105.9,156.7,111.4,150,111.4z M150,90.1c-5,0-9,4-9,9c0,5,4,9,9,9c5,0,9-4,9-9C159,94.2,155,90.1,150,90.1z
												 M150,107.7c-4.7,0-8.5-3.8-8.5-8.5s3.8-8.5,8.5-8.5s8.5,3.8,8.5,8.5S154.7,107.7,150,107.7z M150,90.1c-5,0-9,4-9,9
												c0,5,4,9,9,9c5,0,9-4,9-9C159,94.2,155,90.1,150,90.1z M150,107.7c-4.7,0-8.5-3.8-8.5-8.5s3.8-8.5,8.5-8.5
												s8.5,3.8,8.5,8.5S154.7,107.7,150,107.7z M150,90.1c-5,0-9,4-9,9c0,5,4,9,9,9c5,0,9-4,9-9C159,94.2,155,90.1,150,90.1z
												 M150,107.7c-4.7,0-8.5-3.8-8.5-8.5s3.8-8.5,8.5-8.5s8.5,3.8,8.5,8.5S154.7,107.7,150,107.7z M150,108.1c-5,0-9-4-9-9
												s4-9,9-9s9,4,9,9S155,108.1,150,108.1z M150,91.2c-4.4,0-8,3.6-8,8s3.6,8,8,8c4.4,0,8-3.6,8-8S154.4,91.2,150,91.2z"/>
										</g>
										<g>
											<path class="st0" d="M150,85.9c-7.3,0-13.3,5.9-13.3,13.3s6,13.3,13.3,13.3s13.3-6,13.3-13.3S157.3,85.9,150,85.9z
												 M150,111.9c-7,0-12.7-5.7-12.7-12.7c0-7,5.7-12.7,12.7-12.7s12.7,5.7,12.7,12.7C162.7,106.2,157,111.9,150,111.9z
												 M150,112.4c-7.3,0-13.2-5.9-13.2-13.2s5.9-13.2,13.2-13.2s13.2,5.9,13.2,13.2S157.3,112.4,150,112.4z M150,86.9
												c-6.7,0-12.2,5.5-12.2,12.2s5.5,12.2,12.2,12.2c6.7,0,12.2-5.5,12.2-12.2S156.8,86.9,150,86.9z"/>
											<path class="st0" d="M150,87.2c-6.6,0-11.9,5.4-11.9,11.9c0,6.6,5.3,11.9,11.9,11.9s11.9-5.3,11.9-11.9
												C161.9,92.6,156.6,87.2,150,87.2z M150,108.5c-5.1,0-9.3-4.2-9.3-9.3c0-5.1,4.2-9.3,9.3-9.3s9.3,4.2,9.3,9.3
												C159.3,104.3,155.1,108.5,150,108.5z M150,109c-5.4,0-9.8-4.4-9.8-9.8s4.4-9.8,9.8-9.8s9.8,4.4,9.8,9.8
												S155.4,109,150,109z M150,90.4c-4.8,0-8.8,3.9-8.8,8.8s3.9,8.8,8.8,8.8s8.8-3.9,8.8-8.8S154.9,90.4,150,90.4z"/>
										</g>
									</g>
								</g>
							</g>
						</g>
					</g>
				</g>
			</g>
		</g>
	</g>
</g>
</svg>
