<?xml version="1.0" encoding="utf-8"?>
<!-- Generator: Adobe Illustrator 26.3.1, SVG Export Plug-In . SVG Version: 6.00 Build 0)  -->
<svg version="1.1" id="Layer_1" xmlns="http://www.w3.org/2000/svg" xmlns:xlink="http://www.w3.org/1999/xlink" x="0px" y="0px"
	 viewBox="0 0 300 300" style="enable-background:new 0 0 300 300;" xml:space="preserve">
<style type="text/css">
	.st0{fill:#FFFFFF;stroke:#FFFFFF;stroke-width:3;stroke-miterlimit:10;}
	.st1{fill:#FFFFFF;stroke:#FFFFFF;stroke-miterlimit:10;}
	.st2{fill:#00457F;}
	.st3{fill:#00457F;stroke:#00457F;stroke-width:2;stroke-miterlimit:10;}
</style>
<g>
	<g>
		<path class="st0" d="M227.42,213.9c0,7.5-6.1,13.6-13.6,13.6c-1.9,0-3.7-0.39-5.34-1.1c-1.73-0.74-3.28-1.83-4.54-3.18
			c-2.31-2.44-3.71-5.72-3.71-9.32c0-7.5,6.1-13.6,13.6-13.6c3.6,0,6.88,1.4,9.32,3.71c1.36,1.27,2.45,2.82,3.19,4.55
			C227.03,210.2,227.42,212.01,227.42,213.9z"/>
		<path class="st0" d="M213.81,228.3c-1.97,0-3.87-0.39-5.66-1.16c-1.81-0.77-3.47-1.94-4.81-3.37c-2.53-2.68-3.93-6.18-3.93-9.87
			c0-7.94,6.46-14.4,14.4-14.4c3.68,0,7.19,1.39,9.87,3.92c1.46,1.36,2.59,2.99,3.37,4.82c0.77,1.79,1.16,3.69,1.16,5.66
			C228.22,221.84,221.76,228.3,213.81,228.3z M213.81,201.1c-7.06,0-12.8,5.74-12.8,12.8c0,3.28,1.24,6.39,3.49,8.77
			c1.19,1.27,2.67,2.31,4.28,3c1.59,0.69,3.28,1.03,5.03,1.03c7.06,0,12.8-5.74,12.8-12.8c0-1.75-0.35-3.44-1.03-5.03
			c-0.7-1.63-1.7-3.07-3-4.28C220.2,202.34,217.09,201.1,213.81,201.1z"/>
	</g>
	<g>
		<path class="st0" d="M95.63,213.74c0,2.65-0.76,5.12-2.08,7.21c-0.96,1.55-2.23,2.88-3.72,3.92c-2.21,1.56-4.9,2.47-7.8,2.47
			c-7.5,0-13.6-6.1-13.6-13.6c0-3.03,0.99-5.83,2.68-8.1c1.08-1.46,2.45-2.69,4.02-3.62c2.03-1.21,4.39-1.89,6.91-1.89
			C89.52,200.14,95.63,206.24,95.63,213.74z"/>
		<path class="st0" d="M82.03,228.14c-7.94,0-14.4-6.46-14.4-14.4c0-3.12,0.98-6.08,2.84-8.57c1.15-1.55,2.58-2.84,4.25-3.83
			c2.2-1.31,4.73-2,7.31-2c7.94,0,14.4,6.46,14.4,14.4c0,2.71-0.76,5.35-2.2,7.64c-1.02,1.64-2.34,3.03-3.94,4.15
			C87.86,227.24,85.01,228.14,82.03,228.14z M82.03,200.94c-2.29,0-4.54,0.62-6.5,1.78c-1.49,0.88-2.76,2.02-3.78,3.4
			c-1.65,2.22-2.52,4.85-2.52,7.62c0,7.06,5.74,12.8,12.8,12.8c2.64,0,5.18-0.8,7.34-2.32c1.42-0.99,2.59-2.23,3.5-3.69
			c1.28-2.03,1.96-4.38,1.96-6.79C94.83,206.68,89.09,200.94,82.03,200.94z"/>
	</g>
	<path class="st0" d="M124.24,28.16c-32.8-7.25-60.9-1.19-79.13,17.04c-18.23,18.23-24.29,46.33-17.04,79.13
		c1.89,8.57,4.64,17.2,8.17,25.76c0.96,2.33,1.98,4.66,3.05,6.99c6.37,13.75,14.74,27.28,24.82,40.1c1.23-1.32,2.6-2.51,4.09-3.54
		c-10.92-13.9-19.74-28.63-26.11-43.54c-0.99-2.32-1.92-4.65-2.8-6.99c-2.49-6.65-4.48-13.32-5.94-19.94
		c-6.83-30.93-1.3-57.26,15.58-74.14c12.16-12.16,29.24-18.44,49.4-18.44c7.82,0,16.1,0.95,24.74,2.85
		c1.03,0.23,2.05,0.46,3.09,0.72c0.39-1.79,0.98-3.51,1.75-5.13C126.68,28.72,125.46,28.43,124.24,28.16z M271.93,175.85
		c-1.89-8.57-4.63-17.2-8.16-25.76c-0.96-2.33-1.98-4.67-3.06-6.99c-9.89-21.36-24.6-42.17-43.07-60.64
		c-13.83-13.84-28.98-25.56-44.69-34.73c-0.62,1.71-1.43,3.34-2.4,4.85c15.19,8.9,29.85,20.28,43.27,33.7
		c19.4,19.4,34.51,41.39,44.1,63.81c0.99,2.33,1.93,4.66,2.8,6.99c2.49,6.65,4.48,13.31,5.94,19.93
		c6.83,30.93,1.3,57.26-15.58,74.14s-43.21,22.42-74.14,15.58c-6.63-1.46-13.3-3.46-19.95-5.94c-2.33-0.88-4.66-1.8-6.98-2.8
		c-16.61-7.1-32.99-17.23-48.25-29.9c-1.06,1.46-2.29,2.8-3.65,3.99c14.23,11.84,29.42,21.54,44.91,28.71
		c2.32,1.08,4.65,2.1,6.98,3.05c8.57,3.53,17.19,6.27,25.76,8.17c9.04,2,17.72,2.98,25.94,2.98c21.59,0,39.98-6.81,53.19-20.02
		C273.12,236.75,279.17,208.65,271.93,175.85z"/>
	<g>
		<path class="st0" d="M163.6,39.4c0,1.04-0.12,2.06-0.34,3.03c-0.41,1.8-1.18,3.47-2.24,4.92C158.55,50.77,154.53,53,150,53
			c-4.53,0-8.55-2.23-11.02-5.65c-1.05-1.45-1.83-3.12-2.24-4.92c-0.22-0.97-0.34-1.99-0.34-3.03c0-0.77,0.06-1.53,0.19-2.27
			c0.3-1.83,0.98-3.53,1.95-5.04c2.42-3.78,6.65-6.29,11.46-6.29c4.81,0,9.05,2.51,11.46,6.29c0.97,1.51,1.64,3.21,1.95,5.04
			C163.54,37.87,163.6,38.63,163.6,39.4z"/>
		<path class="st0" d="M150,53.8c-4.6,0-8.97-2.24-11.67-5.98c-1.14-1.57-1.94-3.32-2.37-5.21c-0.24-1.05-0.36-2.13-0.36-3.21
			c0-0.81,0.07-1.62,0.21-2.41c0.31-1.9,1.01-3.69,2.06-5.34c2.66-4.17,7.2-6.66,12.14-6.66s9.47,2.49,12.14,6.66
			c1.05,1.64,1.75,3.44,2.06,5.34c0.14,0.78,0.2,1.59,0.2,2.4c0,1.08-0.12,2.16-0.36,3.21c-0.43,1.89-1.23,3.64-2.37,5.21
			C158.97,51.56,154.6,53.8,150,53.8z M150,26.6c-4.39,0-8.42,2.21-10.79,5.92c-0.93,1.46-1.55,3.05-1.83,4.74
			c-0.12,0.7-0.18,1.42-0.18,2.14c0,0.96,0.11,1.92,0.32,2.85c0.38,1.68,1.09,3.23,2.1,4.62c2.41,3.33,6.29,5.32,10.38,5.32
			c4.09,0,7.97-1.99,10.38-5.32c1.01-1.4,1.72-2.95,2.1-4.63c0.21-0.93,0.32-1.89,0.32-2.85c0-0.72-0.06-1.44-0.18-2.13
			c-0.28-1.7-0.9-3.29-1.83-4.75C158.42,28.81,154.39,26.6,150,26.6z"/>
	</g>
	<path class="st0" d="M254.89,45.2c-18.23-18.23-46.33-24.29-79.13-17.04c-1.22,0.27-2.44,0.56-3.67,0.86
		c0.77,1.62,1.36,3.34,1.75,5.13c1.03-0.26,2.06-0.5,3.09-0.72c8.65-1.91,16.93-2.85,24.74-2.85c20.16,0,37.23,6.27,49.4,18.44
		c16.88,16.88,22.42,43.21,15.58,74.14c-1.46,6.63-3.45,13.29-5.94,19.93c-0.87,2.33-1.8,4.66-2.8,6.99
		c-6.7,15.68-16.1,31.14-27.79,45.66c1.36,1.23,2.58,2.6,3.64,4.09c11.05-13.6,20.14-28.05,26.95-42.76
		c1.08-2.32,2.1-4.66,3.06-6.99c3.53-8.57,6.27-17.19,8.16-25.76C279.17,91.53,273.12,63.43,254.89,45.2z M195.67,230.21
		C181.15,241.9,165.68,251.3,150,258c-2.32,0.99-4.65,1.92-6.98,2.8c-6.65,2.49-13.32,4.48-19.95,5.94
		c-30.93,6.83-57.26,1.3-74.14-15.58s-22.42-43.21-15.58-74.14c1.46-6.63,3.46-13.29,5.94-19.94c0.88-2.33,1.8-4.66,2.8-6.99
		c9.58-22.42,24.7-44.41,44.1-63.81c13.42-13.42,28.09-24.8,43.27-33.7c-0.97-1.51-1.78-3.14-2.4-4.85
		c-15.71,9.17-30.86,20.89-44.69,34.73c-18.48,18.48-33.18,39.29-43.07,60.65c-1.08,2.32-2.1,4.65-3.05,6.99
		c-3.53,8.57-6.27,17.19-8.17,25.76c-7.25,32.8-1.19,60.9,17.04,79.13C58.32,268.19,76.7,275,98.3,275c8.22,0,16.9-0.98,25.94-2.98
		c8.57-1.89,17.2-4.64,25.76-8.17c2.33-0.96,4.66-1.98,6.98-3.05c14.71-6.81,29.16-15.91,42.78-26.95
		C198.26,232.8,196.9,231.57,195.67,230.21z"/>
	<g>
		<path class="st0" d="M162.72,214.01c-1.32,0-2.39-1.07-2.39-2.39v-85.26c0-1.26,0.99-2.31,2.25-2.39
			c19.28-1.15,31.72-5.77,37.42-8.42c0.48-0.22,0.83-0.61,1-1.1c0.17-0.48,0.14-1.01-0.09-1.47c-0.33-0.67-0.98-1.08-1.7-1.08
			c-0.25,0-0.49,0.05-0.72,0.15c-7.34,3.21-23.45,8.6-48.83,8.6c-25.27,0-41.01-5.36-48.15-8.55c-0.24-0.11-0.49-0.16-0.74-0.16
			c-0.71,0-1.36,0.4-1.68,1.05c-0.24,0.47-0.28,0.99-0.11,1.48c0.17,0.49,0.52,0.88,0.99,1.1c5.62,2.67,17.97,7.31,37.44,8.43
			c1.26,0.07,2.25,1.12,2.25,2.39v85.22c0,1.32-1.07,2.39-2.39,2.39c-1.32,0-2.39-1.07-2.39-2.39v-82.98
			c-19.05-1.38-31.33-6.06-36.96-8.74c-1.65-0.78-2.87-2.16-3.46-3.88c-0.59-1.73-0.46-3.57,0.37-5.2c1.15-2.27,3.43-3.68,5.95-3.68
			c0.93,0,1.84,0.2,2.7,0.58c6.8,3.04,21.84,8.13,46.2,8.13c24.51,0,39.91-5.13,46.91-8.19c0.84-0.37,1.73-0.56,2.65-0.56
			c2.56,0,4.86,1.45,5.99,3.77c0.8,1.63,0.9,3.46,0.3,5.17c-0.61,1.71-1.85,3.07-3.49,3.84c-5.69,2.65-18.02,7.29-36.89,8.71v83.02
			C165.11,212.94,164.04,214.01,162.72,214.01z"/>
	</g>
	<path class="st0" d="M199.21,110.84c1.13,0,2.15,0.64,2.66,1.68c0.35,0.73,0.4,1.54,0.13,2.3c-0.26,0.75-0.82,1.36-1.56,1.71
		c-5.77,2.68-18.35,7.36-37.8,8.52c-0.7,0.04-1.24,0.62-1.24,1.32v85.26c0,0.73,0.59,1.32,1.32,1.32c0.73,0,1.32-0.59,1.32-1.32
		v-84.01l0.74-0.05c18.84-1.38,31.13-6,36.77-8.63c1.38-0.65,2.43-1.79,2.94-3.23c0.51-1.43,0.42-2.97-0.25-4.34
		c-0.95-1.96-2.88-3.17-5.03-3.17c-0.76,0-1.51,0.16-2.22,0.47c-7.08,3.09-22.63,8.28-47.34,8.28c-24.56,0-39.76-5.15-46.63-8.23
		c-0.72-0.32-1.48-0.49-2.26-0.49c-2.12,0-4.03,1.18-5,3.09c-0.69,1.37-0.8,2.92-0.31,4.37c0.49,1.44,1.53,2.6,2.91,3.26
		c5.59,2.65,17.81,7.31,36.83,8.65l0.74,0.05v83.97c0,0.73,0.59,1.32,1.32,1.32c0.73,0,1.32-0.59,1.32-1.32V126.4
		c0-0.7-0.55-1.28-1.24-1.32c-19.65-1.13-32.14-5.83-37.84-8.53c-0.73-0.35-1.28-0.96-1.54-1.72c-0.26-0.77-0.2-1.59,0.17-2.32
		c0.51-1.01,1.52-1.63,2.64-1.63c0.41,0,0.81,0.09,1.18,0.25c7.06,3.16,22.64,8.46,47.71,8.46c25.18,0,41.14-5.33,48.4-8.51
		C198.43,110.92,198.82,110.84,199.21,110.84z"/>
	<path class="st1" d="M199.22,106.85L199.22,106.85c-0.95,0-1.88,0.2-2.76,0.58c-6.98,3.05-22.34,8.17-46.8,8.17
		c-24.31,0-39.31-5.08-46.09-8.11c-0.89-0.4-1.83-0.6-2.8-0.6c-2.62,0-5,1.47-6.19,3.82c-0.86,1.69-0.99,3.61-0.38,5.4
		c0.61,1.79,1.89,3.22,3.6,4.04c5.63,2.67,17.86,7.33,36.81,8.74v82.73c0,1.47,1.19,2.66,2.66,2.66c1.47,0,2.66-1.19,2.66-2.66
		V126.4c0-1.41-1.1-2.58-2.51-2.66c-19.43-1.11-31.73-5.74-37.34-8.41c-0.4-0.19-0.71-0.53-0.85-0.95
		c-0.14-0.42-0.11-0.87,0.09-1.27c0.28-0.56,0.84-0.9,1.44-0.9c0.22,0,0.43,0.05,0.63,0.14c7.16,3.2,22.95,8.57,48.26,8.57
		c25.43,0,41.58-5.4,48.94-8.62c0.19-0.08,0.4-0.13,0.61-0.13c0.62,0,1.18,0.36,1.46,0.93c0.19,0.4,0.22,0.85,0.07,1.26
		c-0.15,0.41-0.45,0.75-0.87,0.94c-5.68,2.64-18.08,7.25-37.32,8.39c-1.4,0.09-2.5,1.25-2.5,2.66v85.26c0,1.47,1.19,2.66,2.66,2.66
		c1.47,0,2.66-1.19,2.66-2.66v-82.77c18.77-1.44,31.06-6.07,36.74-8.71c1.71-0.8,3-2.22,3.63-3.99c0.63-1.77,0.52-3.68-0.31-5.37
		C204.27,108.35,201.88,106.85,199.22,106.85L199.22,106.85z"/>
	<g id="XMLID_00000016780971871740397480000014684850471668799146_">
		<g id="XMLID_00000078005152135426661810000004003319499225708704_">
			<g id="XMLID_00000158715414800095256920000000824032174715649693_">
				<g id="XMLID_00000080891161305674850020000010801534076047798438_">
					<g id="XMLID_00000035509948925456497690000004766320435316924584_">
						<g id="XMLID_00000173157363911939297750000016152855884791289767_">
							<g>
								<path class="st1" d="M150.01,214.01c-1.32,0-2.39-1.07-2.39-2.39v-42.43c0-1.32,1.07-2.39,2.39-2.39
									c1.32,0,2.39,1.07,2.39,2.39v42.43C152.4,212.94,151.33,214.01,150.01,214.01z"/>
								<path class="st1" d="M150.01,214.81c-1.76,0-3.19-1.43-3.19-3.19v-42.44c0-1.76,1.43-3.19,3.19-3.19
									c1.76,0,3.19,1.43,3.19,3.19v42.44C153.2,213.38,151.77,214.81,150.01,214.81z M150.01,167.59c-0.88,0-1.59,0.71-1.59,1.59
									v42.44c0,0.88,0.71,1.59,1.59,1.59c0.88,0,1.59-0.71,1.59-1.59v-42.44C151.6,168.31,150.89,167.59,150.01,167.59z"/>
							</g>
							<g>
								<path class="st1" d="M150.01,167.06c1.17,0,2.12,0.95,2.12,2.12v42.44c0,1.17-0.95,2.12-2.12,2.12s-2.12-0.95-2.12-2.12
									v-42.44C147.89,168.01,148.84,167.06,150.01,167.06L150.01,167.06z M150.01,166.52c-1.47,0-2.66,1.19-2.66,2.66v42.44
									c0,1.47,1.19,2.66,2.66,2.66c1.47,0,2.66-1.19,2.66-2.66v-42.44C152.67,167.72,151.48,166.52,150.01,166.52L150.01,166.52z"
									/>
								<path class="st1" d="M150.01,211.74c-1.65,0-2.99-1.34-2.99-2.99v-36.68c0-1.65,1.34-2.99,2.99-2.99
									c1.65,0,2.99,1.34,2.99,2.99v36.68C153,210.39,151.66,211.74,150.01,211.74z M150.01,170.92c-0.63,0-1.14,0.51-1.14,1.14
									v36.68c0,0.63,0.51,1.14,1.14,1.14s1.14-0.51,1.14-1.14v-36.68C151.15,171.43,150.64,170.92,150.01,170.92z"/>
							</g>
						</g>
					</g>
				</g>
			</g>
		</g>
	</g>
	<g id="XMLID_00000085240846292545961450000006329007194416954794_">
		<g id="XMLID_00000168090080292858299490000017330577872452881282_">
			<g id="XMLID_00000035508950803878004560000000300542771449062841_">
				<g id="XMLID_00000109708317039025027290000004297405341433272978_">
					<g id="XMLID_00000156572320622990969650000008545937154499113105_">
						<g id="XMLID_00000167381657520876926150000018276127482036519348_">
							<g id="XMLID_00000029016871356447865750000015043719411674855332_">
								<g id="XMLID_00000001631772027949134630000006345804055687512754_">
									<g id="XMLID_00000049221279956597217950000002945766703944807821_">
										<g>
											<path class="st1" d="M150.01,112.17c-7.17,0-13-5.83-13-13c0-7.17,5.83-13,13-13s13,5.83,13,13
												C163.01,106.34,157.18,112.17,150.01,112.17z M150.01,90.95c-4.53,0-8.22,3.69-8.22,8.22c0,4.53,3.69,8.22,8.22,8.22
												c4.53,0,8.22-3.69,8.22-8.22C158.23,94.64,154.54,90.95,150.01,90.95z"/>
											<path class="st1" d="M150.01,112.97c-7.61,0-13.8-6.19-13.8-13.8s6.19-13.8,13.8-13.8c7.61,0,13.8,6.19,13.8,13.8
												S157.62,112.97,150.01,112.97z M150.01,86.96c-6.73,0-12.2,5.47-12.2,12.2c0,6.73,5.47,12.2,12.2,12.2
												s12.2-5.47,12.2-12.2C162.21,92.44,156.74,86.96,150.01,86.96z M150.01,108.18c-4.97,0-9.02-4.04-9.02-9.02
												c0-4.97,4.04-9.02,9.02-9.02s9.02,4.04,9.02,9.02C159.03,104.14,154.98,108.18,150.01,108.18z M150.01,91.75
												c-4.09,0-7.42,3.33-7.42,7.42c0,4.09,3.33,7.42,7.42,7.42s7.42-3.33,7.42-7.42C157.43,95.08,154.1,91.75,150.01,91.75z"
												/>
										</g>
										<g>
											<path class="st1" d="M150.01,86.44c7.02,0,12.73,5.71,12.73,12.73s-5.71,12.73-12.73,12.73
												c-7.02,0-12.73-5.71-12.73-12.73S142.99,86.44,150.01,86.44L150.01,86.44z M150.01,107.65c4.68,0,8.49-3.8,8.49-8.49
												s-3.81-8.49-8.49-8.49c-4.68,0-8.49,3.8-8.49,8.49S145.33,107.65,150.01,107.65L150.01,107.65z M150.01,85.9
												c-7.32,0-13.27,5.95-13.27,13.27s5.95,13.27,13.27,13.27c7.32,0,13.27-5.95,13.27-13.27S157.33,85.9,150.01,85.9
												L150.01,85.9z M150.01,107.11c-4.38,0-7.95-3.56-7.95-7.95s3.56-7.95,7.95-7.95c4.38,0,7.95,3.56,7.95,7.95
												S154.39,107.11,150.01,107.11L150.01,107.11z"/>
											<path class="st1" d="M150.01,113.24c-7.76,0-14.07-6.31-14.07-14.07s6.31-14.07,14.07-14.07
												c7.76,0,14.07,6.31,14.07,14.07S157.77,113.24,150.01,113.24z M150.01,87.24c-6.58,0-11.93,5.35-11.93,11.93
												c0,6.58,5.35,11.93,11.93,11.93s11.93-5.35,11.93-11.93C161.94,92.59,156.59,87.24,150.01,87.24z M150.01,108.45
												c-5.12,0-9.29-4.17-9.29-9.29c0-5.12,4.17-9.29,9.29-9.29c5.12,0,9.29,4.17,9.29,9.29
												C159.3,104.29,155.13,108.45,150.01,108.45z M150.01,92.02c-3.94,0-7.15,3.21-7.15,7.15s3.21,7.15,7.15,7.15
												c3.94,0,7.15-3.21,7.15-7.15S153.95,92.02,150.01,92.02z"/>
										</g>
									</g>
								</g>
							</g>
						</g>
					</g>
				</g>
			</g>
		</g>
	</g>
</g>
</svg>
