<?xml version="1.0" encoding="utf-8"?>
<!-- Generator: Adobe Illustrator 26.3.1, SVG Export Plug-In . SVG Version: 6.00 Build 0)  -->
<svg version="1.1" id="Layer_1" xmlns="http://www.w3.org/2000/svg" xmlns:xlink="http://www.w3.org/1999/xlink" x="0px" y="0px"
	 viewBox="0 0 300 300" style="enable-background:new 0 0 300 300;" xml:space="preserve">
<style type="text/css">
	.st0{fill:#FFFFFF;stroke:#FFFFFF;stroke-width:3;stroke-miterlimit:10;}
	.st1{fill:#FFFFFF;stroke:#FFFFFF;stroke-miterlimit:10;}
	.st2{fill:#00457F;}
	.st3{fill:#00457F;stroke:#00457F;stroke-width:2;stroke-miterlimit:10;}
</style>
<g>
	<g>
		<g>
			<path class="st2" d="M228.5,126.33c0-14.65-4.07-28.95-11.76-41.33c-0.54-0.89-1.44-1.54-2.49-1.78
				c-1.04-0.24-2.13-0.06-2.95,0.46c-0.92,0.55-1.56,1.43-1.79,2.45c-0.26,1.01-0.09,2.08,0.48,3.03
				c6.93,11.14,10.59,23.99,10.59,37.17c0,18.12-6.87,35.35-19.34,48.52c-9.84,10.37-15.25,24.2-15.24,38.96l0.06,9.24
				c0,2.55-0.98,4.94-2.77,6.73c-1.79,1.79-4.17,2.78-6.73,2.78h-2.31v-64.39c0-2.83-1.52-5.44-4-6.87l0.01-11.88
				c0.52-3.44,1.52-6.82,2.97-10.03c1.6-3.49,3.73-6.72,6.34-9.62c1.66-1.86,1.98-4.56,0.81-6.73c-3.41-6.33-7.11-12.52-11-18.42
				c-4.21-6.4-8.88-12.75-13.88-18.89c-1.34-1.65-3.36-2.59-5.55-2.59c-2.16,0-4.17,0.93-5.51,2.54
				c-5.06,6.13-9.85,12.62-14.23,19.31c-3.84,5.85-7.41,11.9-10.61,17.99c-1.2,2.31-0.75,5.17,1.11,6.96
				c3.09,2.98,5.44,6.48,6.99,10.41c1.17,2.93,1.86,6.03,2.05,9.14v11.79c-2.47,1.43-4,4.05-4,6.89v52.43
				c0,2.18,1.78,3.96,3.97,3.96s3.97-1.78,3.97-3.96v-35.33h32.62v47.29l-42.75,0.01c-5.23,0-9.5-4.26-9.51-9.5l-0.04-8.89
				c-0.01-14.89-5.5-28.94-15.45-39.55c-12.19-12.96-18.98-29.89-19.12-47.67c-0.34-38.71,30.86-70.64,69.55-71.18l0.98-0.01
				c19.31,0,38,8.04,51.27,22.05c0.7,0.75,1.71,1.2,2.75,1.23c1.08,0.05,2.1-0.34,2.86-1.06c0.77-0.72,1.22-1.74,1.24-2.77
				c0.03-1.06-0.35-2.07-1.08-2.85c-14.76-15.59-35.55-24.53-57.05-24.53l-1.08,0.01c-43.04,0.6-77.75,36.12-77.38,79.17
				c0.17,19.81,7.73,38.65,21.28,53.05c8.55,9.1,13.27,21.22,13.3,34.13l0.04,8.89c0.01,8.14,5.76,15.26,13.69,17.01l-0.06,13.05
				c-0.01,0.12-0.01,0.25-0.01,0.38s0,0.25,0.01,0.38l-0.01,6.22c-0.03,4.47,1.69,8.68,4.87,11.88c3.17,3.18,7.38,4.93,11.86,4.93
				h27c9.18,0,16.69-7.48,16.73-16.67l0.09-20.17c3.25-0.7,6.23-2.33,8.62-4.72c3.28-3.29,5.09-7.68,5.09-12.37l-0.05-9.23
				c-0.01-12.7,4.62-24.58,13.04-33.47C220.86,165.66,228.5,146.49,228.5,126.33z M163.47,269.88h-27c-2.59,0-5.03-1.02-6.86-2.85
				c-1.83-1.84-2.83-4.28-2.81-6.88l0.01-3.53h35.2c1.7,0,3.09-1.39,3.09-3.09c0-1.71-1.39-3.1-3.09-3.1h-35.18l0.05-10.8h46.35
				l-0.09,20.62C173.12,265.56,168.78,269.88,163.47,269.88z M126.65,125.72l-0.24-0.26l0.15-0.29c3.04-5.66,6.29-11.13,9.65-16.25
				c3.13-4.75,6.4-9.32,9.72-13.59l0.86-1.1v33.11c0,1.78,1.44,3.22,3.21,3.22s3.21-1.44,3.21-3.22V94.39l0.86,1.11
				c3.26,4.25,6.39,8.65,9.31,13.08c3.59,5.42,6.98,11.07,10.09,16.78l0.15,0.29l-0.2,0.24c-2.72,3.18-4.98,6.73-6.71,10.53
				c-1.35,2.93-2.39,6.06-3.08,9.3l-0.08,0.38h-26.93l-0.07-0.4c-0.43-2.79-1.16-5.48-2.17-8.01
				C132.59,133.22,129.99,129.2,126.65,125.72z M163.05,152.53v8.48h-26.1v-8.48H163.05z M133.31,177.72v-9.55
				c0-0.2,0.18-0.35,0.41-0.35h32.6c0.21,0,0.37,0.15,0.37,0.35v9.55H133.31z"/>
		</g>
	</g>
	<g>
		<g>
			<g>
				<path class="st2" d="M155.39,28.48v6.83c0,2.99-2.43,5.42-5.42,5.42s-5.43-2.43-5.43-5.42v-6.83c0-2.99,2.44-5.42,5.43-5.42
					S155.39,25.49,155.39,28.48z"/>
			</g>
		</g>
	</g>
	<g>
		<g>
			<g>
				<path class="st2" d="M252.34,128.51c0,2.99-2.43,5.42-5.42,5.42h-6.62c-2.99,0-5.42-2.43-5.42-5.42c0-2.99,2.43-5.43,5.42-5.43
					h6.62C249.91,123.08,252.34,125.52,252.34,128.51z"/>
			</g>
		</g>
	</g>
	<g>
		<g>
			<g>
				<path class="st2" d="M65.12,128.51c0,2.99-2.43,5.42-5.42,5.42h-6.62c-2.99,0-5.42-2.43-5.42-5.42c0-2.99,2.43-5.43,5.42-5.43
					h6.62C62.69,123.08,65.12,125.52,65.12,128.51z"/>
			</g>
		</g>
	</g>
	<g>
		<g>
			<g>
				<path class="st2" d="M222.43,61.55l-4.68,4.83c-1.03,1.06-2.42,1.65-3.9,1.65c-1.41,0-2.75-0.54-3.77-1.53
					c-1.04-1.01-1.63-2.36-1.65-3.81s0.52-2.82,1.53-3.86l4.67-4.82c1.04-1.07,2.42-1.65,3.9-1.65c1.41,0,2.75,0.54,3.77,1.52
					C224.45,55.96,224.5,59.4,222.43,61.55z"/>
			</g>
		</g>
	</g>
	<g>
		<g>
			<g>
				<path class="st2" d="M91.57,194.32c0.02,1.45-0.52,2.82-1.53,3.86l-4.67,4.83c-1.03,1.06-2.41,1.65-3.9,1.65
					c-1.41,0-2.75-0.54-3.77-1.53c-1.04-1.01-1.63-2.36-1.65-3.81c-0.03-1.45,0.52-2.82,1.53-3.86l4.67-4.82
					c1.03-1.07,2.42-1.65,3.9-1.65c1.41,0,2.75,0.54,3.77,1.52C90.96,191.52,91.55,192.87,91.57,194.32z"/>
			</g>
		</g>
	</g>
	<g>
		<g>
			<g>
				<path class="st2" d="M222.3,203.13c-1.02,0.99-2.35,1.53-3.77,1.53c-1.48,0-2.86-0.59-3.9-1.65l-4.67-4.83
					c-1.01-1.04-1.55-2.41-1.53-3.85c0.02-1.46,0.61-2.81,1.65-3.82c1.02-0.98,2.36-1.52,3.77-1.52c1.48,0,2.87,0.58,3.9,1.65
					l4.67,4.82C224.5,197.61,224.45,201.05,222.3,203.13z"/>
			</g>
		</g>
	</g>
	<g>
		<g>
			<g>
				<path class="st2" d="M91.57,62.69c-0.02,1.45-0.61,2.8-1.65,3.81c-1.02,0.98-2.36,1.53-3.77,1.53c-1.48,0-2.87-0.59-3.9-1.65
					l-4.67-4.83c-1.01-1.04-1.55-2.41-1.53-3.86s0.61-2.8,1.65-3.81c1.01-0.98,2.35-1.52,3.77-1.52c1.49,0,2.87,0.58,3.9,1.65
					l4.67,4.82C91.05,59.87,91.59,61.24,91.57,62.69z"/>
			</g>
		</g>
	</g>
</g>
</svg>
