<?xml version="1.0" encoding="utf-8"?>
<!-- Generator: Adobe Illustrator 26.3.1, SVG Export Plug-In . SVG Version: 6.00 Build 0)  -->
<svg version="1.1" id="Layer_1" xmlns="http://www.w3.org/2000/svg" xmlns:xlink="http://www.w3.org/1999/xlink" x="0px" y="0px"
	 viewBox="0 0 300 300" style="enable-background:new 0 0 300 300;" xml:space="preserve">
<style type="text/css">
	.st0{fill:#FFFFFF;}
	.st1{fill:#00457F;}
</style>
<g>
	<g>
		<g>
			<g>
				<path class="st1" d="M125.39,238.13l-0.06,13.8h36.68c0.88,0,1.59,0.72,1.59,1.6s-0.71,1.59-1.59,1.59h-36.7l-0.01,5.03
					c-0.02,3,1.13,5.82,3.25,7.94c2.11,2.12,4.92,3.29,7.92,3.29h27c6.14,0,11.15-4.99,11.17-11.13l0.1-22.12H125.39z
					 M163.47,269.88h-27c-2.59,0-5.03-1.02-6.86-2.85c-1.83-1.84-2.83-4.28-2.81-6.88l0.01-3.53h35.2c1.7,0,3.09-1.39,3.09-3.09
					c0-1.71-1.39-3.1-3.09-3.1h-35.18l0.05-10.8h46.35l-0.09,20.62C173.12,265.56,168.78,269.88,163.47,269.88z M125.88,238.63
					l-0.05,12.8h36.18c1.15,0,2.09,0.94,2.09,2.1c0,1.15-0.94,2.09-2.09,2.09h-36.2l-0.01,4.53c-0.02,2.87,1.08,5.56,3.11,7.58
					c2.01,2.03,4.7,3.15,7.56,3.15h27c5.86,0,10.65-4.77,10.67-10.63l0.09-21.62H125.88z M173.14,260.25
					c-0.02,5.31-4.36,9.63-9.67,9.63h-27c-2.59,0-5.03-1.02-6.86-2.85c-1.83-1.84-2.83-4.28-2.81-6.88l0.01-3.53h35.2
					c1.7,0,3.09-1.39,3.09-3.09c0-1.71-1.39-3.1-3.09-3.1h-35.18l0.05-10.8h46.35L173.14,260.25z M125.39,238.13l-0.06,13.8h36.68
					c0.88,0,1.59,0.72,1.59,1.6s-0.71,1.59-1.59,1.59h-36.7l-0.01,5.03c-0.02,3,1.13,5.82,3.25,7.94c2.11,2.12,4.92,3.29,7.92,3.29
					h27c6.14,0,11.15-4.99,11.17-11.13l0.1-22.12H125.39z M163.47,269.88h-27c-2.59,0-5.03-1.02-6.86-2.85
					c-1.83-1.84-2.83-4.28-2.81-6.88l0.01-3.53h35.2c1.7,0,3.09-1.39,3.09-3.09c0-1.71-1.39-3.1-3.09-3.1h-35.18l0.05-10.8h46.35
					l-0.09,20.62C173.12,265.56,168.78,269.88,163.47,269.88z M126.38,239.13l-0.05,11.8h35.68c1.43,0,2.59,1.17,2.59,2.6
					s-1.16,2.59-2.59,2.59h-35.7l-0.01,4.03c-0.02,2.74,1.03,5.3,2.96,7.23c1.92,1.93,4.48,3,7.21,3h27
					c5.59,0,10.15-4.55,10.17-10.13l0.09-21.12H126.38z M173.14,260.25c-0.02,5.31-4.36,9.63-9.67,9.63h-27
					c-2.59,0-5.03-1.02-6.86-2.85c-1.83-1.84-2.83-4.28-2.81-6.88l0.01-3.53h35.2c1.7,0,3.09-1.39,3.09-3.09
					c0-1.71-1.39-3.1-3.09-3.1h-35.18l0.05-10.8h46.35L173.14,260.25z M125.39,238.13l-0.06,13.8h36.68c0.88,0,1.59,0.72,1.59,1.6
					s-0.71,1.59-1.59,1.59h-36.7l-0.01,5.03c-0.02,3,1.13,5.82,3.25,7.94c2.11,2.12,4.92,3.29,7.92,3.29h27
					c6.14,0,11.15-4.99,11.17-11.13l0.1-22.12H125.39z M163.47,269.88h-27c-2.59,0-5.03-1.02-6.86-2.85
					c-1.83-1.84-2.83-4.28-2.81-6.88l0.01-3.53h35.2c1.7,0,3.09-1.39,3.09-3.09c0-1.71-1.39-3.1-3.09-3.1h-35.18l0.05-10.8h46.35
					l-0.09,20.62C173.12,265.56,168.78,269.88,163.47,269.88z"/>
				<g>
					<path class="st1" d="M226.62,126.33c0-14.31-3.97-28.27-11.49-40.37c-0.58-0.95-1.93-1.27-2.87-0.67
						c-0.48,0.29-0.81,0.75-0.94,1.3c-0.13,0.54-0.03,1.1,0.26,1.58c7.11,11.44,10.87,24.63,10.87,38.16
						c0,18.62-7.05,36.3-19.85,49.81c-9.51,10.03-14.74,23.42-14.72,37.66l0.06,9.25c0,3.04-1.17,5.91-3.32,8.06
						s-5.02,3.33-8.06,3.33h-4.19v-66.27c0-2.21-1.21-4.24-3.16-5.3l-0.84-0.45l0.02-13.17c0.55-3.69,1.61-7.26,3.14-10.63
						c1.68-3.68,3.92-7.08,6.64-10.1c1.13-1.27,1.36-3.11,0.56-4.59c-3.35-6.23-7.02-12.38-10.91-18.27
						c-4.25-6.45-8.89-12.75-13.77-18.74c-0.98-1.21-2.47-1.9-4.1-1.9c-1.6,0-3.08,0.68-4.06,1.86c-5.05,6.1-9.8,12.55-14.12,19.14
						c-3.77,5.75-7.3,11.74-10.51,17.83c-0.82,1.57-0.52,3.52,0.75,4.74c3.28,3.17,5.78,6.9,7.43,11.06
						c1.25,3.12,1.98,6.42,2.18,9.82l0.01,0.15v12.79l-0.84,0.44c-1.95,1.07-3.16,3.1-3.16,5.32v52.43c0,1.16,0.94,2.09,2.09,2.09
						c1.15,0,2.09-0.93,2.09-2.09v-37.2h36.38v51.04l-44.63,0.01c-6.26,0-11.37-5.1-11.38-11.37l-0.04-8.9
						c-0.02-14.44-5.34-28.03-14.94-38.26c-12.51-13.3-19.49-30.69-19.64-48.95c-0.35-39.73,31.69-72.51,71.41-73.06
						c0.33,0,0.66-0.01,1-0.01c19.82,0,39.01,8.25,52.64,22.64c0.77,0.81,2.14,0.86,2.96,0.08c0.41-0.38,0.64-0.91,0.65-1.46
						c0.01-0.56-0.19-1.09-0.57-1.5c-14.41-15.22-34.71-23.95-55.68-23.95c-0.35,0-0.72,0.01-1.07,0.01
						c-42,0.59-75.88,35.26-75.52,77.29c0.16,19.32,7.54,37.71,20.76,51.77c8.88,9.46,13.79,22.03,13.81,35.41l0.05,8.9
						c0.01,7.35,5.23,13.74,12.42,15.22l1.28,0.26l-0.08,14.68c-0.01,0.09-0.01,0.18-0.01,0.28c0,0.1,0,0.18,0.02,0.33l-0.02,6.28
						c-0.02,3.97,1.52,7.72,4.33,10.55c2.81,2.82,6.54,4.37,10.53,4.37h27c8.16,0,14.82-6.63,14.85-14.8l0.1-21.69l1.28-0.26
						c2.98-0.6,5.7-2.07,7.88-4.25c2.93-2.94,4.55-6.86,4.54-11.04l-0.05-9.24c-0.01-13.16,4.8-25.51,13.56-34.76
						C219.17,164.73,226.62,146.02,226.62,126.33z M163.47,271.38h-27c-3,0-5.81-1.17-7.92-3.29c-2.12-2.12-3.27-4.94-3.25-7.94
						l0.01-5.03h36.7c0.88,0,1.59-0.71,1.59-1.59s-0.71-1.6-1.59-1.6h-36.68l0.06-13.8h49.35l-0.1,22.12
						C174.62,266.39,169.61,271.38,163.47,271.38z M150,129.44c1.15,0,2.09-0.93,2.09-2.1V91.08l2.87,3.74
						c3.29,4.29,6.44,8.71,9.36,13.14c3.6,5.45,7.01,11.12,10.13,16.86l0.53,0.96l-0.71,0.84c-2.65,3.11-4.85,6.56-6.54,10.27
						c-1.33,2.89-2.33,5.95-3,9.07l-0.27,1.26h-28.81l-0.21-1.35c-0.41-2.66-1.11-5.28-2.1-7.76c-1.73-4.32-4.25-8.22-7.5-11.61
						l-0.81-0.84l0.54-1.02c2.99-5.57,6.24-11.07,9.7-16.33c3.05-4.65,6.34-9.26,9.78-13.67l2.86-3.69v36.39
						C147.91,128.51,148.85,129.44,150,129.44z M164.18,151.41v10.72h-28.36v-10.72H164.18z M168.19,168.17v11.05h-36.38v-11.05
						c0-1.03,0.85-1.85,1.91-1.85h32.6C167.36,166.32,168.19,167.15,168.19,168.17z"/>
					<path class="st1" d="M174.78,124.64c-3.11-5.72-6.52-11.4-10.15-16.89c-2.91-4.41-6.06-8.84-9.37-13.16l-3.55-4.61v37.36
						c0,0.95-0.76,1.72-1.71,1.72s-1.71-0.77-1.71-1.72V89.85l-3.54,4.56c-3.4,4.36-6.69,8.97-9.79,13.69
						c-3.38,5.14-6.65,10.64-9.72,16.36l-0.67,1.26l1,1.04c3.22,3.35,5.71,7.22,7.42,11.49c0.97,2.42,1.67,5.01,2.08,7.68l0.26,1.67
						h29.43l0.34-1.56c0.67-3.15,1.67-6.17,2.97-8.99c1.67-3.67,3.85-7.1,6.49-10.19l0.87-1.04L174.78,124.64z M164.16,146.85
						h-28.19l-0.16-1.04c-0.42-2.73-1.13-5.36-2.12-7.84c-1.75-4.36-4.3-8.31-7.58-11.73l-0.62-0.64l0.41-0.78
						c3.06-5.7,6.32-11.19,9.68-16.3c3.09-4.71,6.38-9.3,9.77-13.65l2.19-2.82v35.29c0,1.36,1.1,2.47,2.46,2.47s2.46-1.11,2.46-2.47
						V92.18l2.2,2.87c3.3,4.3,6.44,8.71,9.35,13.12c3.61,5.47,7.01,11.13,10.11,16.83l0.41,0.73l-0.55,0.65
						c-2.67,3.14-4.89,6.62-6.59,10.35c-1.32,2.87-2.34,5.95-3.03,9.15L164.16,146.85z M135.45,151.03v11.48h29.1v-11.48H135.45z
						 M163.8,161.76h-27.6v-9.98h27.6V161.76z M166.32,165.94h-32.6c-1.26,0-2.28,1-2.28,2.23v11.43h37.12v-11.43
						C168.56,166.94,167.56,165.94,166.32,165.94z M167.81,178.85h-35.62v-10.68c0-0.83,0.67-1.48,1.53-1.48h32.6
						c0.82,0,1.49,0.67,1.49,1.48V178.85z M125.02,237.76l-0.07,14.55h37.06c0.67,0,1.21,0.54,1.21,1.22c0,0.67-0.54,1.21-1.21,1.21
						h-37.07l-0.02,5.41c-0.02,3.1,1.18,6.02,3.36,8.2c2.19,2.2,5.09,3.41,8.19,3.41h27c6.35,0,11.52-5.16,11.54-11.51l0.11-22.49
						H125.02z M174.26,260.25c-0.01,5.93-4.86,10.76-10.79,10.76h-27c-2.89,0-5.61-1.13-7.65-3.19c-2.05-2.04-3.16-4.76-3.15-7.67
						l0.01-4.66h36.33c1.08,0,1.96-0.88,1.96-1.96c0-1.09-0.88-1.97-1.96-1.97h-36.3l0.05-13.05h48.6L174.26,260.25z M132.99,138.25
						c0.97,2.42,1.67,5.01,2.08,7.68l0.26,1.67h29.43l0.34-1.56c0.67-3.15,1.67-6.17,2.97-8.99c1.67-3.67,3.85-7.1,6.49-10.19
						l0.87-1.04l-0.65-1.18c-3.11-5.72-6.52-11.4-10.15-16.89c-2.91-4.41-6.06-8.84-9.37-13.16l-3.55-4.61v37.36
						c0,0.95-0.76,1.72-1.71,1.72s-1.71-0.77-1.71-1.72V89.85l-3.54,4.56c-3.4,4.36-6.69,8.97-9.79,13.69
						c-3.38,5.14-6.65,10.64-9.72,16.36l-0.67,1.26l1,1.04C128.79,130.11,131.28,133.98,132.99,138.25z M147.54,92.05v35.29
						c0,1.36,1.1,2.47,2.46,2.47s2.46-1.11,2.46-2.47V92.18l2.2,2.87c3.3,4.3,6.44,8.71,9.35,13.12
						c3.61,5.47,7.01,11.13,10.11,16.83l0.41,0.73l-0.55,0.65c-2.67,3.14-4.89,6.62-6.59,10.35c-1.32,2.87-2.34,5.95-3.03,9.15
						l-0.2,0.97h-28.19l-0.16-1.04c-0.42-2.73-1.13-5.36-2.12-7.84c-1.75-4.36-4.3-8.31-7.58-11.73l-0.62-0.64l0.41-0.78
						c3.06-5.7,6.32-11.19,9.68-16.3c3.09-4.71,6.38-9.3,9.77-13.65L147.54,92.05z M124.95,252.31h37.06c0.67,0,1.21,0.54,1.21,1.22
						c0,0.67-0.54,1.21-1.21,1.21h-37.07l-0.02,5.41c-0.02,3.1,1.18,6.02,3.36,8.2c2.19,2.2,5.09,3.41,8.19,3.41h27
						c6.35,0,11.52-5.16,11.54-11.51l0.11-22.49h-50.1L124.95,252.31z M125.76,238.51h48.6l-0.1,21.74
						c-0.01,5.93-4.86,10.76-10.79,10.76h-27c-2.89,0-5.61-1.13-7.65-3.19c-2.05-2.04-3.16-4.76-3.15-7.67l0.01-4.66h36.33
						c1.08,0,1.96-0.88,1.96-1.96c0-1.09-0.88-1.97-1.96-1.97h-36.3L125.76,238.51z M131.44,168.17v11.43h37.12v-11.43
						c0-1.23-1-2.23-2.24-2.23h-32.6C132.46,165.94,131.44,166.94,131.44,168.17z M167.81,178.85h-35.62v-10.68
						c0-0.83,0.67-1.48,1.53-1.48h32.6c0.82,0,1.49,0.67,1.49,1.48V178.85z M135.45,151.03v11.48h29.1v-11.48H135.45z M163.8,161.76
						h-27.6v-9.98h27.6V161.76z M227,126.33c0-14.39-4-28.41-11.55-40.56c-0.33-0.55-0.89-0.94-1.54-1.09
						c-0.65-0.15-1.32-0.04-1.84,0.29c-0.57,0.34-0.96,0.88-1.11,1.53c-0.16,0.63-0.05,1.29,0.3,1.87
						c7.08,11.38,10.82,24.51,10.82,37.96c0,18.51-7.02,36.11-19.75,49.55c-9.58,10.1-14.84,23.57-14.83,37.92l0.06,9.25
						c0,2.96-1.14,5.72-3.21,7.79c-2.07,2.08-4.84,3.22-7.79,3.22h-3.81v-65.89c0-2.35-1.29-4.5-3.36-5.63l-0.64-0.34l0.01-12.89
						c0.54-3.64,1.59-7.18,3.11-10.54c1.66-3.63,3.87-6.99,6.58-10c1.24-1.39,1.48-3.41,0.61-5.02c-3.37-6.26-7.04-12.41-10.93-18.3
						c-4.21-6.39-8.85-12.7-13.79-18.77c-1.05-1.29-2.65-2.04-4.39-2.04c-1.71,0-3.3,0.73-4.35,2c-5.02,6.07-9.78,12.52-14.14,19.17
						c-3.77,5.75-7.32,11.76-10.53,17.87c-0.9,1.72-0.56,3.85,0.82,5.18c3.24,3.13,5.71,6.8,7.34,10.93
						c1.23,3.07,1.96,6.34,2.16,9.7v12.69l-0.64,0.34c-2.07,1.14-3.36,3.3-3.36,5.65v52.43c0,1.36,1.11,2.46,2.47,2.46
						c1.36,0,2.47-1.1,2.47-2.46v-36.83h35.62v50.29l-44.25,0.01c-6.06,0-11-4.93-11.01-10.99l-0.04-8.9
						c-0.01-14.52-5.36-28.2-15.04-38.52c-12.45-13.23-19.39-30.53-19.53-48.69c-0.35-39.53,31.52-72.14,71.03-72.69l1-0.01
						c19.72,0,38.81,8.21,52.37,22.53c0.43,0.46,1.06,0.73,1.72,0.75c0.67,0.03,1.3-0.21,1.77-0.66c0.47-0.44,0.75-1.07,0.76-1.72
						c0.02-0.66-0.22-1.29-0.67-1.77c-14.48-15.29-34.87-24.06-55.95-24.06l-1.07,0.01c-42.21,0.59-76.26,35.43-75.9,77.66
						c0.17,19.42,7.57,37.89,20.87,52.03c8.82,9.39,13.68,21.88,13.71,35.15l0.04,8.9c0.01,7.52,5.36,14.07,12.73,15.59l0.97,0.2
						l-0.07,14.33c-0.01,0.1-0.01,0.21-0.01,0.32s0,0.21,0.01,0.33l-0.01,6.28c-0.03,4.07,1.55,7.91,4.43,10.81
						c2.88,2.89,6.72,4.49,10.8,4.49h27c8.36,0,15.19-6.81,15.23-15.18l0.09-21.38l0.98-0.2c3.05-0.62,5.84-2.12,8.08-4.36
						c3-3.01,4.65-7.03,4.65-11.3l-0.05-9.24c-0.01-13.08,4.76-25.33,13.45-34.5C219.5,164.92,227,146.12,227,126.33z M191.7,213.78
						l0.05,9.24c0,4.07-1.57,7.9-4.44,10.77c-2.12,2.13-4.78,3.57-7.68,4.15l-1.58,0.32l-0.1,22c-0.03,7.95-6.53,14.42-14.48,14.42
						h-27c-3.88,0-7.53-1.51-10.26-4.25c-2.75-2.77-4.24-6.42-4.22-10.29l0.01-6.33c-0.01-0.13-0.01-0.19-0.01-0.28
						c0-0.09-0.01-0.16,0.01-0.28l0.08-14.99l-1.58-0.32c-7.02-1.44-12.12-7.69-12.12-14.85l-0.05-8.9
						c-0.03-13.46-4.97-26.13-13.92-35.67c-13.16-14-20.5-32.29-20.66-51.51C73.4,85.18,107.11,50.68,148.9,50.1l1.07-0.01
						c20.87,0,41.07,8.68,55.41,23.82c0.31,0.34,0.47,0.78,0.46,1.24c0,0.46-0.2,0.89-0.53,1.2c-0.32,0.3-0.72,0.49-1.23,0.45
						c-0.46-0.01-0.9-0.2-1.2-0.52c-13.7-14.46-32.98-22.76-52.91-22.76l-1.01,0.01c-39.93,0.56-72.13,33.5-71.77,73.44
						c0.15,18.36,7.16,35.83,19.74,49.21c9.55,10.17,14.82,23.67,14.83,38l0.04,8.9c0.01,6.48,5.29,11.74,11.76,11.74l45-0.01
						v-51.79h-37.12v37.58c0,0.95-0.77,1.71-1.72,1.71s-1.72-0.76-1.72-1.71v-52.43c0-2.07,1.14-3.99,2.96-4.99l1.04-0.54V149.6
						l-0.01-0.15c-0.2-3.45-0.94-6.79-2.2-9.94c-1.68-4.22-4.21-7.99-7.52-11.19c-1.15-1.1-1.42-2.87-0.68-4.3
						c3.21-6.07,6.74-12.06,10.49-17.79c4.35-6.64,9.09-13.07,14.1-19.11c0.91-1.1,2.28-1.73,3.77-1.73c1.51,0,2.9,0.65,3.81,1.77
						c4.92,6.04,9.55,12.34,13.75,18.71c3.87,5.86,7.53,12,10.89,18.24c0.72,1.33,0.52,3.01-0.51,4.16
						c-2.76,3.06-5.01,6.49-6.7,10.19c-1.55,3.42-2.62,7.03-3.18,10.79L168,162.64l1.03,0.56c1.83,0.99,2.97,2.9,2.97,4.97v66.64
						h4.56c3.15,0,6.11-1.22,8.33-3.43c2.21-2.22,3.42-5.17,3.42-8.33l-0.06-9.25c-0.01-14.16,5.18-27.44,14.62-37.4
						c12.87-13.58,19.96-31.36,19.96-50.07c0-13.59-3.78-26.86-10.93-38.35c-0.24-0.41-0.32-0.87-0.21-1.3
						c0.1-0.46,0.38-0.83,0.77-1.07c0.36-0.23,0.83-0.31,1.28-0.2c0.45,0.1,0.84,0.38,1.07,0.75c7.48,12.03,11.44,25.92,11.44,40.17
						c0,19.6-7.42,38.22-20.89,52.43C196.54,188.08,191.69,200.51,191.7,213.78z M135.07,145.93l0.26,1.67h29.43l0.34-1.56
						c0.67-3.15,1.67-6.17,2.97-8.99c1.67-3.67,3.85-7.1,6.49-10.19l0.87-1.04l-0.65-1.18c-3.11-5.72-6.52-11.4-10.15-16.89
						c-2.91-4.41-6.06-8.84-9.37-13.16l-3.55-4.61v37.36c0,0.95-0.76,1.72-1.71,1.72s-1.71-0.77-1.71-1.72V89.85l-3.54,4.56
						c-3.4,4.36-6.69,8.97-9.79,13.69c-3.38,5.14-6.65,10.64-9.72,16.36l-0.67,1.26l1,1.04c3.22,3.35,5.71,7.22,7.42,11.49
						C133.96,140.67,134.66,143.26,135.07,145.93z M147.54,92.05v35.29c0,1.36,1.1,2.47,2.46,2.47s2.46-1.11,2.46-2.47V92.18
						l2.2,2.87c3.3,4.3,6.44,8.71,9.35,13.12c3.61,5.47,7.01,11.13,10.11,16.83l0.41,0.73l-0.55,0.65
						c-2.67,3.14-4.89,6.62-6.59,10.35c-1.32,2.87-2.34,5.95-3.03,9.15l-0.2,0.97h-28.19l-0.16-1.04c-0.42-2.73-1.13-5.36-2.12-7.84
						c-1.75-4.36-4.3-8.31-7.58-11.73l-0.62-0.64l0.41-0.78c3.06-5.7,6.32-11.19,9.68-16.3c3.09-4.71,6.38-9.3,9.77-13.65
						L147.54,92.05z M124.95,252.31h37.06c0.67,0,1.21,0.54,1.21,1.22c0,0.67-0.54,1.21-1.21,1.21h-37.07l-0.02,5.41
						c-0.02,3.1,1.18,6.02,3.36,8.2c2.19,2.2,5.09,3.41,8.19,3.41h27c6.35,0,11.52-5.16,11.54-11.51l0.11-22.49h-50.1L124.95,252.31
						z M125.76,238.51h48.6l-0.1,21.74c-0.01,5.93-4.86,10.76-10.79,10.76h-27c-2.89,0-5.61-1.13-7.65-3.19
						c-2.05-2.04-3.16-4.76-3.15-7.67l0.01-4.66h36.33c1.08,0,1.96-0.88,1.96-1.96c0-1.09-0.88-1.97-1.96-1.97h-36.3L125.76,238.51z
						 M168.56,168.17c0-1.23-1-2.23-2.24-2.23h-32.6c-1.26,0-2.28,1-2.28,2.23v11.43h37.12V168.17z M167.81,178.85h-35.62v-10.68
						c0-0.83,0.67-1.48,1.53-1.48h32.6c0.82,0,1.49,0.67,1.49,1.48V178.85z M164.55,162.51v-11.48h-29.1v11.48H164.55z
						 M136.2,151.78h27.6v9.98h-27.6V151.78z"/>
				</g>
			</g>
		</g>
	</g>
	<g>
		<g>
			<path class="st1" d="M149.97,38.46c-1.74,0-3.16-1.42-3.16-3.16v-6.82c0-1.74,1.42-3.16,3.16-3.16s3.16,1.42,3.16,3.16v6.82
				C153.12,37.05,151.71,38.46,149.97,38.46z"/>
			<path class="st1" d="M149.97,38.96c-2.02,0-3.66-1.64-3.66-3.66v-6.82c0-2.02,1.64-3.66,3.66-3.66c2.02,0,3.66,1.64,3.66,3.66
				v6.82C153.62,37.32,151.98,38.96,149.97,38.96z M149.97,25.83c-1.46,0-2.66,1.19-2.66,2.66v6.82c0,1.46,1.19,2.66,2.66,2.66
				s2.66-1.19,2.66-2.66v-6.82C152.62,27.02,151.43,25.83,149.97,25.83z"/>
		</g>
		<g>
			<path class="st1" d="M149.97,38.73c-1.89,0-3.42-1.54-3.42-3.42v-6.82c0-1.89,1.54-3.42,3.42-3.42c1.89,0,3.42,1.54,3.42,3.42
				v6.82C153.39,37.19,151.85,38.73,149.97,38.73z M149.97,25.59c-1.59,0-2.89,1.3-2.89,2.89v6.82c0,1.59,1.3,2.89,2.89,2.89
				c1.59,0,2.89-1.3,2.89-2.89v-6.82C152.86,26.89,151.56,25.59,149.97,25.59z"/>
			<path class="st1" d="M149.97,39.23c-2.16,0-3.92-1.76-3.92-3.92v-6.82c0-2.16,1.76-3.92,3.92-3.92s3.92,1.76,3.92,3.92v6.82
				C153.89,37.47,152.13,39.23,149.97,39.23z M149.97,26.09c-1.32,0-2.39,1.07-2.39,2.39v6.82c0,1.32,1.07,2.39,2.39,2.39
				s2.39-1.07,2.39-2.39v-6.82C152.36,27.16,151.29,26.09,149.97,26.09z"/>
		</g>
	</g>
	<g>
		<g>
			<path class="st1" d="M240.3,131.66c-1.74,0-3.16-1.42-3.16-3.16c0-1.74,1.42-3.16,3.16-3.16h6.61c1.74,0,3.16,1.42,3.16,3.16
				c0,1.74-1.42,3.16-3.16,3.16H240.3z"/>
			<path class="st1" d="M246.91,132.16h-6.61c-2.02,0-3.66-1.64-3.66-3.66c0-2.02,1.64-3.66,3.66-3.66h6.61
				c2.02,0,3.66,1.64,3.66,3.66C250.57,130.52,248.93,132.16,246.91,132.16z M240.3,125.85c-1.46,0-2.66,1.19-2.66,2.66
				s1.19,2.66,2.66,2.66h6.61c1.46,0,2.66-1.19,2.66-2.66s-1.19-2.66-2.66-2.66H240.3z"/>
		</g>
		<g>
			<path class="st1" d="M246.91,131.93h-6.61c-1.89,0-3.42-1.54-3.42-3.42c0-1.89,1.54-3.42,3.42-3.42h6.61
				c1.89,0,3.42,1.54,3.42,3.42C250.34,130.39,248.8,131.93,246.91,131.93z M240.3,125.62c-1.59,0-2.89,1.3-2.89,2.89
				c0,1.59,1.3,2.89,2.89,2.89h6.61c1.59,0,2.89-1.3,2.89-2.89c0-1.59-1.3-2.89-2.89-2.89H240.3z"/>
			<path class="st1" d="M246.92,132.43h-6.61c-2.16,0-3.92-1.76-3.92-3.92c0-2.16,1.76-3.92,3.92-3.92h6.61
				c2.16,0,3.92,1.76,3.92,3.92C250.84,130.67,249.08,132.43,246.92,132.43z M240.3,126.12c-1.32,0-2.39,1.07-2.39,2.39
				s1.07,2.39,2.39,2.39h6.61c1.32,0,2.39-1.07,2.39-2.39s-1.07-2.39-2.39-2.39H240.3z"/>
		</g>
	</g>
	<g>
		<g>
			<path class="st1" d="M53.09,131.66c-1.74,0-3.16-1.42-3.16-3.16c0-1.74,1.42-3.16,3.16-3.16h6.61c1.74,0,3.16,1.42,3.16,3.16
				c0,1.74-1.42,3.16-3.16,3.16H53.09z"/>
			<path class="st1" d="M59.7,132.16h-6.61c-2.02,0-3.66-1.64-3.66-3.66c0-2.02,1.64-3.66,3.66-3.66h6.61
				c2.02,0,3.66,1.64,3.66,3.66C63.35,130.52,61.71,132.16,59.7,132.16z M53.09,125.85c-1.46,0-2.66,1.19-2.66,2.66
				s1.19,2.66,2.66,2.66h6.61c1.46,0,2.66-1.19,2.66-2.66s-1.19-2.66-2.66-2.66H53.09z"/>
		</g>
		<g>
			<path class="st1" d="M59.7,131.93h-6.61c-1.89,0-3.42-1.54-3.42-3.42c0-1.89,1.54-3.42,3.42-3.42h6.61
				c1.89,0,3.42,1.54,3.42,3.42C63.12,130.39,61.58,131.93,59.7,131.93z M53.09,125.62c-1.59,0-2.89,1.3-2.89,2.89
				c0,1.59,1.3,2.89,2.89,2.89h6.61c1.59,0,2.89-1.3,2.89-2.89c0-1.59-1.3-2.89-2.89-2.89H53.09z"/>
			<path class="st1" d="M59.7,132.43h-6.61c-2.16,0-3.92-1.76-3.92-3.92c0-2.16,1.76-3.92,3.92-3.92h6.61
				c2.16,0,3.92,1.76,3.92,3.92C63.62,130.67,61.86,132.43,59.7,132.43z M53.08,126.12c-1.32,0-2.39,1.07-2.39,2.39
				s1.07,2.39,2.39,2.39h6.61c1.32,0,2.39-1.07,2.39-2.39s-1.07-2.39-2.39-2.39H53.08z"/>
		</g>
	</g>
	<g>
		<g>
			<path class="st1" d="M213.85,65.76c-0.82,0-1.6-0.32-2.2-0.89c-0.61-0.59-0.95-1.37-0.96-2.22c-0.01-0.84,0.3-1.64,0.89-2.25
				l4.67-4.82c0.6-0.62,1.4-0.96,2.27-0.96c0.82,0,1.6,0.32,2.2,0.89c1.25,1.21,1.28,3.21,0.07,4.46l-4.68,4.83
				C215.52,65.42,214.72,65.76,213.85,65.76z"/>
			<path class="st1" d="M213.85,66.26c-0.96,0-1.86-0.37-2.54-1.03c-0.7-0.68-1.1-1.59-1.11-2.57c-0.02-0.98,0.35-1.9,1.03-2.6
				l4.67-4.82c1.36-1.4,3.76-1.44,5.17-0.08c0.7,0.68,1.09,1.59,1.11,2.57s-0.35,1.9-1.03,2.6l-4.67,4.83
				C215.79,65.87,214.85,66.26,213.85,66.26z M218.53,55.12c-0.73,0-1.4,0.29-1.91,0.81l-4.67,4.82c-0.49,0.51-0.76,1.18-0.75,1.89
				c0.01,0.71,0.3,1.37,0.81,1.87c1.02,0.99,2.77,0.96,3.76-0.06l4.67-4.83c1.02-1.05,0.99-2.74-0.06-3.76
				C219.88,55.39,219.22,55.12,218.53,55.12z"/>
		</g>
		<g>
			<path class="st1" d="M213.85,66.03c-0.89,0-1.74-0.34-2.38-0.96c-0.66-0.64-1.03-1.49-1.04-2.41c-0.02-0.91,0.33-1.78,0.96-2.44
				l4.67-4.82c0.65-0.67,1.52-1.04,2.46-1.04c0.89,0,1.74,0.34,2.38,0.96c1.35,1.31,1.39,3.48,0.08,4.84l-4.67,4.83
				C215.66,65.66,214.79,66.03,213.85,66.03z M218.53,54.89c-0.79,0-1.53,0.31-2.08,0.88l-4.68,4.82c-0.54,0.56-0.83,1.29-0.81,2.06
				c0.01,0.77,0.32,1.49,0.88,2.03c0.54,0.53,1.26,0.81,2.01,0.81c0.79,0,1.53-0.31,2.08-0.88l4.67-4.83
				c1.11-1.14,1.08-2.98-0.06-4.09C220,55.18,219.28,54.89,218.53,54.89z"/>
			<path class="st1" d="M213.85,66.53c-1.02,0-1.99-0.39-2.73-1.1c-0.75-0.73-1.18-1.71-1.19-2.76c-0.02-1.05,0.37-2.04,1.1-2.79
				l4.67-4.82c0.75-0.77,1.75-1.19,2.82-1.19c1.03,0,2,0.39,2.73,1.11c1.55,1.5,1.59,3.99,0.09,5.55l-4.68,4.83
				C215.93,66.1,214.92,66.53,213.85,66.53z M218.53,55.39c-0.65,0-1.26,0.26-1.72,0.73l-4.67,4.82c-0.45,0.46-0.68,1.06-0.67,1.7
				c0.01,0.64,0.27,1.24,0.73,1.68c0.92,0.89,2.49,0.86,3.38-0.05l4.67-4.83c0.92-0.95,0.89-2.46-0.05-3.38
				C219.74,55.63,219.15,55.39,218.53,55.39z"/>
		</g>
	</g>
	<g>
		<g>
			<path class="st1" d="M81.47,202.39c-0.82,0-1.6-0.32-2.2-0.89c-0.61-0.59-0.95-1.37-0.96-2.22c-0.01-0.84,0.3-1.64,0.89-2.25
				l4.67-4.82c0.6-0.62,1.41-0.96,2.27-0.96c0.82,0,1.6,0.32,2.2,0.89c0.61,0.59,0.95,1.37,0.96,2.22c0.01,0.84-0.3,1.64-0.89,2.25
				l-4.67,4.82C83.14,202.05,82.33,202.39,81.47,202.39z"/>
			<path class="st1" d="M81.47,202.89c-0.95,0-1.86-0.37-2.54-1.03c-0.7-0.68-1.1-1.59-1.11-2.57c-0.01-0.98,0.35-1.9,1.03-2.6
				l4.67-4.82c0.7-0.72,1.63-1.11,2.63-1.11c0.96,0,1.86,0.37,2.54,1.03c0.7,0.68,1.1,1.59,1.11,2.57c0.02,0.98-0.35,1.9-1.03,2.6
				l-4.67,4.82C83.4,202.5,82.47,202.89,81.47,202.89z M86.15,191.75c-0.72,0-1.4,0.29-1.91,0.81l-4.67,4.83
				c-0.49,0.51-0.76,1.18-0.75,1.89c0.01,0.71,0.3,1.37,0.81,1.87c1.02,0.99,2.77,0.96,3.76-0.06l4.67-4.82
				c0.5-0.51,0.76-1.18,0.75-1.89c-0.01-0.71-0.3-1.37-0.81-1.87C87.5,192.02,86.84,191.75,86.15,191.75z"/>
		</g>
		<g>
			<path class="st1" d="M81.47,202.66c-0.89,0-1.74-0.34-2.38-0.96c-0.66-0.64-1.03-1.49-1.04-2.4c-0.02-0.91,0.33-1.78,0.96-2.44
				l4.67-4.82c0.65-0.67,1.53-1.04,2.46-1.04c0.89,0,1.74,0.34,2.38,0.96c0.66,0.64,1.03,1.49,1.04,2.4
				c0.01,0.91-0.33,1.78-0.96,2.44l-4.67,4.82C83.28,202.29,82.41,202.66,81.47,202.66z M86.15,191.52c-0.79,0-1.53,0.31-2.08,0.88
				l-4.67,4.82c-0.54,0.56-0.83,1.29-0.82,2.06c0.01,0.77,0.32,1.49,0.88,2.03c0.54,0.53,1.26,0.82,2.01,0.82
				c0.79,0,1.53-0.31,2.08-0.88l4.67-4.82c0.54-0.56,0.83-1.29,0.82-2.06c-0.01-0.77-0.33-1.49-0.88-2.03
				C87.62,191.81,86.9,191.52,86.15,191.52z"/>
			<path class="st1" d="M81.47,203.16c-1.03,0-2-0.39-2.73-1.11c-0.75-0.73-1.18-1.71-1.19-2.76c-0.02-1.05,0.38-2.04,1.11-2.79
				l4.67-4.82c0.75-0.77,1.75-1.19,2.82-1.19c1.02,0,1.99,0.39,2.73,1.11c0.75,0.73,1.18,1.71,1.19,2.75
				c0.02,1.05-0.38,2.04-1.11,2.79l-4.67,4.82C83.55,202.73,82.54,203.16,81.47,203.16z M86.15,192.02c-0.65,0-1.26,0.26-1.72,0.73
				l-4.67,4.82c-0.45,0.46-0.69,1.06-0.67,1.7c0.01,0.64,0.27,1.23,0.72,1.68c0.92,0.89,2.5,0.87,3.38-0.05l4.67-4.82
				c0.45-0.46,0.68-1.06,0.67-1.7c-0.01-0.64-0.27-1.24-0.73-1.68C87.36,192.26,86.77,192.02,86.15,192.02z"/>
		</g>
	</g>
	<g>
		<g>
			<path class="st1" d="M218.53,202.39c-0.86,0-1.67-0.34-2.27-0.96l-4.67-4.82c-0.59-0.61-0.9-1.4-0.89-2.25
				c0.01-0.84,0.35-1.63,0.96-2.22c0.59-0.57,1.37-0.89,2.2-0.89c0.86,0,1.67,0.34,2.27,0.96l4.68,4.82
				c1.21,1.25,1.18,3.25-0.07,4.46C220.13,202.08,219.35,202.39,218.53,202.39z"/>
			<path class="st1" d="M218.53,202.89c-1,0-1.93-0.4-2.63-1.11l-4.67-4.82c-0.68-0.7-1.05-1.63-1.03-2.6
				c0.02-0.98,0.41-1.89,1.11-2.57c0.69-0.67,1.59-1.03,2.54-1.03c1,0,1.93,0.4,2.63,1.11l4.67,4.83c1.4,1.45,1.37,3.77-0.08,5.17
				C220.39,202.53,219.48,202.89,218.53,202.89z M213.85,191.75c-0.69,0-1.35,0.27-1.85,0.75c-0.51,0.49-0.8,1.16-0.81,1.87
				c-0.01,0.71,0.25,1.38,0.75,1.89l4.67,4.82c0.98,1.02,2.73,1.05,3.76,0.06c1.05-1.02,1.08-2.71,0.06-3.76l-4.67-4.83
				C215.26,192.04,214.58,191.75,213.85,191.75z"/>
		</g>
		<g>
			<path class="st1" d="M218.53,202.66c-0.93,0-1.81-0.37-2.46-1.04l-4.67-4.82c-0.64-0.66-0.98-1.52-0.96-2.44
				c0.02-0.92,0.39-1.77,1.04-2.4c0.64-0.62,1.49-0.96,2.38-0.96c0.93,0,1.81,0.37,2.46,1.04l4.67,4.82
				c1.31,1.36,1.28,3.53-0.08,4.84C220.27,202.32,219.42,202.66,218.53,202.66z M213.85,191.52c-0.75,0-1.47,0.29-2.01,0.82
				c-0.55,0.54-0.87,1.26-0.88,2.03c-0.01,0.77,0.28,1.5,0.82,2.06l4.68,4.82c0.55,0.57,1.29,0.88,2.08,0.88
				c0.75,0,1.47-0.29,2.01-0.82c1.14-1.11,1.17-2.94,0.06-4.09l-4.67-4.82C215.38,191.83,214.64,191.52,213.85,191.52z"/>
			<path class="st1" d="M218.53,203.16c-1.07,0-2.07-0.42-2.82-1.19l-4.68-4.83c-0.73-0.75-1.12-1.75-1.11-2.79
				c0.02-1.05,0.44-2.03,1.19-2.76c0.74-0.71,1.71-1.11,2.73-1.11c1.07,0,2.07,0.42,2.82,1.19l4.68,4.82
				c1.5,1.55,1.46,4.04-0.09,5.55C220.52,202.77,219.55,203.16,218.53,203.16z M213.85,192.02c-0.62,0-1.21,0.24-1.66,0.67
				c-0.46,0.44-0.72,1.04-0.73,1.68c-0.01,0.64,0.23,1.24,0.67,1.7l4.67,4.82c0.89,0.92,2.46,0.94,3.38,0.05
				c0.95-0.92,0.97-2.43,0.05-3.38l-4.67-4.83C215.12,192.28,214.5,192.02,213.85,192.02z"/>
		</g>
	</g>
	<g>
		<g>
			<path class="st1" d="M86.15,65.76c-0.86,0-1.67-0.34-2.27-0.96l-4.67-4.82c-1.21-1.25-1.18-3.25,0.07-4.46
				c0.59-0.57,1.37-0.89,2.2-0.89c0.86,0,1.67,0.34,2.27,0.96l4.67,4.82c0.59,0.61,0.9,1.4,0.89,2.25
				c-0.01,0.84-0.35,1.63-0.96,2.22C87.75,65.44,86.97,65.76,86.15,65.76z"/>
			<path class="st1" d="M86.15,66.26c-1,0-1.93-0.4-2.63-1.11l-4.67-4.83c-0.68-0.7-1.04-1.62-1.03-2.6s0.41-1.89,1.11-2.57
				c0.69-0.66,1.59-1.03,2.54-1.03c1,0,1.93,0.4,2.63,1.11l4.67,4.82c0.68,0.7,1.05,1.63,1.03,2.6c-0.02,0.98-0.41,1.89-1.11,2.57
				C88.01,65.89,87.1,66.26,86.15,66.26z M81.47,55.12c-0.69,0-1.35,0.27-1.85,0.75c-1.05,1.02-1.08,2.71-0.06,3.76l4.67,4.83
				c0.99,1.02,2.74,1.05,3.76,0.06c0.51-0.49,0.8-1.16,0.81-1.87c0.01-0.71-0.25-1.38-0.75-1.89l-4.67-4.82
				C82.88,55.41,82.2,55.12,81.47,55.12z"/>
		</g>
		<g>
			<path class="st1" d="M86.15,66.03c-0.93,0-1.81-0.37-2.46-1.04l-4.67-4.82c-0.64-0.66-0.98-1.52-0.96-2.44
				c0.01-0.92,0.38-1.77,1.04-2.4c0.64-0.62,1.48-0.96,2.38-0.96c0.94,0,1.81,0.37,2.46,1.04l4.67,4.82
				c0.64,0.66,0.98,1.52,0.96,2.44c-0.02,0.92-0.39,1.77-1.04,2.4C87.89,65.68,87.04,66.03,86.15,66.03z M81.47,54.89
				c-0.75,0-1.47,0.29-2.01,0.82c-0.55,0.54-0.87,1.26-0.88,2.03c-0.01,0.77,0.28,1.5,0.81,2.06l4.67,4.82
				c0.55,0.57,1.29,0.88,2.08,0.88c0.76,0,1.47-0.29,2.01-0.82c0.55-0.54,0.87-1.26,0.88-2.03c0.01-0.77-0.28-1.5-0.82-2.06
				l-4.67-4.82C83,55.2,82.26,54.89,81.47,54.89z"/>
			<path class="st1" d="M86.15,66.53c-1.07,0-2.07-0.42-2.82-1.19l-4.67-4.83c-0.73-0.75-1.12-1.74-1.1-2.79
				c0.02-1.05,0.44-2.03,1.19-2.76c0.73-0.71,1.7-1.11,2.73-1.11c1.07,0,2.08,0.42,2.82,1.19l4.67,4.82
				c0.73,0.75,1.12,1.75,1.11,2.79c-0.02,1.05-0.44,2.03-1.19,2.76C88.14,66.14,87.17,66.53,86.15,66.53z M81.47,55.39
				c-0.62,0-1.21,0.24-1.66,0.67c-0.46,0.44-0.72,1.04-0.73,1.68c-0.01,0.64,0.23,1.24,0.67,1.7l4.67,4.83
				c0.89,0.92,2.47,0.94,3.38,0.05c0.46-0.44,0.72-1.04,0.73-1.68c0.01-0.64-0.23-1.24-0.67-1.7l-4.67-4.82
				C82.74,55.65,82.13,55.39,81.47,55.39z"/>
		</g>
	</g>
</g>
</svg>
