<?xml version="1.0" encoding="utf-8"?>
<!-- Generator: Adobe Illustrator 26.3.1, SVG Export Plug-In . SVG Version: 6.00 Build 0)  -->
<svg version="1.1" id="Layer_1" xmlns="http://www.w3.org/2000/svg" xmlns:xlink="http://www.w3.org/1999/xlink" x="0px" y="0px"
	 viewBox="0 0 300 300" style="enable-background:new 0 0 300 300;" xml:space="preserve">
<style type="text/css">
	.st0{fill:#FFFFFF;}
	.st1{fill:#00457F;}
</style>
<g id="Online_Shopping_00000008136571894861026020000006092578587769884039_">
	<path class="st1" d="M258.55,31.58H41.45C32.37,31.59,25.01,38.95,25,48.03v203.95c0.01,9.08,7.37,16.44,16.45,16.45h217.11
		c9.08-0.01,16.44-7.37,16.45-16.45V48.03C274.99,38.95,267.63,31.59,258.55,31.58z M41.45,38.16h217.11
		c5.45,0.01,9.86,4.42,9.87,9.87v23.03H31.58V48.03C31.58,42.58,36,38.16,41.45,38.16z M258.55,261.84H41.45
		c-5.45-0.01-9.86-4.42-9.87-9.87V77.63h236.84v174.34C268.42,257.42,264,261.84,258.55,261.84z"/>
	<path class="st1" d="M54.61,64.47c5.45,0,9.87-4.42,9.87-9.87s-4.42-9.87-9.87-9.87s-9.87,4.42-9.87,9.87
		C44.74,60.05,49.16,64.47,54.61,64.47z M54.61,51.32c1.82,0,3.29,1.47,3.29,3.29s-1.47,3.29-3.29,3.29s-3.29-1.47-3.29-3.29
		C51.32,52.79,52.79,51.32,54.61,51.32z"/>
	<path class="st1" d="M80.92,64.47c5.45,0,9.87-4.42,9.87-9.87s-4.42-9.87-9.87-9.87s-9.87,4.42-9.87,9.87
		C71.06,60.05,75.47,64.47,80.92,64.47z M80.92,51.32c1.82,0,3.29,1.47,3.29,3.29s-1.47,3.29-3.29,3.29s-3.29-1.47-3.29-3.29
		C77.63,52.79,79.11,51.32,80.92,51.32z"/>
	<path class="st1" d="M107.24,64.47c5.45,0,9.87-4.42,9.87-9.87s-4.42-9.87-9.87-9.87s-9.87,4.42-9.87,9.87
		C97.37,60.05,101.79,64.47,107.24,64.47z M107.24,51.32c1.82,0,3.29,1.47,3.29,3.29s-1.47,3.29-3.29,3.29
		c-1.82,0-3.29-1.47-3.29-3.29C103.95,52.79,105.42,51.32,107.24,51.32z"/>
	<path class="st1" d="M186.18,57.89h65.79c1.82,0,3.29-1.47,3.29-3.29s-1.47-3.29-3.29-3.29h-65.79c-1.82,0-3.29,1.47-3.29,3.29
		S184.37,57.89,186.18,57.89z"/>
	<path class="st1" d="M215.79,130.26h-82.24c-1.82,0-3.29,1.47-3.29,3.29s1.47,3.29,3.29,3.29h77.84l-14.51,49.34h-57.53
		l-19.08-69.94c-0.39-1.43-1.69-2.42-3.17-2.42H90.79c-1.82,0-3.29,1.47-3.29,3.29s1.47,3.29,3.29,3.29h23.8l17.94,65.79h-18.72
		c-5.45,0-9.87,4.42-9.87,9.87c0,5.45,4.42,9.87,9.87,9.87h14.99c-1.18,1.99-1.82,4.26-1.83,6.58c0,7.27,5.89,13.16,13.16,13.16
		s13.16-5.89,13.16-13.16c-0.01-2.32-0.65-4.59-1.83-6.58h23.4c-1.18,1.99-1.82,4.26-1.83,6.58c0,7.27,5.89,13.16,13.16,13.16
		c7.27,0,13.16-5.89,13.16-13.16c-0.01-2.32-0.65-4.59-1.83-6.58h14.99c1.82,0,3.29-1.47,3.29-3.29s-1.47-3.29-3.29-3.29h-98.68
		c-1.82,0-3.29-1.47-3.29-3.29s1.47-3.29,3.29-3.29h85.53c1.46,0,2.74-0.96,3.15-2.36l16.45-55.92c0.51-1.74-0.48-3.57-2.22-4.08
		C216.42,130.31,216.1,130.26,215.79,130.26z M146.71,212.5c0,3.63-2.95,6.58-6.58,6.58s-6.58-2.95-6.58-6.58s2.95-6.58,6.58-6.58
		C143.76,205.93,146.71,208.87,146.71,212.5z M192.76,212.5c0,3.63-2.95,6.58-6.58,6.58c-3.63,0-6.58-2.95-6.58-6.58
		s2.95-6.58,6.58-6.58C189.82,205.93,192.76,208.87,192.76,212.5z"/>
	<path class="st1" d="M100.66,136.84c0-1.82-1.47-3.29-3.29-3.29H64.47c-1.82,0-3.29,1.47-3.29,3.29s1.47,3.29,3.29,3.29h32.89
		C99.19,140.13,100.66,138.66,100.66,136.84z"/>
	<path class="st1" d="M110.53,153.29c0-1.82-1.47-3.29-3.29-3.29H77.63c-1.82,0-3.29,1.47-3.29,3.29s1.47,3.29,3.29,3.29h29.61
		C109.05,156.58,110.53,155.11,110.53,153.29z"/>
	<path class="st1" d="M120.39,169.74c0-1.82-1.47-3.29-3.29-3.29H90.79c-1.82,0-3.29,1.47-3.29,3.29s1.47,3.29,3.29,3.29h26.32
		C118.92,173.03,120.39,171.55,120.39,169.74z"/>
</g>
</svg>
