<?xml version="1.0" encoding="utf-8"?>
<!-- Generator: Adobe Illustrator 26.3.1, SVG Export Plug-In . SVG Version: 6.00 Build 0)  -->
<svg version="1.1" id="Layer_1" xmlns="http://www.w3.org/2000/svg" xmlns:xlink="http://www.w3.org/1999/xlink" x="0px" y="0px"
	 viewBox="0 0 300 300" style="enable-background:new 0 0 300 300;" xml:space="preserve">
<style type="text/css">
	.st0{fill:#FFFFFF;stroke:#FFFFFF;stroke-width:3;stroke-miterlimit:10;}
	.st1{fill:#FFFFFF;stroke:#FFFFFF;stroke-miterlimit:10;}
	.st2{fill:#00457F;}
	.st3{fill:#00457F;stroke:#00457F;stroke-width:2;stroke-miterlimit:10;}
</style>
<g id="Online_Shopping_00000008136571894861026020000006092578587769884039_">
	<g>
		<path class="st2" d="M258.55,31.58H41.45C32.37,31.59,25.01,38.95,25,48.03v203.95c0.01,9.08,7.37,16.44,16.45,16.45h217.11
			c9.08-0.01,16.44-7.37,16.45-16.45V48.03C274.99,38.95,267.63,31.59,258.55,31.58z M41.45,38.16h217.11
			c5.45,0.01,9.86,4.42,9.87,9.87v23.03H31.58V48.03C31.58,42.58,36,38.16,41.45,38.16z M258.55,261.84H41.45
			c-5.45-0.01-9.86-4.42-9.87-9.87V77.63h236.84v174.34C268.42,257.42,264,261.84,258.55,261.84z"/>
		<path class="st2" d="M258.55,269.42H41.45c-9.61-0.01-17.44-7.84-17.45-17.45V48.03c0.01-9.61,7.84-17.44,17.45-17.45h217.11
			c9.61,0.01,17.43,7.84,17.45,17.45v203.95C275.99,261.58,268.16,269.41,258.55,269.42z M41.45,32.58
			C32.94,32.59,26.01,39.52,26,48.03v203.95c0.01,8.51,6.94,15.44,15.45,15.45h217.1c8.51-0.01,15.44-6.94,15.45-15.45V48.03
			c-0.01-8.51-6.94-15.44-15.45-15.45H41.45z M258.55,262.84H41.45c-5.99-0.01-10.86-4.88-10.87-10.87V76.63h238.84v175.34
			C269.41,257.96,264.54,262.83,258.55,262.84z M32.58,78.63v173.34c0,4.88,3.98,8.86,8.87,8.87h217.1c4.88,0,8.86-3.98,8.87-8.87
			V78.63H32.58z M269.42,72.05H30.58V48.03c0.01-5.99,4.88-10.86,10.87-10.87h217.11c5.99,0.01,10.86,4.88,10.87,10.87V72.05z
			 M32.58,70.05h234.84V48.03c0-4.88-3.98-8.86-8.87-8.87H41.45c-4.88,0.01-8.86,3.98-8.87,8.87V70.05z"/>
	</g>
	<g>
		<path class="st2" d="M54.61,64.47c5.45,0,9.87-4.42,9.87-9.87s-4.42-9.87-9.87-9.87s-9.87,4.42-9.87,9.87
			C44.74,60.05,49.16,64.47,54.61,64.47z M54.61,51.32c1.82,0,3.29,1.47,3.29,3.29s-1.47,3.29-3.29,3.29s-3.29-1.47-3.29-3.29
			C51.32,52.79,52.79,51.32,54.61,51.32z"/>
		<path class="st2" d="M54.61,65.47L54.61,65.47c-5.99-0.01-10.86-4.88-10.87-10.87c0-5.99,4.88-10.87,10.87-10.87
			s10.87,4.88,10.87,10.87C65.47,60.6,60.6,65.47,54.61,65.47z M54.61,45.74c-4.89,0-8.87,3.98-8.87,8.87
			c0,4.88,3.98,8.86,8.87,8.87c4.89,0,8.87-3.98,8.87-8.87C63.47,49.72,59.5,45.74,54.61,45.74z M54.61,58.89
			c-2.37,0-4.29-1.92-4.29-4.29c0-2.36,1.93-4.29,4.29-4.29h0c2.37,0,4.29,1.92,4.29,4.29S56.97,58.89,54.61,58.89z M54.61,52.32
			c-1.26,0-2.29,1.03-2.29,2.29c0,1.26,1.03,2.29,2.29,2.29c1.26,0,2.29-1.03,2.29-2.29S55.87,52.32,54.61,52.32z"/>
	</g>
	<g>
		<path class="st2" d="M80.92,64.47c5.45,0,9.87-4.42,9.87-9.87s-4.42-9.87-9.87-9.87s-9.87,4.42-9.87,9.87
			C71.06,60.05,75.47,64.47,80.92,64.47z M80.92,51.32c1.82,0,3.29,1.47,3.29,3.29s-1.47,3.29-3.29,3.29s-3.29-1.47-3.29-3.29
			C77.63,52.79,79.11,51.32,80.92,51.32z"/>
		<path class="st2" d="M80.92,65.47L80.92,65.47c-5.99-0.01-10.86-4.88-10.87-10.87c0-5.99,4.88-10.87,10.87-10.87
			s10.87,4.88,10.87,10.87C91.79,60.6,86.91,65.47,80.92,65.47z M80.92,45.74c-4.89,0-8.87,3.98-8.87,8.87
			c0,4.88,3.98,8.86,8.87,8.87c4.89,0,8.87-3.98,8.87-8.87C89.79,49.72,85.81,45.74,80.92,45.74z M80.92,58.89
			c-2.37,0-4.29-1.92-4.29-4.29c0-2.36,1.92-4.29,4.29-4.29h0c2.37,0,4.29,1.92,4.29,4.29S83.29,58.89,80.92,58.89z M80.92,52.32
			c-1.26,0-2.29,1.03-2.29,2.29c0,1.26,1.03,2.29,2.29,2.29c1.26,0,2.29-1.03,2.29-2.29S82.18,52.32,80.92,52.32z"/>
	</g>
	<g>
		<path class="st2" d="M107.24,64.47c5.45,0,9.87-4.42,9.87-9.87s-4.42-9.87-9.87-9.87s-9.87,4.42-9.87,9.87
			C97.37,60.05,101.79,64.47,107.24,64.47z M107.24,51.32c1.82,0,3.29,1.47,3.29,3.29s-1.47,3.29-3.29,3.29
			c-1.82,0-3.29-1.47-3.29-3.29C103.95,52.79,105.42,51.32,107.24,51.32z"/>
		<path class="st2" d="M107.24,65.47L107.24,65.47c-5.99-0.01-10.86-4.88-10.87-10.87c0-5.99,4.88-10.87,10.87-10.87
			s10.87,4.88,10.87,10.87C118.11,60.6,113.23,65.47,107.24,65.47z M107.24,45.74c-4.89,0-8.87,3.98-8.87,8.87
			c0,4.88,3.98,8.86,8.87,8.87c4.89,0,8.87-3.98,8.87-8.87C116.11,49.72,112.13,45.74,107.24,45.74z M107.24,58.89
			c-2.37,0-4.29-1.92-4.29-4.29c0-2.36,1.93-4.29,4.29-4.29h0c2.37,0,4.29,1.92,4.29,4.29S109.6,58.89,107.24,58.89z M107.24,52.32
			c-1.26,0-2.29,1.03-2.29,2.29c0,1.26,1.03,2.29,2.29,2.29c1.26,0,2.29-1.03,2.29-2.29S108.5,52.32,107.24,52.32z"/>
	</g>
	<g>
		<path class="st2" d="M186.18,57.89h65.79c1.82,0,3.29-1.47,3.29-3.29s-1.47-3.29-3.29-3.29h-65.79c-1.82,0-3.29,1.47-3.29,3.29
			S184.37,57.89,186.18,57.89z"/>
		<path class="st2" d="M251.97,58.89h-65.79c-2.37,0-4.29-1.92-4.29-4.29s1.92-4.29,4.29-4.29h65.79c2.37,0,4.29,1.92,4.29,4.29
			S254.34,58.89,251.97,58.89z M186.18,52.32c-1.26,0-2.29,1.03-2.29,2.29c0,1.26,1.03,2.29,2.29,2.29h65.79
			c1.26,0,2.29-1.03,2.29-2.29c0-1.26-1.03-2.29-2.29-2.29H186.18z"/>
	</g>
	<g>
		<path class="st2" d="M215.79,130.26h-82.24c-1.82,0-3.29,1.47-3.29,3.29s1.47,3.29,3.29,3.29h77.84l-14.51,49.34h-57.53
			l-19.08-69.94c-0.39-1.43-1.69-2.42-3.17-2.42H90.79c-1.82,0-3.29,1.47-3.29,3.29s1.47,3.29,3.29,3.29h23.8l17.94,65.79h-18.72
			c-5.45,0-9.87,4.42-9.87,9.87c0,5.45,4.42,9.87,9.87,9.87h14.99c-1.18,1.99-1.82,4.26-1.83,6.58c0,7.27,5.89,13.16,13.16,13.16
			s13.16-5.89,13.16-13.16c-0.01-2.32-0.65-4.59-1.83-6.58h23.4c-1.18,1.99-1.82,4.26-1.83,6.58c0,7.27,5.89,13.16,13.16,13.16
			c7.27,0,13.16-5.89,13.16-13.16c-0.01-2.32-0.65-4.59-1.83-6.58h14.99c1.82,0,3.29-1.47,3.29-3.29s-1.47-3.29-3.29-3.29h-98.68
			c-1.82,0-3.29-1.47-3.29-3.29s1.47-3.29,3.29-3.29h85.53c1.46,0,2.74-0.96,3.15-2.36l16.45-55.92c0.51-1.74-0.48-3.57-2.22-4.08
			C216.42,130.31,216.1,130.26,215.79,130.26z M146.71,212.5c0,3.63-2.95,6.58-6.58,6.58s-6.58-2.95-6.58-6.58s2.95-6.58,6.58-6.58
			C143.76,205.93,146.71,208.87,146.71,212.5z M192.76,212.5c0,3.63-2.95,6.58-6.58,6.58c-3.63,0-6.58-2.95-6.58-6.58
			s2.95-6.58,6.58-6.58C189.82,205.93,192.76,208.87,192.76,212.5z"/>
		<path class="st2" d="M186.18,226.66c-7.81,0-14.16-6.35-14.16-14.16c0.01-1.93,0.42-3.83,1.19-5.58H153.1
			c0.77,1.75,1.18,3.65,1.19,5.57c0,7.81-6.35,14.16-14.16,14.16s-14.16-6.35-14.16-14.16c0.01-1.93,0.42-3.83,1.19-5.58h-13.35
			c-5.99,0-10.87-4.88-10.87-10.87s4.88-10.87,10.87-10.87h17.41l-17.4-63.79H90.79c-2.37,0-4.29-1.92-4.29-4.29
			s1.92-4.29,4.29-4.29h26.32c1.93,0,3.63,1.3,4.14,3.16l18.87,69.21h56.02l13.92-47.34h-76.5c-2.37,0-4.29-1.92-4.29-4.29
			s1.92-4.29,4.29-4.29h82.24c0.41,0,0.82,0.06,1.22,0.18c2.27,0.67,3.57,3.06,2.9,5.33l-16.45,55.92
			c-0.53,1.81-2.23,3.08-4.11,3.08h-85.53c-1.26,0-2.29,1.03-2.29,2.29c0,1.26,1.03,2.29,2.29,2.29h98.68
			c2.37,0,4.29,1.92,4.29,4.29s-1.92,4.29-4.29,4.29h-13.35c0.77,1.75,1.18,3.65,1.19,5.57
			C200.34,220.31,193.99,226.66,186.18,226.66z M149.7,204.92h26.91l-0.9,1.51c-1.09,1.83-1.68,3.93-1.69,6.07
			c0,6.7,5.45,12.15,12.16,12.15c6.7,0,12.16-5.45,12.16-12.16c-0.01-2.13-0.6-4.23-1.69-6.07l-0.9-1.51h16.75
			c1.26,0,2.29-1.03,2.29-2.29c0-1.26-1.03-2.29-2.29-2.29h-98.68c-2.37,0-4.29-1.92-4.29-4.29s1.92-4.29,4.29-4.29h85.53
			c1.01,0,1.91-0.68,2.2-1.64l16.45-55.92c0.36-1.21-0.34-2.49-1.55-2.84c-0.21-0.06-0.43-0.09-0.65-0.09h-82.24
			c-1.26,0-2.29,1.03-2.29,2.29s1.03,2.29,2.29,2.29h79.17l-15.1,51.34h-59.04l-19.28-70.68c-0.27-0.99-1.18-1.69-2.21-1.69H90.79
			c-1.26,0-2.29,1.03-2.29,2.29c0,1.26,1.03,2.29,2.29,2.29h24.57l18.49,67.79h-20.03c-4.89,0-8.87,3.98-8.87,8.87
			s3.98,8.87,8.87,8.87h16.75l-0.9,1.51c-1.09,1.84-1.68,3.94-1.69,6.07c0,6.7,5.45,12.15,12.16,12.15c6.7,0,12.16-5.45,12.16-12.16
			c-0.01-2.13-0.6-4.23-1.69-6.07L149.7,204.92z M186.18,220.08c-4.18,0-7.58-3.4-7.58-7.58s3.4-7.58,7.58-7.58
			c4.17,0,7.57,3.4,7.58,7.58v0C193.76,216.68,190.36,220.08,186.18,220.08z M186.18,206.92c-3.08,0-5.58,2.5-5.58,5.58
			s2.5,5.58,5.58,5.58c3.08,0,5.58-2.5,5.58-5.58C191.76,209.43,189.26,206.92,186.18,206.92z M140.13,220.08
			c-4.18,0-7.58-3.4-7.58-7.58s3.4-7.58,7.58-7.58c4.17,0,7.57,3.4,7.58,7.58v0C147.71,216.68,144.31,220.08,140.13,220.08z
			 M140.13,206.92c-3.08,0-5.58,2.5-5.58,5.58s2.5,5.58,5.58,5.58s5.58-2.5,5.58-5.58C145.71,209.43,143.2,206.92,140.13,206.92z"/>
	</g>
	<g>
		<path class="st2" d="M100.66,136.84c0-1.82-1.47-3.29-3.29-3.29H64.47c-1.82,0-3.29,1.47-3.29,3.29s1.47,3.29,3.29,3.29h32.89
			C99.19,140.13,100.66,138.66,100.66,136.84z"/>
		<path class="st2" d="M97.37,141.13H64.47c-2.37,0-4.29-1.92-4.29-4.29s1.92-4.29,4.29-4.29h32.89c2.37,0,4.29,1.92,4.29,4.29
			S99.73,141.13,97.37,141.13z M64.47,134.55c-1.26,0-2.29,1.03-2.29,2.29c0,1.26,1.03,2.29,2.29,2.29h32.89
			c1.26,0,2.29-1.03,2.29-2.29c0-1.26-1.03-2.29-2.29-2.29H64.47z"/>
	</g>
	<g>
		<path class="st2" d="M110.53,153.29c0-1.82-1.47-3.29-3.29-3.29H77.63c-1.82,0-3.29,1.47-3.29,3.29s1.47,3.29,3.29,3.29h29.61
			C109.05,156.58,110.53,155.11,110.53,153.29z"/>
		<path class="st2" d="M107.24,157.58H77.63c-2.37,0-4.29-1.92-4.29-4.29s1.92-4.29,4.29-4.29h29.61c2.37,0,4.29,1.92,4.29,4.29
			S109.6,157.58,107.24,157.58z M77.63,151c-1.26,0-2.29,1.03-2.29,2.29c0,1.26,1.03,2.29,2.29,2.29h29.61
			c1.26,0,2.29-1.03,2.29-2.29c0-1.26-1.03-2.29-2.29-2.29H77.63z"/>
	</g>
	<g>
		<path class="st2" d="M120.39,169.74c0-1.82-1.47-3.29-3.29-3.29H90.79c-1.82,0-3.29,1.47-3.29,3.29s1.47,3.29,3.29,3.29h26.32
			C118.92,173.03,120.39,171.55,120.39,169.74z"/>
		<path class="st2" d="M117.11,174.03H90.79c-2.37,0-4.29-1.92-4.29-4.29s1.92-4.29,4.29-4.29h26.32c2.37,0,4.29,1.92,4.29,4.29
			S119.47,174.03,117.11,174.03z M90.79,167.45c-1.26,0-2.29,1.03-2.29,2.29c0,1.26,1.03,2.29,2.29,2.29h26.32
			c1.26,0,2.29-1.03,2.29-2.29c0-1.26-1.03-2.29-2.29-2.29H90.79z"/>
	</g>
</g>
</svg>
