<?xml version="1.0" encoding="utf-8"?>
<!-- Generator: Adobe Illustrator 26.3.1, SVG Export Plug-In . SVG Version: 6.00 Build 0)  -->
<svg version="1.1" id="Layer_1" xmlns="http://www.w3.org/2000/svg" xmlns:xlink="http://www.w3.org/1999/xlink" x="0px" y="0px"
	 viewBox="0 0 300 300" style="enable-background:new 0 0 300 300;" xml:space="preserve">
<style type="text/css">
	.st0{fill:#FFFFFF;}
</style>
<g id="_18._google_ads_logo">
	<g>
		<path class="st0" d="M270.1,194.8L270.1,194.8C224.7,116.1,198.3,69,184.8,50.9c-2.7-3.6-4.2-5.3-5.8-6.8
			c-1.2-1.2-2.5-2.3-4.3-3.2c-22.4-13.6-51.6-6.5-65.2,15.9c-0.4,0.6-0.8,1.3-1.1,2c-0.7,1.2-1,1.8-1.2,2c0.1-0.2,0.3-0.6,0.5-1
			c-2.9,5.1-17.9,30.9-77.5,134.2c-4.5,7.4-6.8,15.9-6.8,24.5c0,48.4,64.4,65.5,88.5,23.7c0-0.1,0.1-0.1,0.1-0.2l0.1-0.1
			c0,0,0-0.1,0.1-0.1c0,0,0,0,0-0.1s0.1-0.1,0.1-0.2l-0.1,0.1c0,0,0-0.1,0.1-0.1c0-0.1,0.1-0.2,0.2-0.3l0,0
			c1.8-3.2,9.6-16.7,37.4-64.9l38,65.9c13.1,22.7,42.1,30.5,64.8,17.4C275.5,246.5,283.2,217.5,270.1,194.8z M63.6,171.7
			c-3.3,0.5-6.5,1.4-9.7,2.6L103.1,89c1.9,12.3,5.6,16.1,40.7,77l-26.1,45.2C113.7,185.3,89.4,167.6,63.6,171.7z M107.8,230.2
			c-5.1,16.2-19.9,27.1-36.9,27.2l0,0c-10.4,0-20.1-4-27.5-11.4c-7.3-7.3-11.4-17-11.4-27.4c0-6.8,1.8-13.6,5.2-19.5
			c0.1-0.2,0.2-0.4,0.3-0.5l0.1-0.2c12.2-20.2,34.2-21.9,49.4-15C102.5,190.4,115,207.6,107.8,230.2z M266.9,227.8
			c-2.5,10.1-8.7,18.6-17.6,24c-6.1,3.7-13.1,5.6-20.2,5.6H229c-13.9,0-26.8-7.5-33.7-19.4c-17.5-30.3-31.3-54-42.4-73.1
			c-42-72.4-42-72.4-42-82c0-0.4,0-0.9,0-1.4c0-21.4,17.5-38.9,38.9-38.9l0,0c6.5,0,13,1.7,18.8,4.8c9.5,4.6,10.4,6.1,52.2,79
			c10.8,18.9,24.3,42.3,41.4,71.9C267.8,207.2,269.4,217.7,266.9,227.8z"/>
	</g>
</g>
</svg>
