<?xml version="1.0" encoding="utf-8"?>
<!-- Generator: Adobe Illustrator 26.3.1, SVG Export Plug-In . SVG Version: 6.00 Build 0)  -->
<svg version="1.1" id="Layer_1" xmlns="http://www.w3.org/2000/svg" xmlns:xlink="http://www.w3.org/1999/xlink" x="0px" y="0px"
	 viewBox="0 0 300 300" style="enable-background:new 0 0 300 300;" xml:space="preserve">
<style type="text/css">
	.st0{fill:#FFFFFF;}
	.st1{fill:#606060;}
	.st2{stroke:#000000;stroke-width:0.5;stroke-miterlimit:10;}
</style>
<g>
	<path class="st0" d="M165.6,245.45c-0.56-0.55-1.29-0.82-2-0.82c-0.73,0-1.45,0.27-2,0.82l-8.63,8.64c-0.54,0.54-0.83,1.24-0.83,2
		c0,0.75,0.29,1.47,0.83,2c1.1,1.04,2.94,1.06,4,0l8.64-8.64C166.7,248.35,166.7,246.56,165.6,245.45z M195,232.49
		c-0.56-0.55-1.29-0.82-2-0.82c-0.73,0-1.45,0.27-2,0.82l-9.38,9.34c-1.1,1.1-1.1,2.89,0,4c0.56,0.53,1.27,0.82,2.02,0.82
		c0.73,0,1.47-0.3,1.98-0.82l9.38-9.33c0.54-0.54,0.83-1.24,0.83-2C195.83,233.75,195.54,233.03,195,232.49z M176.02,251.43
		c-0.54-0.54-1.26-0.83-2.02-0.83c-0.77,0-1.49,0.29-2.02,0.83l-17.5,17.45c-1.09,1.1-1.1,2.89,0,4.01
		c1.11,1.05,2.92,1.07,4.08-0.03l17.47-17.43c0.54-0.53,0.83-1.24,0.83-1.99C176.85,252.67,176.56,251.97,176.02,251.43z
		 M187.45,223.69c-0.56-0.56-1.28-0.83-2-0.83c-0.72,0-1.45,0.27-2,0.83l-15,14.96c-1.1,1.1-1.1,2.9,0,4.01l0.02,0.02
		c0.63,0.66,1.41,0.8,1.95,0.8c0.76,0,1.47-0.29,2.05-0.85l14.98-14.94c0.54-0.54,0.83-1.24,0.83-1.99
		C188.28,224.93,187.99,224.22,187.45,223.69z M247.33,180.21c-0.64-0.6-1.49-0.89-2.33-0.77l-38.72,4.9
		c-1.65,0.09-3.1,1.11-3.69,2.58c-0.73,1.72-0.29,3.72,1.1,5.12l5.75,5.74l-18.7,18.65c-0.54,0.54-0.83,1.26-0.83,2
		c0,0.76,0.29,1.47,0.83,2c1.1,1.1,2.9,1.1,4.01,0l19.59-19.54c0.82-0.82,1.26-1.87,1.26-3.03c0-1.24-0.54-2.52-1.43-3.42
		l-4.77-4.77l32.82-4.16l-3.04,33.87l-4.7-4.7c-0.96-0.96-2.22-1.46-3.44-1.46c-1.12,0-2.22,0.41-3.05,1.23l-45.06,44.98
		c-0.54,0.54-0.83,1.24-0.83,2c0,0.75,0.29,1.47,0.83,2c1.1,1.05,2.9,1.07,4.07-0.03l44.15-44.06l5.74,5.74
		c1.4,1.4,3.4,1.83,5.1,1.11c1.54-0.65,2.63-2.14,2.6-3.54v-0.08l3.58-40.09C248.26,181.65,247.94,180.8,247.33,180.21z
		 M96.26,98.19h-7.33c-5.48,0-9.94-4.46-9.94-9.94c0-5.48,4.46-9.94,9.94-9.94h16.45c1.57,0,2.84-1.28,2.84-2.84
		s-1.28-2.84-2.84-2.84H93.6v-8.11c0-1.57-1.28-2.84-2.84-2.84c-1.57,0-2.84,1.28-2.84,2.84v8.16l-1.3,0.19
		c-7.59,1.12-13.32,7.72-13.32,15.34c0,8.58,7.01,15.58,15.63,15.58h7.29c5.48,0,9.94,4.46,9.94,9.94s-4.46,9.94-9.94,9.94H79.77
		c-1.57,0-2.84,1.28-2.84,2.84c0,1.57,1.28,2.84,2.84,2.84h8.11v8.11c0,1.57,1.28,2.84,2.84,2.84s2.84-1.28,2.84-2.84v-8.11h2.65
		c8.61,0,15.63-6.99,15.63-15.59C111.84,105.17,104.85,98.19,96.26,98.19z M95.88,241.53c-0.55-0.56-1.28-0.83-2-0.83
		c-0.72,0-1.45,0.27-1.99,0.83l-28.76,28.65c-0.54,0.54-0.83,1.24-0.83,2c0,0.76,0.29,1.47,0.83,2c1.1,1.04,2.95,1.06,4.01,0
		l28.75-28.66c0.54-0.54,0.83-1.24,0.83-2C96.71,242.78,96.42,242.07,95.88,241.53z M130.13,169.42c-0.54-0.54-1.26-0.83-2-0.83
		c-0.76,0-1.47,0.29-2,0.83l-25.74,25.7c-1.1,1.1-1.1,2.89,0,4c1.11,1.05,2.89,1.08,4.07-0.01l25.68-25.68
		c0.54-0.54,0.83-1.24,0.83-2S130.67,169.95,130.13,169.42z M90.29,209.2c-0.55-0.56-1.28-0.83-1.99-0.83c-0.73,0-1.45,0.27-2,0.83
		l-60.47,60.28c-0.54,0.54-0.83,1.26-0.83,2c0,0.76,0.29,1.47,0.83,2c1.11,1.05,2.92,1.08,4.08-0.03l60.4-60.26
		c0.54-0.54,0.83-1.24,0.83-1.99C91.13,210.45,90.84,209.74,90.29,209.2z M159.88,177.7c-0.56-0.55-1.28-0.83-2-0.83
		c-0.72,0-1.45,0.28-2,0.83l-50.29,50.12c-0.54,0.54-0.83,1.26-0.83,2c0,0.76,0.29,1.47,0.83,2c1.11,1.05,2.9,1.08,4.08-0.03
		l50.22-50.09c0.54-0.54,0.83-1.26,0.83-2C160.71,178.95,160.42,178.24,159.88,177.7z M96.26,98.19h-7.33
		c-5.48,0-9.94-4.46-9.94-9.94c0-5.48,4.46-9.94,9.94-9.94h16.45c1.57,0,2.84-1.28,2.84-2.84s-1.28-2.84-2.84-2.84H93.6v-8.11
		c0-1.57-1.28-2.84-2.84-2.84c-1.57,0-2.84,1.28-2.84,2.84v8.16l-1.3,0.19c-7.59,1.12-13.32,7.72-13.32,15.34
		c0,8.58,7.01,15.58,15.63,15.58h7.29c5.48,0,9.94,4.46,9.94,9.94s-4.46,9.94-9.94,9.94H79.77c-1.57,0-2.84,1.28-2.84,2.84
		c0,1.57,1.28,2.84,2.84,2.84h8.11v8.11c0,1.57,1.28,2.84,2.84,2.84s2.84-1.28,2.84-2.84v-8.11h2.65c8.61,0,15.63-6.99,15.63-15.59
		C111.84,105.17,104.85,98.19,96.26,98.19z M96.26,98.19h-7.33c-5.48,0-9.94-4.46-9.94-9.94c0-5.48,4.46-9.94,9.94-9.94h16.45
		c1.57,0,2.84-1.28,2.84-2.84s-1.28-2.84-2.84-2.84H93.6v-8.11c0-1.57-1.28-2.84-2.84-2.84c-1.57,0-2.84,1.28-2.84,2.84v8.16
		l-1.3,0.19c-7.59,1.12-13.32,7.72-13.32,15.34c0,8.58,7.01,15.58,15.63,15.58h7.29c5.48,0,9.94,4.46,9.94,9.94
		s-4.46,9.94-9.94,9.94H79.77c-1.57,0-2.84,1.28-2.84,2.84c0,1.57,1.28,2.84,2.84,2.84h8.11v8.11c0,1.57,1.28,2.84,2.84,2.84
		s2.84-1.28,2.84-2.84v-8.11h2.65c8.61,0,15.63-6.99,15.63-15.59C111.84,105.17,104.85,98.19,96.26,98.19z M96.26,98.19h-7.33
		c-5.48,0-9.94-4.46-9.94-9.94c0-5.48,4.46-9.94,9.94-9.94h16.45c1.57,0,2.84-1.28,2.84-2.84s-1.28-2.84-2.84-2.84H93.6v-8.11
		c0-1.57-1.28-2.84-2.84-2.84c-1.57,0-2.84,1.28-2.84,2.84v8.16l-1.3,0.19c-7.59,1.12-13.32,7.72-13.32,15.34
		c0,8.58,7.01,15.58,15.63,15.58h7.29c5.48,0,9.94,4.46,9.94,9.94s-4.46,9.94-9.94,9.94H79.77c-1.57,0-2.84,1.28-2.84,2.84
		c0,1.57,1.28,2.84,2.84,2.84h8.11v8.11c0,1.57,1.28,2.84,2.84,2.84s2.84-1.28,2.84-2.84v-8.11h2.65c8.61,0,15.63-6.99,15.63-15.59
		C111.84,105.17,104.85,98.19,96.26,98.19z M96.26,98.19h-7.33c-5.48,0-9.94-4.46-9.94-9.94c0-5.48,4.46-9.94,9.94-9.94h16.45
		c1.57,0,2.84-1.28,2.84-2.84s-1.28-2.84-2.84-2.84H93.6v-8.11c0-1.57-1.28-2.84-2.84-2.84c-1.57,0-2.84,1.28-2.84,2.84v8.16
		l-1.3,0.19c-7.59,1.12-13.32,7.72-13.32,15.34c0,8.58,7.01,15.58,15.63,15.58h7.29c5.48,0,9.94,4.46,9.94,9.94
		s-4.46,9.94-9.94,9.94H79.77c-1.57,0-2.84,1.28-2.84,2.84c0,1.57,1.28,2.84,2.84,2.84h8.11v8.11c0,1.57,1.28,2.84,2.84,2.84
		s2.84-1.28,2.84-2.84v-8.11h2.65c8.61,0,15.63-6.99,15.63-15.59C111.84,105.17,104.85,98.19,96.26,98.19z M96.26,98.19h-7.33
		c-5.48,0-9.94-4.46-9.94-9.94c0-5.48,4.46-9.94,9.94-9.94h16.45c1.57,0,2.84-1.28,2.84-2.84s-1.28-2.84-2.84-2.84H93.6v-8.11
		c0-1.57-1.28-2.84-2.84-2.84c-1.57,0-2.84,1.28-2.84,2.84v8.16l-1.3,0.19c-7.59,1.12-13.32,7.72-13.32,15.34
		c0,8.58,7.01,15.58,15.63,15.58h7.29c5.48,0,9.94,4.46,9.94,9.94s-4.46,9.94-9.94,9.94H79.77c-1.57,0-2.84,1.28-2.84,2.84
		c0,1.57,1.28,2.84,2.84,2.84h8.11v8.11c0,1.57,1.28,2.84,2.84,2.84s2.84-1.28,2.84-2.84v-8.11h2.65c8.61,0,15.63-6.99,15.63-15.59
		C111.84,105.17,104.85,98.19,96.26,98.19z M96.26,98.19h-7.33c-5.48,0-9.94-4.46-9.94-9.94c0-5.48,4.46-9.94,9.94-9.94h16.45
		c1.57,0,2.84-1.28,2.84-2.84s-1.28-2.84-2.84-2.84H93.6v-8.11c0-1.57-1.28-2.84-2.84-2.84c-1.57,0-2.84,1.28-2.84,2.84v8.16
		l-1.3,0.19c-7.59,1.12-13.32,7.72-13.32,15.34c0,8.58,7.01,15.58,15.63,15.58h7.29c5.48,0,9.94,4.46,9.94,9.94
		s-4.46,9.94-9.94,9.94H79.77c-1.57,0-2.84,1.28-2.84,2.84c0,1.57,1.28,2.84,2.84,2.84h8.11v8.11c0,1.57,1.28,2.84,2.84,2.84
		s2.84-1.28,2.84-2.84v-8.11h2.65c8.61,0,15.63-6.99,15.63-15.59C111.84,105.17,104.85,98.19,96.26,98.19z M96.26,98.19h-7.33
		c-5.48,0-9.94-4.46-9.94-9.94c0-5.48,4.46-9.94,9.94-9.94h16.45c1.57,0,2.84-1.28,2.84-2.84s-1.28-2.84-2.84-2.84H93.6v-8.11
		c0-1.57-1.28-2.84-2.84-2.84c-1.57,0-2.84,1.28-2.84,2.84v8.16l-1.3,0.19c-7.59,1.12-13.32,7.72-13.32,15.34
		c0,8.58,7.01,15.58,15.63,15.58h7.29c5.48,0,9.94,4.46,9.94,9.94s-4.46,9.94-9.94,9.94H79.77c-1.57,0-2.84,1.28-2.84,2.84
		c0,1.57,1.28,2.84,2.84,2.84h8.11v8.11c0,1.57,1.28,2.84,2.84,2.84s2.84-1.28,2.84-2.84v-8.11h2.65c8.61,0,15.63-6.99,15.63-15.59
		C111.84,105.17,104.85,98.19,96.26,98.19z M96.26,98.19h-7.33c-5.48,0-9.94-4.46-9.94-9.94c0-5.48,4.46-9.94,9.94-9.94h16.45
		c1.57,0,2.84-1.28,2.84-2.84s-1.28-2.84-2.84-2.84H93.6v-8.11c0-1.57-1.28-2.84-2.84-2.84c-1.57,0-2.84,1.28-2.84,2.84v8.16
		l-1.3,0.19c-7.59,1.12-13.32,7.72-13.32,15.34c0,8.58,7.01,15.58,15.63,15.58h7.29c5.48,0,9.94,4.46,9.94,9.94
		s-4.46,9.94-9.94,9.94H79.77c-1.57,0-2.84,1.28-2.84,2.84c0,1.57,1.28,2.84,2.84,2.84h8.11v8.11c0,1.57,1.28,2.84,2.84,2.84
		s2.84-1.28,2.84-2.84v-8.11h2.65c8.61,0,15.63-6.99,15.63-15.59C111.84,105.17,104.85,98.19,96.26,98.19z M96.26,98.19h-7.33
		c-5.48,0-9.94-4.46-9.94-9.94c0-5.48,4.46-9.94,9.94-9.94h16.45c1.57,0,2.84-1.28,2.84-2.84s-1.28-2.84-2.84-2.84H93.6v-8.11
		c0-1.57-1.28-2.84-2.84-2.84c-1.57,0-2.84,1.28-2.84,2.84v8.16l-1.3,0.19c-7.59,1.12-13.32,7.72-13.32,15.34
		c0,8.58,7.01,15.58,15.63,15.58h7.29c5.48,0,9.94,4.46,9.94,9.94s-4.46,9.94-9.94,9.94H79.77c-1.57,0-2.84,1.28-2.84,2.84
		c0,1.57,1.28,2.84,2.84,2.84h8.11v8.11c0,1.57,1.28,2.84,2.84,2.84s2.84-1.28,2.84-2.84v-8.11h2.65c8.61,0,15.63-6.99,15.63-15.59
		C111.84,105.17,104.85,98.19,96.26,98.19z M96.26,98.19h-7.33c-5.48,0-9.94-4.46-9.94-9.94c0-5.48,4.46-9.94,9.94-9.94h16.45
		c1.57,0,2.84-1.28,2.84-2.84s-1.28-2.84-2.84-2.84H93.6v-8.11c0-1.57-1.28-2.84-2.84-2.84c-1.57,0-2.84,1.28-2.84,2.84v8.16
		l-1.3,0.19c-7.59,1.12-13.32,7.72-13.32,15.34c0,8.58,7.01,15.58,15.63,15.58h7.29c5.48,0,9.94,4.46,9.94,9.94
		s-4.46,9.94-9.94,9.94H79.77c-1.57,0-2.84,1.28-2.84,2.84c0,1.57,1.28,2.84,2.84,2.84h8.11v8.11c0,1.57,1.28,2.84,2.84,2.84
		s2.84-1.28,2.84-2.84v-8.11h2.65c8.61,0,15.63-6.99,15.63-15.59C111.84,105.17,104.85,98.19,96.26,98.19z M96.26,98.19h-7.33
		c-5.48,0-9.94-4.46-9.94-9.94c0-5.48,4.46-9.94,9.94-9.94h16.45c1.57,0,2.84-1.28,2.84-2.84s-1.28-2.84-2.84-2.84H93.6v-8.11
		c0-1.57-1.28-2.84-2.84-2.84c-1.57,0-2.84,1.28-2.84,2.84v8.16l-1.3,0.19c-7.59,1.12-13.32,7.72-13.32,15.34
		c0,8.58,7.01,15.58,15.63,15.58h7.29c5.48,0,9.94,4.46,9.94,9.94s-4.46,9.94-9.94,9.94H79.77c-1.57,0-2.84,1.28-2.84,2.84
		c0,1.57,1.28,2.84,2.84,2.84h8.11v8.11c0,1.57,1.28,2.84,2.84,2.84s2.84-1.28,2.84-2.84v-8.11h2.65c8.61,0,15.63-6.99,15.63-15.59
		C111.84,105.17,104.85,98.19,96.26,98.19z M96.26,98.19h-7.33c-5.48,0-9.94-4.46-9.94-9.94c0-5.48,4.46-9.94,9.94-9.94h16.45
		c1.57,0,2.84-1.28,2.84-2.84s-1.28-2.84-2.84-2.84H93.6v-8.11c0-1.57-1.28-2.84-2.84-2.84c-1.57,0-2.84,1.28-2.84,2.84v8.16
		l-1.3,0.19c-7.59,1.12-13.32,7.72-13.32,15.34c0,8.58,7.01,15.58,15.63,15.58h7.29c5.48,0,9.94,4.46,9.94,9.94
		s-4.46,9.94-9.94,9.94H79.77c-1.57,0-2.84,1.28-2.84,2.84c0,1.57,1.28,2.84,2.84,2.84h8.11v8.11c0,1.57,1.28,2.84,2.84,2.84
		s2.84-1.28,2.84-2.84v-8.11h2.65c8.61,0,15.63-6.99,15.63-15.59C111.84,105.17,104.85,98.19,96.26,98.19z M96.26,98.19h-7.33
		c-5.48,0-9.94-4.46-9.94-9.94c0-5.48,4.46-9.94,9.94-9.94h16.45c1.57,0,2.84-1.28,2.84-2.84s-1.28-2.84-2.84-2.84H93.6v-8.11
		c0-1.57-1.28-2.84-2.84-2.84c-1.57,0-2.84,1.28-2.84,2.84v8.16l-1.3,0.19c-7.59,1.12-13.32,7.72-13.32,15.34
		c0,8.58,7.01,15.58,15.63,15.58h7.29c5.48,0,9.94,4.46,9.94,9.94s-4.46,9.94-9.94,9.94H79.77c-1.57,0-2.84,1.28-2.84,2.84
		c0,1.57,1.28,2.84,2.84,2.84h8.11v8.11c0,1.57,1.28,2.84,2.84,2.84s2.84-1.28,2.84-2.84v-8.11h2.65c8.61,0,15.63-6.99,15.63-15.59
		C111.84,105.17,104.85,98.19,96.26,98.19z M274.19,25.87c-0.64-0.67-1.57-0.96-2.56-0.82l-102.28,17.6c-2.81,0.21-5.17,2-6.14,4.68
		c-0.97,2.64-0.33,5.55,1.66,7.57l15.99,15.94l-21.95,21.9L158.33,90c-6.6-31.35-33.7-53.24-65.91-53.24
		c-37.17,0-67.41,30.16-67.41,67.24c0,32.11,21.94,59.14,53.37,65.74l2.74,0.58l-25.28,25.23c-0.53,0.54-0.83,1.24-0.83,2
		c0,0.75,0.3,1.47,0.84,1.99c1.1,1.06,2.9,1.08,4.07-0.02l123.91-123.6c1.36-1.36,2.11-3.17,2.11-5.08s-0.75-3.71-2.11-5.07
		l-16.55-17l101.28-17.4l-19.9,95.24c-0.01,0.14-0.03,0.29-0.07,0.44l-0.65,2.6l-16.82-16.76c-1.34-1.35-3.15-2.1-5.1-2.14
		c-1.87,0-3.72,0.76-5.05,2.09l-53.97,53.8c-1.1,1.09-1.1,2.89,0,4c1.11,1.1,2.9,1.1,4.01,0l54.95-54.82l15.99,15.94
		c2,2.01,4.9,2.65,7.56,1.66c2.57-0.92,4.36-3.19,4.69-5.91l0.03-0.13l20.72-98.94C275.13,27.53,274.85,26.56,274.19,25.87z
		 M153.3,98.35l-67.09,66.87l-0.73-0.08C54.25,161.65,30.7,135.37,30.7,104c0-33.94,27.69-61.55,61.72-61.55
		c31.48,0,57.83,23.5,61.32,54.66l0.08,0.73L153.3,98.35z M96.26,98.19h-7.33c-5.48,0-9.94-4.46-9.94-9.94
		c0-5.48,4.46-9.94,9.94-9.94h16.45c1.57,0,2.84-1.28,2.84-2.84s-1.28-2.84-2.84-2.84H93.6v-8.11c0-1.57-1.28-2.84-2.84-2.84
		c-1.57,0-2.84,1.28-2.84,2.84v8.16l-1.3,0.19c-7.59,1.12-13.32,7.72-13.32,15.34c0,8.58,7.01,15.58,15.63,15.58h7.29
		c5.48,0,9.94,4.46,9.94,9.94s-4.46,9.94-9.94,9.94H79.77c-1.57,0-2.84,1.28-2.84,2.84c0,1.57,1.28,2.84,2.84,2.84h8.11v8.11
		c0,1.57,1.28,2.84,2.84,2.84s2.84-1.28,2.84-2.84v-8.11h2.65c8.61,0,15.63-6.99,15.63-15.59
		C111.84,105.17,104.85,98.19,96.26,98.19z M96.26,98.19h-7.33c-5.48,0-9.94-4.46-9.94-9.94c0-5.48,4.46-9.94,9.94-9.94h16.45
		c1.57,0,2.84-1.28,2.84-2.84s-1.28-2.84-2.84-2.84H93.6v-8.11c0-1.57-1.28-2.84-2.84-2.84c-1.57,0-2.84,1.28-2.84,2.84v8.16
		l-1.3,0.19c-7.59,1.12-13.32,7.72-13.32,15.34c0,8.58,7.01,15.58,15.63,15.58h7.29c5.48,0,9.94,4.46,9.94,9.94
		s-4.46,9.94-9.94,9.94H79.77c-1.57,0-2.84,1.28-2.84,2.84c0,1.57,1.28,2.84,2.84,2.84h8.11v8.11c0,1.57,1.28,2.84,2.84,2.84
		s2.84-1.28,2.84-2.84v-8.11h2.65c8.61,0,15.63-6.99,15.63-15.59C111.84,105.17,104.85,98.19,96.26,98.19z M96.26,98.19h-7.33
		c-5.48,0-9.94-4.46-9.94-9.94c0-5.48,4.46-9.94,9.94-9.94h16.45c1.57,0,2.84-1.28,2.84-2.84s-1.28-2.84-2.84-2.84H93.6v-8.11
		c0-1.57-1.28-2.84-2.84-2.84c-1.57,0-2.84,1.28-2.84,2.84v8.16l-1.3,0.19c-7.59,1.12-13.32,7.72-13.32,15.34
		c0,8.58,7.01,15.58,15.63,15.58h7.29c5.48,0,9.94,4.46,9.94,9.94s-4.46,9.94-9.94,9.94H79.77c-1.57,0-2.84,1.28-2.84,2.84
		c0,1.57,1.28,2.84,2.84,2.84h8.11v8.11c0,1.57,1.28,2.84,2.84,2.84s2.84-1.28,2.84-2.84v-8.11h2.65c8.61,0,15.63-6.99,15.63-15.59
		C111.84,105.17,104.85,98.19,96.26,98.19z M96.26,98.19h-7.33c-5.48,0-9.94-4.46-9.94-9.94c0-5.48,4.46-9.94,9.94-9.94h16.45
		c1.57,0,2.84-1.28,2.84-2.84s-1.28-2.84-2.84-2.84H93.6v-8.11c0-1.57-1.28-2.84-2.84-2.84c-1.57,0-2.84,1.28-2.84,2.84v8.16
		l-1.3,0.19c-7.59,1.12-13.32,7.72-13.32,15.34c0,8.58,7.01,15.58,15.63,15.58h7.29c5.48,0,9.94,4.46,9.94,9.94
		s-4.46,9.94-9.94,9.94H79.77c-1.57,0-2.84,1.28-2.84,2.84c0,1.57,1.28,2.84,2.84,2.84h8.11v8.11c0,1.57,1.28,2.84,2.84,2.84
		s2.84-1.28,2.84-2.84v-8.11h2.65c8.61,0,15.63-6.99,15.63-15.59C111.84,105.17,104.85,98.19,96.26,98.19z M96.26,98.19h-7.33
		c-5.48,0-9.94-4.46-9.94-9.94c0-5.48,4.46-9.94,9.94-9.94h16.45c1.57,0,2.84-1.28,2.84-2.84s-1.28-2.84-2.84-2.84H93.6v-8.11
		c0-1.57-1.28-2.84-2.84-2.84c-1.57,0-2.84,1.28-2.84,2.84v8.16l-1.3,0.19c-7.59,1.12-13.32,7.72-13.32,15.34
		c0,8.58,7.01,15.58,15.63,15.58h7.29c5.48,0,9.94,4.46,9.94,9.94s-4.46,9.94-9.94,9.94H79.77c-1.57,0-2.84,1.28-2.84,2.84
		c0,1.57,1.28,2.84,2.84,2.84h8.11v8.11c0,1.57,1.28,2.84,2.84,2.84s2.84-1.28,2.84-2.84v-8.11h2.65c8.61,0,15.63-6.99,15.63-15.59
		C111.84,105.17,104.85,98.19,96.26,98.19z M96.26,98.19h-7.33c-5.48,0-9.94-4.46-9.94-9.94c0-5.48,4.46-9.94,9.94-9.94h16.45
		c1.57,0,2.84-1.28,2.84-2.84s-1.28-2.84-2.84-2.84H93.6v-8.11c0-1.57-1.28-2.84-2.84-2.84c-1.57,0-2.84,1.28-2.84,2.84v8.16
		l-1.3,0.19c-7.59,1.12-13.32,7.72-13.32,15.34c0,8.58,7.01,15.58,15.63,15.58h7.29c5.48,0,9.94,4.46,9.94,9.94
		s-4.46,9.94-9.94,9.94H79.77c-1.57,0-2.84,1.28-2.84,2.84c0,1.57,1.28,2.84,2.84,2.84h8.11v8.11c0,1.57,1.28,2.84,2.84,2.84
		s2.84-1.28,2.84-2.84v-8.11h2.65c8.61,0,15.63-6.99,15.63-15.59C111.84,105.17,104.85,98.19,96.26,98.19z M96.26,98.19h-7.33
		c-5.48,0-9.94-4.46-9.94-9.94c0-5.48,4.46-9.94,9.94-9.94h16.45c1.57,0,2.84-1.28,2.84-2.84s-1.28-2.84-2.84-2.84H93.6v-8.11
		c0-1.57-1.28-2.84-2.84-2.84c-1.57,0-2.84,1.28-2.84,2.84v8.16l-1.3,0.19c-7.59,1.12-13.32,7.72-13.32,15.34
		c0,8.58,7.01,15.58,15.63,15.58h7.29c5.48,0,9.94,4.46,9.94,9.94s-4.46,9.94-9.94,9.94H79.77c-1.57,0-2.84,1.28-2.84,2.84
		c0,1.57,1.28,2.84,2.84,2.84h8.11v8.11c0,1.57,1.28,2.84,2.84,2.84s2.84-1.28,2.84-2.84v-8.11h2.65c8.61,0,15.63-6.99,15.63-15.59
		C111.84,105.17,104.85,98.19,96.26,98.19z M96.26,98.19h-7.33c-5.48,0-9.94-4.46-9.94-9.94c0-5.48,4.46-9.94,9.94-9.94h16.45
		c1.57,0,2.84-1.28,2.84-2.84s-1.28-2.84-2.84-2.84H93.6v-8.11c0-1.57-1.28-2.84-2.84-2.84c-1.57,0-2.84,1.28-2.84,2.84v8.16
		l-1.3,0.19c-7.59,1.12-13.32,7.72-13.32,15.34c0,8.58,7.01,15.58,15.63,15.58h7.29c5.48,0,9.94,4.46,9.94,9.94
		s-4.46,9.94-9.94,9.94H79.77c-1.57,0-2.84,1.28-2.84,2.84c0,1.57,1.28,2.84,2.84,2.84h8.11v8.11c0,1.57,1.28,2.84,2.84,2.84
		s2.84-1.28,2.84-2.84v-8.11h2.65c8.61,0,15.63-6.99,15.63-15.59C111.84,105.17,104.85,98.19,96.26,98.19z M96.26,98.19h-7.33
		c-5.48,0-9.94-4.46-9.94-9.94c0-5.48,4.46-9.94,9.94-9.94h16.45c1.57,0,2.84-1.28,2.84-2.84s-1.28-2.84-2.84-2.84H93.6v-8.11
		c0-1.57-1.28-2.84-2.84-2.84c-1.57,0-2.84,1.28-2.84,2.84v8.16l-1.3,0.19c-7.59,1.12-13.32,7.72-13.32,15.34
		c0,8.58,7.01,15.58,15.63,15.58h7.29c5.48,0,9.94,4.46,9.94,9.94s-4.46,9.94-9.94,9.94H79.77c-1.57,0-2.84,1.28-2.84,2.84
		c0,1.57,1.28,2.84,2.84,2.84h8.11v8.11c0,1.57,1.28,2.84,2.84,2.84s2.84-1.28,2.84-2.84v-8.11h2.65c8.61,0,15.63-6.99,15.63-15.59
		C111.84,105.17,104.85,98.19,96.26,98.19z M96.26,98.19h-7.33c-5.48,0-9.94-4.46-9.94-9.94c0-5.48,4.46-9.94,9.94-9.94h16.45
		c1.57,0,2.84-1.28,2.84-2.84s-1.28-2.84-2.84-2.84H93.6v-8.11c0-1.57-1.28-2.84-2.84-2.84c-1.57,0-2.84,1.28-2.84,2.84v8.16
		l-1.3,0.19c-7.59,1.12-13.32,7.72-13.32,15.34c0,8.58,7.01,15.58,15.63,15.58h7.29c5.48,0,9.94,4.46,9.94,9.94
		s-4.46,9.94-9.94,9.94H79.77c-1.57,0-2.84,1.28-2.84,2.84c0,1.57,1.28,2.84,2.84,2.84h8.11v8.11c0,1.57,1.28,2.84,2.84,2.84
		s2.84-1.28,2.84-2.84v-8.11h2.65c8.61,0,15.63-6.99,15.63-15.59C111.84,105.17,104.85,98.19,96.26,98.19z M96.26,98.19h-7.33
		c-5.48,0-9.94-4.46-9.94-9.94c0-5.48,4.46-9.94,9.94-9.94h16.45c1.57,0,2.84-1.28,2.84-2.84s-1.28-2.84-2.84-2.84H93.6v-8.11
		c0-1.57-1.28-2.84-2.84-2.84c-1.57,0-2.84,1.28-2.84,2.84v8.16l-1.3,0.19c-7.59,1.12-13.32,7.72-13.32,15.34
		c0,8.58,7.01,15.58,15.63,15.58h7.29c5.48,0,9.94,4.46,9.94,9.94s-4.46,9.94-9.94,9.94H79.77c-1.57,0-2.84,1.28-2.84,2.84
		c0,1.57,1.28,2.84,2.84,2.84h8.11v8.11c0,1.57,1.28,2.84,2.84,2.84s2.84-1.28,2.84-2.84v-8.11h2.65c8.61,0,15.63-6.99,15.63-15.59
		C111.84,105.17,104.85,98.19,96.26,98.19z M96.26,98.19h-7.33c-5.48,0-9.94-4.46-9.94-9.94c0-5.48,4.46-9.94,9.94-9.94h16.45
		c1.57,0,2.84-1.28,2.84-2.84s-1.28-2.84-2.84-2.84H93.6v-8.11c0-1.57-1.28-2.84-2.84-2.84c-1.57,0-2.84,1.28-2.84,2.84v8.16
		l-1.3,0.19c-7.59,1.12-13.32,7.72-13.32,15.34c0,8.58,7.01,15.58,15.63,15.58h7.29c5.48,0,9.94,4.46,9.94,9.94
		s-4.46,9.94-9.94,9.94H79.77c-1.57,0-2.84,1.28-2.84,2.84c0,1.57,1.28,2.84,2.84,2.84h8.11v8.11c0,1.57,1.28,2.84,2.84,2.84
		s2.84-1.28,2.84-2.84v-8.11h2.65c8.61,0,15.63-6.99,15.63-15.59C111.84,105.17,104.85,98.19,96.26,98.19z M96.26,98.19h-7.33
		c-5.48,0-9.94-4.46-9.94-9.94c0-5.48,4.46-9.94,9.94-9.94h16.45c1.57,0,2.84-1.28,2.84-2.84s-1.28-2.84-2.84-2.84H93.6v-8.11
		c0-1.57-1.28-2.84-2.84-2.84c-1.57,0-2.84,1.28-2.84,2.84v8.16l-1.3,0.19c-7.59,1.12-13.32,7.72-13.32,15.34
		c0,8.58,7.01,15.58,15.63,15.58h7.29c5.48,0,9.94,4.46,9.94,9.94s-4.46,9.94-9.94,9.94H79.77c-1.57,0-2.84,1.28-2.84,2.84
		c0,1.57,1.28,2.84,2.84,2.84h8.11v8.11c0,1.57,1.28,2.84,2.84,2.84s2.84-1.28,2.84-2.84v-8.11h2.65c8.61,0,15.63-6.99,15.63-15.59
		C111.84,105.17,104.85,98.19,96.26,98.19z"/>
</g>
<g>
	<g>
		<path class="st0" d="M227.42,564.9c0,7.5-6.1,13.6-13.6,13.6c-1.9,0-3.7-0.39-5.34-1.1c-1.73-0.74-3.28-1.83-4.54-3.18
			c-2.31-2.44-3.71-5.72-3.71-9.32c0-7.5,6.1-13.6,13.6-13.6c3.6,0,6.88,1.4,9.32,3.71c1.36,1.27,2.45,2.82,3.19,4.55
			C227.03,561.2,227.42,563.01,227.42,564.9z"/>
		<path class="st0" d="M213.81,579.3c-1.97,0-3.87-0.39-5.66-1.16c-1.81-0.77-3.47-1.94-4.81-3.37c-2.53-2.68-3.93-6.18-3.93-9.87
			c0-7.94,6.46-14.4,14.4-14.4c3.68,0,7.19,1.39,9.87,3.92c1.46,1.36,2.59,2.99,3.37,4.82c0.77,1.79,1.16,3.69,1.16,5.66
			C228.22,572.84,221.76,579.3,213.81,579.3z M213.81,552.1c-7.06,0-12.8,5.74-12.8,12.8c0,3.28,1.24,6.39,3.49,8.77
			c1.19,1.27,2.67,2.31,4.28,3c1.59,0.69,3.28,1.03,5.03,1.03c7.06,0,12.8-5.74,12.8-12.8c0-1.75-0.35-3.44-1.03-5.03
			c-0.7-1.63-1.7-3.07-3-4.28C220.2,553.34,217.09,552.1,213.81,552.1z"/>
	</g>
	<g>
		<path class="st0" d="M95.63,564.74c0,2.65-0.76,5.12-2.08,7.21c-0.96,1.55-2.23,2.88-3.72,3.92c-2.21,1.56-4.9,2.47-7.8,2.47
			c-7.5,0-13.6-6.1-13.6-13.6c0-3.03,0.99-5.83,2.68-8.1c1.08-1.46,2.45-2.69,4.02-3.62c2.03-1.21,4.39-1.89,6.91-1.89
			C89.52,551.14,95.63,557.24,95.63,564.74z"/>
		<path class="st0" d="M82.03,579.14c-7.94,0-14.4-6.46-14.4-14.4c0-3.12,0.98-6.08,2.84-8.57c1.15-1.55,2.58-2.84,4.25-3.83
			c2.2-1.31,4.73-2,7.31-2c7.94,0,14.4,6.46,14.4,14.4c0,2.71-0.76,5.35-2.2,7.64c-1.02,1.64-2.34,3.04-3.94,4.15
			C87.86,578.24,85.01,579.14,82.03,579.14z M82.03,551.94c-2.29,0-4.54,0.62-6.5,1.78c-1.49,0.88-2.76,2.02-3.78,3.4
			c-1.65,2.22-2.52,4.85-2.52,7.62c0,7.06,5.74,12.8,12.8,12.8c2.64,0,5.18-0.8,7.34-2.32c1.42-0.99,2.59-2.23,3.5-3.69
			c1.28-2.03,1.96-4.38,1.96-6.79C94.83,557.68,89.09,551.94,82.03,551.94z"/>
	</g>
	<path class="st0" d="M124.24,379.16c-32.8-7.25-60.9-1.19-79.13,17.04c-18.23,18.23-24.29,46.33-17.04,79.13
		c1.89,8.57,4.64,17.2,8.17,25.76c0.96,2.33,1.98,4.66,3.05,6.99c6.37,13.75,14.74,27.28,24.82,40.1c1.23-1.32,2.6-2.51,4.09-3.54
		c-10.92-13.9-19.74-28.63-26.11-43.54c-0.99-2.32-1.92-4.65-2.8-6.99c-2.49-6.65-4.48-13.32-5.94-19.94
		c-6.83-30.93-1.3-57.26,15.58-74.14c12.16-12.16,29.24-18.44,49.4-18.44c7.82,0,16.1,0.95,24.74,2.85
		c1.03,0.23,2.05,0.46,3.09,0.72c0.39-1.79,0.98-3.51,1.75-5.13C126.68,379.72,125.46,379.43,124.24,379.16z M271.93,526.85
		c-1.89-8.57-4.63-17.2-8.16-25.76c-0.96-2.33-1.98-4.67-3.06-6.99c-9.89-21.36-24.6-42.17-43.07-60.64
		c-13.83-13.84-28.98-25.56-44.69-34.73c-0.62,1.71-1.43,3.34-2.4,4.85c15.19,8.9,29.85,20.28,43.27,33.7
		c19.4,19.4,34.51,41.39,44.1,63.81c0.99,2.33,1.93,4.66,2.8,6.99c2.49,6.65,4.48,13.31,5.94,19.93
		c6.83,30.93,1.3,57.26-15.58,74.14s-43.21,22.42-74.14,15.58c-6.63-1.46-13.3-3.46-19.95-5.94c-2.33-0.88-4.66-1.8-6.98-2.8
		c-16.61-7.1-32.99-17.23-48.25-29.9c-1.06,1.46-2.29,2.8-3.65,3.99c14.23,11.84,29.42,21.54,44.91,28.71
		c2.32,1.08,4.65,2.1,6.98,3.05c8.57,3.53,17.19,6.27,25.76,8.17c9.04,2,17.72,2.98,25.94,2.98c21.59,0,39.98-6.81,53.19-20.02
		C273.12,587.75,279.17,559.65,271.93,526.85z"/>
	<g>
		<path class="st0" d="M163.6,390.4c0,1.04-0.12,2.06-0.34,3.03c-0.41,1.8-1.18,3.47-2.24,4.92c-2.47,3.42-6.49,5.65-11.02,5.65
			c-4.53,0-8.55-2.23-11.02-5.65c-1.05-1.45-1.83-3.12-2.24-4.92c-0.22-0.97-0.34-1.99-0.34-3.03c0-0.77,0.06-1.53,0.19-2.27
			c0.3-1.83,0.98-3.53,1.95-5.04c2.42-3.78,6.65-6.29,11.46-6.29c4.81,0,9.05,2.51,11.46,6.29c0.97,1.51,1.64,3.21,1.95,5.04
			C163.54,388.87,163.6,389.63,163.6,390.4z"/>
		<path class="st0" d="M150,404.8c-4.6,0-8.97-2.24-11.67-5.98c-1.14-1.57-1.94-3.32-2.37-5.21c-0.24-1.05-0.36-2.13-0.36-3.21
			c0-0.81,0.07-1.62,0.21-2.41c0.31-1.9,1.01-3.69,2.06-5.34c2.66-4.17,7.2-6.66,12.14-6.66s9.47,2.49,12.14,6.66
			c1.05,1.64,1.75,3.44,2.06,5.34c0.14,0.78,0.2,1.59,0.2,2.4c0,1.08-0.12,2.16-0.36,3.21c-0.43,1.89-1.23,3.64-2.37,5.21
			C158.97,402.56,154.6,404.8,150,404.8z M150,377.6c-4.39,0-8.42,2.21-10.79,5.92c-0.93,1.46-1.55,3.05-1.83,4.74
			c-0.12,0.7-0.18,1.42-0.18,2.14c0,0.96,0.11,1.92,0.32,2.85c0.38,1.68,1.09,3.23,2.1,4.62c2.41,3.33,6.29,5.32,10.38,5.32
			c4.09,0,7.97-1.99,10.38-5.32c1.01-1.4,1.72-2.95,2.1-4.63c0.21-0.93,0.32-1.89,0.32-2.85c0-0.72-0.06-1.44-0.18-2.13
			c-0.28-1.7-0.9-3.29-1.83-4.75C158.42,379.81,154.39,377.6,150,377.6z"/>
	</g>
	<path class="st0" d="M254.89,396.2c-18.23-18.23-46.33-24.29-79.13-17.04c-1.22,0.27-2.44,0.56-3.67,0.86
		c0.77,1.62,1.36,3.34,1.75,5.13c1.03-0.26,2.06-0.5,3.09-0.72c8.65-1.91,16.93-2.85,24.74-2.85c20.16,0,37.23,6.27,49.4,18.44
		c16.88,16.88,22.42,43.21,15.58,74.14c-1.46,6.63-3.45,13.29-5.94,19.93c-0.87,2.33-1.8,4.66-2.8,6.99
		c-6.7,15.68-16.1,31.14-27.79,45.66c1.36,1.23,2.58,2.6,3.64,4.09c11.05-13.6,20.14-28.05,26.95-42.76
		c1.08-2.32,2.1-4.66,3.06-6.99c3.53-8.57,6.27-17.19,8.16-25.76C279.17,442.53,273.12,414.43,254.89,396.2z M195.67,581.21
		C181.15,592.9,165.68,602.3,150,609c-2.32,0.99-4.65,1.92-6.98,2.8c-6.65,2.49-13.32,4.48-19.95,5.94
		c-30.93,6.83-57.26,1.3-74.14-15.58s-22.42-43.21-15.58-74.14c1.46-6.63,3.46-13.29,5.94-19.94c0.88-2.33,1.8-4.66,2.8-6.99
		c9.58-22.42,24.7-44.41,44.1-63.81c13.42-13.42,28.09-24.8,43.27-33.7c-0.97-1.51-1.78-3.14-2.4-4.85
		c-15.71,9.17-30.86,20.89-44.69,34.73c-18.48,18.48-33.18,39.29-43.07,60.65c-1.08,2.32-2.1,4.65-3.05,6.99
		c-3.53,8.57-6.27,17.19-8.17,25.76c-7.25,32.8-1.19,60.9,17.04,79.13C58.32,619.19,76.7,626,98.3,626c8.22,0,16.9-0.98,25.94-2.98
		c8.57-1.89,17.2-4.64,25.76-8.17c2.33-0.96,4.66-1.98,6.98-3.05c14.71-6.81,29.16-15.91,42.78-26.95
		C198.26,583.8,196.9,582.57,195.67,581.21z"/>
	<g>
		<path class="st0" d="M162.72,565.01c-1.32,0-2.39-1.07-2.39-2.39v-85.26c0-1.26,0.99-2.31,2.25-2.39
			c19.28-1.15,31.72-5.77,37.42-8.42c0.48-0.22,0.83-0.61,1-1.1c0.17-0.48,0.14-1.01-0.09-1.47c-0.33-0.67-0.98-1.08-1.7-1.08
			c-0.25,0-0.49,0.05-0.72,0.15c-7.34,3.21-23.45,8.6-48.83,8.6c-25.27,0-41.01-5.36-48.15-8.55c-0.24-0.11-0.49-0.16-0.74-0.16
			c-0.71,0-1.36,0.4-1.68,1.05c-0.24,0.47-0.28,0.99-0.11,1.48c0.17,0.49,0.52,0.88,0.99,1.1c5.62,2.67,17.97,7.31,37.44,8.43
			c1.26,0.07,2.25,1.12,2.25,2.39v85.22c0,1.32-1.07,2.39-2.39,2.39c-1.32,0-2.39-1.07-2.39-2.39v-82.98
			c-19.05-1.38-31.33-6.06-36.96-8.74c-1.65-0.78-2.87-2.16-3.46-3.88c-0.59-1.73-0.46-3.57,0.37-5.2c1.15-2.27,3.43-3.68,5.95-3.68
			c0.93,0,1.84,0.2,2.7,0.58c6.8,3.04,21.84,8.13,46.2,8.13c24.51,0,39.91-5.13,46.91-8.19c0.84-0.37,1.73-0.56,2.65-0.56
			c2.56,0,4.86,1.45,5.99,3.77c0.8,1.63,0.9,3.46,0.3,5.17c-0.61,1.71-1.85,3.07-3.49,3.84c-5.69,2.65-18.02,7.29-36.89,8.71v83.02
			C165.11,563.94,164.04,565.01,162.72,565.01z"/>
		<path class="st0" d="M162.72,565.81c-1.76,0-3.19-1.43-3.19-3.19v-85.26c0-1.68,1.32-3.08,3-3.18
			c19.15-1.14,31.48-5.72,37.13-8.35c0.28-0.13,0.49-0.36,0.59-0.64c0.1-0.28,0.08-0.59-0.05-0.86c-0.26-0.52-0.87-0.77-1.39-0.55
			c-7.4,3.23-23.62,8.66-49.14,8.66c-25.41,0-41.28-5.4-48.47-8.62c-0.52-0.24-1.13,0.01-1.39,0.52c-0.14,0.28-0.16,0.57-0.07,0.86
			c0.1,0.28,0.3,0.51,0.58,0.64c5.57,2.64,17.81,7.25,37.14,8.35c1.69,0.1,3.01,1.5,3.01,3.19v85.22c0,1.76-1.43,3.19-3.19,3.19
			s-3.19-1.43-3.19-3.19v-82.23c-18.77-1.46-30.91-6.1-36.51-8.76c-1.84-0.88-3.22-2.42-3.88-4.34c-0.66-1.93-0.51-4,0.41-5.82
			c1.28-2.54,3.84-4.11,6.66-4.11c1.05,0,2.06,0.22,3.02,0.65c6.74,3.01,21.65,8.06,45.87,8.06c24.37,0,39.65-5.09,46.59-8.13
			c0.95-0.42,1.94-0.63,2.97-0.63c2.87,0,5.44,1.62,6.71,4.22c0.89,1.82,1.01,3.88,0.33,5.78c-0.68,1.91-2.07,3.43-3.91,4.29
			c-5.65,2.63-17.84,7.23-36.43,8.72v82.28C165.91,564.38,164.48,565.81,162.72,565.81z M199.21,462.11c1.03,0,1.95,0.59,2.42,1.53
			c0.32,0.66,0.37,1.4,0.12,2.09c-0.24,0.69-0.74,1.24-1.42,1.55c-5.75,2.68-18.29,7.33-37.71,8.49c-0.84,0.05-1.5,0.75-1.5,1.59
			v85.26c0,0.88,0.71,1.59,1.59,1.59c0.88,0,1.59-0.71,1.59-1.59v-83.76l0.74-0.06c18.75-1.41,30.99-6.01,36.62-8.63
			c1.45-0.68,2.54-1.88,3.08-3.38c0.53-1.5,0.44-3.11-0.26-4.55c-1-2.05-3.01-3.33-5.27-3.33c-0.8,0-1.59,0.17-2.33,0.49
			c-7.06,3.09-22.57,8.26-47.23,8.26c-24.51,0-39.67-5.14-46.52-8.2c-0.75-0.34-1.55-0.51-2.37-0.51c-2.22,0-4.23,1.24-5.24,3.24
			c-0.73,1.43-0.84,3.06-0.32,4.58c0.52,1.51,1.6,2.72,3.05,3.42c5.57,2.64,17.75,7.29,36.68,8.66l0.74,0.05v83.72
			c0,0.88,0.71,1.59,1.59,1.59c0.88,0,1.59-0.71,1.59-1.59V477.4c0-0.84-0.66-1.54-1.5-1.59c-19.61-1.12-32.06-5.81-37.74-8.51
			c-0.67-0.32-1.16-0.87-1.4-1.57c-0.24-0.7-0.18-1.45,0.15-2.11c0.63-1.25,2.2-1.83,3.47-1.25c7.08,3.17,22.7,8.48,47.82,8.48
			c25.23,0,41.22-5.35,48.51-8.53C198.51,462.18,198.86,462.11,199.21,462.11z"/>
	</g>
	<path class="st0" d="M199.21,461.84c1.13,0,2.15,0.64,2.66,1.68c0.35,0.73,0.4,1.54,0.13,2.3c-0.26,0.75-0.82,1.36-1.56,1.71
		c-5.77,2.68-18.35,7.36-37.8,8.52c-0.7,0.04-1.24,0.62-1.24,1.32v85.26c0,0.73,0.59,1.32,1.32,1.32c0.73,0,1.32-0.59,1.32-1.32
		v-84.01l0.74-0.05c18.84-1.38,31.13-6,36.77-8.63c1.38-0.65,2.43-1.79,2.94-3.23c0.51-1.43,0.42-2.97-0.25-4.34
		c-0.95-1.96-2.88-3.17-5.03-3.17c-0.76,0-1.51,0.16-2.22,0.47c-7.08,3.09-22.63,8.28-47.34,8.28c-24.56,0-39.76-5.15-46.63-8.23
		c-0.72-0.32-1.48-0.49-2.26-0.49c-2.12,0-4.03,1.18-5,3.09c-0.69,1.37-0.8,2.92-0.31,4.37c0.49,1.44,1.53,2.6,2.91,3.26
		c5.59,2.65,17.81,7.31,36.83,8.65l0.74,0.05v83.97c0,0.73,0.59,1.32,1.32,1.32c0.73,0,1.32-0.59,1.32-1.32V477.4
		c0-0.7-0.55-1.28-1.24-1.32c-19.65-1.13-32.14-5.83-37.84-8.53c-0.73-0.35-1.28-0.96-1.54-1.72c-0.26-0.77-0.2-1.59,0.17-2.32
		c0.51-1.01,1.52-1.63,2.64-1.63c0.41,0,0.81,0.09,1.18,0.25c7.06,3.16,22.64,8.46,47.71,8.46c25.18,0,41.14-5.33,48.4-8.51
		C198.43,461.92,198.82,461.84,199.21,461.84z"/>
	<path class="st0" d="M199.22,457.85L199.22,457.85c-0.95,0-1.88,0.2-2.76,0.58c-6.98,3.05-22.34,8.17-46.8,8.17
		c-24.31,0-39.31-5.08-46.09-8.11c-0.89-0.4-1.83-0.6-2.8-0.6c-2.62,0-5,1.47-6.19,3.82c-0.86,1.69-0.99,3.61-0.38,5.4
		c0.61,1.79,1.89,3.22,3.6,4.04c5.63,2.67,17.86,7.33,36.81,8.74v82.73c0,1.47,1.19,2.66,2.66,2.66c1.47,0,2.66-1.19,2.66-2.66
		V477.4c0-1.41-1.1-2.58-2.51-2.66c-19.43-1.11-31.73-5.74-37.34-8.41c-0.4-0.19-0.71-0.53-0.85-0.95
		c-0.14-0.42-0.11-0.87,0.09-1.27c0.28-0.56,0.84-0.9,1.44-0.9c0.22,0,0.43,0.05,0.63,0.14c7.16,3.2,22.95,8.57,48.26,8.57
		c25.43,0,41.58-5.4,48.94-8.62c0.19-0.08,0.4-0.13,0.61-0.13c0.62,0,1.18,0.36,1.46,0.93c0.19,0.4,0.22,0.85,0.07,1.26
		c-0.15,0.41-0.45,0.75-0.87,0.94c-5.68,2.64-18.08,7.25-37.32,8.39c-1.4,0.09-2.5,1.25-2.5,2.66v85.26c0,1.47,1.19,2.66,2.66,2.66
		c1.47,0,2.66-1.19,2.66-2.66v-82.77c18.77-1.44,31.06-6.07,36.74-8.71c1.71-0.8,3-2.22,3.63-3.99c0.63-1.77,0.52-3.68-0.31-5.37
		C204.27,459.35,201.88,457.85,199.22,457.85L199.22,457.85z"/>
	<g id="XMLID_00000016780971871740397480000014684850471668799146_">
		<g id="XMLID_00000078005152135426661810000004003319499225708704_">
			<g id="XMLID_00000158715414800095256920000000824032174715649693_">
				<g id="XMLID_00000080891161305674850020000010801534076047798438_">
					<g id="XMLID_00000035509948925456497690000004766320435316924584_">
						<g id="XMLID_00000173157363911939297750000016152855884791289767_">
							<g>
								<path class="st0" d="M150.01,565.01c-1.32,0-2.39-1.07-2.39-2.39v-42.43c0-1.32,1.07-2.39,2.39-2.39
									c1.32,0,2.39,1.07,2.39,2.39v42.43C152.4,563.94,151.33,565.01,150.01,565.01z"/>
								<path class="st0" d="M150.01,565.81c-1.76,0-3.19-1.43-3.19-3.19v-42.44c0-1.76,1.43-3.19,3.19-3.19
									c1.76,0,3.19,1.43,3.19,3.19v42.44C153.2,564.38,151.77,565.81,150.01,565.81z M150.01,518.59c-0.88,0-1.59,0.71-1.59,1.59
									v42.44c0,0.88,0.71,1.59,1.59,1.59c0.88,0,1.59-0.71,1.59-1.59v-42.44C151.6,519.31,150.89,518.59,150.01,518.59z"/>
							</g>
							<g>
								<path class="st0" d="M150.01,518.06c1.17,0,2.12,0.95,2.12,2.12v42.44c0,1.17-0.95,2.12-2.12,2.12s-2.12-0.95-2.12-2.12
									v-42.44C147.89,519.01,148.84,518.06,150.01,518.06L150.01,518.06z M150.01,517.52c-1.47,0-2.66,1.19-2.66,2.66v42.44
									c0,1.47,1.19,2.66,2.66,2.66c1.47,0,2.66-1.19,2.66-2.66v-42.44C152.67,518.72,151.48,517.52,150.01,517.52L150.01,517.52z"
									/>
								<path class="st0" d="M150.01,566.08c-1.91,0-3.46-1.55-3.46-3.46v-42.44c0-1.91,1.55-3.46,3.46-3.46
									c1.91,0,3.46,1.55,3.46,3.46v42.44C153.47,564.53,151.92,566.08,150.01,566.08z M150.01,518.86c-0.73,0-1.32,0.59-1.32,1.32
									v42.44c0,0.73,0.59,1.32,1.32,1.32c0.73,0,1.32-0.59,1.32-1.32v-42.44C151.33,519.46,150.74,518.86,150.01,518.86z"/>
							</g>
						</g>
					</g>
				</g>
			</g>
		</g>
	</g>
	<g id="XMLID_00000085240846292545961450000006329007194416954794_">
		<g id="XMLID_00000168090080292858299490000017330577872452881282_">
			<g id="XMLID_00000035508950803878004560000000300542771449062841_">
				<g id="XMLID_00000109708317039025027290000004297405341433272978_">
					<g id="XMLID_00000156572320622990969650000008545937154499113105_">
						<g id="XMLID_00000167381657520876926150000018276127482036519348_">
							<g id="XMLID_00000029016871356447865750000015043719411674855332_">
								<g id="XMLID_00000001631772027949134630000006345804055687512754_">
									<g id="XMLID_00000049221279956597217950000002945766703944807821_">
										<g>
											<path class="st0" d="M150.01,463.17c-7.17,0-13-5.83-13-13s5.83-13,13-13s13,5.83,13,13S157.18,463.17,150.01,463.17z
												 M150.01,441.95c-4.53,0-8.22,3.69-8.22,8.22c0,4.53,3.69,8.22,8.22,8.22c4.53,0,8.22-3.69,8.22-8.22
												C158.23,445.64,154.54,441.95,150.01,441.95z"/>
											<path class="st0" d="M150.01,463.97c-7.61,0-13.8-6.19-13.8-13.8c0-7.61,6.19-13.8,13.8-13.8c7.61,0,13.8,6.19,13.8,13.8
												C163.81,457.78,157.62,463.97,150.01,463.97z M150.01,437.96c-6.73,0-12.2,5.47-12.2,12.2c0,6.73,5.47,12.2,12.2,12.2
												s12.2-5.47,12.2-12.2C162.21,443.44,156.74,437.96,150.01,437.96z M150.01,459.18c-4.97,0-9.02-4.04-9.02-9.02
												c0-4.97,4.04-9.02,9.02-9.02s9.02,4.04,9.02,9.02C159.03,455.14,154.98,459.18,150.01,459.18z M150.01,442.75
												c-4.09,0-7.42,3.33-7.42,7.42c0,4.09,3.33,7.42,7.42,7.42s7.42-3.33,7.42-7.42C157.43,446.08,154.1,442.75,150.01,442.75
												z"/>
										</g>
										<g>
											<path class="st0" d="M150.01,437.44c7.02,0,12.73,5.71,12.73,12.73s-5.71,12.73-12.73,12.73
												c-7.02,0-12.73-5.71-12.73-12.73S142.99,437.44,150.01,437.44L150.01,437.44z M150.01,458.65c4.68,0,8.49-3.8,8.49-8.49
												s-3.81-8.49-8.49-8.49c-4.68,0-8.49,3.8-8.49,8.49S145.33,458.65,150.01,458.65L150.01,458.65z M150.01,436.9
												c-7.32,0-13.27,5.95-13.27,13.27c0,7.32,5.95,13.27,13.27,13.27c7.32,0,13.27-5.95,13.27-13.27
												C163.28,442.85,157.33,436.9,150.01,436.9L150.01,436.9z M150.01,458.11c-4.38,0-7.95-3.56-7.95-7.95
												s3.56-7.95,7.95-7.95c4.38,0,7.95,3.56,7.95,7.95S154.39,458.11,150.01,458.11L150.01,458.11z"/>
											<path class="st0" d="M150.01,464.24c-7.76,0-14.07-6.31-14.07-14.07c0-7.76,6.31-14.07,14.07-14.07
												c7.76,0,14.07,6.31,14.07,14.07C164.08,457.92,157.77,464.24,150.01,464.24z M150.01,438.24
												c-6.58,0-11.93,5.35-11.93,11.93c0,6.58,5.35,11.93,11.93,11.93s11.93-5.35,11.93-11.93
												C161.94,443.59,156.59,438.24,150.01,438.24z M150.01,459.45c-5.12,0-9.29-4.17-9.29-9.29c0-5.12,4.17-9.29,9.29-9.29
												c5.12,0,9.29,4.17,9.29,9.29C159.3,455.29,155.13,459.45,150.01,459.45z M150.01,443.02c-3.94,0-7.15,3.21-7.15,7.15
												c0,3.94,3.21,7.15,7.15,7.15c3.94,0,7.15-3.21,7.15-7.15C157.16,446.23,153.95,443.02,150.01,443.02z"/>
										</g>
									</g>
								</g>
							</g>
						</g>
					</g>
				</g>
			</g>
		</g>
	</g>
</g>
<g>
	<g>
		<g>
			<path class="st0" d="M152.54,728.54v24.98c0,1.4-1.14,2.54-2.54,2.54c-1.4,0-2.54-1.14-2.54-2.54v-24.98
				c0-1.4,1.14-2.54,2.54-2.54C151.4,726,152.54,727.14,152.54,728.54z"/>
			<path class="st0" d="M150,756.44c-1.61,0-2.92-1.31-2.92-2.92v-24.98c0-1.61,1.31-2.92,2.92-2.92s2.92,1.31,2.92,2.92v24.98
				C152.92,755.13,151.61,756.44,150,756.44z M150,726.38c-1.2,0-2.17,0.97-2.17,2.17v24.98c0,1.2,0.97,2.17,2.17,2.17
				s2.17-0.97,2.17-2.17v-24.98C152.17,727.35,151.2,726.38,150,726.38z"/>
		</g>
	</g>
	<g>
		<g>
			<path class="st0" d="M85.3,782.86c-1,1-2.61,1-3.6,0L64.04,765.2c-0.99-0.99-0.99-2.6,0-3.59c1-0.99,2.6-0.99,3.6,0l17.66,17.66
				C86.29,780.26,86.29,781.87,85.3,782.86z"/>
			<path class="st0" d="M83.5,783.99C83.5,783.99,83.49,783.99,83.5,783.99c-0.79,0-1.52-0.31-2.06-0.86l-17.66-17.66
				c-0.55-0.55-0.85-1.28-0.85-2.06s0.3-1.51,0.85-2.06c1.14-1.13,2.99-1.13,4.13,0L85.57,779c0.55,0.55,0.85,1.28,0.85,2.06
				s-0.3,1.51-0.85,2.06C85.02,783.68,84.28,783.99,83.5,783.99z M65.84,761.24c-0.56,0-1.11,0.21-1.54,0.63
				c-0.41,0.41-0.63,0.95-0.63,1.53s0.22,1.12,0.63,1.53l17.66,17.66c0.41,0.41,0.95,0.64,1.53,0.64c0,0,0,0,0.01,0
				c0.58,0,1.13-0.23,1.54-0.64c0.41-0.41,0.63-0.95,0.63-1.53s-0.22-1.12-0.63-1.53l-17.66-17.66
				C66.95,761.45,66.4,761.24,65.84,761.24z"/>
		</g>
	</g>
	<g>
		<g>
			<path class="st0" d="M58.5,847.57c0,1.4-1.14,2.54-2.54,2.54H30.99c-1.4,0-2.54-1.14-2.54-2.54s1.14-2.54,2.54-2.54h24.97
				C57.36,845.03,58.5,846.17,58.5,847.57z"/>
			<path class="st0" d="M55.95,850.49H30.98c-1.61,0-2.92-1.31-2.92-2.92s1.31-2.92,2.92-2.92h24.97c1.61,0,2.92,1.31,2.92,2.92
				S57.56,850.49,55.95,850.49z M30.98,845.4c-1.2,0-2.17,0.97-2.17,2.17s0.97,2.17,2.17,2.17h24.97c1.2,0,2.17-0.97,2.17-2.17
				s-0.97-2.17-2.17-2.17H30.98z"/>
		</g>
	</g>
	<g>
		<g>
			<path class="st0" d="M85.3,915.86l-17.66,17.66c-0.99,0.99-2.6,0.99-3.6,0c-0.47-0.48-0.74-1.12-0.74-1.8
				c0-0.68,0.26-1.32,0.74-1.8l17.66-17.66c0.99-0.99,2.6-0.99,3.6,0C86.29,913.25,86.29,914.87,85.3,915.86z"/>
			<path class="st0" d="M65.84,934.63c-0.75,0-1.5-0.28-2.07-0.85c-0.55-0.56-0.85-1.29-0.85-2.06c0-0.78,0.3-1.52,0.85-2.06
				L81.44,912c1.13-1.13,2.99-1.13,4.13,0c1.14,1.14,1.14,2.99,0,4.12l-17.66,17.66C67.34,934.35,66.59,934.63,65.84,934.63z
				 M83.5,911.9c-0.56,0-1.11,0.21-1.53,0.63L64.3,930.19c-0.4,0.4-0.63,0.95-0.63,1.53c0,0.57,0.22,1.12,0.63,1.53
				c0.85,0.84,2.23,0.84,3.07,0l17.66-17.66c0.84-0.84,0.84-2.22,0-3.06C84.61,912.11,84.06,911.9,83.5,911.9z"/>
		</g>
	</g>
	<g>
		<g>
			<path class="st0" d="M235.96,933.52c-1,0.99-2.61,0.99-3.6,0l-17.66-17.66c-0.99-0.99-0.99-2.6,0-3.59
				c0.49-0.49,1.15-0.75,1.81-0.75c0.65,0,1.3,0.25,1.8,0.75l17.66,17.66C236.95,930.92,236.95,932.53,235.96,933.52z"/>
			<path class="st0" d="M234.16,934.63c-0.75,0-1.5-0.28-2.06-0.85l-17.66-17.66c-1.14-1.14-1.14-2.99,0-4.12
				c1.09-1.09,3.03-1.1,4.13,0l17.66,17.66c1.14,1.14,1.14,2.99,0,4.12l0,0C235.65,934.35,234.9,934.63,234.16,934.63z
				 M216.5,911.89c-0.58,0-1.13,0.23-1.54,0.64c-0.84,0.84-0.84,2.22,0,3.06l17.66,17.66c0.84,0.84,2.22,0.84,3.07,0
				c0.84-0.84,0.84-2.22,0-3.06l-17.66-17.66C217.63,912.12,217.07,911.89,216.5,911.89z"/>
		</g>
	</g>
	<g>
		<g>
			<path class="st0" d="M271.56,847.57c0,1.4-1.14,2.54-2.54,2.54h-24.97c-1.4,0-2.54-1.14-2.54-2.54s1.14-2.54,2.54-2.54h24.97
				C270.42,845.03,271.56,846.17,271.56,847.57z"/>
			<path class="st0" d="M269.02,850.49h-24.97c-1.61,0-2.92-1.31-2.92-2.92s1.31-2.92,2.92-2.92h24.97c1.61,0,2.92,1.31,2.92,2.92
				S270.62,850.49,269.02,850.49z M244.05,845.4c-1.2,0-2.17,0.97-2.17,2.17s0.97,2.17,2.17,2.17h24.97c1.2,0,2.17-0.97,2.17-2.17
				s-0.97-2.17-2.17-2.17H244.05z"/>
		</g>
	</g>
	<g>
		<g>
			<path class="st0" d="M235.96,765.2l-17.66,17.66c-0.99,1-2.6,1-3.6,0c-0.99-0.99-0.99-2.6,0-3.59l17.66-17.66
				c0.99-0.99,2.6-0.99,3.6,0C236.95,762.6,236.95,764.21,235.96,765.2z"/>
			<path class="st0" d="M216.5,783.99c-0.78,0-1.52-0.3-2.07-0.86c-0.55-0.55-0.85-1.28-0.85-2.06s0.3-1.51,0.85-2.06l17.66-17.66
				c1.13-1.13,2.99-1.13,4.13,0c0.55,0.55,0.85,1.28,0.85,2.06s-0.3,1.51-0.85,2.06l-17.66,17.66
				C218.02,783.68,217.29,783.99,216.5,783.99C216.51,783.99,216.5,783.99,216.5,783.99z M234.16,761.24
				c-0.56,0-1.11,0.21-1.53,0.63l-17.66,17.66c-0.41,0.41-0.63,0.95-0.63,1.53s0.22,1.12,0.63,1.53c0.41,0.41,0.96,0.64,1.54,0.64
				c0.57-0.02,1.12-0.23,1.53-0.64l17.66-17.67c0.41-0.41,0.63-0.95,0.63-1.53s-0.22-1.12-0.63-1.53
				C235.27,761.45,234.71,761.24,234.16,761.24z"/>
		</g>
	</g>
	<g>
		<path class="st0" d="M201.67,890.99c13.13-13.72,20.36-31.79,20.36-50.91c0-40.3-32.31-73.08-72.02-73.08
			c-13.91,0-27.41,4.04-39.04,11.66c-11.31,7.43-20.35,17.86-26.1,30.2c-0.28,0.62-0.31,1.3-0.08,1.95c0.23,0.64,0.7,1.15,1.31,1.43
			c0.62,0.28,1.31,0.32,1.95,0.08c0.64-0.23,1.15-0.7,1.43-1.31c11.03-23.64,34.79-38.92,60.53-38.92c36.91,0,66.94,30.5,66.94,68
			c0,17.8-6.73,34.63-18.94,47.39c-6.79,7.11-12.55,13.75-14.02,23.19l-0.16,0.99h-66.62l-0.18-0.95
			c-1.85-9.71-8.63-16.68-14.61-22.83c-12.46-12.81-19.33-29.78-19.33-47.79c0-4.45,0.42-8.89,1.26-13.22
			c0.27-1.37-0.64-2.72-2.01-2.98c-0.16-0.04-0.32-0.05-0.48-0.05c-1.19,0-2.26,0.85-2.5,2.06c-0.9,4.64-1.35,9.42-1.35,14.19
			c0,19.34,7.38,37.58,20.77,51.33c8,8.23,13.68,14.82,13.68,24.65l0.21,21.82c0,6.47,3.3,12.32,8.82,15.69l0.57,0.34v4.72
			c0,9.58,7.78,17.36,17.36,17.36h22.72c9.58,0,17.36-7.78,17.36-17.36v-4.72l0.56-0.34c5.53-3.37,8.83-9.22,8.83-15.67
			c-0.01-9.23-0.03-23.1-0.07-24.31l-0.01-0.08l0.01-0.16C189.51,904.35,195.04,897.9,201.67,890.99z M174.37,958.64
			c0,6.77-5.5,12.27-12.27,12.27h-22.72c-6.77,0-12.27-5.5-12.27-12.27v-2.77l1.32,0.19c0.86,0.12,1.72,0.18,2.55,0.18h39.51
			c0.83,0,1.7-0.06,2.55-0.18l1.32-0.19V958.64z M173.71,936.49h10.05v1.41c0,7.31-5.94,13.26-13.26,13.26h-39.51
			c-7.32,0-13.26-5.95-13.26-13.26v-1.41h38.7c1.4,0,2.54-1.14,2.54-2.54s-1.14-2.54-2.54-2.54h-38.7v-14.66h65.92l0.13,14.66
			h-10.06c-1.4,0-2.54,1.14-2.54,2.54S172.31,936.49,173.71,936.49z M170.5,951.54h-39.51c-7.52,0-13.64-6.12-13.64-13.64v-1.79
			h39.07c1.2,0,2.17-0.97,2.17-2.17c0-1.2-0.97-2.17-2.17-2.17h-39.07v-15.42h66.66l0.14,15.42h-10.44c-1.2,0-2.17,0.97-2.17,2.17
			c0,1.2,0.97,2.17,2.17,2.17h10.43v1.79C184.14,945.42,178.02,951.54,170.5,951.54z M118.1,936.86v1.04
			c0,7.11,5.78,12.89,12.89,12.89h39.51c7.11,0,12.89-5.78,12.89-12.89v-1.04h-9.68c-1.61,0-2.92-1.31-2.92-2.92
			s1.31-2.92,2.92-2.92h9.68l-0.12-13.92H118.1v13.92h38.32c1.61,0,2.92,1.31,2.92,2.92s-1.31,2.92-2.92,2.92H118.1z"/>
	</g>
	<g>
		<g>
			<path class="st0" d="M186.35,834.95l-7.34,9.45c-0.41,0.53-1.02,0.88-1.69,0.96c-0.68,0.09-1.34-0.09-1.88-0.51
				c-0.54-0.41-0.88-1.01-0.97-1.69c-0.08-0.68,0.1-1.34,0.51-1.88l7.32-9.43c0.92-1.13,1.33-2.64,1.14-4.16
				c-0.19-1.51-0.97-2.88-2.09-3.71c-1.13-0.92-2.64-1.32-4.16-1.14c-1.51,0.19-2.88,0.97-3.73,2.12l-26.66,34.33
				c-0.41,0.57-1.1,0.91-1.89,0.94c-0.78,0.04-1.5-0.25-1.99-0.82l-16.69-18.47c-2.07-2.29-5.62-2.47-7.91-0.4
				c-1.11,1.01-1.77,2.38-1.85,3.88c-0.07,1.5,0.43,2.94,1.44,4.05l23.19,25.66c1.06,1.24,2.65,1.92,4.39,1.86
				c1.73-0.07,3.27-0.86,4.22-2.15l14.66-18.88c0.41-0.53,1.01-0.88,1.69-0.97c0.68-0.08,1.34,0.1,1.88,0.51
				c1.11,0.87,1.31,2.46,0.45,3.57l-14.69,18.9c-1.81,2.46-4.73,3.94-8.01,4.07c-3.28,0.13-6.33-1.13-8.35-3.47l-23.21-25.69
				c-1.92-2.12-2.9-4.85-2.75-7.71c0.14-2.86,1.38-5.48,3.5-7.4c2.05-1.85,4.61-2.76,7.17-2.76c2.93,0,5.83,1.19,7.94,3.52
				l14.65,16.22l24.78-31.91c1.76-2.25,4.28-3.69,7.12-4.05c2.83-0.36,5.63,0.4,7.89,2.16c2.25,1.76,3.69,4.28,4.05,7.12
				C188.88,829.9,188.1,832.7,186.35,834.95z"/>
			<path class="st0" d="M145.26,881.41c-3.22,0-6.17-1.3-8.17-3.61l-23.21-25.68c-1.99-2.2-3-5.03-2.84-7.98
				c0.15-2.95,1.43-5.67,3.63-7.66c2.04-1.84,4.67-2.85,7.42-2.85c3.13,0,6.13,1.33,8.22,3.65l14.35,15.89l24.5-31.56
				c1.82-2.34,4.44-3.83,7.37-4.19c2.92-0.38,5.83,0.42,8.17,2.24c2.34,1.82,3.82,4.44,4.19,7.37c0.38,2.92-0.42,5.83-2.24,8.17v0
				l-7.34,9.45c-0.48,0.62-1.16,1.01-1.94,1.1c-0.78,0.11-1.54-0.11-2.16-0.59c-0.61-0.46-1-1.15-1.11-1.93
				c-0.09-0.78,0.12-1.54,0.59-2.16l7.32-9.43c0.86-1.06,1.24-2.47,1.06-3.88c-0.18-1.41-0.89-2.67-1.94-3.46
				c-1.05-0.85-2.46-1.24-3.89-1.07c-1.41,0.18-2.68,0.9-3.48,1.97l-26.66,34.33c-0.48,0.65-1.27,1.05-2.17,1.08
				c-0.89,0.05-1.73-0.3-2.29-0.95l-16.69-18.46c-1.93-2.14-5.24-2.31-7.38-0.38c-1.04,0.94-1.65,2.23-1.72,3.62
				c-0.07,1.41,0.41,2.75,1.35,3.78l23.19,25.66c0.99,1.16,2.48,1.8,4.1,1.73c1.61-0.07,3.05-0.79,3.93-2l14.67-18.89
				c0.47-0.61,1.16-1.01,1.93-1.11c0.78-0.09,1.55,0.12,2.16,0.59c1.27,0.99,1.5,2.83,0.52,4.1l-14.69,18.91
				c-1.86,2.54-4.89,4.07-8.29,4.21C145.58,881.41,145.42,881.41,145.26,881.41z M122.08,834.38c-2.56,0-5.01,0.94-6.91,2.66
				c-2.04,1.85-3.24,4.38-3.38,7.14c-0.15,2.75,0.79,5.39,2.65,7.44l23.21,25.69c1.95,2.26,4.88,3.46,8.05,3.35
				c3.18-0.13,6-1.55,7.73-3.91l14.69-18.91c0.73-0.94,0.55-2.31-0.39-3.05c-0.45-0.35-1.02-0.5-1.6-0.44
				c-0.57,0.08-1.08,0.37-1.43,0.83l-14.66,18.88c-1.01,1.38-2.66,2.22-4.5,2.29c-1.84,0.06-3.56-0.66-4.69-1.99l-23.19-25.65
				c-1.07-1.18-1.62-2.71-1.54-4.32c0.09-1.59,0.79-3.06,1.97-4.14c2.45-2.21,6.23-2.02,8.44,0.43l16.69,18.47
				c0.41,0.48,1.03,0.73,1.69,0.69c0.67-0.03,1.26-0.31,1.6-0.79l26.66-34.33c0.92-1.23,2.37-2.06,3.98-2.26
				c1.62-0.19,3.25,0.25,4.44,1.22c1.21,0.9,2.02,2.35,2.23,3.96c0.2,1.62-0.24,3.24-1.22,4.44l-7.31,9.42
				c-0.35,0.46-0.51,1.03-0.44,1.6c0.08,0.58,0.36,1.08,0.82,1.43c0.46,0.36,1.02,0.52,1.6,0.44c0.58-0.07,1.09-0.36,1.44-0.82
				l7.34-9.45c1.69-2.18,2.43-4.89,2.08-7.61c-0.34-2.73-1.73-5.17-3.91-6.87c-2.18-1.69-4.89-2.43-7.61-2.08
				c-2.73,0.34-5.17,1.73-6.87,3.91l-25.05,32.27l-14.96-16.55C127.79,835.62,125,834.38,122.08,834.38z"/>
		</g>
	</g>
</g>
<g>
	<path class="st1" d="M890.15-228.12c-0.85-0.29-1.47-1.06-1.57-1.95l-18.56-157.2c-0.08-0.71,0.16-1.42,0.67-1.93
		c0.63-0.64,1.59-0.86,2.44-0.56c0.33,0.11,0.63,0.3,0.88,0.55l112.39,111.47c0.54,0.54,0.79,1.31,0.66,2.06
		c-0.1,0.62-0.45,1.16-0.96,1.52c-0.51,0.36-1.13,0.51-1.75,0.4l-60.99-10.44c-0.41-0.07-0.82,0.13-1.02,0.5l-29.35,54.48
		c-0.36,0.67-1.03,1.13-1.79,1.22C890.83-227.97,890.48-228,890.15-228.12z M877.07-379.41c-0.24-0.08-0.51-0.07-0.74,0.05
		c-0.37,0.18-0.59,0.58-0.54,0.99l16.22,137.32c0.04,0.37,0.3,0.68,0.65,0.8c0.04,0.01,0.09,0.03,0.14,0.04
		c0.42,0.08,0.84-0.12,1.04-0.49l25.49-47.32c0.48-0.89,1.47-1.37,2.46-1.2l52.98,9.07c0.42,0.07,0.84-0.14,1.03-0.51
		c0.19-0.38,0.12-0.84-0.18-1.14l-98.17-97.37C877.33-379.28,877.21-379.36,877.07-379.41z M845.1-284.99
		c-51.17-17.64-78.45-73.62-60.81-124.79c4.22-12.25,10.72-23.38,19.3-33.08c8.59-9.7,18.85-17.5,30.49-23.17
		c23.57-11.49,50.21-13.11,74.99-4.57c24.79,8.54,44.77,26.23,56.25,49.79c5.71,11.72,8.99,24.27,9.76,37.28
		c0.76,13.01-1.04,25.85-5.35,38.16c-0.43,1.22-1.76,1.86-2.98,1.44c-0.59-0.21-1.07-0.64-1.35-1.21c-0.27-0.56-0.31-1.2-0.1-1.79
		c8.26-23.38,6.73-49.57-4.2-71.84c-10.92-22.4-29.95-39.22-53.57-47.37c-23.63-8.14-48.98-6.61-71.39,4.31
		c-22.41,10.92-39.24,29.95-47.38,53.58c-8.14,23.63-6.61,48.99,4.31,71.39c10.68,22.08,30.12,39.33,53.32,47.33l0.67,0.23
		c1.23,0.42,1.89,1.76,1.48,2.98c-0.2,0.59-0.62,1.07-1.19,1.35c-0.56,0.28-1.2,0.32-1.79,0.12L845.1-284.99L845.1-284.99z"/>
	<path class="st1" d="M890.9-227c-0.37,0-0.73-0.06-1.08-0.18h0c-1.21-0.42-2.08-1.5-2.23-2.77l-18.56-157.2
		c-0.12-1.02,0.23-2.02,0.95-2.74c0.9-0.9,2.26-1.22,3.46-0.8c0.47,0.16,0.89,0.43,1.26,0.78l112.39,111.47
		c0.77,0.77,1.12,1.86,0.94,2.94c-0.15,0.87-0.63,1.64-1.36,2.16c-0.73,0.52-1.61,0.72-2.49,0.57l-60.99-10.44l-29.33,54.47
		c-0.51,0.96-1.46,1.6-2.55,1.73C891.17-227.01,891.03-227,890.9-227z M890.47-229.06c0.19,0.06,0.39,0.09,0.6,0.06
		c0.44-0.05,0.82-0.31,1.03-0.7l29.35-54.48c0.4-0.74,1.22-1.14,2.06-1l60.99,10.44c0.36,0.06,0.71-0.02,1.01-0.23
		c0.3-0.21,0.49-0.52,0.55-0.87c0.08-0.44-0.07-0.88-0.38-1.19L873.3-388.5c-0.15-0.15-0.31-0.25-0.5-0.32
		c-0.49-0.17-1.04-0.04-1.41,0.33c-0.29,0.3-0.43,0.7-0.39,1.12l18.56,157.2C889.62-229.67,889.98-229.23,890.47-229.06
		L890.47-229.06z M892.98-239.2c-0.12,0-0.25-0.01-0.37-0.04c-0.09-0.02-0.18-0.04-0.27-0.07c-0.71-0.24-1.23-0.88-1.31-1.63
		l-16.22-137.32c-0.1-0.83,0.34-1.63,1.09-2c0.47-0.23,1-0.26,1.5-0.09l0,0c0.28,0.1,0.54,0.26,0.75,0.47l98.17,97.37
		c0.61,0.61,0.76,1.53,0.36,2.29c-0.39,0.76-1.23,1.18-2.08,1.04l-52.98-9.07c-0.58-0.1-1.14,0.18-1.42,0.69l-25.49,47.32
		C894.35-239.59,893.69-239.2,892.98-239.2z M876.77-378.45l16.22,137.27l25.46-47.33c0.68-1.26,2.09-1.95,3.5-1.71l52.98,9.07
		L876.77-378.45z M846.32-283.71c-0.36,0-0.72-0.06-1.08-0.18l-0.46-0.16c-51.69-17.82-79.24-74.37-61.43-126.06
		c4.27-12.38,10.83-23.62,19.5-33.41c8.67-9.8,19.04-17.67,30.8-23.41c23.81-11.6,50.71-13.24,75.75-4.61
		c25.04,8.63,45.22,26.49,56.82,50.3c5.77,11.84,9.09,24.51,9.85,37.66c0.77,13.15-1.05,26.11-5.4,38.55
		c-0.6,1.73-2.5,2.65-4.24,2.05c-0.85-0.3-1.53-0.9-1.92-1.71c-0.39-0.81-0.44-1.71-0.15-2.55c8.17-23.14,6.66-49.04-4.16-71.08
		c-10.81-22.17-29.63-38.81-53.01-46.87c-23.38-8.06-48.46-6.54-70.64,4.27c-22.17,10.81-38.82,29.63-46.88,53.01
		c-8.06,23.38-6.54,48.47,4.26,70.64c10.57,21.85,29.8,38.91,52.75,46.82l0.67,0.23c1.74,0.6,2.68,2.5,2.09,4.24
		c-0.28,0.84-0.88,1.53-1.69,1.92C847.32-283.83,846.82-283.71,846.32-283.71z M845.42-285.93l0.46,0.16
		c0.34,0.12,0.71,0.09,1.03-0.07c0.33-0.16,0.57-0.44,0.69-0.78c0.24-0.71-0.15-1.48-0.86-1.72l-0.66-0.23
		c-23.45-8.08-43.09-25.52-53.89-47.83c-11.04-22.65-12.58-48.27-4.35-72.15c8.23-23.88,25.23-43.11,47.88-54.15
		c22.65-11.04,48.27-12.59,72.15-4.36c23.88,8.23,43.11,25.23,54.14,47.87c11.05,22.51,12.6,48.97,4.25,72.61
		c-0.12,0.33-0.1,0.7,0.06,1.03c0.16,0.33,0.44,0.58,0.78,0.7c0.7,0.24,1.47-0.13,1.71-0.84c4.26-12.18,6.05-24.89,5.29-37.78
		c-0.75-12.88-4-25.3-9.66-36.9c-11.37-23.33-31.15-40.83-55.69-49.29c-24.54-8.46-50.9-6.85-74.24,4.52
		c-11.53,5.62-21.68,13.34-30.18,22.94c-8.5,9.6-14.93,20.62-19.11,32.74C767.77-358.81,794.77-303.39,845.42-285.93L845.42-285.93z
		"/>
</g>
<g id="Online_Shopping_00000008136571894861026020000006092578587769884039_">
	<path class="st1" d="M1331.55-470.42h-217.11c-9.08,0.01-16.44,7.37-16.45,16.45v203.95c0.01,9.08,7.37,16.44,16.45,16.45h217.11
		c9.08-0.01,16.44-7.37,16.45-16.45v-203.95C1347.99-463.05,1340.63-470.41,1331.55-470.42z M1114.45-463.84h217.11
		c5.45,0.01,9.86,4.42,9.87,9.87v23.03h-236.84v-23.03C1104.58-459.42,1109-463.84,1114.45-463.84z M1331.55-240.16h-217.11
		c-5.45-0.01-9.86-4.42-9.87-9.87v-174.34h236.84v174.34C1341.42-244.58,1337-240.16,1331.55-240.16z"/>
	<path class="st1" d="M1127.61-437.53c5.45,0,9.87-4.42,9.87-9.87c0-5.45-4.42-9.87-9.87-9.87s-9.87,4.42-9.87,9.87
		C1117.74-441.95,1122.16-437.53,1127.61-437.53z M1127.61-450.68c1.82,0,3.29,1.47,3.29,3.29c0,1.82-1.47,3.29-3.29,3.29
		c-1.82,0-3.29-1.47-3.29-3.29C1124.32-449.21,1125.79-450.68,1127.61-450.68z"/>
	<path class="st1" d="M1153.92-437.53c5.45,0,9.87-4.42,9.87-9.87c0-5.45-4.42-9.87-9.87-9.87s-9.87,4.42-9.87,9.87
		C1144.06-441.95,1148.47-437.53,1153.92-437.53z M1153.92-450.68c1.82,0,3.29,1.47,3.29,3.29c0,1.82-1.47,3.29-3.29,3.29
		c-1.82,0-3.29-1.47-3.29-3.29C1150.63-449.21,1152.1-450.68,1153.92-450.68z"/>
	<path class="st1" d="M1180.24-437.53c5.45,0,9.87-4.42,9.87-9.87c0-5.45-4.42-9.87-9.87-9.87s-9.87,4.42-9.87,9.87
		C1170.37-441.95,1174.79-437.53,1180.24-437.53z M1180.24-450.68c1.82,0,3.29,1.47,3.29,3.29c0,1.82-1.47,3.29-3.29,3.29
		c-1.82,0-3.29-1.47-3.29-3.29C1176.95-449.21,1178.42-450.68,1180.24-450.68z"/>
	<path class="st1" d="M1259.18-444.11h65.79c1.82,0,3.29-1.47,3.29-3.29c0-1.82-1.47-3.29-3.29-3.29h-65.79
		c-1.82,0-3.29,1.47-3.29,3.29C1255.89-445.58,1257.37-444.11,1259.18-444.11z"/>
	<path class="st1" d="M1288.79-371.74h-82.24c-1.82,0-3.29,1.47-3.29,3.29c0,1.82,1.47,3.29,3.29,3.29h77.84l-14.51,49.34h-57.53
		l-19.08-69.94c-0.39-1.43-1.69-2.42-3.17-2.42h-26.32c-1.82,0-3.29,1.47-3.29,3.29c0,1.82,1.47,3.29,3.29,3.29h23.8l17.94,65.79
		h-18.72c-5.45,0-9.87,4.42-9.87,9.87c0,5.45,4.42,9.87,9.87,9.87h14.99c-1.18,1.99-1.82,4.26-1.83,6.58
		c0,7.27,5.89,13.16,13.16,13.16c7.27,0,13.16-5.89,13.16-13.16c-0.01-2.32-0.65-4.59-1.83-6.58h23.4
		c-1.18,1.99-1.82,4.26-1.83,6.58c0,7.27,5.89,13.16,13.16,13.16c7.27,0,13.16-5.89,13.16-13.16c-0.01-2.32-0.65-4.59-1.83-6.58
		h14.99c1.82,0,3.29-1.47,3.29-3.29c0-1.82-1.47-3.29-3.29-3.29h-98.68c-1.82,0-3.29-1.47-3.29-3.29c0-1.82,1.47-3.29,3.29-3.29
		h85.53c1.46,0,2.74-0.96,3.15-2.36l16.45-55.92c0.51-1.74-0.48-3.57-2.22-4.08C1289.42-371.69,1289.1-371.74,1288.79-371.74z
		 M1219.71-289.5c0,3.63-2.95,6.58-6.58,6.58s-6.58-2.95-6.58-6.58s2.95-6.58,6.58-6.58
		C1216.76-296.07,1219.71-293.13,1219.71-289.5z M1265.76-289.5c0,3.63-2.95,6.58-6.58,6.58s-6.58-2.95-6.58-6.58
		s2.95-6.58,6.58-6.58C1262.82-296.07,1265.76-293.13,1265.76-289.5z"/>
	<path class="st1" d="M1173.66-365.16c0-1.82-1.47-3.29-3.29-3.29h-32.89c-1.82,0-3.29,1.47-3.29,3.29c0,1.82,1.47,3.29,3.29,3.29
		h32.89C1172.19-361.87,1173.66-363.34,1173.66-365.16z"/>
	<path class="st1" d="M1183.53-348.71c0-1.82-1.47-3.29-3.29-3.29h-29.61c-1.82,0-3.29,1.47-3.29,3.29c0,1.82,1.47,3.29,3.29,3.29
		h29.61C1182.05-345.42,1183.53-346.89,1183.53-348.71z"/>
	<path class="st1" d="M1193.39-332.26c0-1.82-1.47-3.29-3.29-3.29h-26.32c-1.82,0-3.29,1.47-3.29,3.29c0,1.82,1.47,3.29,3.29,3.29
		h26.32C1191.92-328.97,1193.39-330.45,1193.39-332.26z"/>
</g>
<g>
	<path class="st1" d="M1934.84-267.45h-47.47l-5.42-5.43l12.75-12.75c1.25-1.25,1.77-3.03,1.39-4.74c-0.37-1.72-1.59-3.12-3.25-3.74
		l-64.76-24.1c-2.09-0.79-4.38-0.29-5.96,1.3c-1.58,1.58-2.07,3.86-1.3,5.95l16.18,43.5h-65.63c-6.61,0-11.98-5.38-11.98-11.98
		v-79.31c0-1.77-1.43-3.2-3.2-3.2c-1.76,0-3.2,1.43-3.2,3.2v79.31c0,10.12,8.25,18.37,18.37,18.37h68.01l5.54,14.88
		c0.61,1.65,2.01,2.86,3.73,3.24c1.73,0.37,3.5-0.14,4.74-1.39l12.75-12.75l12.97,12.98c1.07,1.06,2.49,1.64,4,1.64
		s2.93-0.59,3.99-1.64l7.82-7.82c2.2-2.2,2.2-5.78,0-7.98l-1.15-1.15h41.07c1.76,0,3.19-1.43,3.19-3.2
		C1938.02-266.02,1936.59-267.45,1934.84-267.45z M1883.12-247.74l-15.41-15.41c-0.81-0.81-2.3-0.81-3.11,0l-14.75,14.75
		l-24.16-64.95l64.94,24.17l-14.74,14.75c-0.42,0.42-0.64,0.97-0.64,1.55s0.23,1.14,0.64,1.55l15.4,15.4L1883.12-247.74z"/>
	<path class="st1" d="M2003-433.17v153.74c0,10.12-8.24,18.37-18.37,18.37h-32.19c-1.76,0-3.19-1.44-3.19-3.2
		c0-1.77,1.43-3.2,3.19-3.2h32.19c6.61,0,11.99-5.38,11.99-11.98v-123.84H1759.4v27.99c0,1.77-1.43,3.2-3.2,3.2
		c-1.76,0-3.2-1.43-3.2-3.2v-57.89c0-10.13,8.25-18.37,18.37-18.37h183.4c1.76,0,3.2,1.43,3.2,3.19c0,1.77-1.44,3.2-3.2,3.2h-183.4
		c-6.61,0-11.98,5.38-11.98,11.99v23.51h237.22v-23.51c0-6.61-5.38-11.99-11.99-11.99h-12.85c-1.76,0-3.2-1.43-3.2-3.2
		c0-1.76,1.44-3.19,3.2-3.19h12.85C1994.76-451.54,2003-443.3,2003-433.17z"/>
	<path class="st1" d="M1790.02-427.41c0,3.49-2.83,6.33-6.32,6.33c-3.5,0-6.33-2.84-6.33-6.33c0-3.49,2.83-6.33,6.33-6.33
		C1787.18-433.73,1790.02-430.89,1790.02-427.41z"/>
	<path class="st1" d="M1810.96-427.41c0,3.49-2.83,6.33-6.32,6.33c-3.5,0-6.33-2.84-6.33-6.33c0-3.49,2.83-6.33,6.33-6.33
		C1808.13-433.73,1810.96-430.89,1810.96-427.41z"/>
	<path class="st1" d="M1831.91-427.41c0,3.49-2.83,6.33-6.33,6.33c-3.49,0-6.33-2.84-6.33-6.33c0-3.49,2.84-6.33,6.33-6.33
		C1829.08-433.73,1831.91-430.89,1831.91-427.41z"/>
	<path class="st1" d="M1837.66-359.68l-12.34,35.21c-0.45,1.29-1.66,2.14-3.04,2.14c-1.36-0.01-2.57-0.87-3.01-2.16l-9.15-26.82
		l-9.57,26.85c-0.45,1.27-1.66,2.12-3.01,2.12h-0.02c-1.35-0.01-2.56-0.87-3.01-2.16l-12.08-35.17c-0.28-0.81-0.23-1.67,0.14-2.44
		c0.37-0.77,1.03-1.34,1.83-1.62c0.81-0.28,1.67-0.22,2.44,0.15c0.77,0.37,1.34,1.03,1.62,1.83l9.11,26.54l9.59-26.89
		c0.49-1.54,1.91-2.11,3.04-2.06c1.09,0.01,2.53,0.57,3,2.11l9.12,26.74l9.29-26.49c0.28-0.81,0.85-1.46,1.63-1.82
		c0.77-0.37,1.63-0.42,2.44-0.13c0.81,0.28,1.45,0.86,1.82,1.63C1837.89-361.35,1837.93-360.49,1837.66-359.68z"/>
	<path class="st1" d="M1905.68-359.68l-12.35,35.21c-0.44,1.29-1.66,2.14-3.03,2.14c-1.36-0.01-2.57-0.87-3.02-2.16l-9.14-26.82
		l-9.57,26.85c-0.45,1.27-1.66,2.12-3.02,2.12h-0.01c-1.36-0.01-2.56-0.87-3.01-2.15l-12.09-35.18c-0.57-1.66,0.32-3.49,1.99-4.06
		c0.81-0.28,1.67-0.22,2.44,0.15c0.77,0.37,1.34,1.03,1.62,1.83l9.11,26.54l9.59-26.89c0.49-1.54,1.96-2.11,3.03-2.06
		c1.09,0.01,2.54,0.57,3.01,2.11l9.11,26.74l9.29-26.49c0.29-0.81,0.86-1.46,1.63-1.82c0.77-0.37,1.64-0.42,2.45-0.13
		c0.8,0.28,1.45,0.86,1.82,1.63C1905.91-361.35,1905.95-360.49,1905.68-359.68z"/>
	<path class="st1" d="M1972.58-359.68l-12.34,35.21c-0.44,1.29-1.66,2.14-3.03,2.14c-1.36-0.01-2.57-0.87-3.02-2.16l-9.14-26.82
		l-9.57,26.85c-0.45,1.27-1.66,2.12-3.02,2.12h-0.01c-1.36-0.01-2.56-0.87-3.01-2.15l-12.09-35.18c-0.58-1.66,0.32-3.49,1.99-4.06
		c1.67-0.57,3.49,0.32,4.06,1.99l9.11,26.54l9.59-26.89c0.48-1.53,1.92-2.06,3.01-2.06c0.01,0,0.01,0,0.02,0
		c1.09,0.01,2.54,0.57,3.01,2.11l9.11,26.74l9.29-26.49c0.29-0.81,0.86-1.46,1.63-1.82c0.77-0.37,1.63-0.42,2.44-0.13
		c0.81,0.28,1.46,0.86,1.83,1.63C1972.82-361.35,1972.87-360.49,1972.58-359.68z"/>
</g>
<g>
	<g>
		<g>
			<path class="st2" d="M1843.62,126.27c0-14.31-3.97-28.27-11.49-40.38c-0.59-0.95-1.93-1.27-2.87-0.67
				c-0.48,0.3-0.81,0.76-0.94,1.3c-0.13,0.54-0.03,1.11,0.26,1.59c7.11,11.44,10.87,24.63,10.87,38.16
				c0,18.61-7.05,36.3-19.85,49.81c-9.51,10.03-14.74,23.41-14.72,37.66l0.05,9.24c0,3.05-1.17,5.91-3.32,8.06
				c-2.15,2.15-5.02,3.33-8.06,3.33h-4.18v-66.27c0-2.2-1.21-4.24-3.16-5.3l-0.84-0.45l0.02-13.17c0.55-3.68,1.61-7.26,3.14-10.63
				c1.68-3.68,3.92-7.08,6.64-10.1c1.13-1.27,1.35-3.11,0.55-4.59c-3.34-6.23-7.02-12.37-10.9-18.27
				c-4.26-6.44-8.89-12.75-13.78-18.74c-0.98-1.2-2.47-1.9-4.1-1.9c-1.6,0-3.08,0.68-4.06,1.86c-5.05,6.1-9.8,12.54-14.12,19.13
				c-3.77,5.75-7.3,11.74-10.51,17.83c-0.82,1.57-0.52,3.51,0.75,4.74c3.28,3.17,5.78,6.9,7.43,11.06c1.25,3.12,1.98,6.42,2.18,9.82
				l0.01,0.15v12.79l-0.84,0.45c-1.95,1.06-3.16,3.1-3.16,5.31v52.43c0,1.16,0.94,2.1,2.09,2.1c1.15,0,2.1-0.94,2.1-2.1v-37.19
				h36.37v51.03l-44.62,0.01c-6.26,0-11.37-5.1-11.38-11.37l-0.04-8.9c-0.02-14.44-5.33-28.02-14.94-38.26
				c-12.51-13.3-19.49-30.69-19.63-48.95c-0.35-39.74,31.69-72.51,71.4-73.06c0.33,0,0.66-0.01,1-0.01
				c19.83,0,39.01,8.25,52.64,22.65c0.77,0.81,2.14,0.85,2.96,0.07c0.4-0.38,0.64-0.91,0.65-1.46c0.01-0.56-0.19-1.09-0.57-1.5
				c-14.41-15.22-34.7-23.95-55.68-23.95c-0.35,0-0.71,0.01-1.06,0.01c-42.01,0.59-75.89,35.25-75.52,77.29
				c0.16,19.31,7.54,37.7,20.76,51.77c8.88,9.46,13.79,22.03,13.81,35.4l0.04,8.9c0.01,7.35,5.24,13.75,12.43,15.23l1.28,0.26
				l-0.07,14.68c-0.01,0.09-0.01,0.18-0.01,0.28c0,0.1,0,0.18,0.02,0.33l-0.02,6.28c-0.02,3.97,1.51,7.72,4.32,10.55
				c2.81,2.81,6.55,4.37,10.53,4.37h27c8.16,0,14.82-6.63,14.85-14.8l0.1-21.69l1.28-0.26c2.98-0.61,5.71-2.08,7.88-4.26
				c2.94-2.94,4.56-6.86,4.55-11.03l-0.05-9.24c-0.01-13.16,4.8-25.51,13.57-34.76C1836.17,164.67,1843.62,145.96,1843.62,126.27z
				 M1742.84,126.44l-0.81-0.84l0.54-1.02c2.98-5.57,6.24-11.07,9.7-16.33c3.05-4.64,6.34-9.25,9.77-13.67l2.86-3.68v36.39
				c0,1.16,0.94,2.1,2.09,2.1s2.09-0.94,2.09-2.1V91.02l2.87,3.74c3.29,4.29,6.44,8.71,9.36,13.14c3.6,5.45,7.01,11.13,10.13,16.87
				l0.53,0.96l-0.71,0.84c-2.65,3.11-4.84,6.56-6.54,10.26c-1.33,2.9-2.33,5.95-3,9.07l-0.27,1.27h-28.81l-0.2-1.35
				c-0.42-2.66-1.12-5.28-2.11-7.76C1748.61,133.73,1746.09,129.83,1742.84,126.44z M1781.18,151.35v10.72h-28.37v-10.72H1781.18z
				 M1748.81,179.16v-11.05c0-1.03,0.84-1.85,1.91-1.85h32.6c1.03,0,1.86,0.83,1.86,1.85v11.05H1748.81z M1791.14,260.19
				c-0.02,5.86-4.81,10.63-10.67,10.63h-27c-2.85,0-5.55-1.12-7.56-3.14c-2.02-2.02-3.13-4.72-3.11-7.58l0.01-4.54h36.2
				c1.15,0,2.09-0.94,2.09-2.09c0-1.16-0.94-2.1-2.09-2.1h-36.18l0.05-12.8h48.35L1791.14,260.19z"/>
		</g>
	</g>
	<g>
		<path d="M1766.97,38.4c-1.74,0-3.16-1.42-3.16-3.16v-6.82c0-1.74,1.42-3.16,3.16-3.16c1.74,0,3.16,1.42,3.16,3.16v6.82
			C1770.12,36.99,1768.71,38.4,1766.97,38.4z"/>
		<path d="M1766.97,38.67c-1.89,0-3.42-1.54-3.42-3.42v-6.82c0-1.89,1.54-3.42,3.42-3.42c1.89,0,3.42,1.54,3.42,3.42v6.82
			C1770.39,37.13,1768.85,38.67,1766.97,38.67z M1766.97,25.53c-1.59,0-2.89,1.3-2.89,2.89v6.82c0,1.59,1.3,2.89,2.89,2.89
			c1.59,0,2.89-1.3,2.89-2.89v-6.82C1769.86,26.83,1768.56,25.53,1766.97,25.53z"/>
	</g>
	<g>
		<path d="M1857.3,131.6c-1.74,0-3.16-1.42-3.16-3.16c0-1.74,1.42-3.16,3.16-3.16h6.61c1.74,0,3.16,1.42,3.16,3.16
			c0,1.74-1.42,3.16-3.16,3.16H1857.3z"/>
		<path d="M1863.91,131.87h-6.61c-1.89,0-3.42-1.54-3.42-3.42c0-1.89,1.54-3.42,3.42-3.42h6.61c1.89,0,3.42,1.54,3.42,3.42
			C1867.34,130.33,1865.8,131.87,1863.91,131.87z M1857.3,125.56c-1.59,0-2.89,1.3-2.89,2.89c0,1.59,1.3,2.89,2.89,2.89h6.61
			c1.59,0,2.89-1.3,2.89-2.89c0-1.59-1.3-2.89-2.89-2.89H1857.3z"/>
	</g>
	<g>
		<path d="M1670.09,131.6c-1.74,0-3.16-1.42-3.16-3.16c0-1.74,1.42-3.16,3.16-3.16h6.61c1.74,0,3.16,1.42,3.16,3.16
			c0,1.74-1.42,3.16-3.16,3.16H1670.09z"/>
		<path d="M1676.7,131.87h-6.61c-1.89,0-3.42-1.54-3.42-3.42c0-1.89,1.54-3.42,3.42-3.42h6.61c1.89,0,3.42,1.54,3.42,3.42
			C1680.12,130.33,1678.58,131.87,1676.7,131.87z M1670.09,125.56c-1.59,0-2.89,1.3-2.89,2.89c0,1.59,1.3,2.89,2.89,2.89h6.61
			c1.59,0,2.89-1.3,2.89-2.89c0-1.59-1.3-2.89-2.89-2.89H1670.09z"/>
	</g>
	<g>
		<path d="M1830.85,65.7c-0.82,0-1.6-0.32-2.2-0.89c-0.61-0.59-0.95-1.37-0.96-2.22c-0.01-0.84,0.3-1.64,0.89-2.25l4.68-4.82
			c0.6-0.62,1.4-0.96,2.27-0.96c0.82,0,1.6,0.32,2.2,0.89c1.25,1.21,1.28,3.21,0.07,4.46l-4.67,4.83
			C1832.52,65.36,1831.72,65.7,1830.85,65.7z"/>
		<path d="M1830.85,65.97c-0.89,0-1.74-0.34-2.38-0.96c-0.66-0.64-1.03-1.49-1.04-2.41c-0.02-0.91,0.33-1.78,0.96-2.44l4.67-4.82
			c0.65-0.67,1.52-1.04,2.46-1.04c0.89,0,1.74,0.34,2.38,0.96c1.35,1.31,1.39,3.48,0.08,4.84l-4.68,4.83
			C1832.66,65.6,1831.79,65.97,1830.85,65.97z M1835.53,54.83c-0.79,0-1.53,0.31-2.08,0.88l-4.68,4.82
			c-0.54,0.56-0.83,1.29-0.81,2.06c0.01,0.77,0.32,1.49,0.88,2.03c0.54,0.53,1.26,0.81,2.01,0.81c0.79,0,1.53-0.31,2.08-0.88
			l4.67-4.83c1.11-1.14,1.08-2.98-0.06-4.09C1837,55.12,1836.28,54.83,1835.53,54.83z"/>
	</g>
	<g>
		<path d="M1698.47,202.33c-0.82,0-1.6-0.32-2.2-0.89c-0.61-0.59-0.95-1.37-0.96-2.22c-0.01-0.84,0.3-1.64,0.89-2.25l4.67-4.82
			c0.6-0.62,1.41-0.96,2.27-0.96c0.82,0,1.6,0.32,2.2,0.89c0.61,0.59,0.95,1.37,0.96,2.22c0.01,0.84-0.3,1.64-0.89,2.25l-4.67,4.82
			C1700.14,201.99,1699.33,202.33,1698.47,202.33z"/>
		<path d="M1698.47,202.6c-0.89,0-1.74-0.34-2.38-0.96c-0.66-0.64-1.03-1.49-1.04-2.4c-0.02-0.91,0.33-1.78,0.96-2.44l4.67-4.82
			c0.65-0.67,1.53-1.04,2.46-1.04c0.89,0,1.74,0.34,2.38,0.96c0.66,0.64,1.03,1.49,1.04,2.4c0.01,0.91-0.33,1.78-0.96,2.44
			l-4.67,4.82C1700.28,202.23,1699.41,202.6,1698.47,202.6z M1703.15,191.46c-0.79,0-1.53,0.31-2.08,0.88l-4.67,4.82
			c-0.54,0.56-0.83,1.29-0.82,2.06c0.01,0.77,0.32,1.49,0.88,2.03c0.54,0.53,1.26,0.82,2.01,0.82c0.79,0,1.53-0.31,2.08-0.88
			l4.68-4.82c0.54-0.56,0.83-1.29,0.82-2.06c-0.01-0.77-0.33-1.49-0.88-2.03C1704.62,191.75,1703.9,191.46,1703.15,191.46z"/>
	</g>
	<g>
		<path d="M1835.53,202.33c-0.86,0-1.67-0.34-2.27-0.96l-4.68-4.82c-0.59-0.61-0.9-1.4-0.89-2.25c0.01-0.84,0.35-1.63,0.96-2.22
			c0.59-0.57,1.37-0.89,2.2-0.89c0.86,0,1.67,0.34,2.27,0.96l4.67,4.82c1.21,1.25,1.18,3.25-0.07,4.46
			C1837.13,202.02,1836.35,202.33,1835.53,202.33z"/>
		<path d="M1835.53,202.6c-0.93,0-1.81-0.37-2.46-1.04l-4.67-4.82c-0.64-0.66-0.98-1.52-0.96-2.44c0.02-0.92,0.39-1.77,1.04-2.4
			c0.64-0.62,1.49-0.96,2.38-0.96c0.93,0,1.81,0.37,2.46,1.04l4.68,4.82c1.31,1.36,1.28,3.53-0.08,4.84
			C1837.27,202.26,1836.42,202.6,1835.53,202.6z M1830.85,191.46c-0.75,0-1.47,0.29-2.01,0.82c-0.55,0.54-0.87,1.26-0.88,2.03
			c-0.01,0.77,0.28,1.5,0.82,2.06l4.68,4.82c0.55,0.57,1.29,0.88,2.08,0.88c0.75,0,1.47-0.29,2.01-0.82
			c1.14-1.11,1.17-2.94,0.06-4.09l-4.67-4.82C1832.38,191.77,1831.64,191.46,1830.85,191.46z"/>
	</g>
	<g>
		<path d="M1703.15,65.7c-0.86,0-1.67-0.34-2.27-0.96l-4.67-4.82c-1.21-1.25-1.18-3.25,0.07-4.46c0.59-0.57,1.37-0.89,2.2-0.89
			c0.86,0,1.67,0.34,2.27,0.96l4.67,4.82c0.59,0.61,0.9,1.4,0.89,2.25c-0.01,0.84-0.35,1.63-0.96,2.22
			C1704.75,65.38,1703.97,65.7,1703.15,65.7z"/>
		<path d="M1703.15,65.97c-0.93,0-1.81-0.37-2.46-1.04l-4.67-4.82c-0.64-0.66-0.98-1.52-0.96-2.44c0.01-0.92,0.38-1.77,1.04-2.4
			c0.64-0.62,1.48-0.96,2.38-0.96c0.94,0,1.81,0.37,2.46,1.04l4.67,4.82c0.64,0.66,0.98,1.52,0.96,2.44
			c-0.02,0.92-0.39,1.77-1.04,2.4C1704.89,65.62,1704.04,65.97,1703.15,65.97z M1698.47,54.83c-0.75,0-1.47,0.29-2.01,0.82
			c-0.55,0.54-0.87,1.26-0.88,2.03c-0.01,0.77,0.28,1.5,0.81,2.06l4.67,4.82c0.55,0.57,1.29,0.88,2.08,0.88
			c0.76,0,1.47-0.29,2.01-0.82c0.55-0.54,0.87-1.26,0.88-2.03c0.01-0.77-0.28-1.5-0.82-2.06l-4.68-4.82
			C1700,55.14,1699.26,54.83,1698.47,54.83z"/>
	</g>
</g>
<g>
	<g>
		<path class="st1" d="M1550.92-227.7c-1.08,0-2.28-0.88-2.28-2.14v-10.11h-24.13c-8.59,0-15.58-6.97-15.58-15.54v-44.54
			l-21.02,16.23c-0.35,0.27-0.78,0.42-1.23,0.42c-1.08,0-2.28-0.88-2.28-2.14v-15.14h-34.89c-11.61,0-21.06-9.42-21.06-21.01v-37.2
			c0-2,1.96-2.06,2.18-2.06c0.22,0,2.18,0.06,2.18,2.06v37.2c0,9.18,7.49,16.65,16.7,16.65h37.07c1.2,0,2.18,0.98,2.18,2.18v12.88
			l18.92-14.61c0.17-0.13,0.36-0.24,0.57-0.32l0.8-0.3l0.15-0.84c1.35-7.39,7.79-12.75,15.33-12.75h8.97l0.13-1.37
			c0.05-0.55,0.08-1.05,0.08-1.52v-23.51l-0.01-0.05c-0.03-0.27-0.03-0.47-0.01-0.66l0.01-0.06l0-42.99
			c0-9.18-7.49-16.65-16.71-16.65h-67.48c-9.21,0-16.7,7.47-16.7,16.65v7.96c0,2-1.96,2.06-2.18,2.06c-0.22,0-2.18-0.06-2.18-2.06
			v-7.96c0-11.58,9.45-21.01,21.06-21.01h67.48c1.64,0,3.29,0.2,4.91,0.58l1.86,0.44v-41.32c0-14.37,11.72-26.06,26.13-26.06h51.66
			c2,0,2.06,1.96,2.06,2.18c0,0.22-0.06,2.18-2.06,2.18h-51.66c-12,0-21.77,9.73-21.77,21.7v43.46l0.66,0.45
			c5.81,3.93,9.28,10.43,9.28,17.4v42.24l0.74,0.44c3.34,1.98,7.18,3.02,11.09,3.02h44.87c1.2,0,2.18,0.98,2.18,2.18v17.34
			l24.94-19.08c0.38-0.29,0.85-0.45,1.33-0.45h12.27c12,0,21.77-9.73,21.77-21.7v-85.31c0-11.96-9.76-21.7-21.77-21.7h-10.82
			c-2,0-2.06-1.96-2.06-2.18c0-0.22,0.06-2.18,2.06-2.18h10.82c14.41,0,26.13,11.69,26.13,26.06v85.31
			c0,14.37-11.72,26.06-26.13,26.06h-11.53l-27.85,21.31c-0.35,0.27-0.78,0.41-1.22,0.41c-1.08,0-2.28-0.88-2.28-2.14v-19.57h-42.69
			c-3.38,0-6.66-0.63-9.76-1.88l-2.07-0.83v2.23c-0.01,8.48-0.02,18.55-0.04,19l-0.08,1.57l1.58,0.01h32.89
			c8.59,0,15.58,6.97,15.58,15.54v18.1c0,2-1.96,2.06-2.18,2.06s-2.18-0.06-2.18-2.06v-18.1c0-6.17-5.03-11.18-11.22-11.18h-47.89
			c-6.19,0-11.22,5.02-11.22,11.18v47.74c0,6.17,5.03,11.18,11.22,11.18h26.31c1.2,0,2.18,0.98,2.18,2.18v7.85l12.4-9.58
			c0.38-0.29,0.85-0.45,1.33-0.45h5.66c6.19,0,11.22-5.02,11.22-11.18v-6.55c0-2,1.96-2.06,2.18-2.06s2.18,0.06,2.18,2.06v6.55
			c0,8.57-6.99,15.54-15.58,15.54h-4.92l-15.33,11.83C1551.79-227.84,1551.37-227.7,1550.92-227.7z"/>
		<path class="st1" d="M1550.92-227c-1.44,0-2.98-1.14-2.98-2.84v-9.41h-23.43c-8.98,0-16.28-7.28-16.28-16.24v-43.12l-19.9,15.37
			c-0.48,0.37-1.05,0.56-1.65,0.56c-1.44,0-2.98-1.14-2.98-2.84v-14.44h-34.2c-12,0-21.76-9.74-21.76-21.7v-37.2
			c0-2.17,1.81-2.76,2.88-2.76s2.88,0.58,2.88,2.76v37.2c0,8.8,7.18,15.95,16.01,15.95h37.07c1.59,0,2.88,1.29,2.88,2.88v11.46
			l17.79-13.74c0.22-0.17,0.48-0.31,0.75-0.42l0.43-0.16l0.08-0.45c1.41-7.72,8.14-13.33,16.01-13.33h8.34l0.07-0.74
			c0.05-0.53,0.07-1,0.07-1.46v-23.51c-0.04-0.3-0.04-0.56-0.01-0.81l0.01-42.96c0-8.8-7.18-15.95-16.01-15.95h-67.48
			c-8.83,0-16.01,7.16-16.01,15.95v7.96c0,2.18-1.81,2.76-2.88,2.76s-2.88-0.58-2.88-2.76v-7.96c0-11.97,9.76-21.7,21.76-21.7h67.48
			c1.69,0,3.4,0.2,5.07,0.6l1,0.24v-40.44c0-14.75,12.03-26.75,26.82-26.75h51.66c2.18,0,2.76,1.81,2.76,2.88
			c0,1.07-0.58,2.88-2.76,2.88h-51.66c-11.62,0-21.07,9.42-21.07,21v43.09l0.36,0.24c6,4.06,9.59,10.78,9.59,17.98v41.84l0.4,0.24
			c3.23,1.92,6.94,2.93,10.73,2.93h44.87c1.59,0,2.88,1.29,2.88,2.88v15.94l23.82-18.22c0.5-0.38,1.12-0.59,1.75-0.59h12.27
			c11.62,0,21.07-9.42,21.07-21v-85.31c0-11.58-9.45-21-21.07-21h-10.82c-2.18,0-2.76-1.81-2.76-2.88c0-1.07,0.58-2.88,2.76-2.88
			h10.82c14.79,0,26.82,12,26.82,26.75v85.31c0,14.75-12.03,26.75-26.82,26.75h-11.3l-27.67,21.16c-0.48,0.36-1.04,0.56-1.64,0.56
			c-1.44,0-2.98-1.14-2.98-2.84v-18.88h-41.99c-3.46,0-6.83-0.65-10.02-1.93l-1.11-0.45v1.2c-0.01,7.37-0.02,18.53-0.04,19.03
			l-0.04,0.85l0.85,0.01h32.89c8.98,0,16.28,7.28,16.28,16.24v18.1c0,2.18-1.81,2.76-2.88,2.76s-2.88-0.58-2.88-2.76v-18.1
			c0-5.78-4.72-10.49-10.53-10.49h-47.89c-5.8,0-10.53,4.7-10.53,10.49v47.74c0,5.78,4.72,10.49,10.53,10.49h26.31
			c1.59,0,2.88,1.29,2.88,2.88v6.44l11.28-8.71c0.5-0.39,1.13-0.6,1.76-0.6h5.67c5.8,0,10.53-4.7,10.53-10.49v-6.54
			c0-2.18,1.81-2.76,2.88-2.76s2.88,0.58,2.88,2.76v6.54c0,8.95-7.3,16.24-16.28,16.24h-4.68l-15.14,11.69
			C1552.09-227.2,1551.52-227,1550.92-227z M1509.62-301.45v45.96c0,8.19,6.68,14.84,14.89,14.84h24.82v10.8
			c0,0.83,0.84,1.45,1.59,1.45c0.29,0,0.57-0.09,0.8-0.27l15.51-11.98h5.16c8.21,0,14.89-6.66,14.89-14.84v-6.54
			c0-1.23-1.04-1.36-1.48-1.36s-1.48,0.13-1.48,1.36v6.54c0,6.55-5.35,11.88-11.92,11.88h-5.67c-0.33,0-0.65,0.11-0.91,0.31
			l-13.52,10.44v-9.27c0-0.82-0.67-1.48-1.48-1.48h-26.31c-6.57,0-11.92-5.33-11.92-11.88v-47.74c0-6.55,5.35-11.88,11.92-11.88
			h47.89c6.57,0,11.92,5.33,11.92,11.88v18.1c0,1.23,1.04,1.36,1.48,1.36s1.48-0.13,1.48-1.36v-18.1c0-8.19-6.68-14.84-14.89-14.84
			l-35.2-0.02l0.11-2.29c0.02-0.41,0.03-9.97,0.04-18.97v-3.26l3.03,1.22c3.02,1.21,6.21,1.83,9.5,1.83h43.38v20.27
			c0,0.83,0.84,1.45,1.59,1.45c0.29,0,0.57-0.09,0.8-0.27l28.04-21.45h11.77c14.02,0,25.43-11.38,25.43-25.36v-85.31
			c0-13.98-11.41-25.36-25.43-25.36h-10.82c-1.23,0-1.36,1.04-1.36,1.48c0,0.45,0.13,1.48,1.36,1.48h10.82
			c12.39,0,22.46,10.04,22.46,22.39v85.31c0,12.35-10.08,22.39-22.46,22.39h-12.27c-0.32,0-0.64,0.11-0.9,0.3l-26.06,19.93v-18.75
			c0-0.82-0.67-1.48-1.48-1.48h-44.87c-4.04,0-7.99-1.08-11.44-3.12l-1.08-0.64v-42.64c0-6.74-3.36-13.03-8.98-16.83l-0.97-0.66
			v-43.82c0-12.35,10.08-22.39,22.46-22.39h51.66c1.23,0,1.36-1.04,1.36-1.48c0-0.45-0.13-1.48-1.36-1.48h-51.66
			c-14.02,0-25.43,11.38-25.43,25.36v42.2l-2.71-0.64c-1.57-0.37-3.16-0.56-4.74-0.56h-67.48c-11.23,0-20.37,9.11-20.37,20.31v7.96
			c0,1.23,1.04,1.36,1.48,1.36c0.45,0,1.48-0.13,1.48-1.36v-7.96c0-9.56,7.81-17.34,17.4-17.34h67.48c9.59,0,17.4,7.78,17.4,17.34
			l-0.02,43.15c-0.02,0.13-0.02,0.28,0.01,0.49l0.01,0.14v23.51c0,0.5-0.03,1.02-0.08,1.59l-0.19,2h-9.61
			c-7.2,0-13.36,5.12-14.64,12.18l-0.22,1.23l-1.16,0.44c-0.14,0.05-0.27,0.13-0.39,0.22l-20.04,15.47v-14.3
			c0-0.82-0.67-1.48-1.48-1.48h-37.07c-9.59,0-17.4-7.78-17.4-17.34v-37.2c0-1.23-1.04-1.36-1.48-1.36c-0.45,0-1.48,0.13-1.48,1.36
			v37.2c0,11.2,9.14,20.31,20.37,20.31h35.59v15.83c0,0.83,0.84,1.45,1.59,1.45c0.29,0,0.57-0.09,0.8-0.27L1509.62-301.45z"/>
	</g>
	<path class="st1" d="M1626.67-409.93c0-3.78-3.07-6.84-6.84-6.84l-16.61-0.05l1.23-2.92c2.72-6.44,2.27-13.93-1.21-20
		c-0.71-1.24-1.86-2.12-3.24-2.48c-0.4-0.1-0.81-0.15-1.22-0.15c-2.87,0-5.29,2.38-5.29,5.22c0,4.61-1.68,9.07-4.74,12.52
		l-9.29,10.52l-0.74-1.14c-0.38-0.57-1.01-0.91-1.69-0.91h-16.39c-1.1,0-2.01,0.89-2.01,2.01v36.86c0,1.11,0.9,2.02,2.01,2.02h16.39
		c0.78,0,1.5-0.46,1.83-1.18l0.48-1.06l1,0.6c3.18,1.95,6.83,2.98,10.53,2.98h28.96c1.82,0,3.61-0.78,4.91-2.15
		c1.31-1.37,2.01-3.19,1.92-5.02c-0.06-1.17-0.06-10.43,0-27.54L1626.67-409.93z M1575.02-379.3h-12.36v-32.85h12.36V-379.3z
		 M1619.17-378.34h-27.95c-3.7,0-7.34-1.28-10.23-3.59l-1.86-1.49v-24.2l12.45-13.97c3.47-3.89,5.38-8.9,5.38-14.11
		c0-1.02,0.81-1.82,1.84-1.82c0.66,0,1.27,0.35,1.59,0.91c2.86,4.97,3.23,11.08,0.99,16.35l-2.33,5.46
		c-0.17,0.39-0.12,0.83,0.11,1.18c0.23,0.35,0.63,0.56,1.05,0.56l18.97,0.06c1.87,0,3.39,1.51,3.39,3.36c0,0.49-0.02,4.11-0.02,4.11
		c-0.04,11.49-0.06,21.95,0.02,23.65v0c0.06,1.27-0.57,2.1-0.94,2.49C1620.98-378.71,1620.11-378.34,1619.17-378.34z"/>
	<g>
		<path class="st1" d="M1501.75-349.87h-11.38l1.46-8.8h9.92c0.95,0,1.72-0.77,1.72-1.72s-0.77-1.72-1.72-1.72h-9.35l1.71-10.39
			c0.16-0.93-0.48-1.83-1.41-1.98c-0.95-0.16-1.83,0.49-1.98,1.41l-1.82,10.95h-8.75l1.71-10.39c0.16-0.93-0.48-1.83-1.41-1.98
			c-0.95-0.16-1.83,0.49-1.98,1.41l-1.82,10.95h-11.94c-0.95,0-1.72,0.77-1.72,1.72s0.77,1.72,1.72,1.72h11.38l-1.46,8.8h-9.92
			c-0.95,0-1.72,0.77-1.72,1.72s0.77,1.72,1.72,1.72h9.35l-1.72,10.39c-0.15,0.94,0.49,1.83,1.42,1.99c0.98,0.16,1.83-0.5,1.98-1.42
			l1.82-10.95h8.75l-1.71,10.39c-0.16,0.94,0.48,1.83,1.41,1.99c0.98,0.16,1.83-0.5,1.98-1.42l1.82-10.95h11.94
			c0.95,0,1.72-0.77,1.72-1.72S1502.7-349.87,1501.75-349.87z M1487.47-349.18h-10.16l1.68-10.19h10.17L1487.47-349.18z"/>
	</g>
	<g>
		<path class="st1" d="M1555.92-290.28c-2.5-0.56-4.99,0-6.85,1.52l-0.66,0.54l-0.65-0.54c-1.42-1.17-3.22-1.82-5.06-1.82
			c-0.65,0-1.32,0.08-1.97,0.24c-3.31,0.8-6.64,3.91-6.64,9.05c0,3.27,1.2,6.11,3.67,8.69c2.09,2.19,5.15,4.29,9.91,6.82
			c0.48,0.25,1.07,0.25,1.54,0c8.16-4.32,13.58-8.61,13.58-15.51C1562.8-286.45,1559.34-289.52,1555.92-290.28z M1548.45-268.3
			l-0.83-0.46c-7.97-4.38-10.93-7.78-10.93-12.53c0-3.99,2.41-5.99,4.66-6.53c0.45-0.11,0.9-0.16,1.35-0.16
			c2.1,0,3.89,1.13,4.91,3.09c0.16,0.32,0.49,0.51,0.88,0.51c0.34,0,0.67-0.22,0.82-0.54c0.88-1.89,2.6-2.97,4.73-2.97
			c0.46,0,0.9,0.05,1.32,0.14c2.35,0.52,4.86,2.49,4.86,6.47c0,4.75-2.96,8.15-10.93,12.53L1548.45-268.3z"/>
	</g>
</g>
<g>
	<path d="M1320.88,220.78c-6.19,0-11.92,2.09-16.49,5.61c-0.43,0.32-0.84,0.66-1.24,1.02c-0.41,0.34-0.8,0.72-1.19,1.09l-1.05-1.24
		l-1.02-1.2l-14.91-17.61l-1.02-1.19l-1.07-1.28c0.38-0.4,0.74-0.79,1.09-1.19c0.36-0.4,0.73-0.8,1.08-1.22
		c12.44-14.38,19.99-33.12,20.01-53.57c0-20.44-7.51-39.17-19.93-53.56c-0.35-0.41-0.71-0.81-1.07-1.21
		c-0.36-0.41-0.73-0.8-1.09-1.2l1.07-1.26l1.02-1.2l14.89-17.56l1.02-1.21l1.05-1.23c0.39,0.37,0.78,0.74,1.19,1.08
		c0.41,0.35,0.81,0.69,1.24,1.01c4.57,3.48,10.27,5.56,16.43,5.56c14.93-0.01,27.09-12.18,27.12-27.1
		c0-14.95-12.16-27.12-27.12-27.12c-14.95,0-27.1,12.16-27.1,27.12c0,4.61,1.16,8.95,3.19,12.75c0.27,0.5,0.56,1.01,0.86,1.49
		c0.29,0.47,0.6,0.94,0.93,1.39l-1.08,1.28l-1.06,1.24l-15.07,17.78l-1.01,1.19l-1.07,1.26c-0.39-0.38-0.77-0.74-1.17-1.09
		c-0.4-0.36-0.79-0.72-1.2-1.08c-14.45-12.7-33.4-20.41-54.1-20.41c-20.36,0-39.01,7.46-53.37,19.78c-0.41,0.34-0.81,0.7-1.21,1.06
		c-0.4,0.35-0.79,0.72-1.19,1.09l-1.07-1.26l-1.02-1.2l-15.21-17.93l-1.05-1.24l-1.09-1.29c0.31-0.47,0.61-0.94,0.88-1.44
		c0.3-0.49,0.57-1.01,0.81-1.53c1.76-3.58,2.74-7.61,2.74-11.85c0-14.95-12.15-27.12-27.1-27.12c-14.95,0-27.12,12.16-27.12,27.12
		c0,14.95,12.16,27.1,27.12,27.1c6.51,0,12.49-2.3,17.16-6.15c0.42-0.33,0.83-0.69,1.21-1.05c0.4-0.38,0.78-0.75,1.15-1.14
		l1.05,1.24l1.03,1.21l14.89,17.54l1.01,1.19l1.07,1.26c-0.36,0.4-0.73,0.78-1.1,1.18c-0.36,0.4-0.73,0.8-1.08,1.21
		c-12.8,14.47-20.57,33.48-20.57,54.27c0,20.81,7.79,39.85,20.62,54.33c0.35,0.41,0.72,0.81,1.09,1.21c0.36,0.4,0.73,0.79,1.1,1.18
		l-1.07,1.26l-1.02,1.2l-14.88,17.52l-1.03,1.21l-1.05,1.24c-0.36-0.39-0.75-0.76-1.15-1.14c-0.39-0.36-0.78-0.71-1.2-1.05h-0.01
		c-4.68-3.87-10.7-6.19-17.22-6.19c-14.95,0-27.12,12.15-27.12,27.1c0,14.95,12.16,27.12,27.12,27.12
		c14.93-0.01,27.09-12.18,27.1-27.12c0-4.22-0.98-8.22-2.7-11.79c-0.25-0.51-0.51-1.03-0.81-1.52c-0.26-0.49-0.56-0.98-0.87-1.45
		l1.09-1.3l1.06-1.24l15.21-17.93l1.01-1.2l1.07-1.25c0.39,0.36,0.79,0.72,1.19,1.08c0.4,0.35,0.8,0.71,1.21,1.06
		c14.35,12.28,32.99,19.73,53.32,19.73c20.66-0.02,39.56-7.72,54.01-20.4c0.41-0.35,0.8-0.71,1.2-1.07c0.4-0.35,0.78-0.72,1.17-1.09
		l1.08,1.26l1.01,1.19l15.11,17.82l1.05,1.25l1.08,1.26c-0.32,0.46-0.63,0.91-0.92,1.39v0.01c-0.3,0.48-0.59,0.99-0.85,1.49
		c-2.01,3.78-3.16,8.1-3.16,12.68c0,14.95,12.15,27.12,27.1,27.12c14.94-0.01,27.1-12.18,27.12-27.12
		C1348,232.93,1335.84,220.78,1320.88,220.78z M1298.73,52.12c0-12.22,9.94-22.16,22.15-22.16c6.1,0.01,11.64,2.5,15.66,6.51
		c4.01,4.02,6.49,9.56,6.51,15.66c0,12.22-9.95,22.15-22.16,22.15c-5.09,0-9.79-1.73-13.53-4.62c0-0.01,0-0.01,0-0.01
		c-0.47-0.35-0.93-0.74-1.37-1.15c-0.66-0.6-1.29-1.24-1.86-1.92c-0.2-0.23-0.4-0.46-0.58-0.7c-0.01-0.01-0.01-0.01-0.02-0.02
		c-0.55-0.69-1.05-1.4-1.5-2.15c-0.32-0.5-0.61-1.02-0.88-1.54C1299.6,59.15,1298.73,55.73,1298.73,52.12z M1145.2,61.46
		c-0.26,0.55-0.54,1.08-0.84,1.6c-1,1.77-2.24,3.38-3.68,4.8c-0.43,0.42-0.87,0.83-1.34,1.2c0,0.01,0,0.01,0,0.01
		c-3.85,3.25-8.82,5.2-14.23,5.2c-12.22,0-22.16-9.94-22.16-22.15c0-12.22,9.95-22.16,22.16-22.16c6.1,0.01,11.64,2.5,15.65,6.51
		c4.02,4.02,6.51,9.56,6.51,15.66C1147.27,55.45,1146.53,58.62,1145.2,61.46z M1125.12,270.05c-12.22,0-22.16-9.95-22.16-22.16
		c0-12.22,9.95-22.15,22.16-22.15c5.42,0,10.41,1.97,14.27,5.24c0.46,0.37,0.9,0.78,1.32,1.2c0.02,0.02,0.04,0.04,0.06,0.06
		c0.73,0.72,1.4,1.5,2.02,2.32c0.61,0.79,1.16,1.63,1.65,2.51c0.29,0.51,0.57,1.04,0.81,1.59c1.3,2.82,2.03,5.95,2.03,9.24
		C1147.27,260.1,1137.33,270.05,1125.12,270.05z M1281.23,200.52c-0.42,0.47-0.84,0.94-1.25,1.4c-1.41,1.54-2.88,3.02-4.4,4.45
		c-0.45,0.43-0.91,0.85-1.37,1.24c-13.62,12.12-31.56,19.5-51.2,19.5c-19.28,0-36.94-7.12-50.48-18.85
		c-0.46-0.4-0.92-0.81-1.38-1.23c-1.56-1.43-3.08-2.93-4.52-4.47c-0.43-0.45-0.84-0.9-1.24-1.36
		c-12.11-13.62-19.48-31.56-19.48-51.2c0-19.58,7.34-37.49,19.4-51.1c0.41-0.46,0.81-0.91,1.23-1.36c0.62-0.66,1.24-1.32,1.89-1.96
		c0.25-0.24,0.49-0.48,0.74-0.72c0-0.01,0-0.01,0.01-0.02c0.64-0.63,1.3-1.24,1.96-1.85c0.45-0.41,0.91-0.81,1.37-1.22
		c13.55-11.75,31.21-18.87,50.51-18.87c19.63,0.02,37.58,7.42,51.21,19.58c0.46,0.41,0.92,0.81,1.37,1.24
		c0.64,0.6,1.26,1.2,1.89,1.82c0.87,0.87,1.71,1.75,2.54,2.66c0.42,0.46,0.83,0.92,1.23,1.39c11.74,13.54,18.85,31.16,18.87,50.42
		C1300.11,169.3,1292.99,186.98,1281.23,200.52z M1320.88,270.05c-12.22,0-22.15-9.95-22.15-22.16c0-3.59,0.86-7,2.39-10
		c0.27-0.53,0.56-1.04,0.87-1.54c0.48-0.8,1.03-1.58,1.62-2.3c0.14-0.13,0.27-0.28,0.38-0.44c0-0.01,0.01-0.01,0.01-0.02
		c0.59-0.72,1.24-1.39,1.94-2.01v-0.01c0.43-0.4,0.88-0.78,1.35-1.14c3.75-2.94,8.48-4.68,13.6-4.68c6.1,0,11.64,2.49,15.66,6.51
		c4.01,4.01,6.49,9.55,6.51,15.65C1343.05,260.1,1333.1,270.05,1320.88,270.05z"/>
	<g>
		<path d="M1209.18,142.68l7.06,17.99h0.01L1209.18,142.68z M1209.18,142.68l7.06,17.99h0.01L1209.18,142.68z M1209.18,142.68
			l7.06,17.99h0.01L1209.18,142.68z"/>
		<path class="st0" d="M1209.18,142.68l7.06,17.99h0.01L1209.18,142.68z M1209.18,142.68l7.06,17.99h0.01L1209.18,142.68z
			 M1209.18,142.68l7.06,17.99h0.01L1209.18,142.68z M1209.18,142.68l7.06,17.99h0.01L1209.18,142.68z M1209.18,142.68l7.06,17.99
			h0.01L1209.18,142.68z M1209.18,142.68l7.06,17.99h0.01L1209.18,142.68z M1209.18,142.68l7.06,17.99h0.01L1209.18,142.68z
			 M1209.18,142.68l7.06,17.99h0.01L1209.18,142.68z M1209.18,142.68l7.06,17.99h0.01L1209.18,142.68z M1209.18,142.68l7.06,17.99
			h0.01L1209.18,142.68z M1209.18,142.68l7.06,17.99h0.01L1209.18,142.68z M1209.18,142.68l7.06,17.99h0.01L1209.18,142.68z
			 M1209.18,142.68l7.06,17.99h0.01L1209.18,142.68z M1209.18,142.68l7.06,17.99h0.01L1209.18,142.68z M1209.18,142.68l7.06,17.99
			h0.01L1209.18,142.68z M1209.18,142.68l7.06,17.99h0.01L1209.18,142.68z M1209.18,142.68l7.06,17.99h0.01L1209.18,142.68z
			 M1209.18,142.68l7.06,17.99h0.01L1209.18,142.68z M1209.18,142.68l7.06,17.99h0.01L1209.18,142.68z M1209.18,142.68l7.06,17.99
			h0.01L1209.18,142.68z M1209.18,142.68l7.06,17.99h0.01L1209.18,142.68z M1209.18,142.68l7.06,17.99h0.01L1209.18,142.68z
			 M1209.18,142.68l7.06,17.99h0.01L1209.18,142.68z M1209.18,142.68l7.06,17.99h0.01L1209.18,142.68z M1209.18,142.68l7.06,17.99
			h0.01L1209.18,142.68z M1209.18,142.68l7.06,17.99h0.01L1209.18,142.68z M1209.18,142.68l7.06,17.99h0.01L1209.18,142.68z
			 M1209.18,142.68l7.06,17.99h0.01L1209.18,142.68z M1209.18,142.68l7.06,17.99h0.01L1209.18,142.68z M1209.18,142.68l7.06,17.99
			h0.01L1209.18,142.68z M1209.18,142.68l7.06,17.99h0.01L1209.18,142.68z M1209.18,142.68l7.06,17.99h0.01L1209.18,142.68z
			 M1209.18,142.68l7.06,17.99h0.01L1209.18,142.68z M1209.18,142.68l7.06,17.99h0.01L1209.18,142.68z M1209.18,142.68l7.06,17.99
			h0.01L1209.18,142.68z M1209.18,142.68l7.06,17.99h0.01L1209.18,142.68z M1209.18,142.68l7.06,17.99h0.01L1209.18,142.68z
			 M1209.18,142.68l7.06,17.99h0.01L1209.18,142.68z M1209.18,142.68l7.06,17.99h0.01L1209.18,142.68z M1209.18,142.68l7.06,17.99
			h0.01L1209.18,142.68z M1209.18,142.68l7.06,17.99h0.01L1209.18,142.68z M1209.18,142.68l7.06,17.99h0.01L1209.18,142.68z
			 M1209.18,142.68l7.06,17.99h0.01L1209.18,142.68z M1209.18,142.68l7.06,17.99h0.01L1209.18,142.68z M1209.18,142.68l7.06,17.99
			h0.01L1209.18,142.68z M1209.18,142.68l7.06,17.99h0.01L1209.18,142.68z M1209.18,142.68l7.06,17.99h0.01L1209.18,142.68z
			 M1209.18,142.68l7.06,17.99h0.01L1209.18,142.68z M1209.18,142.68l7.06,17.99h0.01L1209.18,142.68z M1209.18,142.68l7.06,17.99
			h0.01L1209.18,142.68z M1209.18,142.68l7.06,17.99h0.01L1209.18,142.68z M1209.18,142.68l7.06,17.99h0.01L1209.18,142.68z
			 M1210.27,163.41l-0.09,0.03c0.06,0.05,0.12,0.12,0.17,0.17L1210.27,163.41z M1209.18,142.68l7.06,17.99h0.01L1209.18,142.68z
			 M1211.38,168.31l-0.01,0.01c0.01,0.01,0.02,0.02,0.03,0.02L1211.38,168.31z M1212.6,167.2l0.29,0.51l0.41-0.16
			C1213.05,167.47,1212.82,167.35,1212.6,167.2z M1213.69,169.13l-0.33,0.13c0.15,0.05,0.3,0.09,0.46,0.11L1213.69,169.13z
			 M1209.18,142.68l7.06,17.99h0.01L1209.18,142.68z M1210.27,163.41l-0.09,0.03c0.06,0.05,0.12,0.12,0.17,0.17L1210.27,163.41z
			 M1209.18,142.68l7.06,17.99h0.01L1209.18,142.68z M1210.27,163.41l-0.09,0.03c0.06,0.05,0.12,0.12,0.17,0.17L1210.27,163.41z
			 M1209.18,142.68l7.06,17.99h0.01L1209.18,142.68z M1210.27,163.41l-0.09,0.03c0.06,0.05,0.12,0.12,0.17,0.17L1210.27,163.41z
			 M1209.18,142.68l7.06,17.99h0.01L1209.18,142.68z M1209.18,142.68l7.06,17.99h0.01L1209.18,142.68z M1209.18,142.68l7.06,17.99
			h0.01L1209.18,142.68z M1209.18,142.68l7.06,17.99h0.01L1209.18,142.68z M1209.18,142.68l7.06,17.99h0.01L1209.18,142.68z
			 M1209.18,142.68l7.06,17.99h0.01L1209.18,142.68z M1209.18,142.68l7.06,17.99h0.01L1209.18,142.68z M1209.18,142.68l7.06,17.99
			h0.01L1209.18,142.68z M1209.18,142.68l7.06,17.99h0.01L1209.18,142.68z M1209.18,142.68l7.06,17.99h0.01L1209.18,142.68z
			 M1209.18,142.68l7.06,17.99h0.01L1209.18,142.68z M1209.18,142.68l7.06,17.99h0.01L1209.18,142.68z M1209.18,142.68l7.06,17.99
			h0.01L1209.18,142.68z M1209.18,142.68l7.06,17.99h0.01L1209.18,142.68z M1209.18,142.68l7.06,17.99h0.01L1209.18,142.68z
			 M1209.18,142.68l7.06,17.99h0.01L1209.18,142.68z M1209.18,142.68l7.06,17.99h0.01L1209.18,142.68z M1209.18,142.68l7.06,17.99
			h0.01L1209.18,142.68z M1209.18,142.68l7.06,17.99h0.01L1209.18,142.68z M1209.18,142.68l7.06,17.99h0.01L1209.18,142.68z
			 M1209.18,142.68l7.06,17.99h0.01L1209.18,142.68z M1209.18,142.68l7.06,17.99h0.01L1209.18,142.68z M1209.18,142.68l7.06,17.99
			h0.01L1209.18,142.68z M1209.18,142.68l7.06,17.99h0.01L1209.18,142.68z M1209.18,142.68l7.06,17.99h0.01L1209.18,142.68z
			 M1209.18,142.68l7.06,17.99h0.01L1209.18,142.68z M1209.18,142.68l7.06,17.99h0.01L1209.18,142.68z M1209.18,142.68l7.06,17.99
			h0.01L1209.18,142.68z M1209.18,142.68l7.06,17.99h0.01L1209.18,142.68z M1209.18,142.68l7.06,17.99h0.01L1209.18,142.68z
			 M1209.18,142.68l7.06,17.99h0.01L1209.18,142.68z M1209.18,142.68l7.06,17.99h0.01L1209.18,142.68z M1209.18,142.68l7.06,17.99
			h0.01L1209.18,142.68z M1209.18,142.68l7.06,17.99h0.01L1209.18,142.68z M1209.18,142.68l7.06,17.99h0.01L1209.18,142.68z
			 M1209.18,142.68l7.06,17.99h0.01L1209.18,142.68z M1209.18,142.68l7.06,17.99h0.01L1209.18,142.68z M1209.18,142.68l7.06,17.99
			h0.01L1209.18,142.68z M1209.18,142.68l7.06,17.99h0.01L1209.18,142.68z M1209.18,142.68l7.06,17.99h0.01L1209.18,142.68z
			 M1209.18,142.68l7.06,17.99h0.01L1209.18,142.68z M1209.18,142.68l7.06,17.99h0.01L1209.18,142.68z M1209.18,142.68l7.06,17.99
			h0.01L1209.18,142.68z M1209.18,142.68l7.06,17.99h0.01L1209.18,142.68z M1209.18,142.68l7.06,17.99h0.01L1209.18,142.68z
			 M1209.18,142.68l7.06,17.99h0.01L1209.18,142.68z M1209.18,142.68l7.06,17.99h0.01L1209.18,142.68z M1209.18,142.68l7.06,17.99
			h0.01L1209.18,142.68z M1209.18,142.68l7.06,17.99h0.01L1209.18,142.68z M1209.18,142.68l7.06,17.99h0.01L1209.18,142.68z
			 M1209.18,142.68l7.06,17.99h0.01L1209.18,142.68z M1209.18,142.68l7.06,17.99h0.01L1209.18,142.68z"/>
		<path d="M1266.5,161.53l-21.05-53.63c-0.31-0.78-0.99-1.35-1.82-1.51c-0.16-0.03-0.32-0.05-0.49-0.05c-0.48,0-0.95,0.14-1.36,0.42
			c-0.56,0.36-0.92,0.93-1.06,1.58c-2.42,12.25-22.13,23.86-31.19,28.61c-0.61,0.31-1.16,0.6-1.66,0.86
			c-1.41,0.72-2.39,1.18-2.73,1.34c-0.07,0.03-0.12,0.05-0.13,0.05l-2.89,1.14l-1.76,0.69l-11.68,4.59
			c-5.59,2.23-9.24,7.58-9.27,13.6c-0.02,3.93,1.49,7.64,4.25,10.44c2.26,2.28,5.12,3.74,8.24,4.21c0.63,0.09,1.28,0.15,1.93,0.15
			c0.07,0.01,0.14,0.01,0.21,0.01h0.04c0.51,0,1.03-0.03,1.53-0.09l0.85,1.52l0.84,1.49l7.2,12.82c1.34,2.4,3.88,3.89,6.62,3.91
			c0.89-0.01,1.78-0.18,2.62-0.51c1.98-0.78,3.53-2.38,4.23-4.39c0.75-2.11,0.55-4.44-0.55-6.38l-5.97-10.64l-0.79-1.41l-0.79-1.41
			l1.5-0.59l0.01-0.01l1.51-0.59l-0.29-0.51c0.21,0.15,0.45,0.27,0.7,0.35l2.6-1.02c0.45-0.18,0.84-0.48,1.11-0.88
			c0.53-0.17,1.19-0.36,1.97-0.59c0.51-0.14,1.07-0.3,1.67-0.46c10-2.7,32.02-7.46,42.08-0.17c0.69,0.5,1.56,0.61,2.36,0.3
			c0.62-0.24,1.1-0.71,1.37-1.31C1266.73,162.82,1266.74,162.14,1266.5,161.53z M1213.11,184.79c0.4,0.68,0.48,1.51,0.21,2.28
			c-0.2,0.64-0.71,1.19-1.38,1.46l-0.13,0.04c-0.24,0.08-0.48,0.12-0.73,0.12c-0.95,0-1.85-0.54-2.29-1.43l-6.66-11.88l-0.79-1.4
			l-0.79-1.43l-0.02-0.03l4.67-1.83l0.02,0.03l0.79,1.41l0.79,1.41L1213.11,184.79z M1210.27,163.41l0.09,0.2
			c-0.05-0.05-0.11-0.12-0.17-0.17l-1.41,0.56l0.21,0.54c-0.17-0.16-0.35-0.3-0.55-0.41l-2.74,1.07l-8.08,3.17
			c-0.28,0.13-0.64,0.28-1.02,0.4l-0.1,0.03c-0.98,0.31-1.97,0.46-2.97,0.46h-0.09c-0.58-0.01-1.15-0.06-1.71-0.17
			c-0.92-0.17-1.82-0.48-2.68-0.92c-2.32-1.2-4.03-3.24-4.82-5.72s-0.57-5.13,0.63-7.45c1.2-2.33,3.23-4.04,5.72-4.82l11.06-4.34
			l1.49-0.59l1.5-0.59l7.14,18.17L1210.27,163.41z M1256.57,156.59c-12.57-2.74-29.15,0.98-37.2,3.19c-0.57,0.15-1.08,0.3-1.55,0.44
			c-0.05,0.01-0.11,0.03-0.15,0.04l-1.4,0.41h-0.01l-7.06-17.99l1.32-0.65c0.04-0.02,0.09-0.04,0.14-0.06
			c0.43-0.23,0.91-0.46,1.43-0.74c7.41-3.83,22.11-12.37,29.44-22.96l1.73-2.48l16.27,41.45L1256.57,156.59z"/>
	</g>
</g>
</svg>
