<?xml version="1.0" encoding="utf-8"?>
<!-- Generator: Adobe Illustrator 26.3.1, SVG Export Plug-In . SVG Version: 6.00 Build 0)  -->
<svg version="1.1" id="Layer_1" xmlns="http://www.w3.org/2000/svg" xmlns:xlink="http://www.w3.org/1999/xlink" x="0px" y="0px"
	 viewBox="0 0 300 300" style="enable-background:new 0 0 300 300;" xml:space="preserve">
<style type="text/css">
	.st0{fill:#FFFFFF;stroke:#FFFFFF;stroke-width:3;stroke-miterlimit:10;}
	.st1{fill:#FFFFFF;stroke:#FFFFFF;stroke-miterlimit:10;}
	.st2{fill:#00457F;}
	.st3{fill:#00457F;stroke:#00457F;stroke-width:2;stroke-miterlimit:10;}
</style>
<g>
	<path class="st0" d="M165.6,245.45c-0.56-0.55-1.29-0.82-2-0.82c-0.73,0-1.45,0.27-2,0.82l-8.63,8.64c-0.54,0.54-0.83,1.24-0.83,2
		c0,0.75,0.29,1.47,0.83,2c1.1,1.04,2.94,1.06,4,0l8.64-8.64C166.7,248.35,166.7,246.56,165.6,245.45z M195,232.49
		c-0.56-0.55-1.29-0.82-2-0.82c-0.73,0-1.45,0.27-2,0.82l-9.38,9.34c-1.1,1.1-1.1,2.89,0,4c0.56,0.53,1.27,0.82,2.02,0.82
		c0.73,0,1.47-0.3,1.98-0.82l9.38-9.33c0.54-0.54,0.83-1.24,0.83-2C195.83,233.75,195.54,233.03,195,232.49z M176.02,251.43
		c-0.54-0.54-1.26-0.83-2.02-0.83c-0.77,0-1.49,0.29-2.02,0.83l-17.5,17.45c-1.09,1.1-1.1,2.89,0,4.01
		c1.11,1.05,2.92,1.07,4.08-0.03l17.47-17.43c0.54-0.53,0.83-1.24,0.83-1.99C176.85,252.67,176.56,251.97,176.02,251.43z
		 M187.45,223.69c-0.56-0.56-1.28-0.83-2-0.83c-0.72,0-1.45,0.27-2,0.83l-15,14.96c-1.1,1.1-1.1,2.9,0,4.01l0.02,0.02
		c0.63,0.66,1.41,0.8,1.95,0.8c0.76,0,1.47-0.29,2.05-0.85l14.98-14.94c0.54-0.54,0.83-1.24,0.83-1.99
		C188.28,224.93,187.99,224.22,187.45,223.69z M247.33,180.21c-0.64-0.6-1.49-0.89-2.33-0.77l-38.72,4.9
		c-1.65,0.09-3.1,1.11-3.69,2.58c-0.73,1.72-0.29,3.72,1.1,5.12l5.75,5.74l-18.7,18.65c-0.54,0.54-0.83,1.26-0.83,2
		c0,0.76,0.29,1.47,0.83,2c1.1,1.1,2.9,1.1,4.01,0l19.59-19.54c0.82-0.82,1.26-1.87,1.26-3.03c0-1.24-0.54-2.52-1.43-3.42
		l-4.77-4.77l32.82-4.16l-3.04,33.87l-4.7-4.7c-0.96-0.96-2.22-1.46-3.44-1.46c-1.12,0-2.22,0.41-3.05,1.23l-45.06,44.98
		c-0.54,0.54-0.83,1.24-0.83,2c0,0.75,0.29,1.47,0.83,2c1.1,1.05,2.9,1.07,4.07-0.03l44.15-44.06l5.74,5.74
		c1.4,1.4,3.4,1.83,5.1,1.11c1.54-0.65,2.63-2.14,2.6-3.54v-0.08l3.58-40.09C248.26,181.65,247.94,180.8,247.33,180.21z
		 M96.26,98.19h-7.33c-5.48,0-9.94-4.46-9.94-9.94c0-5.48,4.46-9.94,9.94-9.94h16.45c1.57,0,2.84-1.28,2.84-2.84
		s-1.28-2.84-2.84-2.84H93.6v-8.11c0-1.57-1.28-2.84-2.84-2.84c-1.57,0-2.84,1.28-2.84,2.84v8.16l-1.3,0.19
		c-7.59,1.12-13.32,7.72-13.32,15.34c0,8.58,7.01,15.58,15.63,15.58h7.29c5.48,0,9.94,4.46,9.94,9.94s-4.46,9.94-9.94,9.94H79.77
		c-1.57,0-2.84,1.28-2.84,2.84c0,1.57,1.28,2.84,2.84,2.84h8.11v8.11c0,1.57,1.28,2.84,2.84,2.84s2.84-1.28,2.84-2.84v-8.11h2.65
		c8.61,0,15.63-6.99,15.63-15.59C111.84,105.17,104.85,98.19,96.26,98.19z M95.88,241.53c-0.55-0.56-1.28-0.83-2-0.83
		c-0.72,0-1.45,0.27-1.99,0.83l-28.76,28.65c-0.54,0.54-0.83,1.24-0.83,2c0,0.76,0.29,1.47,0.83,2c1.1,1.04,2.95,1.06,4.01,0
		l28.75-28.66c0.54-0.54,0.83-1.24,0.83-2C96.71,242.78,96.42,242.07,95.88,241.53z M130.13,169.42c-0.54-0.54-1.26-0.83-2-0.83
		c-0.76,0-1.47,0.29-2,0.83l-25.74,25.7c-1.1,1.1-1.1,2.89,0,4c1.11,1.05,2.89,1.08,4.07-0.01l25.68-25.68
		c0.54-0.54,0.83-1.24,0.83-2S130.67,169.95,130.13,169.42z M90.29,209.2c-0.55-0.56-1.28-0.83-1.99-0.83c-0.73,0-1.45,0.27-2,0.83
		l-60.47,60.28c-0.54,0.54-0.83,1.26-0.83,2c0,0.76,0.29,1.47,0.83,2c1.11,1.05,2.92,1.08,4.08-0.03l60.4-60.26
		c0.54-0.54,0.83-1.24,0.83-1.99C91.13,210.45,90.84,209.74,90.29,209.2z M159.88,177.7c-0.56-0.55-1.28-0.83-2-0.83
		c-0.72,0-1.45,0.28-2,0.83l-50.29,50.12c-0.54,0.54-0.83,1.26-0.83,2c0,0.76,0.29,1.47,0.83,2c1.11,1.05,2.9,1.08,4.08-0.03
		l50.22-50.09c0.54-0.54,0.83-1.26,0.83-2C160.71,178.95,160.42,178.24,159.88,177.7z M96.26,98.19h-7.33
		c-5.48,0-9.94-4.46-9.94-9.94c0-5.48,4.46-9.94,9.94-9.94h16.45c1.57,0,2.84-1.28,2.84-2.84s-1.28-2.84-2.84-2.84H93.6v-8.11
		c0-1.57-1.28-2.84-2.84-2.84c-1.57,0-2.84,1.28-2.84,2.84v8.16l-1.3,0.19c-7.59,1.12-13.32,7.72-13.32,15.34
		c0,8.58,7.01,15.58,15.63,15.58h7.29c5.48,0,9.94,4.46,9.94,9.94s-4.46,9.94-9.94,9.94H79.77c-1.57,0-2.84,1.28-2.84,2.84
		c0,1.57,1.28,2.84,2.84,2.84h8.11v8.11c0,1.57,1.28,2.84,2.84,2.84s2.84-1.28,2.84-2.84v-8.11h2.65c8.61,0,15.63-6.99,15.63-15.59
		C111.84,105.17,104.85,98.19,96.26,98.19z M96.26,98.19h-7.33c-5.48,0-9.94-4.46-9.94-9.94c0-5.48,4.46-9.94,9.94-9.94h16.45
		c1.57,0,2.84-1.28,2.84-2.84s-1.28-2.84-2.84-2.84H93.6v-8.11c0-1.57-1.28-2.84-2.84-2.84c-1.57,0-2.84,1.28-2.84,2.84v8.16
		l-1.3,0.19c-7.59,1.12-13.32,7.72-13.32,15.34c0,8.58,7.01,15.58,15.63,15.58h7.29c5.48,0,9.94,4.46,9.94,9.94
		s-4.46,9.94-9.94,9.94H79.77c-1.57,0-2.84,1.28-2.84,2.84c0,1.57,1.28,2.84,2.84,2.84h8.11v8.11c0,1.57,1.28,2.84,2.84,2.84
		s2.84-1.28,2.84-2.84v-8.11h2.65c8.61,0,15.63-6.99,15.63-15.59C111.84,105.17,104.85,98.19,96.26,98.19z M96.26,98.19h-7.33
		c-5.48,0-9.94-4.46-9.94-9.94c0-5.48,4.46-9.94,9.94-9.94h16.45c1.57,0,2.84-1.28,2.84-2.84s-1.28-2.84-2.84-2.84H93.6v-8.11
		c0-1.57-1.28-2.84-2.84-2.84c-1.57,0-2.84,1.28-2.84,2.84v8.16l-1.3,0.19c-7.59,1.12-13.32,7.72-13.32,15.34
		c0,8.58,7.01,15.58,15.63,15.58h7.29c5.48,0,9.94,4.46,9.94,9.94s-4.46,9.94-9.94,9.94H79.77c-1.57,0-2.84,1.28-2.84,2.84
		c0,1.57,1.28,2.84,2.84,2.84h8.11v8.11c0,1.57,1.28,2.84,2.84,2.84s2.84-1.28,2.84-2.84v-8.11h2.65c8.61,0,15.63-6.99,15.63-15.59
		C111.84,105.17,104.85,98.19,96.26,98.19z M96.26,98.19h-7.33c-5.48,0-9.94-4.46-9.94-9.94c0-5.48,4.46-9.94,9.94-9.94h16.45
		c1.57,0,2.84-1.28,2.84-2.84s-1.28-2.84-2.84-2.84H93.6v-8.11c0-1.57-1.28-2.84-2.84-2.84c-1.57,0-2.84,1.28-2.84,2.84v8.16
		l-1.3,0.19c-7.59,1.12-13.32,7.72-13.32,15.34c0,8.58,7.01,15.58,15.63,15.58h7.29c5.48,0,9.94,4.46,9.94,9.94
		s-4.46,9.94-9.94,9.94H79.77c-1.57,0-2.84,1.28-2.84,2.84c0,1.57,1.28,2.84,2.84,2.84h8.11v8.11c0,1.57,1.28,2.84,2.84,2.84
		s2.84-1.28,2.84-2.84v-8.11h2.65c8.61,0,15.63-6.99,15.63-15.59C111.84,105.17,104.85,98.19,96.26,98.19z M96.26,98.19h-7.33
		c-5.48,0-9.94-4.46-9.94-9.94c0-5.48,4.46-9.94,9.94-9.94h16.45c1.57,0,2.84-1.28,2.84-2.84s-1.28-2.84-2.84-2.84H93.6v-8.11
		c0-1.57-1.28-2.84-2.84-2.84c-1.57,0-2.84,1.28-2.84,2.84v8.16l-1.3,0.19c-7.59,1.12-13.32,7.72-13.32,15.34
		c0,8.58,7.01,15.58,15.63,15.58h7.29c5.48,0,9.94,4.46,9.94,9.94s-4.46,9.94-9.94,9.94H79.77c-1.57,0-2.84,1.28-2.84,2.84
		c0,1.57,1.28,2.84,2.84,2.84h8.11v8.11c0,1.57,1.28,2.84,2.84,2.84s2.84-1.28,2.84-2.84v-8.11h2.65c8.61,0,15.63-6.99,15.63-15.59
		C111.84,105.17,104.85,98.19,96.26,98.19z M96.26,98.19h-7.33c-5.48,0-9.94-4.46-9.94-9.94c0-5.48,4.46-9.94,9.94-9.94h16.45
		c1.57,0,2.84-1.28,2.84-2.84s-1.28-2.84-2.84-2.84H93.6v-8.11c0-1.57-1.28-2.84-2.84-2.84c-1.57,0-2.84,1.28-2.84,2.84v8.16
		l-1.3,0.19c-7.59,1.12-13.32,7.72-13.32,15.34c0,8.58,7.01,15.58,15.63,15.58h7.29c5.48,0,9.94,4.46,9.94,9.94
		s-4.46,9.94-9.94,9.94H79.77c-1.57,0-2.84,1.28-2.84,2.84c0,1.57,1.28,2.84,2.84,2.84h8.11v8.11c0,1.57,1.28,2.84,2.84,2.84
		s2.84-1.28,2.84-2.84v-8.11h2.65c8.61,0,15.63-6.99,15.63-15.59C111.84,105.17,104.85,98.19,96.26,98.19z M96.26,98.19h-7.33
		c-5.48,0-9.94-4.46-9.94-9.94c0-5.48,4.46-9.94,9.94-9.94h16.45c1.57,0,2.84-1.28,2.84-2.84s-1.28-2.84-2.84-2.84H93.6v-8.11
		c0-1.57-1.28-2.84-2.84-2.84c-1.57,0-2.84,1.28-2.84,2.84v8.16l-1.3,0.19c-7.59,1.12-13.32,7.72-13.32,15.34
		c0,8.58,7.01,15.58,15.63,15.58h7.29c5.48,0,9.94,4.46,9.94,9.94s-4.46,9.94-9.94,9.94H79.77c-1.57,0-2.84,1.28-2.84,2.84
		c0,1.57,1.28,2.84,2.84,2.84h8.11v8.11c0,1.57,1.28,2.84,2.84,2.84s2.84-1.28,2.84-2.84v-8.11h2.65c8.61,0,15.63-6.99,15.63-15.59
		C111.84,105.17,104.85,98.19,96.26,98.19z M96.26,98.19h-7.33c-5.48,0-9.94-4.46-9.94-9.94c0-5.48,4.46-9.94,9.94-9.94h16.45
		c1.57,0,2.84-1.28,2.84-2.84s-1.28-2.84-2.84-2.84H93.6v-8.11c0-1.57-1.28-2.84-2.84-2.84c-1.57,0-2.84,1.28-2.84,2.84v8.16
		l-1.3,0.19c-7.59,1.12-13.32,7.72-13.32,15.34c0,8.58,7.01,15.58,15.63,15.58h7.29c5.48,0,9.94,4.46,9.94,9.94
		s-4.46,9.94-9.94,9.94H79.77c-1.57,0-2.84,1.28-2.84,2.84c0,1.57,1.28,2.84,2.84,2.84h8.11v8.11c0,1.57,1.28,2.84,2.84,2.84
		s2.84-1.28,2.84-2.84v-8.11h2.65c8.61,0,15.63-6.99,15.63-15.59C111.84,105.17,104.85,98.19,96.26,98.19z M96.26,98.19h-7.33
		c-5.48,0-9.94-4.46-9.94-9.94c0-5.48,4.46-9.94,9.94-9.94h16.45c1.57,0,2.84-1.28,2.84-2.84s-1.28-2.84-2.84-2.84H93.6v-8.11
		c0-1.57-1.28-2.84-2.84-2.84c-1.57,0-2.84,1.28-2.84,2.84v8.16l-1.3,0.19c-7.59,1.12-13.32,7.72-13.32,15.34
		c0,8.58,7.01,15.58,15.63,15.58h7.29c5.48,0,9.94,4.46,9.94,9.94s-4.46,9.94-9.94,9.94H79.77c-1.57,0-2.84,1.28-2.84,2.84
		c0,1.57,1.28,2.84,2.84,2.84h8.11v8.11c0,1.57,1.28,2.84,2.84,2.84s2.84-1.28,2.84-2.84v-8.11h2.65c8.61,0,15.63-6.99,15.63-15.59
		C111.84,105.17,104.85,98.19,96.26,98.19z M96.26,98.19h-7.33c-5.48,0-9.94-4.46-9.94-9.94c0-5.48,4.46-9.94,9.94-9.94h16.45
		c1.57,0,2.84-1.28,2.84-2.84s-1.28-2.84-2.84-2.84H93.6v-8.11c0-1.57-1.28-2.84-2.84-2.84c-1.57,0-2.84,1.28-2.84,2.84v8.16
		l-1.3,0.19c-7.59,1.12-13.32,7.72-13.32,15.34c0,8.58,7.01,15.58,15.63,15.58h7.29c5.48,0,9.94,4.46,9.94,9.94
		s-4.46,9.94-9.94,9.94H79.77c-1.57,0-2.84,1.28-2.84,2.84c0,1.57,1.28,2.84,2.84,2.84h8.11v8.11c0,1.57,1.28,2.84,2.84,2.84
		s2.84-1.28,2.84-2.84v-8.11h2.65c8.61,0,15.63-6.99,15.63-15.59C111.84,105.17,104.85,98.19,96.26,98.19z M96.26,98.19h-7.33
		c-5.48,0-9.94-4.46-9.94-9.94c0-5.48,4.46-9.94,9.94-9.94h16.45c1.57,0,2.84-1.28,2.84-2.84s-1.28-2.84-2.84-2.84H93.6v-8.11
		c0-1.57-1.28-2.84-2.84-2.84c-1.57,0-2.84,1.28-2.84,2.84v8.16l-1.3,0.19c-7.59,1.12-13.32,7.72-13.32,15.34
		c0,8.58,7.01,15.58,15.63,15.58h7.29c5.48,0,9.94,4.46,9.94,9.94s-4.46,9.94-9.94,9.94H79.77c-1.57,0-2.84,1.28-2.84,2.84
		c0,1.57,1.28,2.84,2.84,2.84h8.11v8.11c0,1.57,1.28,2.84,2.84,2.84s2.84-1.28,2.84-2.84v-8.11h2.65c8.61,0,15.63-6.99,15.63-15.59
		C111.84,105.17,104.85,98.19,96.26,98.19z M96.26,98.19h-7.33c-5.48,0-9.94-4.46-9.94-9.94c0-5.48,4.46-9.94,9.94-9.94h16.45
		c1.57,0,2.84-1.28,2.84-2.84s-1.28-2.84-2.84-2.84H93.6v-8.11c0-1.57-1.28-2.84-2.84-2.84c-1.57,0-2.84,1.28-2.84,2.84v8.16
		l-1.3,0.19c-7.59,1.12-13.32,7.72-13.32,15.34c0,8.58,7.01,15.58,15.63,15.58h7.29c5.48,0,9.94,4.46,9.94,9.94
		s-4.46,9.94-9.94,9.94H79.77c-1.57,0-2.84,1.28-2.84,2.84c0,1.57,1.28,2.84,2.84,2.84h8.11v8.11c0,1.57,1.28,2.84,2.84,2.84
		s2.84-1.28,2.84-2.84v-8.11h2.65c8.61,0,15.63-6.99,15.63-15.59C111.84,105.17,104.85,98.19,96.26,98.19z M96.26,98.19h-7.33
		c-5.48,0-9.94-4.46-9.94-9.94c0-5.48,4.46-9.94,9.94-9.94h16.45c1.57,0,2.84-1.28,2.84-2.84s-1.28-2.84-2.84-2.84H93.6v-8.11
		c0-1.57-1.28-2.84-2.84-2.84c-1.57,0-2.84,1.28-2.84,2.84v8.16l-1.3,0.19c-7.59,1.12-13.32,7.72-13.32,15.34
		c0,8.58,7.01,15.58,15.63,15.58h7.29c5.48,0,9.94,4.46,9.94,9.94s-4.46,9.94-9.94,9.94H79.77c-1.57,0-2.84,1.28-2.84,2.84
		c0,1.57,1.28,2.84,2.84,2.84h8.11v8.11c0,1.57,1.28,2.84,2.84,2.84s2.84-1.28,2.84-2.84v-8.11h2.65c8.61,0,15.63-6.99,15.63-15.59
		C111.84,105.17,104.85,98.19,96.26,98.19z M274.19,25.87c-0.64-0.67-1.57-0.96-2.56-0.82l-102.28,17.6c-2.81,0.21-5.17,2-6.14,4.68
		c-0.97,2.64-0.33,5.55,1.66,7.57l15.99,15.94l-21.95,21.9L158.33,90c-6.6-31.35-33.7-53.24-65.91-53.24
		c-37.17,0-67.41,30.16-67.41,67.24c0,32.11,21.94,59.14,53.37,65.74l2.74,0.58l-25.28,25.23c-0.53,0.54-0.83,1.24-0.83,2
		c0,0.75,0.3,1.47,0.84,1.99c1.1,1.06,2.9,1.08,4.07-0.02l123.91-123.6c1.36-1.36,2.11-3.17,2.11-5.08s-0.75-3.71-2.11-5.07
		l-16.55-17l101.28-17.4l-19.9,95.24c-0.01,0.14-0.03,0.29-0.07,0.44l-0.65,2.6l-16.82-16.76c-1.34-1.35-3.15-2.1-5.1-2.14
		c-1.87,0-3.72,0.76-5.05,2.09l-53.97,53.8c-1.1,1.09-1.1,2.89,0,4c1.11,1.1,2.9,1.1,4.01,0l54.95-54.82l15.99,15.94
		c2,2.01,4.9,2.65,7.56,1.66c2.57-0.92,4.36-3.19,4.69-5.91l0.03-0.13l20.72-98.94C275.13,27.53,274.85,26.56,274.19,25.87z
		 M153.3,98.35l-67.09,66.87l-0.73-0.08C54.25,161.65,30.7,135.37,30.7,104c0-33.94,27.69-61.55,61.72-61.55
		c31.48,0,57.83,23.5,61.32,54.66l0.08,0.73L153.3,98.35z M96.26,98.19h-7.33c-5.48,0-9.94-4.46-9.94-9.94
		c0-5.48,4.46-9.94,9.94-9.94h16.45c1.57,0,2.84-1.28,2.84-2.84s-1.28-2.84-2.84-2.84H93.6v-8.11c0-1.57-1.28-2.84-2.84-2.84
		c-1.57,0-2.84,1.28-2.84,2.84v8.16l-1.3,0.19c-7.59,1.12-13.32,7.72-13.32,15.34c0,8.58,7.01,15.58,15.63,15.58h7.29
		c5.48,0,9.94,4.46,9.94,9.94s-4.46,9.94-9.94,9.94H79.77c-1.57,0-2.84,1.28-2.84,2.84c0,1.57,1.28,2.84,2.84,2.84h8.11v8.11
		c0,1.57,1.28,2.84,2.84,2.84s2.84-1.28,2.84-2.84v-8.11h2.65c8.61,0,15.63-6.99,15.63-15.59
		C111.84,105.17,104.85,98.19,96.26,98.19z M96.26,98.19h-7.33c-5.48,0-9.94-4.46-9.94-9.94c0-5.48,4.46-9.94,9.94-9.94h16.45
		c1.57,0,2.84-1.28,2.84-2.84s-1.28-2.84-2.84-2.84H93.6v-8.11c0-1.57-1.28-2.84-2.84-2.84c-1.57,0-2.84,1.28-2.84,2.84v8.16
		l-1.3,0.19c-7.59,1.12-13.32,7.72-13.32,15.34c0,8.58,7.01,15.58,15.63,15.58h7.29c5.48,0,9.94,4.46,9.94,9.94
		s-4.46,9.94-9.94,9.94H79.77c-1.57,0-2.84,1.28-2.84,2.84c0,1.57,1.28,2.84,2.84,2.84h8.11v8.11c0,1.57,1.28,2.84,2.84,2.84
		s2.84-1.28,2.84-2.84v-8.11h2.65c8.61,0,15.63-6.99,15.63-15.59C111.84,105.17,104.85,98.19,96.26,98.19z M96.26,98.19h-7.33
		c-5.48,0-9.94-4.46-9.94-9.94c0-5.48,4.46-9.94,9.94-9.94h16.45c1.57,0,2.84-1.28,2.84-2.84s-1.28-2.84-2.84-2.84H93.6v-8.11
		c0-1.57-1.28-2.84-2.84-2.84c-1.57,0-2.84,1.28-2.84,2.84v8.16l-1.3,0.19c-7.59,1.12-13.32,7.72-13.32,15.34
		c0,8.58,7.01,15.58,15.63,15.58h7.29c5.48,0,9.94,4.46,9.94,9.94s-4.46,9.94-9.94,9.94H79.77c-1.57,0-2.84,1.28-2.84,2.84
		c0,1.57,1.28,2.84,2.84,2.84h8.11v8.11c0,1.57,1.28,2.84,2.84,2.84s2.84-1.28,2.84-2.84v-8.11h2.65c8.61,0,15.63-6.99,15.63-15.59
		C111.84,105.17,104.85,98.19,96.26,98.19z M96.26,98.19h-7.33c-5.48,0-9.94-4.46-9.94-9.94c0-5.48,4.46-9.94,9.94-9.94h16.45
		c1.57,0,2.84-1.28,2.84-2.84s-1.28-2.84-2.84-2.84H93.6v-8.11c0-1.57-1.28-2.84-2.84-2.84c-1.57,0-2.84,1.28-2.84,2.84v8.16
		l-1.3,0.19c-7.59,1.12-13.32,7.72-13.32,15.34c0,8.58,7.01,15.58,15.63,15.58h7.29c5.48,0,9.94,4.46,9.94,9.94
		s-4.46,9.94-9.94,9.94H79.77c-1.57,0-2.84,1.28-2.84,2.84c0,1.57,1.28,2.84,2.84,2.84h8.11v8.11c0,1.57,1.28,2.84,2.84,2.84
		s2.84-1.28,2.84-2.84v-8.11h2.65c8.61,0,15.63-6.99,15.63-15.59C111.84,105.17,104.85,98.19,96.26,98.19z M96.26,98.19h-7.33
		c-5.48,0-9.94-4.46-9.94-9.94c0-5.48,4.46-9.94,9.94-9.94h16.45c1.57,0,2.84-1.28,2.84-2.84s-1.28-2.84-2.84-2.84H93.6v-8.11
		c0-1.57-1.28-2.84-2.84-2.84c-1.57,0-2.84,1.28-2.84,2.84v8.16l-1.3,0.19c-7.59,1.12-13.32,7.72-13.32,15.34
		c0,8.58,7.01,15.58,15.63,15.58h7.29c5.48,0,9.94,4.46,9.94,9.94s-4.46,9.94-9.94,9.94H79.77c-1.57,0-2.84,1.28-2.84,2.84
		c0,1.57,1.28,2.84,2.84,2.84h8.11v8.11c0,1.57,1.28,2.84,2.84,2.84s2.84-1.28,2.84-2.84v-8.11h2.65c8.61,0,15.63-6.99,15.63-15.59
		C111.84,105.17,104.85,98.19,96.26,98.19z M96.26,98.19h-7.33c-5.48,0-9.94-4.46-9.94-9.94c0-5.48,4.46-9.94,9.94-9.94h16.45
		c1.57,0,2.84-1.28,2.84-2.84s-1.28-2.84-2.84-2.84H93.6v-8.11c0-1.57-1.28-2.84-2.84-2.84c-1.57,0-2.84,1.28-2.84,2.84v8.16
		l-1.3,0.19c-7.59,1.12-13.32,7.72-13.32,15.34c0,8.58,7.01,15.58,15.63,15.58h7.29c5.48,0,9.94,4.46,9.94,9.94
		s-4.46,9.94-9.94,9.94H79.77c-1.57,0-2.84,1.28-2.84,2.84c0,1.57,1.28,2.84,2.84,2.84h8.11v8.11c0,1.57,1.28,2.84,2.84,2.84
		s2.84-1.28,2.84-2.84v-8.11h2.65c8.61,0,15.63-6.99,15.63-15.59C111.84,105.17,104.85,98.19,96.26,98.19z M96.26,98.19h-7.33
		c-5.48,0-9.94-4.46-9.94-9.94c0-5.48,4.46-9.94,9.94-9.94h16.45c1.57,0,2.84-1.28,2.84-2.84s-1.28-2.84-2.84-2.84H93.6v-8.11
		c0-1.57-1.28-2.84-2.84-2.84c-1.57,0-2.84,1.28-2.84,2.84v8.16l-1.3,0.19c-7.59,1.12-13.32,7.72-13.32,15.34
		c0,8.58,7.01,15.58,15.63,15.58h7.29c5.48,0,9.94,4.46,9.94,9.94s-4.46,9.94-9.94,9.94H79.77c-1.57,0-2.84,1.28-2.84,2.84
		c0,1.57,1.28,2.84,2.84,2.84h8.11v8.11c0,1.57,1.28,2.84,2.84,2.84s2.84-1.28,2.84-2.84v-8.11h2.65c8.61,0,15.63-6.99,15.63-15.59
		C111.84,105.17,104.85,98.19,96.26,98.19z M96.26,98.19h-7.33c-5.48,0-9.94-4.46-9.94-9.94c0-5.48,4.46-9.94,9.94-9.94h16.45
		c1.57,0,2.84-1.28,2.84-2.84s-1.28-2.84-2.84-2.84H93.6v-8.11c0-1.57-1.28-2.84-2.84-2.84c-1.57,0-2.84,1.28-2.84,2.84v8.16
		l-1.3,0.19c-7.59,1.12-13.32,7.72-13.32,15.34c0,8.58,7.01,15.58,15.63,15.58h7.29c5.48,0,9.94,4.46,9.94,9.94
		s-4.46,9.94-9.94,9.94H79.77c-1.57,0-2.84,1.28-2.84,2.84c0,1.57,1.28,2.84,2.84,2.84h8.11v8.11c0,1.57,1.28,2.84,2.84,2.84
		s2.84-1.28,2.84-2.84v-8.11h2.65c8.61,0,15.63-6.99,15.63-15.59C111.84,105.17,104.85,98.19,96.26,98.19z M96.26,98.19h-7.33
		c-5.48,0-9.94-4.46-9.94-9.94c0-5.48,4.46-9.94,9.94-9.94h16.45c1.57,0,2.84-1.28,2.84-2.84s-1.28-2.84-2.84-2.84H93.6v-8.11
		c0-1.57-1.28-2.84-2.84-2.84c-1.57,0-2.84,1.28-2.84,2.84v8.16l-1.3,0.19c-7.59,1.12-13.32,7.72-13.32,15.34
		c0,8.58,7.01,15.58,15.63,15.58h7.29c5.48,0,9.94,4.46,9.94,9.94s-4.46,9.94-9.94,9.94H79.77c-1.57,0-2.84,1.28-2.84,2.84
		c0,1.57,1.28,2.84,2.84,2.84h8.11v8.11c0,1.57,1.28,2.84,2.84,2.84s2.84-1.28,2.84-2.84v-8.11h2.65c8.61,0,15.63-6.99,15.63-15.59
		C111.84,105.17,104.85,98.19,96.26,98.19z M96.26,98.19h-7.33c-5.48,0-9.94-4.46-9.94-9.94c0-5.48,4.46-9.94,9.94-9.94h16.45
		c1.57,0,2.84-1.28,2.84-2.84s-1.28-2.84-2.84-2.84H93.6v-8.11c0-1.57-1.28-2.84-2.84-2.84c-1.57,0-2.84,1.28-2.84,2.84v8.16
		l-1.3,0.19c-7.59,1.12-13.32,7.72-13.32,15.34c0,8.58,7.01,15.58,15.63,15.58h7.29c5.48,0,9.94,4.46,9.94,9.94
		s-4.46,9.94-9.94,9.94H79.77c-1.57,0-2.84,1.28-2.84,2.84c0,1.57,1.28,2.84,2.84,2.84h8.11v8.11c0,1.57,1.28,2.84,2.84,2.84
		s2.84-1.28,2.84-2.84v-8.11h2.65c8.61,0,15.63-6.99,15.63-15.59C111.84,105.17,104.85,98.19,96.26,98.19z M96.26,98.19h-7.33
		c-5.48,0-9.94-4.46-9.94-9.94c0-5.48,4.46-9.94,9.94-9.94h16.45c1.57,0,2.84-1.28,2.84-2.84s-1.28-2.84-2.84-2.84H93.6v-8.11
		c0-1.57-1.28-2.84-2.84-2.84c-1.57,0-2.84,1.28-2.84,2.84v8.16l-1.3,0.19c-7.59,1.12-13.32,7.72-13.32,15.34
		c0,8.58,7.01,15.58,15.63,15.58h7.29c5.48,0,9.94,4.46,9.94,9.94s-4.46,9.94-9.94,9.94H79.77c-1.57,0-2.84,1.28-2.84,2.84
		c0,1.57,1.28,2.84,2.84,2.84h8.11v8.11c0,1.57,1.28,2.84,2.84,2.84s2.84-1.28,2.84-2.84v-8.11h2.65c8.61,0,15.63-6.99,15.63-15.59
		C111.84,105.17,104.85,98.19,96.26,98.19z M96.26,98.19h-7.33c-5.48,0-9.94-4.46-9.94-9.94c0-5.48,4.46-9.94,9.94-9.94h16.45
		c1.57,0,2.84-1.28,2.84-2.84s-1.28-2.84-2.84-2.84H93.6v-8.11c0-1.57-1.28-2.84-2.84-2.84c-1.57,0-2.84,1.28-2.84,2.84v8.16
		l-1.3,0.19c-7.59,1.12-13.32,7.72-13.32,15.34c0,8.58,7.01,15.58,15.63,15.58h7.29c5.48,0,9.94,4.46,9.94,9.94
		s-4.46,9.94-9.94,9.94H79.77c-1.57,0-2.84,1.28-2.84,2.84c0,1.57,1.28,2.84,2.84,2.84h8.11v8.11c0,1.57,1.28,2.84,2.84,2.84
		s2.84-1.28,2.84-2.84v-8.11h2.65c8.61,0,15.63-6.99,15.63-15.59C111.84,105.17,104.85,98.19,96.26,98.19z M96.26,98.19h-7.33
		c-5.48,0-9.94-4.46-9.94-9.94c0-5.48,4.46-9.94,9.94-9.94h16.45c1.57,0,2.84-1.28,2.84-2.84s-1.28-2.84-2.84-2.84H93.6v-8.11
		c0-1.57-1.28-2.84-2.84-2.84c-1.57,0-2.84,1.28-2.84,2.84v8.16l-1.3,0.19c-7.59,1.12-13.32,7.72-13.32,15.34
		c0,8.58,7.01,15.58,15.63,15.58h7.29c5.48,0,9.94,4.46,9.94,9.94s-4.46,9.94-9.94,9.94H79.77c-1.57,0-2.84,1.28-2.84,2.84
		c0,1.57,1.28,2.84,2.84,2.84h8.11v8.11c0,1.57,1.28,2.84,2.84,2.84s2.84-1.28,2.84-2.84v-8.11h2.65c8.61,0,15.63-6.99,15.63-15.59
		C111.84,105.17,104.85,98.19,96.26,98.19z"/>
</g>
</svg>
