<?xml version="1.0" encoding="utf-8"?>
<!-- Generator: Adobe Illustrator 26.3.1, SVG Export Plug-In . SVG Version: 6.00 Build 0)  -->
<svg version="1.1" id="Layer_1" xmlns="http://www.w3.org/2000/svg" xmlns:xlink="http://www.w3.org/1999/xlink" x="0px" y="0px"
	 viewBox="0 0 300 300" style="enable-background:new 0 0 300 300;" xml:space="preserve">
<style type="text/css">
	.st0{fill:#00457F;}
</style>
<g>
	<path class="st0" d="M165.6,245.4c-0.6-0.6-1.3-0.8-2-0.8c-0.7,0-1.4,0.3-2,0.8l-8.6,8.6c-0.5,0.5-0.8,1.2-0.8,2
		c0,0.8,0.3,1.5,0.8,2c1.1,1,2.9,1.1,4,0l8.6-8.6C166.7,248.4,166.7,246.6,165.6,245.4z M195,232.5c-0.6-0.6-1.3-0.8-2-0.8
		c-0.7,0-1.4,0.3-2,0.8l-9.4,9.3c-1.1,1.1-1.1,2.9,0,4c0.6,0.5,1.3,0.8,2,0.8c0.7,0,1.5-0.3,2-0.8l9.4-9.3c0.5-0.5,0.8-1.2,0.8-2
		C195.8,233.8,195.5,233,195,232.5z M176,251.4c-0.5-0.5-1.3-0.8-2-0.8c-0.8,0-1.5,0.3-2,0.8l-17.5,17.5c-1.1,1.1-1.1,2.9,0,4
		c1.1,1,2.9,1.1,4.1,0l17.5-17.4c0.5-0.5,0.8-1.2,0.8-2C176.9,252.7,176.6,252,176,251.4z M187.4,223.7c-0.6-0.6-1.3-0.8-2-0.8
		s-1.4,0.3-2,0.8l-15,15c-1.1,1.1-1.1,2.9,0,4l0,0c0.6,0.7,1.4,0.8,1.9,0.8c0.8,0,1.5-0.3,2.1-0.9l15-14.9c0.5-0.5,0.8-1.2,0.8-2
		C188.3,224.9,188,224.2,187.4,223.7z M247.3,180.2c-0.6-0.6-1.5-0.9-2.3-0.8l-38.7,4.9c-1.6,0.1-3.1,1.1-3.7,2.6
		c-0.7,1.7-0.3,3.7,1.1,5.1l5.8,5.7l-18.7,18.6c-0.5,0.5-0.8,1.3-0.8,2c0,0.8,0.3,1.5,0.8,2c1.1,1.1,2.9,1.1,4,0l19.6-19.5
		c0.8-0.8,1.3-1.9,1.3-3c0-1.2-0.5-2.5-1.4-3.4l-4.8-4.8l32.8-4.2l-3,33.9l-4.7-4.7c-1-1-2.2-1.5-3.4-1.5c-1.1,0-2.2,0.4-3.1,1.2
		l-45.1,45c-0.5,0.5-0.8,1.2-0.8,2c0,0.8,0.3,1.5,0.8,2c1.1,1,2.9,1.1,4.1,0l44.2-44.1l5.7,5.7c1.4,1.4,3.4,1.8,5.1,1.1
		c1.5-0.6,2.6-2.1,2.6-3.5v-0.1l3.6-40.1C248.3,181.6,247.9,180.8,247.3,180.2z M96.3,98.2h-7.3c-5.5,0-9.9-4.5-9.9-9.9
		s4.5-9.9,9.9-9.9h16.5c1.6,0,2.8-1.3,2.8-2.8s-1.3-2.8-2.8-2.8H93.6v-8.1c0-1.6-1.3-2.8-2.8-2.8c-1.6,0-2.8,1.3-2.8,2.8v8.2
		l-1.3,0.2C79,74,73.3,80.6,73.3,88.2c0,8.6,7,15.6,15.6,15.6h7.3c5.5,0,9.9,4.5,9.9,9.9s-4.5,9.9-9.9,9.9H79.8
		c-1.6,0-2.8,1.3-2.8,2.8c0,1.6,1.3,2.8,2.8,2.8h8.1v8.1c0,1.6,1.3,2.8,2.8,2.8s2.8-1.3,2.8-2.8v-8.1h2.7c8.6,0,15.6-7,15.6-15.6
		C111.8,105.2,104.8,98.2,96.3,98.2z M95.9,241.5c-0.6-0.6-1.3-0.8-2-0.8s-1.4,0.3-2,0.8l-28.8,28.6c-0.5,0.5-0.8,1.2-0.8,2
		s0.3,1.5,0.8,2c1.1,1,2.9,1.1,4,0l28.8-28.7c0.5-0.5,0.8-1.2,0.8-2C96.7,242.8,96.4,242.1,95.9,241.5z M130.1,169.4
		c-0.5-0.5-1.3-0.8-2-0.8c-0.8,0-1.5,0.3-2,0.8l-25.7,25.7c-1.1,1.1-1.1,2.9,0,4c1.1,1.1,2.9,1.1,4.1,0l25.7-25.7
		c0.5-0.5,0.8-1.2,0.8-2S130.7,169.9,130.1,169.4z M90.3,209.2c-0.6-0.6-1.3-0.8-2-0.8c-0.7,0-1.4,0.3-2,0.8l-60.5,60.3
		c-0.5,0.5-0.8,1.3-0.8,2c0,0.8,0.3,1.5,0.8,2c1.1,1,2.9,1.1,4.1,0l60.4-60.3c0.5-0.5,0.8-1.2,0.8-2
		C91.1,210.4,90.8,209.7,90.3,209.2z M159.9,177.7c-0.6-0.6-1.3-0.8-2-0.8s-1.4,0.3-2,0.8l-50.3,50.1c-0.5,0.5-0.8,1.3-0.8,2
		c0,0.8,0.3,1.5,0.8,2c1.1,1.1,2.9,1.1,4.1,0l50.2-50.1c0.5-0.5,0.8-1.3,0.8-2C160.7,178.9,160.4,178.2,159.9,177.7z M96.3,98.2
		h-7.3c-5.5,0-9.9-4.5-9.9-9.9s4.5-9.9,9.9-9.9h16.5c1.6,0,2.8-1.3,2.8-2.8s-1.3-2.8-2.8-2.8H93.6v-8.1c0-1.6-1.3-2.8-2.8-2.8
		c-1.6,0-2.8,1.3-2.8,2.8v8.2l-1.3,0.2C79,74,73.3,80.6,73.3,88.2c0,8.6,7,15.6,15.6,15.6h7.3c5.5,0,9.9,4.5,9.9,9.9
		s-4.5,9.9-9.9,9.9H79.8c-1.6,0-2.8,1.3-2.8,2.8c0,1.6,1.3,2.8,2.8,2.8h8.1v8.1c0,1.6,1.3,2.8,2.8,2.8s2.8-1.3,2.8-2.8v-8.1h2.7
		c8.6,0,15.6-7,15.6-15.6C111.8,105.2,104.8,98.2,96.3,98.2z M96.3,98.2h-7.3c-5.5,0-9.9-4.5-9.9-9.9s4.5-9.9,9.9-9.9h16.5
		c1.6,0,2.8-1.3,2.8-2.8s-1.3-2.8-2.8-2.8H93.6v-8.1c0-1.6-1.3-2.8-2.8-2.8c-1.6,0-2.8,1.3-2.8,2.8v8.2l-1.3,0.2
		C79,74,73.3,80.6,73.3,88.2c0,8.6,7,15.6,15.6,15.6h7.3c5.5,0,9.9,4.5,9.9,9.9s-4.5,9.9-9.9,9.9H79.8c-1.6,0-2.8,1.3-2.8,2.8
		c0,1.6,1.3,2.8,2.8,2.8h8.1v8.1c0,1.6,1.3,2.8,2.8,2.8s2.8-1.3,2.8-2.8v-8.1h2.7c8.6,0,15.6-7,15.6-15.6
		C111.8,105.2,104.8,98.2,96.3,98.2z M96.3,98.2h-7.3c-5.5,0-9.9-4.5-9.9-9.9s4.5-9.9,9.9-9.9h16.5c1.6,0,2.8-1.3,2.8-2.8
		s-1.3-2.8-2.8-2.8H93.6v-8.1c0-1.6-1.3-2.8-2.8-2.8c-1.6,0-2.8,1.3-2.8,2.8v8.2l-1.3,0.2C79,74,73.3,80.6,73.3,88.2
		c0,8.6,7,15.6,15.6,15.6h7.3c5.5,0,9.9,4.5,9.9,9.9s-4.5,9.9-9.9,9.9H79.8c-1.6,0-2.8,1.3-2.8,2.8c0,1.6,1.3,2.8,2.8,2.8h8.1v8.1
		c0,1.6,1.3,2.8,2.8,2.8s2.8-1.3,2.8-2.8v-8.1h2.7c8.6,0,15.6-7,15.6-15.6C111.8,105.2,104.8,98.2,96.3,98.2z M96.3,98.2h-7.3
		c-5.5,0-9.9-4.5-9.9-9.9s4.5-9.9,9.9-9.9h16.5c1.6,0,2.8-1.3,2.8-2.8s-1.3-2.8-2.8-2.8H93.6v-8.1c0-1.6-1.3-2.8-2.8-2.8
		c-1.6,0-2.8,1.3-2.8,2.8v8.2l-1.3,0.2C79,74,73.3,80.6,73.3,88.2c0,8.6,7,15.6,15.6,15.6h7.3c5.5,0,9.9,4.5,9.9,9.9
		s-4.5,9.9-9.9,9.9H79.8c-1.6,0-2.8,1.3-2.8,2.8c0,1.6,1.3,2.8,2.8,2.8h8.1v8.1c0,1.6,1.3,2.8,2.8,2.8s2.8-1.3,2.8-2.8v-8.1h2.7
		c8.6,0,15.6-7,15.6-15.6C111.8,105.2,104.8,98.2,96.3,98.2z M96.3,98.2h-7.3c-5.5,0-9.9-4.5-9.9-9.9s4.5-9.9,9.9-9.9h16.5
		c1.6,0,2.8-1.3,2.8-2.8s-1.3-2.8-2.8-2.8H93.6v-8.1c0-1.6-1.3-2.8-2.8-2.8c-1.6,0-2.8,1.3-2.8,2.8v8.2l-1.3,0.2
		C79,74,73.3,80.6,73.3,88.2c0,8.6,7,15.6,15.6,15.6h7.3c5.5,0,9.9,4.5,9.9,9.9s-4.5,9.9-9.9,9.9H79.8c-1.6,0-2.8,1.3-2.8,2.8
		c0,1.6,1.3,2.8,2.8,2.8h8.1v8.1c0,1.6,1.3,2.8,2.8,2.8s2.8-1.3,2.8-2.8v-8.1h2.7c8.6,0,15.6-7,15.6-15.6
		C111.8,105.2,104.8,98.2,96.3,98.2z M96.3,98.2h-7.3c-5.5,0-9.9-4.5-9.9-9.9s4.5-9.9,9.9-9.9h16.5c1.6,0,2.8-1.3,2.8-2.8
		s-1.3-2.8-2.8-2.8H93.6v-8.1c0-1.6-1.3-2.8-2.8-2.8c-1.6,0-2.8,1.3-2.8,2.8v8.2l-1.3,0.2C79,74,73.3,80.6,73.3,88.2
		c0,8.6,7,15.6,15.6,15.6h7.3c5.5,0,9.9,4.5,9.9,9.9s-4.5,9.9-9.9,9.9H79.8c-1.6,0-2.8,1.3-2.8,2.8c0,1.6,1.3,2.8,2.8,2.8h8.1v8.1
		c0,1.6,1.3,2.8,2.8,2.8s2.8-1.3,2.8-2.8v-8.1h2.7c8.6,0,15.6-7,15.6-15.6C111.8,105.2,104.8,98.2,96.3,98.2z M96.3,98.2h-7.3
		c-5.5,0-9.9-4.5-9.9-9.9s4.5-9.9,9.9-9.9h16.5c1.6,0,2.8-1.3,2.8-2.8s-1.3-2.8-2.8-2.8H93.6v-8.1c0-1.6-1.3-2.8-2.8-2.8
		c-1.6,0-2.8,1.3-2.8,2.8v8.2l-1.3,0.2C79,74,73.3,80.6,73.3,88.2c0,8.6,7,15.6,15.6,15.6h7.3c5.5,0,9.9,4.5,9.9,9.9
		s-4.5,9.9-9.9,9.9H79.8c-1.6,0-2.8,1.3-2.8,2.8c0,1.6,1.3,2.8,2.8,2.8h8.1v8.1c0,1.6,1.3,2.8,2.8,2.8s2.8-1.3,2.8-2.8v-8.1h2.7
		c8.6,0,15.6-7,15.6-15.6C111.8,105.2,104.8,98.2,96.3,98.2z M96.3,98.2h-7.3c-5.5,0-9.9-4.5-9.9-9.9s4.5-9.9,9.9-9.9h16.5
		c1.6,0,2.8-1.3,2.8-2.8s-1.3-2.8-2.8-2.8H93.6v-8.1c0-1.6-1.3-2.8-2.8-2.8c-1.6,0-2.8,1.3-2.8,2.8v8.2l-1.3,0.2
		C79,74,73.3,80.6,73.3,88.2c0,8.6,7,15.6,15.6,15.6h7.3c5.5,0,9.9,4.5,9.9,9.9s-4.5,9.9-9.9,9.9H79.8c-1.6,0-2.8,1.3-2.8,2.8
		c0,1.6,1.3,2.8,2.8,2.8h8.1v8.1c0,1.6,1.3,2.8,2.8,2.8s2.8-1.3,2.8-2.8v-8.1h2.7c8.6,0,15.6-7,15.6-15.6
		C111.8,105.2,104.8,98.2,96.3,98.2z M96.3,98.2h-7.3c-5.5,0-9.9-4.5-9.9-9.9s4.5-9.9,9.9-9.9h16.5c1.6,0,2.8-1.3,2.8-2.8
		s-1.3-2.8-2.8-2.8H93.6v-8.1c0-1.6-1.3-2.8-2.8-2.8c-1.6,0-2.8,1.3-2.8,2.8v8.2l-1.3,0.2C79,74,73.3,80.6,73.3,88.2
		c0,8.6,7,15.6,15.6,15.6h7.3c5.5,0,9.9,4.5,9.9,9.9s-4.5,9.9-9.9,9.9H79.8c-1.6,0-2.8,1.3-2.8,2.8c0,1.6,1.3,2.8,2.8,2.8h8.1v8.1
		c0,1.6,1.3,2.8,2.8,2.8s2.8-1.3,2.8-2.8v-8.1h2.7c8.6,0,15.6-7,15.6-15.6C111.8,105.2,104.8,98.2,96.3,98.2z M96.3,98.2h-7.3
		c-5.5,0-9.9-4.5-9.9-9.9s4.5-9.9,9.9-9.9h16.5c1.6,0,2.8-1.3,2.8-2.8s-1.3-2.8-2.8-2.8H93.6v-8.1c0-1.6-1.3-2.8-2.8-2.8
		c-1.6,0-2.8,1.3-2.8,2.8v8.2l-1.3,0.2C79,74,73.3,80.6,73.3,88.2c0,8.6,7,15.6,15.6,15.6h7.3c5.5,0,9.9,4.5,9.9,9.9
		s-4.5,9.9-9.9,9.9H79.8c-1.6,0-2.8,1.3-2.8,2.8c0,1.6,1.3,2.8,2.8,2.8h8.1v8.1c0,1.6,1.3,2.8,2.8,2.8s2.8-1.3,2.8-2.8v-8.1h2.7
		c8.6,0,15.6-7,15.6-15.6C111.8,105.2,104.8,98.2,96.3,98.2z M96.3,98.2h-7.3c-5.5,0-9.9-4.5-9.9-9.9s4.5-9.9,9.9-9.9h16.5
		c1.6,0,2.8-1.3,2.8-2.8s-1.3-2.8-2.8-2.8H93.6v-8.1c0-1.6-1.3-2.8-2.8-2.8c-1.6,0-2.8,1.3-2.8,2.8v8.2l-1.3,0.2
		C79,74,73.3,80.6,73.3,88.2c0,8.6,7,15.6,15.6,15.6h7.3c5.5,0,9.9,4.5,9.9,9.9s-4.5,9.9-9.9,9.9H79.8c-1.6,0-2.8,1.3-2.8,2.8
		c0,1.6,1.3,2.8,2.8,2.8h8.1v8.1c0,1.6,1.3,2.8,2.8,2.8s2.8-1.3,2.8-2.8v-8.1h2.7c8.6,0,15.6-7,15.6-15.6
		C111.8,105.2,104.8,98.2,96.3,98.2z M96.3,98.2h-7.3c-5.5,0-9.9-4.5-9.9-9.9s4.5-9.9,9.9-9.9h16.5c1.6,0,2.8-1.3,2.8-2.8
		s-1.3-2.8-2.8-2.8H93.6v-8.1c0-1.6-1.3-2.8-2.8-2.8c-1.6,0-2.8,1.3-2.8,2.8v8.2l-1.3,0.2C79,74,73.3,80.6,73.3,88.2
		c0,8.6,7,15.6,15.6,15.6h7.3c5.5,0,9.9,4.5,9.9,9.9s-4.5,9.9-9.9,9.9H79.8c-1.6,0-2.8,1.3-2.8,2.8c0,1.6,1.3,2.8,2.8,2.8h8.1v8.1
		c0,1.6,1.3,2.8,2.8,2.8s2.8-1.3,2.8-2.8v-8.1h2.7c8.6,0,15.6-7,15.6-15.6C111.8,105.2,104.8,98.2,96.3,98.2z M96.3,98.2h-7.3
		c-5.5,0-9.9-4.5-9.9-9.9s4.5-9.9,9.9-9.9h16.5c1.6,0,2.8-1.3,2.8-2.8s-1.3-2.8-2.8-2.8H93.6v-8.1c0-1.6-1.3-2.8-2.8-2.8
		c-1.6,0-2.8,1.3-2.8,2.8v8.2l-1.3,0.2C79,74,73.3,80.6,73.3,88.2c0,8.6,7,15.6,15.6,15.6h7.3c5.5,0,9.9,4.5,9.9,9.9
		s-4.5,9.9-9.9,9.9H79.8c-1.6,0-2.8,1.3-2.8,2.8c0,1.6,1.3,2.8,2.8,2.8h8.1v8.1c0,1.6,1.3,2.8,2.8,2.8s2.8-1.3,2.8-2.8v-8.1h2.7
		c8.6,0,15.6-7,15.6-15.6C111.8,105.2,104.8,98.2,96.3,98.2z M274.2,25.9c-0.6-0.7-1.6-1-2.6-0.8L169.4,42.7c-2.8,0.2-5.2,2-6.1,4.7
		c-1,2.6-0.3,5.5,1.7,7.6l16,15.9l-21.9,21.9l-0.6-2.7c-6.6-31.3-33.7-53.2-65.9-53.2C55.2,36.8,25,66.9,25,104
		c0,32.1,21.9,59.1,53.4,65.7l2.7,0.6l-25.3,25.2c-0.5,0.5-0.8,1.2-0.8,2c0,0.8,0.3,1.5,0.8,2c1.1,1.1,2.9,1.1,4.1,0L183.8,75.9
		c1.4-1.4,2.1-3.2,2.1-5.1s-0.8-3.7-2.1-5.1l-16.6-17l101.3-17.4l-19.9,95.2c0,0.1,0,0.3-0.1,0.4l-0.6,2.6l-16.8-16.8
		c-1.3-1.3-3.1-2.1-5.1-2.1c-1.9,0-3.7,0.8-5.1,2.1l-54,53.8c-1.1,1.1-1.1,2.9,0,4c1.1,1.1,2.9,1.1,4,0l54.9-54.8l16,15.9
		c2,2,4.9,2.6,7.6,1.7c2.6-0.9,4.4-3.2,4.7-5.9l0-0.1l20.7-98.9C275.1,27.5,274.9,26.6,274.2,25.9z M153.3,98.3l-67.1,66.9l-0.7-0.1
		c-31.2-3.5-54.8-29.8-54.8-61.1c0-33.9,27.7-61.5,61.7-61.5c31.5,0,57.8,23.5,61.3,54.7l0.1,0.7L153.3,98.3z M96.3,98.2h-7.3
		c-5.5,0-9.9-4.5-9.9-9.9s4.5-9.9,9.9-9.9h16.5c1.6,0,2.8-1.3,2.8-2.8s-1.3-2.8-2.8-2.8H93.6v-8.1c0-1.6-1.3-2.8-2.8-2.8
		c-1.6,0-2.8,1.3-2.8,2.8v8.2l-1.3,0.2C79,74,73.3,80.6,73.3,88.2c0,8.6,7,15.6,15.6,15.6h7.3c5.5,0,9.9,4.5,9.9,9.9
		s-4.5,9.9-9.9,9.9H79.8c-1.6,0-2.8,1.3-2.8,2.8c0,1.6,1.3,2.8,2.8,2.8h8.1v8.1c0,1.6,1.3,2.8,2.8,2.8s2.8-1.3,2.8-2.8v-8.1h2.7
		c8.6,0,15.6-7,15.6-15.6C111.8,105.2,104.8,98.2,96.3,98.2z M96.3,98.2h-7.3c-5.5,0-9.9-4.5-9.9-9.9s4.5-9.9,9.9-9.9h16.5
		c1.6,0,2.8-1.3,2.8-2.8s-1.3-2.8-2.8-2.8H93.6v-8.1c0-1.6-1.3-2.8-2.8-2.8c-1.6,0-2.8,1.3-2.8,2.8v8.2l-1.3,0.2
		C79,74,73.3,80.6,73.3,88.2c0,8.6,7,15.6,15.6,15.6h7.3c5.5,0,9.9,4.5,9.9,9.9s-4.5,9.9-9.9,9.9H79.8c-1.6,0-2.8,1.3-2.8,2.8
		c0,1.6,1.3,2.8,2.8,2.8h8.1v8.1c0,1.6,1.3,2.8,2.8,2.8s2.8-1.3,2.8-2.8v-8.1h2.7c8.6,0,15.6-7,15.6-15.6
		C111.8,105.2,104.8,98.2,96.3,98.2z M96.3,98.2h-7.3c-5.5,0-9.9-4.5-9.9-9.9s4.5-9.9,9.9-9.9h16.5c1.6,0,2.8-1.3,2.8-2.8
		s-1.3-2.8-2.8-2.8H93.6v-8.1c0-1.6-1.3-2.8-2.8-2.8c-1.6,0-2.8,1.3-2.8,2.8v8.2l-1.3,0.2C79,74,73.3,80.6,73.3,88.2
		c0,8.6,7,15.6,15.6,15.6h7.3c5.5,0,9.9,4.5,9.9,9.9s-4.5,9.9-9.9,9.9H79.8c-1.6,0-2.8,1.3-2.8,2.8c0,1.6,1.3,2.8,2.8,2.8h8.1v8.1
		c0,1.6,1.3,2.8,2.8,2.8s2.8-1.3,2.8-2.8v-8.1h2.7c8.6,0,15.6-7,15.6-15.6C111.8,105.2,104.8,98.2,96.3,98.2z M96.3,98.2h-7.3
		c-5.5,0-9.9-4.5-9.9-9.9s4.5-9.9,9.9-9.9h16.5c1.6,0,2.8-1.3,2.8-2.8s-1.3-2.8-2.8-2.8H93.6v-8.1c0-1.6-1.3-2.8-2.8-2.8
		c-1.6,0-2.8,1.3-2.8,2.8v8.2l-1.3,0.2C79,74,73.3,80.6,73.3,88.2c0,8.6,7,15.6,15.6,15.6h7.3c5.5,0,9.9,4.5,9.9,9.9
		s-4.5,9.9-9.9,9.9H79.8c-1.6,0-2.8,1.3-2.8,2.8c0,1.6,1.3,2.8,2.8,2.8h8.1v8.1c0,1.6,1.3,2.8,2.8,2.8s2.8-1.3,2.8-2.8v-8.1h2.7
		c8.6,0,15.6-7,15.6-15.6C111.8,105.2,104.8,98.2,96.3,98.2z M96.3,98.2h-7.3c-5.5,0-9.9-4.5-9.9-9.9s4.5-9.9,9.9-9.9h16.5
		c1.6,0,2.8-1.3,2.8-2.8s-1.3-2.8-2.8-2.8H93.6v-8.1c0-1.6-1.3-2.8-2.8-2.8c-1.6,0-2.8,1.3-2.8,2.8v8.2l-1.3,0.2
		C79,74,73.3,80.6,73.3,88.2c0,8.6,7,15.6,15.6,15.6h7.3c5.5,0,9.9,4.5,9.9,9.9s-4.5,9.9-9.9,9.9H79.8c-1.6,0-2.8,1.3-2.8,2.8
		c0,1.6,1.3,2.8,2.8,2.8h8.1v8.1c0,1.6,1.3,2.8,2.8,2.8s2.8-1.3,2.8-2.8v-8.1h2.7c8.6,0,15.6-7,15.6-15.6
		C111.8,105.2,104.8,98.2,96.3,98.2z M96.3,98.2h-7.3c-5.5,0-9.9-4.5-9.9-9.9s4.5-9.9,9.9-9.9h16.5c1.6,0,2.8-1.3,2.8-2.8
		s-1.3-2.8-2.8-2.8H93.6v-8.1c0-1.6-1.3-2.8-2.8-2.8c-1.6,0-2.8,1.3-2.8,2.8v8.2l-1.3,0.2C79,74,73.3,80.6,73.3,88.2
		c0,8.6,7,15.6,15.6,15.6h7.3c5.5,0,9.9,4.5,9.9,9.9s-4.5,9.9-9.9,9.9H79.8c-1.6,0-2.8,1.3-2.8,2.8c0,1.6,1.3,2.8,2.8,2.8h8.1v8.1
		c0,1.6,1.3,2.8,2.8,2.8s2.8-1.3,2.8-2.8v-8.1h2.7c8.6,0,15.6-7,15.6-15.6C111.8,105.2,104.8,98.2,96.3,98.2z M96.3,98.2h-7.3
		c-5.5,0-9.9-4.5-9.9-9.9s4.5-9.9,9.9-9.9h16.5c1.6,0,2.8-1.3,2.8-2.8s-1.3-2.8-2.8-2.8H93.6v-8.1c0-1.6-1.3-2.8-2.8-2.8
		c-1.6,0-2.8,1.3-2.8,2.8v8.2l-1.3,0.2C79,74,73.3,80.6,73.3,88.2c0,8.6,7,15.6,15.6,15.6h7.3c5.5,0,9.9,4.5,9.9,9.9
		s-4.5,9.9-9.9,9.9H79.8c-1.6,0-2.8,1.3-2.8,2.8c0,1.6,1.3,2.8,2.8,2.8h8.1v8.1c0,1.6,1.3,2.8,2.8,2.8s2.8-1.3,2.8-2.8v-8.1h2.7
		c8.6,0,15.6-7,15.6-15.6C111.8,105.2,104.8,98.2,96.3,98.2z M96.3,98.2h-7.3c-5.5,0-9.9-4.5-9.9-9.9s4.5-9.9,9.9-9.9h16.5
		c1.6,0,2.8-1.3,2.8-2.8s-1.3-2.8-2.8-2.8H93.6v-8.1c0-1.6-1.3-2.8-2.8-2.8c-1.6,0-2.8,1.3-2.8,2.8v8.2l-1.3,0.2
		C79,74,73.3,80.6,73.3,88.2c0,8.6,7,15.6,15.6,15.6h7.3c5.5,0,9.9,4.5,9.9,9.9s-4.5,9.9-9.9,9.9H79.8c-1.6,0-2.8,1.3-2.8,2.8
		c0,1.6,1.3,2.8,2.8,2.8h8.1v8.1c0,1.6,1.3,2.8,2.8,2.8s2.8-1.3,2.8-2.8v-8.1h2.7c8.6,0,15.6-7,15.6-15.6
		C111.8,105.2,104.8,98.2,96.3,98.2z M96.3,98.2h-7.3c-5.5,0-9.9-4.5-9.9-9.9s4.5-9.9,9.9-9.9h16.5c1.6,0,2.8-1.3,2.8-2.8
		s-1.3-2.8-2.8-2.8H93.6v-8.1c0-1.6-1.3-2.8-2.8-2.8c-1.6,0-2.8,1.3-2.8,2.8v8.2l-1.3,0.2C79,74,73.3,80.6,73.3,88.2
		c0,8.6,7,15.6,15.6,15.6h7.3c5.5,0,9.9,4.5,9.9,9.9s-4.5,9.9-9.9,9.9H79.8c-1.6,0-2.8,1.3-2.8,2.8c0,1.6,1.3,2.8,2.8,2.8h8.1v8.1
		c0,1.6,1.3,2.8,2.8,2.8s2.8-1.3,2.8-2.8v-8.1h2.7c8.6,0,15.6-7,15.6-15.6C111.8,105.2,104.8,98.2,96.3,98.2z M96.3,98.2h-7.3
		c-5.5,0-9.9-4.5-9.9-9.9s4.5-9.9,9.9-9.9h16.5c1.6,0,2.8-1.3,2.8-2.8s-1.3-2.8-2.8-2.8H93.6v-8.1c0-1.6-1.3-2.8-2.8-2.8
		c-1.6,0-2.8,1.3-2.8,2.8v8.2l-1.3,0.2C79,74,73.3,80.6,73.3,88.2c0,8.6,7,15.6,15.6,15.6h7.3c5.5,0,9.9,4.5,9.9,9.9
		s-4.5,9.9-9.9,9.9H79.8c-1.6,0-2.8,1.3-2.8,2.8c0,1.6,1.3,2.8,2.8,2.8h8.1v8.1c0,1.6,1.3,2.8,2.8,2.8s2.8-1.3,2.8-2.8v-8.1h2.7
		c8.6,0,15.6-7,15.6-15.6C111.8,105.2,104.8,98.2,96.3,98.2z M96.3,98.2h-7.3c-5.5,0-9.9-4.5-9.9-9.9s4.5-9.9,9.9-9.9h16.5
		c1.6,0,2.8-1.3,2.8-2.8s-1.3-2.8-2.8-2.8H93.6v-8.1c0-1.6-1.3-2.8-2.8-2.8c-1.6,0-2.8,1.3-2.8,2.8v8.2l-1.3,0.2
		C79,74,73.3,80.6,73.3,88.2c0,8.6,7,15.6,15.6,15.6h7.3c5.5,0,9.9,4.5,9.9,9.9s-4.5,9.9-9.9,9.9H79.8c-1.6,0-2.8,1.3-2.8,2.8
		c0,1.6,1.3,2.8,2.8,2.8h8.1v8.1c0,1.6,1.3,2.8,2.8,2.8s2.8-1.3,2.8-2.8v-8.1h2.7c8.6,0,15.6-7,15.6-15.6
		C111.8,105.2,104.8,98.2,96.3,98.2z M96.3,98.2h-7.3c-5.5,0-9.9-4.5-9.9-9.9s4.5-9.9,9.9-9.9h16.5c1.6,0,2.8-1.3,2.8-2.8
		s-1.3-2.8-2.8-2.8H93.6v-8.1c0-1.6-1.3-2.8-2.8-2.8c-1.6,0-2.8,1.3-2.8,2.8v8.2l-1.3,0.2C79,74,73.3,80.6,73.3,88.2
		c0,8.6,7,15.6,15.6,15.6h7.3c5.5,0,9.9,4.5,9.9,9.9s-4.5,9.9-9.9,9.9H79.8c-1.6,0-2.8,1.3-2.8,2.8c0,1.6,1.3,2.8,2.8,2.8h8.1v8.1
		c0,1.6,1.3,2.8,2.8,2.8s2.8-1.3,2.8-2.8v-8.1h2.7c8.6,0,15.6-7,15.6-15.6C111.8,105.2,104.8,98.2,96.3,98.2z M96.3,98.2h-7.3
		c-5.5,0-9.9-4.5-9.9-9.9s4.5-9.9,9.9-9.9h16.5c1.6,0,2.8-1.3,2.8-2.8s-1.3-2.8-2.8-2.8H93.6v-8.1c0-1.6-1.3-2.8-2.8-2.8
		c-1.6,0-2.8,1.3-2.8,2.8v8.2l-1.3,0.2C79,74,73.3,80.6,73.3,88.2c0,8.6,7,15.6,15.6,15.6h7.3c5.5,0,9.9,4.5,9.9,9.9
		s-4.5,9.9-9.9,9.9H79.8c-1.6,0-2.8,1.3-2.8,2.8c0,1.6,1.3,2.8,2.8,2.8h8.1v8.1c0,1.6,1.3,2.8,2.8,2.8s2.8-1.3,2.8-2.8v-8.1h2.7
		c8.6,0,15.6-7,15.6-15.6C111.8,105.2,104.8,98.2,96.3,98.2z"/>
</g>
</svg>
