<?xml version="1.0" encoding="utf-8"?>
<!-- Generator: Adobe Illustrator 26.3.1, SVG Export Plug-In . SVG Version: 6.00 Build 0)  -->
<svg version="1.1" id="Layer_1" xmlns="http://www.w3.org/2000/svg" xmlns:xlink="http://www.w3.org/1999/xlink" x="0px" y="0px"
	 viewBox="0 0 300 300" style="enable-background:new 0 0 300 300;" xml:space="preserve">
<style type="text/css">
	.st0{fill:#00457F;}
</style>
<g>
	<g>
		<path class="st0" d="M273,138c-0.4-3.1-0.8-6.2-1.4-9.3c-6-32.4-22.5-58.8-49.2-78.5c-21.3-15.7-45.3-23.7-71.3-23.7
			c-0.9,0-1.9,0-2.8,0C110,27.4,78.1,43.1,53.5,73.3c-14.9,18.3-23.7,39.9-26.3,64.1c-0.4,3.8-0.6,7.9-0.6,12.8
			c0,16.7,0,33.5,0,50.2c0,22.6,0,45.2,0,67.8c0,2.8,0.7,4.3,2.6,5.3h128.6c1.4-0.2,2.8-0.4,4.1-0.5c3-0.4,6.1-0.8,9.1-1.3
			c30.4-5.5,55.7-20.5,75.3-44.7c15-18.5,23.9-40.2,26.6-64.5c0.1-1.2,0.3-2.4,0.4-3.6l0.2-1.6v-15C273.3,140.8,273.2,139.4,273,138
			z M33.6,266.5l0-38.9c0-25.3,0-50.7,0-76c0-36.6,14.1-67.1,41.7-90.8c17.5-15,37.8-23.9,60.3-26.3c5.2-0.6,10.3-0.9,15.3-0.9
			c34.6,0,64.3,13.9,88.3,41.4c14.6,16.8,23.6,37.2,26.5,60.5c7.3,57.7-29.7,112.3-86,127.1c-9.6,2.5-19.3,3.8-28.8,3.8
			c-17.3,0-34.7,0-52,0H33.6z"/>
	</g>
	<g>
		<path class="st0" d="M221.9,118.6c-0.7-1.1-1.9-1.7-3.3-1.7c-4.6,0-9.1,0-13.7,0l-22.7,0v-2.4c0-0.6,0-1.1,0-1.6c0-1,0-1.9,0-2.9
			c0.7-11.2,1.4-22.4,2.1-33.6l0.1-1.8c0.1-1.6-0.2-3-0.8-3.8c-0.5-0.7-1.4-1.1-2.5-1.2h-0.3c-2,0-3.2,1.5-3.3,4.4
			c-0.5,8.6-1.1,17.2-1.6,25.8c-0.2,3.4-0.5,6.8-0.7,10.2l-0.5,6.5h-45.4l1.3-21.2c0.4-7.2,0.9-14.4,1.3-21.5
			c0.1-2.3-0.7-3.1-1.6-3.7c-0.7-0.4-1.4-0.6-2.1-0.6c-1.8,0-3.2,1.5-3.3,3.6c-0.3,4.9-0.6,9.8-0.9,14.8c-0.2,3.7-0.4,7.5-0.7,11.2
			c-0.2,3.5-0.4,6.9-0.7,10.5l-0.5,7h-21.8c-4.8,0-9.6,0-14.4,0c-2.5,0-3.2,1-3.6,2.1c-0.5,1.3-0.4,2.5,0.2,3.4c0.7,1,2,1.6,3.7,1.6
			c4.1,0,8.2,0,12.3,0l23.2,0l-3.2,52l-22.3,0c-4.9,0-9.7,0-14.6,0c-2.5,0-3.2,0.8-3.7,2.2c-0.4,1.3-0.3,2.4,0.3,3.3
			c0.7,1,2,1.5,3.6,1.5c4.4,0,8.8,0,13.2,0l23.2,0l-0.4,6.8c-0.2,3.2-0.4,6.3-0.5,9.4c-0.2,3.5-0.5,7.1-0.7,10.6
			c-0.3,5.4-0.7,10.7-1,16.1c-0.2,3,1.5,3.7,2,3.9c0.5,0.2,1,0.3,1.5,0.3c1.9,0,3.4-1.6,3.5-3.8c0.3-4.4,0.5-8.7,0.8-13
			c0.2-4.1,0.5-8.2,0.8-12.2c0.2-3.6,0.5-7.1,0.7-10.7l0.5-7.1h45.5l-0.4,6.6l-0.6,10c-0.5,8.6-1.1,17.5-1.6,26.3
			c-0.1,1.3,0.2,2.3,0.9,3c0.7,0.8,1.8,1,2.6,1h0.2c2.9,0,3.4-2.7,3.4-3.8c0.2-3.7,0.4-7.4,0.7-11.1c0.3-5.1,0.6-10.3,0.9-15.4
			c0.2-3.3,0.4-6.5,0.6-9.9l0.5-7l22.1,0c4.6,0,9.1,0,13.7,0c2,0,4.3-0.6,4.3-3.6c0-0.9,0-3.4-4.3-3.5c-4.1,0-8.2,0-12.3,0l-23,0
			l3.2-52h13.8c0,0,18,0,22.7,0c2.4,0,3.3-0.7,3.8-1.8C222.5,120.9,222.5,119.6,221.9,118.6z M125.6,175.7l3.2-51.7h45.6l-3.2,51.7
			H125.6z"/>
	</g>
</g>
</svg>
