<svg width="84" height="84" viewBox="0 0 84 84" fill="none" xmlns="http://www.w3.org/2000/svg">
<path d="M72.1875 2.625H11.8125C11.4644 2.625 11.1306 2.76328 10.8844 3.00942C10.6383 3.25556 10.5 3.5894 10.5 3.9375V53.8125C10.5 54.1606 10.6383 54.4944 10.8844 54.7406C11.1306 54.9867 11.4644 55.125 11.8125 55.125H24.4181C26.4425 59.4273 29.0722 63.4177 32.2272 66.9749C27.6216 68.3979 24.9375 70.7634 24.9375 73.5C24.9375 77.9893 32.2729 81.375 42 81.375C51.7271 81.375 59.0625 77.9893 59.0625 73.5C59.0625 70.7726 56.3921 68.4117 51.8107 66.9871C54.9711 63.4319 57.5978 59.4361 59.6082 55.125H72.1875C72.5356 55.125 72.8694 54.9867 73.1156 54.7406C73.3617 54.4944 73.5 54.1606 73.5 53.8125V3.9375C73.5 3.5894 73.3617 3.25556 73.1156 3.00942C72.8694 2.76328 72.5356 2.625 72.1875 2.625ZM13.125 5.25H70.875V18.375H13.125V5.25ZM42.0038 73.0892C38.4842 70.0085 24.9375 57.4206 24.9375 46.2137C24.9011 43.95 25.3155 41.7016 26.1567 39.5996C26.9978 37.4976 28.2488 35.584 29.8368 33.9702C31.4248 32.3565 33.3181 31.0749 35.4063 30.2C37.4945 29.3252 39.7359 28.8747 42 28.8747C44.2641 28.8747 46.5055 29.3252 48.5937 30.2C50.6819 31.0749 52.5752 32.3565 54.1632 33.9702C55.7512 35.584 57.0022 37.4976 57.8433 39.5996C58.6845 41.7016 59.0989 43.95 59.0625 46.2137C59.0625 57.5481 45.5273 70.0323 42.0038 73.0892ZM56.4375 73.5C56.4375 75.9782 50.2634 78.75 42 78.75C33.7366 78.75 27.5625 75.9782 27.5625 73.5C27.5625 72.1768 29.6636 70.3104 34.1879 69.1683C36.3726 71.5336 38.7046 73.7585 41.1701 75.8296C41.4036 76.02 41.6954 76.1243 41.9967 76.125C42.298 76.1257 42.5904 76.0228 42.8248 75.8334C45.3071 73.7685 47.6531 71.5451 49.8482 69.1771C54.3475 70.321 56.4375 72.1825 56.4375 73.5ZM60.6108 52.5C61.2972 50.474 61.6605 48.3526 61.6875 46.2137C61.7239 43.6052 61.2416 41.0155 60.2685 38.595C59.2954 36.1745 57.8511 33.9715 56.0193 32.114C54.1875 30.2565 52.0049 28.7815 49.5982 27.7748C47.1915 26.768 44.6088 26.2496 42 26.2496C39.3912 26.2496 36.8085 26.768 34.4018 27.7748C31.9951 28.7815 29.8125 30.2565 27.9807 32.114C26.1489 33.9715 24.7046 36.1745 23.7315 38.595C22.7584 41.0155 22.2761 43.6052 22.3125 46.2137C22.3409 48.3538 22.7097 50.4758 23.405 52.5H13.125V21H70.875V52.5H60.6108Z" fill="#0D78B4"/>
<path d="M64.3125 7.875C63.5337 7.875 62.7725 8.10593 62.1249 8.53859C61.4774 8.97125 60.9727 9.5862 60.6747 10.3057C60.3767 11.0252 60.2987 11.8169 60.4507 12.5807C60.6026 13.3445 60.9776 14.0461 61.5283 14.5967C62.0789 15.1474 62.7805 15.5224 63.5443 15.6743C64.3081 15.8263 65.0998 15.7483 65.8193 15.4503C66.5388 15.1523 67.1538 14.6476 67.5864 14.0001C68.0191 13.3525 68.25 12.5913 68.25 11.8125C68.2489 10.7686 67.8337 9.7677 67.0955 9.02953C66.3573 8.29135 65.3564 7.87614 64.3125 7.875ZM64.3125 13.125C64.0529 13.125 63.7992 13.048 63.5833 12.9038C63.3675 12.7596 63.1993 12.5546 63.0999 12.3148C63.0006 12.0749 62.9746 11.811 63.0252 11.5564C63.0759 11.3018 63.2009 11.068 63.3844 10.8844C63.568 10.7009 63.8018 10.5759 64.0564 10.5252C64.311 10.4746 64.5749 10.5006 64.8148 10.5999C65.0546 10.6992 65.2596 10.8675 65.4038 11.0833C65.548 11.2992 65.625 11.5529 65.625 11.8125C65.6246 12.1605 65.4861 12.494 65.2401 12.7401C64.994 12.9861 64.6605 13.1245 64.3125 13.125Z" fill="#0D78B4"/>
<path d="M53.8125 7.875C53.0337 7.875 52.2725 8.10593 51.6249 8.53859C50.9774 8.97125 50.4727 9.5862 50.1747 10.3057C49.8767 11.0252 49.7987 11.8169 49.9507 12.5807C50.1026 13.3445 50.4776 14.0461 51.0283 14.5967C51.5789 15.1474 52.2805 15.5224 53.0443 15.6743C53.8081 15.8263 54.5998 15.7483 55.3193 15.4503C56.0388 15.1523 56.6538 14.6476 57.0864 14.0001C57.5191 13.3525 57.75 12.5913 57.75 11.8125C57.7489 10.7686 57.3337 9.7677 56.5955 9.02953C55.8573 8.29135 54.8564 7.87614 53.8125 7.875ZM53.8125 13.125C53.5529 13.125 53.2992 13.048 53.0833 12.9038C52.8675 12.7596 52.6993 12.5546 52.5999 12.3148C52.5006 12.0749 52.4746 11.811 52.5252 11.5564C52.5759 11.3018 52.7009 11.068 52.8844 10.8844C53.068 10.7009 53.3018 10.5759 53.5564 10.5252C53.811 10.4746 54.0749 10.5006 54.3148 10.5999C54.5546 10.6992 54.7596 10.8675 54.9038 11.0833C55.048 11.2992 55.125 11.5529 55.125 11.8125C55.1246 12.1605 54.9861 12.494 54.7401 12.7401C54.494 12.9861 54.1605 13.1245 53.8125 13.125Z" fill="#0D78B4"/>
<path d="M35.4375 7.875H17.0625C16.7144 7.875 16.3806 8.01328 16.1344 8.25942C15.8883 8.50556 15.75 8.8394 15.75 9.1875V14.4375C15.75 14.7856 15.8883 15.1194 16.1344 15.3656C16.3806 15.6117 16.7144 15.75 17.0625 15.75H35.4375C35.7856 15.75 36.1194 15.6117 36.3656 15.3656C36.6117 15.1194 36.75 14.7856 36.75 14.4375V9.1875C36.75 8.8394 36.6117 8.50556 36.3656 8.25942C36.1194 8.01328 35.7856 7.875 35.4375 7.875ZM34.125 13.125H18.375V10.5H34.125V13.125Z" fill="#0D78B4"/>
<path d="M42 35.4375C40.1829 35.4375 38.4066 35.9763 36.8957 36.9859C35.3848 37.9954 34.2072 39.4303 33.5119 41.1091C32.8165 42.7879 32.6345 44.6352 32.989 46.4174C33.3435 48.1996 34.2186 49.8367 35.5035 51.1215C36.7884 52.4064 38.4254 53.2815 40.2076 53.636C41.9898 53.9905 43.8371 53.8085 45.5159 53.1131C47.1947 52.4178 48.6296 51.2402 49.6391 49.7293C50.6487 48.2184 51.1875 46.4421 51.1875 44.625C51.1848 42.1892 50.2159 39.8539 48.4935 38.1315C46.7711 36.4091 44.4358 35.4402 42 35.4375ZM42 51.1875C40.7021 51.1875 39.4333 50.8026 38.3541 50.0815C37.2749 49.3604 36.4337 48.3355 35.937 47.1364C35.4403 45.9372 35.3104 44.6177 35.5636 43.3447C35.8168 42.0717 36.4418 40.9024 37.3596 39.9846C38.2774 39.0668 39.4467 38.4418 40.7197 38.1886C41.9927 37.9354 43.3122 38.0653 44.5114 38.562C45.7105 39.0587 46.7354 39.8999 47.4565 40.9791C48.1776 42.0583 48.5625 43.3271 48.5625 44.625C48.5605 46.3649 47.8684 48.0329 46.6381 49.2631C45.4079 50.4934 43.7399 51.1855 42 51.1875Z" fill="#0D78B4"/>
</svg>
