<?xml version="1.0" encoding="utf-8"?>
<!-- Generator: Adobe Illustrator 26.3.1, SVG Export Plug-In . SVG Version: 6.00 Build 0)  -->
<svg version="1.1" id="Layer_1" xmlns="http://www.w3.org/2000/svg" xmlns:xlink="http://www.w3.org/1999/xlink" x="0px" y="0px"
	 viewBox="0 0 300 300" style="enable-background:new 0 0 300 300;" xml:space="preserve">
<style type="text/css">
	.st0{fill:#00457F;}
</style>
<g>
	<g>
		<g>
			<path class="st0" d="M211.3,207.8L192.1,246l18-12c0.7-0.5,1.6-0.4,2.3,0l18,11.9L211.3,207.8z M211.2,233.1
				c-0.5,0-1,0.2-1.4,0.4l-16.4,10.9l17.9-35.6l17.9,35.6l-16.5-10.9C212.2,233.3,211.7,233.1,211.2,233.1z M211.3,207.8L192.1,246
				l18-12c0.7-0.5,1.6-0.4,2.3,0l18,11.9L211.3,207.8z M211.2,233.1c-0.5,0-1,0.2-1.4,0.4l-16.4,10.9l17.9-35.6l17.9,35.6
				l-16.5-10.9C212.2,233.3,211.7,233.1,211.2,233.1z M211.3,207.8L192.1,246l18-12c0.7-0.5,1.6-0.4,2.3,0l18,11.9L211.3,207.8z
				 M211.2,233.1c-0.5,0-1,0.2-1.4,0.4l-16.4,10.9l17.9-35.6l17.9,35.6l-16.5-10.9C212.2,233.3,211.7,233.1,211.2,233.1z"/>
			<path class="st0" d="M271.2,49.3c-1.8-1.9-4.3-2.9-6.9-2.9H35.7c-5.4,0-9.7,4.3-9.7,9.7v163.2c0,5.4,4.3,9.7,9.7,9.7h160.6
				l-11.1,22.2c-0.3,0.6-0.1,1.1-0.1,1.2s0.2,0.6,0.8,0.9l0.1,0c0.2,0.1,0.4,0.2,0.6,0.2c0.2,0,0.5,0,0.8-0.2l-0.3-0.4l0.4,0.3
				l23.6-15.7l23.6,15.7c0.8,0.5,1.7,0.3,2.3-0.5c0.3-0.5,0.3-1.1,0.1-1.6L226,229h38.2c5.3,0,9.7-4.3,9.7-9.7V56
				C273.9,53.5,272.9,51.1,271.2,49.3z M35.7,51.1h228.5c2.9,0,5.1,2.2,5.1,5.1v21.4H30.7V56.1C30.7,53.3,32.9,51.1,35.7,51.1z
				 M230.5,245.9l-18-11.9c-0.7-0.5-1.6-0.5-2.3,0l-18,12l19.2-38.2L230.5,245.9z M269.3,219.4c0,2.8-2.3,5.1-5,5.1h-38.9L214,201.8
				c-0.6-1-1.7-1.6-2.8-1.6c-0.5,0-1.1,0.1-1.6,0.4c-0.5,0.3-0.8,0.7-1.2,1.2l-11.3,22.7H35.7c-2.9,0-5.1-2.2-5.1-5.1V83.7h238.7
				V219.4z"/>
			<path class="st0" d="M211.3,207.8L192.1,246l18-12c0.7-0.5,1.6-0.4,2.3,0l18,11.9L211.3,207.8z M194.7,243l16.6-33.1l16.6,33
				l-14.9-9.9c-1.1-0.7-2.4-0.7-3.4,0L194.7,243z M211.3,207.8L192.1,246l18-12c0.7-0.5,1.6-0.4,2.3,0l18,11.9L211.3,207.8z
				 M194.7,243l16.6-33.1l16.6,33l-14.9-9.9c-1.1-0.7-2.4-0.7-3.4,0L194.7,243z M211.3,207.8L192.1,246l18-12c0.7-0.5,1.6-0.4,2.3,0
				l18,11.9L211.3,207.8z M194.7,243l16.6-33.1l16.6,33l-14.9-9.9c-1.1-0.7-2.4-0.7-3.4,0L194.7,243z M211.3,207.8L192.1,246l18-12
				c0.7-0.5,1.6-0.4,2.3,0l18,11.9L211.3,207.8z M194.7,243l16.6-33.1l16.6,33l-14.9-9.9c-1.1-0.7-2.4-0.7-3.4,0L194.7,243z
				 M211.3,207.8L192.1,246l18-12c0.7-0.5,1.6-0.4,2.3,0l18,11.9L211.3,207.8z M194.7,243l16.6-33.1l16.6,33l-14.9-9.9
				c-1.1-0.7-2.4-0.7-3.4,0L194.7,243z"/>
		</g>
	</g>
	<g>
		<rect x="220.9" y="61.7" class="st0" width="5.2" height="5.2"/>
	</g>
	<g>
		<rect x="237.2" y="61.7" class="st0" width="5.2" height="5.2"/>
	</g>
	<g>
		<rect x="253.5" y="61.7" class="st0" width="5.2" height="5.2"/>
	</g>
	<g>
		<rect x="208.6" y="180.1" class="st0" width="5.2" height="9.2"/>
	</g>
	<g>
		
			<rect x="188.2" y="190.6" transform="matrix(0.7071 -0.7071 0.7071 0.7071 -81.9311 192.0031)" class="st0" width="5.2" height="8.6"/>
	</g>
	<g>
		
			<rect x="227.3" y="192.3" transform="matrix(0.7071 -0.7071 0.7071 0.7071 -69.9809 220.8523)" class="st0" width="8.6" height="5.2"/>
	</g>
	<g>
		<path class="st0" d="M148.3,98.8c-2.8-2.8-6.5-4.4-10.5-4.4H56.1c-8.2,0-14.8,6.6-14.8,14.8v81.6c0,8.2,6.6,14.8,14.8,14.8h81.6
			c8.2,0,14.8-6.6,14.8-14.8v-81.6C152.5,105.3,151,101.6,148.3,98.8z M147.4,190.8c0,5.4-4.4,9.7-9.7,9.7H56.1
			c-5.3,0-9.7-4.3-9.7-9.7v-81.6c0-5.4,4.3-9.7,9.7-9.7h81.6c5.3,0,9.7,4.3,9.7,9.7V190.8z"/>
		<path class="st0" d="M97,110.7c-21.7,0-39.3,17.6-39.3,39.3s17.6,39.3,39.3,39.3s39.3-17.6,39.3-39.3
			C136.2,128.3,118.6,110.7,97,110.7z M97,184.1c-18.8,0-34.1-15.3-34.1-34.1s15.3-34.1,34.1-34.1s34.1,15.3,34.1,34.1
			S115.8,184.1,97,184.1z"/>
		<path class="st0" d="M107.1,154.7c0.9,2.7,0.8,5.7-0.5,8.2c-1.2,2.6-3.4,4.5-6.1,5.5l-1,0.3v4.4h-5.2v-4.4l-1-0.3
			c-3.8-1.3-6.5-4.7-7.1-8.6h5.3c0.6,2.4,2.8,4.1,5.4,4.1c3.1,0,5.6-2.5,5.6-5.6s-2.5-5.6-5.6-5.6c-4.5,0-8.6-3-10.1-7.2
			c-1.9-5.6,1-11.8,6.6-13.7l1-0.4v-4.4h5.2v4.4l1,0.4c3.8,1.3,6.5,4.7,7.1,8.6h-5.3c-0.6-2.4-2.8-4.1-5.4-4.1
			c-3.1,0-5.6,2.5-5.6,5.6c0,3.1,2.5,5.6,5.6,5.6C101.5,147.5,105.6,150.5,107.1,154.7z"/>
	</g>
	<g>
		<path class="st0" d="M256.1,100h-89.8c-0.6,0-1.1,0.5-1.1,1.1v65.3c0,0.6,0.5,1.1,1.1,1.1h89.8c0.7,0,1.1-0.5,1.1-1.1V101
			C257.2,100.4,256.7,100,256.1,100z M252,162.2h-81.6v-57.1H252V162.2z"/>
	</g>
	<g>
		<rect x="188.2" y="114.8" class="st0" width="54.1" height="5.2"/>
	</g>
	<g>
		<rect x="180.1" y="131.1" class="st0" width="62.3" height="5.2"/>
	</g>
	<g>
		<rect x="180.1" y="147.4" class="st0" width="62.3" height="5.2"/>
	</g>
</g>
</svg>
