<?xml version="1.0" encoding="utf-8"?>
<!-- Generator: Adobe Illustrator 26.3.1, SVG Export Plug-In . SVG Version: 6.00 Build 0)  -->
<svg version="1.1" id="Layer_1" xmlns="http://www.w3.org/2000/svg" xmlns:xlink="http://www.w3.org/1999/xlink" x="0px" y="0px"
	 viewBox="0 0 300 300" style="enable-background:new 0 0 300 300;" xml:space="preserve">
<style type="text/css">
	.st0{fill:#FFFFFF;}
	.st1{fill:#00457F;}
</style>
<g>
	<path class="st1" d="M157.15,273.88c-0.85-0.29-1.47-1.06-1.57-1.95l-18.56-157.2c-0.08-0.71,0.16-1.42,0.67-1.93
		c0.63-0.64,1.59-0.86,2.44-0.56c0.33,0.11,0.63,0.3,0.88,0.55l112.39,111.47c0.54,0.54,0.79,1.31,0.66,2.06
		c-0.11,0.62-0.45,1.16-0.96,1.52c-0.51,0.36-1.13,0.51-1.75,0.4l-60.99-10.44c-0.41-0.07-0.82,0.13-1.02,0.5l-29.35,54.48
		c-0.36,0.67-1.03,1.13-1.79,1.22C157.83,274.03,157.48,274,157.15,273.88z M144.07,122.59c-0.24-0.08-0.51-0.07-0.74,0.05
		c-0.37,0.18-0.59,0.58-0.54,0.99l16.22,137.32c0.04,0.37,0.3,0.68,0.65,0.8c0.04,0.01,0.09,0.03,0.14,0.04
		c0.42,0.08,0.84-0.12,1.04-0.49l25.49-47.32c0.48-0.89,1.47-1.37,2.46-1.2l52.98,9.07c0.42,0.07,0.84-0.14,1.03-0.51
		c0.19-0.38,0.12-0.84-0.18-1.14l-98.17-97.37C144.33,122.72,144.21,122.64,144.07,122.59z M112.1,217.01
		c-51.17-17.64-78.45-73.62-60.81-124.79c4.22-12.25,10.72-23.38,19.3-33.08c8.59-9.7,18.85-17.5,30.49-23.17
		c23.57-11.49,50.21-13.11,74.99-4.57c24.79,8.54,44.77,26.23,56.25,49.79c5.71,11.72,8.99,24.27,9.76,37.28
		c0.76,13.01-1.04,25.85-5.35,38.16c-0.43,1.22-1.76,1.86-2.98,1.44c-0.59-0.21-1.07-0.64-1.35-1.21c-0.27-0.56-0.31-1.2-0.1-1.79
		c8.26-23.38,6.73-49.57-4.2-71.84c-10.92-22.4-29.95-39.22-53.57-47.37c-23.63-8.14-48.98-6.61-71.39,4.31
		C80.73,51.11,63.91,70.14,55.76,93.77s-6.61,48.99,4.31,71.39c10.68,22.08,30.12,39.33,53.32,47.33l0.67,0.23
		c1.23,0.42,1.89,1.76,1.48,2.98c-0.2,0.59-0.62,1.07-1.19,1.35c-0.56,0.28-1.2,0.32-1.79,0.12L112.1,217.01L112.1,217.01z"/>
	<path class="st1" d="M157.9,275c-0.37,0-0.73-0.06-1.08-0.18h0c-1.21-0.42-2.08-1.5-2.23-2.77l-18.56-157.2
		c-0.12-1.02,0.23-2.02,0.95-2.74c0.9-0.9,2.26-1.22,3.46-0.8c0.47,0.16,0.89,0.43,1.26,0.78l112.39,111.47
		c0.77,0.77,1.12,1.86,0.94,2.94c-0.15,0.87-0.63,1.64-1.36,2.16c-0.73,0.52-1.61,0.72-2.49,0.57l-60.99-10.44l-29.33,54.47
		c-0.51,0.96-1.46,1.6-2.55,1.73C158.17,274.99,158.03,275,157.9,275z M157.47,272.94c0.19,0.06,0.39,0.09,0.6,0.06
		c0.44-0.05,0.82-0.31,1.03-0.7l29.35-54.48c0.4-0.74,1.22-1.14,2.06-1l60.99,10.44c0.36,0.06,0.71-0.02,1.01-0.23
		c0.3-0.21,0.49-0.52,0.55-0.87c0.08-0.44-0.07-0.88-0.38-1.19L140.3,113.5c-0.15-0.15-0.31-0.25-0.5-0.32
		c-0.49-0.17-1.04-0.04-1.41,0.33c-0.29,0.3-0.43,0.7-0.39,1.12l18.56,157.2C156.62,272.33,156.98,272.77,157.47,272.94
		L157.47,272.94z M159.98,262.8c-0.12,0-0.25-0.01-0.37-0.04c-0.09-0.02-0.18-0.04-0.27-0.07c-0.71-0.24-1.23-0.88-1.31-1.63
		l-16.22-137.32c-0.1-0.83,0.34-1.63,1.09-2c0.47-0.23,1-0.26,1.5-0.09l0,0c0.28,0.1,0.54,0.26,0.75,0.47l98.17,97.37
		c0.61,0.61,0.76,1.53,0.36,2.29c-0.39,0.76-1.23,1.18-2.08,1.04l-52.98-9.07c-0.58-0.1-1.14,0.18-1.42,0.69l-25.49,47.32
		C161.35,262.41,160.69,262.8,159.98,262.8z M143.77,123.55l16.22,137.27l25.46-47.33c0.68-1.26,2.09-1.95,3.5-1.71l52.98,9.07
		L143.77,123.55z M113.32,218.29c-0.36,0-0.72-0.06-1.08-0.18l-0.46-0.16c-51.69-17.82-79.24-74.37-61.43-126.06
		c4.27-12.38,10.83-23.62,19.5-33.41c8.67-9.8,19.04-17.67,30.8-23.41c23.81-11.6,50.71-13.24,75.75-4.61
		c25.04,8.63,45.22,26.49,56.82,50.3c5.77,11.84,9.09,24.51,9.85,37.66c0.77,13.15-1.05,26.11-5.4,38.55
		c-0.6,1.73-2.5,2.65-4.24,2.05c-0.85-0.3-1.53-0.9-1.92-1.71c-0.39-0.81-0.44-1.71-0.15-2.55c8.17-23.14,6.66-49.04-4.16-71.08
		c-10.81-22.17-29.63-38.81-53.01-46.87c-23.38-8.06-48.46-6.54-70.64,4.27C81.41,51.89,64.76,70.71,56.7,94.09
		c-8.06,23.38-6.54,48.47,4.26,70.64c10.57,21.85,29.8,38.91,52.75,46.82l0.67,0.23c1.74,0.6,2.68,2.5,2.09,4.24
		c-0.28,0.84-0.88,1.53-1.69,1.92C114.32,218.17,113.82,218.29,113.32,218.29z M112.42,216.07l0.46,0.16
		c0.34,0.12,0.71,0.09,1.03-0.07c0.33-0.16,0.57-0.44,0.69-0.78c0.24-0.71-0.15-1.48-0.86-1.72l-0.66-0.23
		c-23.45-8.08-43.09-25.52-53.89-47.83c-11.04-22.65-12.58-48.27-4.35-72.15c8.23-23.88,25.23-43.11,47.88-54.15
		c22.65-11.04,48.27-12.59,72.15-4.36c23.88,8.23,43.11,25.23,54.14,47.87c11.05,22.51,12.6,48.97,4.25,72.61
		c-0.12,0.33-0.1,0.7,0.06,1.03c0.16,0.33,0.44,0.58,0.78,0.7c0.7,0.24,1.47-0.13,1.71-0.84c4.26-12.18,6.05-24.89,5.29-37.78
		c-0.75-12.88-4-25.3-9.66-36.9c-11.37-23.33-31.15-40.83-55.69-49.29c-24.54-8.46-50.9-6.85-74.24,4.52
		C89.99,42.48,79.84,50.2,71.34,59.8c-8.5,9.6-14.93,20.62-19.11,32.74C34.77,143.19,61.77,198.61,112.42,216.07L112.42,216.07z"/>
</g>
</svg>
