<?xml version="1.0" encoding="utf-8"?>
<!-- Generator: Adobe Illustrator 26.3.1, SVG Export Plug-In . SVG Version: 6.00 Build 0)  -->
<svg version="1.1" id="Layer_1" xmlns="http://www.w3.org/2000/svg" xmlns:xlink="http://www.w3.org/1999/xlink" x="0px" y="0px"
	 viewBox="0 0 300 300" style="enable-background:new 0 0 300 300;" xml:space="preserve">
<style type="text/css">
	.st0{fill:#00457F;}
</style>
<g>
	<g>
		<path class="st0" d="M206.6,154.4c-2.7-15.1-10.4-32.7-21.8-49.6c-19-27.9-43.8-46.6-61.7-46.6c-4.3,0-8,1.1-11.1,3.2
			c-1.8,1.2-3.3,2.8-4.5,4.5l0.1-0.3c-0.9,2.1-6.4,13.2-40,81.2l-0.2,0.4l-22.7,15.3c-6.6,4.5-11.1,11.3-12.6,19.2
			c-1.5,7.9,0.2,15.9,4.7,22.5l1,1.5c5.6,8.2,14.9,13.1,24.8,13.1c6,0,11.7-1.8,16.7-5.1l1.2-0.8l36.7,54c2,2.5,7.6,8.2,15.4,8.2
			c3.4,0,7-1.1,10.4-3.2c4.1-2.7,6.9-7,7.7-11.9c0.9-4.8-0.1-9.9-2.9-13.9l-33-48.7l2.6-0.2c25.1-2,72.7-5.8,74.8-6
			c2.1-0.5,4.1-1.3,5.9-2.6C206.6,182.8,209.6,170.7,206.6,154.4z M185.8,184.9C185.7,184.9,185.7,184.9,185.8,184.9
			c-13-0.9-34.9-14.7-54.6-43.7c-19.6-29-24.4-54.4-20.4-66.8c1.7-5.5,6.8-9.3,12.6-9.4h0c12.7,0,35.5,13.7,55.9,43.7
			c11.5,17,18.7,33.3,20.8,47c1.7,10.9,0.3,19-4.1,24.1C191.7,184.8,186.2,184.9,185.8,184.9z M75.9,208c-3.9,2.6-8.4,4-13.1,4
			c-7.7,0-14.9-3.8-19.3-10.2l-1-1.5c-3.5-5.1-4.8-11.3-3.6-17.4c1.2-6.1,4.6-11.4,9.8-14.9l20.5-14l27.1,40L75.9,208z M142.5,249.8
			c3.6,5.4,2.2,12.8-3.2,16.4c-2,1.3-4.2,2-6.6,2c-3.9,0-7.6-1.9-9.8-5.2l-36.6-53.9l15.9-10.8l5.1-0.4L142.5,249.8z M102.8,191.5
			l-28.7-42.3l28.9-58.9l0.8,4.6c2.6,15.5,10.4,33.4,21.8,50.2c11.5,16.8,25.2,30.6,38.6,38.8l4,2.4L102.8,191.5z"/>
	</g>
	<g>
		<path class="st0" d="M171,135.7c-1.3,6.6-5,12.2-10.5,16c-0.6,0.4-1.2,0.6-1.9,0.6h-0.1c-1.2,0-2.2-0.5-2.8-1.5
			c-1.1-1.5-0.7-3.6,0.9-4.7c4-2.7,6.8-6.9,7.7-11.7c0.9-4.8-0.1-9.6-2.8-13.7c-3.4-5-9-8-15.1-8c-3.6,0-7.2,1.1-10.2,3.1
			c-0.6,0.4-1.2,0.6-1.9,0.6c-1.1,0-2.2-0.6-2.8-1.5c-0.5-0.8-0.7-1.7-0.5-2.5c0.2-0.9,0.7-1.7,1.4-2.2c4.1-2.8,9-4.3,14-4.3
			c1.6,0,3.2,0.2,4.8,0.5l0.1,0h0.2c6.4,1.3,12.2,5.1,15.9,10.5C170.9,122.5,172.3,129.2,171,135.7z"/>
	</g>
	<g>
		<path class="st0" d="M199.8,28.8L196,65.5c-0.2,1.7-1.6,3-3.4,3h-0.4c-1.8-0.2-3.1-1.9-3-3.7c0,0,3.8-36.8,3.8-36.8
			c0.2-1.7,1.7-3,3.3-3c0.2,0,0.3,0,0.5,0c0.9,0.1,1.7,0.6,2.2,1.3C199.7,27,199.9,27.9,199.8,28.8z"/>
	</g>
	<g>
		<path class="st0" d="M253.2,68l-34,22.3c-0.5,0.3-1.2,0.5-1.9,0.5h-0.2c-1.1,0-2.2-0.6-2.8-1.5c-0.5-0.8-0.7-1.7-0.5-2.5
			c0.2-0.9,0.7-1.6,1.5-2.1l34-22.3c0.6-0.4,1.2-0.5,1.9-0.5c1.2,0,2.2,0.6,2.9,1.5C255.1,64.8,254.7,67,253.2,68z"/>
	</g>
	<g>
		<path class="st0" d="M268.3,126.9c0,1.8-1.5,3.3-3.4,3.3h-0.9l-39.4-7.1c-1.8-0.3-3.1-2.1-2.7-3.9c0.3-1.6,1.7-2.8,3.3-2.8
			c0.2,0,0.4,0,0.6,0.1l40.4,7.3C267.5,124.2,268.4,125.5,268.3,126.9z"/>
	</g>
</g>
</svg>
