<?xml version="1.0" encoding="utf-8"?>
<!-- Generator: Adobe Illustrator 26.3.1, SVG Export Plug-In . SVG Version: 6.00 Build 0)  -->
<svg version="1.1" id="Layer_1" xmlns="http://www.w3.org/2000/svg" xmlns:xlink="http://www.w3.org/1999/xlink" x="0px" y="0px"
	 viewBox="0 0 300 300" style="enable-background:new 0 0 300 300;" xml:space="preserve">
<style type="text/css">
	.st0{fill:#FFFFFF;}
	.st1{fill:#00457F;}
</style>
<g>
	<g>
		<path class="st1" d="M247.88,220.78c-6.19,0-11.92,2.09-16.49,5.61c-0.43,0.32-0.84,0.66-1.24,1.02c-0.41,0.34-0.8,0.72-1.19,1.09
			l-1.05-1.24l-1.02-1.2l-14.91-17.61l-1.02-1.19l-1.07-1.28c0.38-0.4,0.74-0.79,1.09-1.19c0.36-0.4,0.73-0.8,1.08-1.22
			c12.44-14.38,19.99-33.12,20.01-53.57c0-20.44-7.51-39.17-19.93-53.56c-0.35-0.41-0.71-0.81-1.07-1.21
			c-0.36-0.41-0.73-0.8-1.09-1.2l1.07-1.26l1.02-1.2l14.89-17.56l1.02-1.21l1.05-1.23c0.39,0.37,0.78,0.74,1.19,1.08
			c0.41,0.35,0.81,0.69,1.24,1.01c4.57,3.48,10.27,5.56,16.43,5.56c14.93-0.01,27.09-12.18,27.12-27.1
			C275,37.16,262.84,25,247.88,25c-14.95,0-27.1,12.16-27.1,27.12c0,4.61,1.16,8.95,3.19,12.75c0.27,0.5,0.56,1.01,0.86,1.49
			c0.29,0.47,0.6,0.94,0.93,1.39l-1.08,1.28l-1.06,1.24l-15.07,17.78l-1.01,1.19l-1.07,1.26c-0.39-0.38-0.77-0.74-1.17-1.09
			c-0.4-0.36-0.79-0.72-1.2-1.08c-14.45-12.7-33.4-20.41-54.1-20.41c-20.36,0-39.01,7.46-53.37,19.78c-0.41,0.34-0.81,0.7-1.21,1.06
			c-0.4,0.35-0.79,0.72-1.19,1.09l-1.07-1.26l-1.02-1.2L76.93,69.47l-1.05-1.24l-1.09-1.29c0.31-0.47,0.61-0.94,0.88-1.44
			c0.3-0.49,0.57-1.01,0.81-1.53c1.76-3.58,2.74-7.61,2.74-11.85C79.22,37.16,67.07,25,52.12,25S25,37.16,25,52.12
			c0,14.95,12.16,27.1,27.12,27.1c6.51,0,12.49-2.3,17.16-6.15c0.42-0.33,0.83-0.69,1.21-1.05c0.4-0.38,0.78-0.75,1.15-1.14
			l1.05,1.24l1.03,1.21L88.6,90.88l1.01,1.19l1.07,1.26c-0.36,0.4-0.73,0.78-1.1,1.18c-0.36,0.4-0.73,0.8-1.08,1.21
			c-12.8,14.47-20.57,33.48-20.57,54.27c0,20.81,7.79,39.85,20.62,54.33c0.35,0.41,0.72,0.81,1.09,1.21c0.36,0.4,0.73,0.79,1.1,1.18
			l-1.07,1.26l-1.02,1.2l-14.88,17.52l-1.03,1.21l-1.05,1.24c-0.36-0.39-0.75-0.76-1.15-1.14c-0.39-0.36-0.78-0.71-1.2-1.05h-0.01
			c-4.68-3.87-10.7-6.19-17.22-6.19c-14.95,0-27.12,12.15-27.12,27.1C25,262.84,37.16,275,52.12,275
			c14.93-0.01,27.09-12.18,27.1-27.12c0-4.22-0.98-8.22-2.7-11.79c-0.25-0.51-0.51-1.03-0.81-1.52c-0.26-0.49-0.56-0.98-0.87-1.45
			l1.09-1.3l1.06-1.24l15.21-17.93l1.01-1.2l1.07-1.25c0.39,0.36,0.79,0.72,1.19,1.08c0.4,0.35,0.8,0.71,1.21,1.06
			c14.35,12.28,32.99,19.73,53.32,19.73c20.66-0.02,39.56-7.72,54.01-20.4c0.41-0.35,0.8-0.71,1.2-1.07
			c0.4-0.35,0.78-0.72,1.17-1.09l1.08,1.26l1.01,1.19l15.11,17.82l1.05,1.25l1.08,1.26c-0.32,0.46-0.63,0.91-0.92,1.39v0.01
			c-0.3,0.48-0.59,0.99-0.85,1.49c-2.01,3.78-3.16,8.1-3.16,12.68c0,14.95,12.15,27.12,27.1,27.12
			c14.94-0.01,27.1-12.18,27.12-27.12C275,232.93,262.84,220.78,247.88,220.78z M225.73,52.12c0-12.22,9.94-22.16,22.15-22.16
			c6.1,0.01,11.64,2.5,15.66,6.51c4.01,4.02,6.49,9.56,6.51,15.66c0,12.22-9.95,22.15-22.16,22.15c-5.09,0-9.79-1.73-13.53-4.62
			c0-0.01,0-0.01,0-0.01c-0.47-0.35-0.93-0.74-1.37-1.15c-0.66-0.6-1.29-1.24-1.86-1.92c-0.2-0.23-0.4-0.46-0.58-0.7
			c-0.01-0.01-0.01-0.01-0.02-0.02c-0.55-0.69-1.05-1.4-1.5-2.15c-0.32-0.5-0.61-1.02-0.88-1.54
			C226.6,59.15,225.73,55.73,225.73,52.12z M72.2,61.46c-0.26,0.55-0.54,1.08-0.84,1.6c-1,1.77-2.24,3.38-3.68,4.8
			c-0.43,0.42-0.87,0.83-1.34,1.2c0,0.01,0,0.01,0,0.01c-3.85,3.25-8.82,5.2-14.23,5.2c-12.22,0-22.16-9.94-22.16-22.15
			c0-12.22,9.95-22.16,22.16-22.16c6.1,0.01,11.64,2.5,15.65,6.51c4.02,4.02,6.51,9.56,6.51,15.66
			C74.27,55.45,73.53,58.62,72.2,61.46z M52.12,270.05c-12.22,0-22.16-9.95-22.16-22.16c0-12.22,9.95-22.15,22.16-22.15
			c5.42,0,10.41,1.97,14.27,5.24c0.46,0.37,0.9,0.78,1.32,1.2c0.02,0.02,0.04,0.04,0.06,0.06c0.73,0.72,1.4,1.5,2.01,2.32
			c0.61,0.79,1.16,1.63,1.65,2.51c0.29,0.51,0.57,1.04,0.81,1.59c1.3,2.82,2.03,5.95,2.03,9.24
			C74.27,260.1,64.33,270.05,52.12,270.05z M208.23,200.52c-0.42,0.47-0.84,0.94-1.25,1.4c-1.41,1.54-2.88,3.02-4.4,4.45
			c-0.45,0.43-0.91,0.85-1.37,1.24c-13.62,12.12-31.56,19.5-51.2,19.5c-19.28,0-36.94-7.12-50.48-18.85
			c-0.46-0.4-0.92-0.81-1.38-1.23c-1.56-1.43-3.08-2.93-4.52-4.47c-0.43-0.45-0.84-0.9-1.24-1.36
			c-12.11-13.62-19.48-31.56-19.48-51.2c0-19.58,7.34-37.49,19.4-51.1c0.41-0.46,0.81-0.91,1.23-1.36c0.62-0.66,1.24-1.32,1.89-1.96
			c0.25-0.24,0.49-0.48,0.74-0.72c0-0.01,0-0.01,0.01-0.02c0.64-0.63,1.3-1.24,1.96-1.85c0.45-0.41,0.91-0.81,1.37-1.22
			C113.03,80.01,130.7,72.89,150,72.89c19.63,0.02,37.58,7.42,51.21,19.58c0.46,0.41,0.92,0.81,1.37,1.24
			c0.64,0.6,1.26,1.2,1.89,1.82c0.87,0.87,1.71,1.75,2.54,2.66c0.42,0.46,0.83,0.92,1.23,1.39c11.74,13.54,18.85,31.16,18.87,50.42
			C227.11,169.3,219.99,186.98,208.23,200.52z M247.88,270.05c-12.22,0-22.15-9.95-22.15-22.16c0-3.59,0.86-7,2.39-10
			c0.27-0.53,0.56-1.04,0.87-1.54c0.48-0.8,1.03-1.58,1.62-2.3c0.14-0.13,0.27-0.28,0.38-0.44c0-0.01,0.01-0.01,0.01-0.02
			c0.59-0.72,1.24-1.39,1.94-2.01v-0.01c0.43-0.4,0.88-0.78,1.35-1.14c3.75-2.94,8.48-4.68,13.6-4.68c6.1,0,11.64,2.49,15.66,6.51
			c4.01,4.01,6.49,9.55,6.51,15.65C270.05,260.1,260.1,270.05,247.88,270.05z"/>
		<path class="st1" d="M247.88,275.38c-15.15,0-27.48-12.33-27.48-27.49c0-4.47,1.11-8.92,3.21-12.86c0.23-0.46,0.51-0.94,0.82-1.44
			l0.04-0.08c0.24-0.41,0.5-0.79,0.77-1.18l-1.95-2.3l-16.94-19.97c-0.29,0.28-0.59,0.56-0.89,0.83c-0.4,0.36-0.8,0.72-1.21,1.07
			c-15.03,13.19-34.3,20.47-54.25,20.49c-19.61,0-38.63-7.04-53.56-19.82c-0.41-0.36-0.82-0.71-1.22-1.07l-0.48-0.44
			c-0.14-0.13-0.28-0.25-0.42-0.38l-1.82,2.16L75.3,233.15c0.31,0.48,0.54,0.87,0.73,1.25c0.27,0.44,0.54,0.95,0.82,1.53
			c1.82,3.76,2.74,7.78,2.74,11.95c-0.01,15.15-12.34,27.48-27.48,27.49c-15.16,0-27.49-12.33-27.49-27.49
			c0-15.15,12.33-27.48,27.49-27.48c6.31,0,12.47,2.2,17.36,6.2l0.11,0.08c0.42,0.35,0.83,0.7,1.22,1.07
			c0.3,0.28,0.59,0.56,0.87,0.85l1.81-2.14l16.75-19.73c-0.28-0.29-0.55-0.59-0.83-0.89c-0.42-0.45-0.79-0.86-1.15-1.27
			C74.91,189.5,67.55,170.12,67.55,150c0-20.09,7.34-39.46,20.66-54.52c0.35-0.41,0.72-0.82,1.09-1.22c0.3-0.32,0.59-0.62,0.88-0.94
			L71.61,71.44c-0.28,0.29-0.57,0.57-0.87,0.85c-0.4,0.38-0.81,0.74-1.24,1.07c-4.88,4.02-11.06,6.23-17.39,6.23
			c-15.16,0-27.49-12.33-27.49-27.48c0-15.16,12.33-27.49,27.49-27.49c15.15,0,27.48,12.33,27.48,27.49c0,4.21-0.94,8.26-2.78,12.02
			c-0.27,0.58-0.55,1.09-0.83,1.56c-0.23,0.42-0.49,0.84-0.73,1.21l19.01,22.41c0.3-0.28,0.61-0.56,0.91-0.83
			c0.4-0.36,0.81-0.72,1.22-1.07c14.93-12.81,33.97-19.87,53.62-19.87c20.01,0,39.31,7.28,54.35,20.5l0.12,0.11
			c0.37,0.33,0.73,0.65,1.09,0.98c0.3,0.27,0.59,0.54,0.89,0.82l18.84-22.22c-0.26-0.36-0.51-0.75-0.77-1.18
			c-0.3-0.49-0.6-1-0.87-1.51c-2.12-3.96-3.24-8.43-3.24-12.93c0-15.16,12.33-27.49,27.48-27.49c15.16,0,27.49,12.33,27.49,27.49
			c-0.02,15.14-12.35,27.47-27.49,27.48c-6.06,0-11.82-1.95-16.66-5.64c-0.43-0.32-0.85-0.66-1.26-1.02
			c-0.31-0.26-0.62-0.54-0.92-0.82l-1.81,2.14l-16.76,19.77c0.29,0.32,0.58,0.63,0.87,0.96c0.36,0.4,0.72,0.81,1.08,1.22
			c12.92,14.95,20.03,34.06,20.03,53.8c-0.02,19.74-7.16,38.85-20.1,53.81c-0.35,0.42-0.72,0.83-1.09,1.23
			c-0.28,0.31-0.57,0.63-0.87,0.95l1.87,2.21l16.72,19.75c0.3-0.29,0.61-0.57,0.92-0.83c0.41-0.36,0.82-0.71,1.26-1.03
			c4.84-3.72,10.62-5.68,16.72-5.68c15.16,0,27.49,12.33,27.49,27.48C275.36,263.03,263.03,275.36,247.88,275.38z M225.16,233.81
			L225.16,233.81l-0.06,0.1c-0.31,0.5-0.59,0.99-0.83,1.46c-2.04,3.83-3.12,8.16-3.12,12.51c0,14.74,11.99,26.74,26.73,26.74
			c14.73-0.01,26.73-12.01,26.74-26.74c0-14.74-12-26.73-26.74-26.73c-5.93,0-11.56,1.91-16.27,5.53c-0.42,0.32-0.83,0.66-1.23,1
			c-0.41,0.34-0.79,0.71-1.17,1.08l-0.29,0.28l-19.54-23.08l0.23-0.24c0.37-0.39,0.73-0.79,1.08-1.18c0.37-0.4,0.73-0.8,1.08-1.21
			c12.83-14.83,19.9-33.76,19.92-53.32c0-19.56-7.05-38.49-19.84-53.31c-0.35-0.41-0.7-0.81-1.06-1.2c-0.37-0.41-0.73-0.8-1.09-1.2
			l-0.22-0.24L229,71.02l0.29,0.28c0.38,0.37,0.77,0.73,1.17,1.06c0.41,0.35,0.81,0.68,1.23,1c4.71,3.59,10.31,5.49,16.21,5.49
			c14.72-0.01,26.72-12,26.74-26.73c0-14.74-12-26.74-26.74-26.74c-14.74,0-26.73,12-26.73,26.74c0,4.38,1.09,8.73,3.15,12.58
			c0.26,0.5,0.55,0.99,0.84,1.47c0.31,0.51,0.61,0.96,0.92,1.37l0.18,0.24L206.5,91.05l-0.29-0.28c-0.38-0.37-0.76-0.73-1.16-1.08
			c-0.36-0.33-0.72-0.65-1.08-0.98l-0.12-0.1C188.95,75.51,169.83,68.3,150,68.3c-19.46,0-38.33,6.99-53.13,19.69
			c-0.41,0.34-0.81,0.69-1.2,1.05c-0.4,0.36-0.79,0.72-1.19,1.09l-0.29,0.27L74.32,66.97l0.16-0.24c0.27-0.41,0.58-0.9,0.86-1.41
			c0.28-0.46,0.54-0.95,0.8-1.51c1.8-3.66,2.71-7.6,2.71-11.7c0-14.74-11.99-26.74-26.73-26.74c-14.74,0-26.74,12-26.74,26.74
			c0,14.74,12,26.73,26.74,26.73c6.16,0,12.17-2.15,16.92-6.07c0.41-0.33,0.81-0.67,1.19-1.03c0.39-0.37,0.77-0.74,1.13-1.12
			l0.29-0.31L74,73.09l17.18,20.25l-0.22,0.24c-0.37,0.4-0.73,0.78-1.11,1.18c-0.36,0.39-0.72,0.79-1.07,1.2
			C75.57,110.9,68.3,130.09,68.3,150c0,19.93,7.29,39.14,20.53,54.08c0.35,0.41,0.71,0.81,1.08,1.2c0.4,0.43,0.75,0.81,1.1,1.17
			l0.24,0.24l-19.54,23.02l-0.29-0.3c-0.36-0.38-0.74-0.75-1.13-1.12c-0.35-0.33-0.7-0.64-1.08-0.95l-0.12-0.09
			c-4.77-3.94-10.8-6.11-16.98-6.11c-14.74,0-26.74,11.99-26.74,26.73c0,14.74,12,26.74,26.74,26.74
			c14.73-0.01,26.72-12.01,26.73-26.74c0-4.06-0.9-7.97-2.66-11.63c-0.27-0.56-0.53-1.05-0.8-1.49c-0.23-0.44-0.49-0.87-0.86-1.44
			l-0.15-0.23l2.34-2.76l17.54-20.68l0.29,0.27c0.23,0.21,0.46,0.43,0.7,0.64l0.49,0.44c0.39,0.35,0.8,0.7,1.2,1.05
			c14.8,12.66,33.65,19.64,53.07,19.64c19.77-0.02,38.86-7.23,53.76-20.3c0.41-0.35,0.8-0.7,1.19-1.07c0.4-0.35,0.78-0.71,1.16-1.08
			l0.29-0.28l2.35,2.76l17.43,20.56l-0.17,0.24C225.72,232.95,225.43,233.37,225.16,233.81z M247.88,270.42
			c-12.42,0-22.53-10.11-22.53-22.54c0-3.54,0.84-7.06,2.43-10.17c0.27-0.53,0.57-1.06,0.88-1.57c0.48-0.8,1.03-1.59,1.65-2.34
			c0.12-0.12,0.21-0.22,0.29-0.32v-0.04l0.1-0.1c0.57-0.69,1.2-1.35,1.88-1.97l0.09-0.09c0.48-0.45,0.93-0.83,1.38-1.16
			c3.98-3.11,8.76-4.76,13.83-4.76c6,0,11.66,2.35,15.92,6.62c4.26,4.26,6.61,9.91,6.62,15.91
			C270.42,260.31,260.31,270.42,247.88,270.42z M231.29,233.82c-0.12,0.18-0.27,0.35-0.43,0.5c-0.55,0.69-1.09,1.45-1.55,2.22
			c-0.31,0.5-0.6,1.01-0.86,1.52c-1.54,3.01-2.35,6.41-2.35,9.83c0,12.01,9.77,21.79,21.78,21.79c12.01,0,21.79-9.77,21.79-21.79
			c-0.01-5.8-2.28-11.27-6.4-15.38c-4.12-4.12-9.59-6.4-15.39-6.4c-4.9,0-9.52,1.59-13.37,4.6c-0.39,0.3-0.79,0.62-1.21,1.01v0
			l-0.13,0.12c-0.66,0.58-1.27,1.21-1.81,1.87v0.02L231.29,233.82z M52.12,270.42c-12.43,0-22.54-10.11-22.54-22.54
			c0-12.42,10.11-22.53,22.54-22.53c5.3,0,10.45,1.89,14.51,5.33c0.43,0.35,0.87,0.75,1.34,1.22c0.78,0.77,1.47,1.56,2.11,2.42
			c0.6,0.78,1.17,1.64,1.68,2.55c0.35,0.62,0.61,1.13,0.83,1.62c1.37,2.97,2.06,6.13,2.06,9.39
			C74.64,260.31,64.54,270.42,52.12,270.42z M52.12,226.11c-12.01,0-21.79,9.77-21.79,21.78c0,12.01,9.77,21.79,21.79,21.79
			c12.01,0,21.78-9.77,21.78-21.79c0-3.15-0.67-6.21-1.99-9.08c-0.21-0.47-0.46-0.96-0.8-1.56c-0.49-0.88-1.04-1.71-1.62-2.46
			c-0.62-0.83-1.29-1.6-1.98-2.28l-0.07-0.07c-0.45-0.45-0.87-0.84-1.29-1.17C62.22,227.94,57.24,226.11,52.12,226.11z M150,227.49
			c-18.62,0-36.64-6.73-50.73-18.94c-0.46-0.4-0.93-0.82-1.39-1.24c-1.51-1.38-3.04-2.89-4.54-4.49c-0.43-0.45-0.84-0.91-1.25-1.37
			c-12.62-14.2-19.58-32.47-19.58-51.45c0-18.92,6.92-37.16,19.49-51.35c0.41-0.46,0.82-0.92,1.24-1.37
			c0.63-0.67,1.25-1.33,1.9-1.97l0.75-0.74c0.65-0.64,1.31-1.25,1.97-1.86c0.45-0.4,0.9-0.81,1.36-1.21
			c14.13-12.25,32.15-18.98,50.78-18.98c18.99,0.02,37.26,7.01,51.46,19.68c0.46,0.41,0.93,0.82,1.38,1.25
			c0.64,0.6,1.27,1.2,1.89,1.83c0.95,0.95,1.78,1.82,2.55,2.67c0.42,0.46,0.83,0.93,1.24,1.4c12.21,14.08,18.94,32.07,18.96,50.66
			c0,18.64-6.74,36.67-18.98,50.77l-0.21,0.23c-0.35,0.4-0.7,0.79-1.05,1.18c-1.38,1.51-2.87,3.01-4.42,4.47
			c-0.45,0.43-0.92,0.85-1.38,1.25C187.25,220.53,168.98,227.49,150,227.49z M96.52,95v0.01l-0.85,0.83
			c-0.63,0.63-1.25,1.28-1.87,1.95c-0.41,0.45-0.82,0.9-1.22,1.35c-12.45,14.05-19.3,32.11-19.3,50.85
			c0,18.79,6.89,36.89,19.39,50.95c0.41,0.46,0.81,0.91,1.23,1.35c1.49,1.59,3.01,3.09,4.5,4.45c0.46,0.42,0.92,0.83,1.37,1.23
			c13.96,12.1,31.8,18.76,50.24,18.76c18.8,0,36.89-6.89,50.95-19.4c0.46-0.4,0.92-0.81,1.36-1.23c1.54-1.44,3.02-2.93,4.39-4.43
			c0.35-0.38,0.7-0.78,1.05-1.17l0.2-0.23c12.12-13.96,18.79-31.82,18.79-50.28c-0.02-18.41-6.69-36.22-18.78-50.17
			c-0.41-0.47-0.81-0.93-1.23-1.39c-0.76-0.84-1.59-1.71-2.53-2.64c-0.62-0.62-1.24-1.22-1.88-1.81c-0.45-0.43-0.91-0.83-1.36-1.24
			C186.9,80.2,168.8,73.28,150,73.26c-18.45,0-36.3,6.67-50.27,18.78c-0.47,0.42-0.92,0.82-1.37,1.22
			C97.74,93.83,97.13,94.41,96.52,95z M247.88,74.64c-5.03,0-9.78-1.62-13.76-4.7l-0.15-0.12c-0.43-0.33-0.85-0.68-1.25-1.06
			c-0.66-0.6-1.3-1.26-1.89-1.95c-0.2-0.22-0.4-0.47-0.59-0.71c-0.59-0.73-1.1-1.47-1.55-2.21c-0.31-0.49-0.61-1-0.89-1.57
			c-1.6-3.13-2.45-6.66-2.45-10.21c0-12.43,10.11-22.54,22.53-22.54c6,0.01,11.66,2.36,15.92,6.62c4.26,4.27,6.61,9.92,6.62,15.92
			C270.42,64.54,260.31,74.64,247.88,74.64z M234.73,69.46c3.81,2.9,8.35,4.43,13.15,4.43c12.01,0,21.79-9.77,21.79-21.78
			c-0.01-5.8-2.28-11.27-6.4-15.39c-4.13-4.11-9.59-6.39-15.39-6.4c-12.01,0-21.78,9.77-21.78,21.79c0,3.43,0.82,6.85,2.37,9.87
			c0.27,0.54,0.56,1.03,0.86,1.51c0.43,0.72,0.93,1.43,1.48,2.12c0.2,0.25,0.39,0.48,0.58,0.7c0.58,0.68,1.2,1.31,1.84,1.89
			c0.44,0.4,0.89,0.78,1.34,1.12L234.73,69.46z M52.12,74.64c-12.43,0-22.54-10.11-22.54-22.53c0-12.43,10.11-22.54,22.54-22.54
			c6.01,0.01,11.66,2.36,15.91,6.62c4.27,4.27,6.62,9.92,6.62,15.92c0,3.32-0.71,6.52-2.1,9.51h0c-0.27,0.58-0.56,1.12-0.85,1.63
			c-0.99,1.76-2.25,3.4-3.74,4.88c-0.49,0.48-0.89,0.84-1.28,1.15l-0.09,0.08C62.55,72.77,57.41,74.64,52.12,74.64z M52.11,30.33
			c-12.01,0-21.79,9.77-21.79,21.79c0,12.01,9.77,21.78,21.79,21.78c5.06,0,9.97-1.77,13.86-5v-0.01l0.14-0.12
			c0.4-0.32,0.8-0.68,1.31-1.17c1.43-1.42,2.65-3.01,3.61-4.72c0.29-0.49,0.56-1.02,0.82-1.57l0,0c1.35-2.88,2.03-5.98,2.03-9.19
			c0-5.8-2.27-11.27-6.4-15.39C63.38,32.61,57.92,30.34,52.11,30.33z"/>
	</g>
	<g>
		<g>
			<path class="st1" d="M136.18,142.68l7.06,17.99h0.01L136.18,142.68z M136.18,142.68l7.06,17.99h0.01L136.18,142.68z
				 M136.18,142.68l7.06,17.99h0.01L136.18,142.68z"/>
			<polygon class="st1" points="143.81,161.05 143,161.05 142.9,160.81 135.84,142.82 136.53,142.54 			"/>
		</g>
		<g>
			<path class="st1" d="M136.18,142.68l7.06,17.99h0.01L136.18,142.68z M136.18,142.68l7.06,17.99h0.01L136.18,142.68z
				 M136.18,142.68l7.06,17.99h0.01L136.18,142.68z M136.18,142.68l7.06,17.99h0.01L136.18,142.68z M136.18,142.68l7.06,17.99h0.01
				L136.18,142.68z M136.18,142.68l7.06,17.99h0.01L136.18,142.68z M136.18,142.68l7.06,17.99h0.01L136.18,142.68z M136.18,142.68
				l7.06,17.99h0.01L136.18,142.68z M136.18,142.68l7.06,17.99h0.01L136.18,142.68z M136.18,142.68l7.06,17.99h0.01L136.18,142.68z
				 M136.18,142.68l7.06,17.99h0.01L136.18,142.68z M136.18,142.68l7.06,17.99h0.01L136.18,142.68z M136.18,142.68l7.06,17.99h0.01
				L136.18,142.68z M136.18,142.68l7.06,17.99h0.01L136.18,142.68z M136.18,142.68l7.06,17.99h0.01L136.18,142.68z M136.18,142.68
				l7.06,17.99h0.01L136.18,142.68z M136.18,142.68l7.06,17.99h0.01L136.18,142.68z M136.18,142.68l7.06,17.99h0.01L136.18,142.68z
				 M136.18,142.68l7.06,17.99h0.01L136.18,142.68z M136.18,142.68l7.06,17.99h0.01L136.18,142.68z M136.18,142.68l7.06,17.99h0.01
				L136.18,142.68z M136.18,142.68l7.06,17.99h0.01L136.18,142.68z M136.18,142.68l7.06,17.99h0.01L136.18,142.68z M136.18,142.68
				l7.06,17.99h0.01L136.18,142.68z M136.18,142.68l7.06,17.99h0.01L136.18,142.68z M136.18,142.68l7.06,17.99h0.01L136.18,142.68z
				 M136.18,142.68l7.06,17.99h0.01L136.18,142.68z M136.18,142.68l7.06,17.99h0.01L136.18,142.68z M136.18,142.68l7.06,17.99h0.01
				L136.18,142.68z M136.18,142.68l7.06,17.99h0.01L136.18,142.68z M136.18,142.68l7.06,17.99h0.01L136.18,142.68z M136.18,142.68
				l7.06,17.99h0.01L136.18,142.68z M136.18,142.68l7.06,17.99h0.01L136.18,142.68z M136.18,142.68l7.06,17.99h0.01L136.18,142.68z
				 M136.18,142.68l7.06,17.99h0.01L136.18,142.68z M136.18,142.68l7.06,17.99h0.01L136.18,142.68z M136.18,142.68l7.06,17.99h0.01
				L136.18,142.68z M136.18,142.68l7.06,17.99h0.01L136.18,142.68z M136.18,142.68l7.06,17.99h0.01L136.18,142.68z M136.18,142.68
				l7.06,17.99h0.01L136.18,142.68z M136.18,142.68l7.06,17.99h0.01L136.18,142.68z M136.18,142.68l7.06,17.99h0.01L136.18,142.68z
				 M136.18,142.68l7.06,17.99h0.01L136.18,142.68z M136.18,142.68l7.06,17.99h0.01L136.18,142.68z M136.18,142.68l7.06,17.99h0.01
				L136.18,142.68z M136.18,142.68l7.06,17.99h0.01L136.18,142.68z M136.18,142.68l7.06,17.99h0.01L136.18,142.68z M136.18,142.68
				l7.06,17.99h0.01L136.18,142.68z M136.18,142.68l7.06,17.99h0.01L136.18,142.68z M136.18,142.68l7.06,17.99h0.01L136.18,142.68z
				 M136.18,142.68l7.06,17.99h0.01L136.18,142.68z M136.18,142.68l7.06,17.99h0.01L136.18,142.68z M137.27,163.41l-0.09,0.03
				c0.06,0.05,0.12,0.12,0.17,0.17L137.27,163.41z M136.18,142.68l7.06,17.99h0.01L136.18,142.68z M138.38,168.31l-0.01,0.01
				c0.01,0.01,0.02,0.02,0.03,0.02L138.38,168.31z M139.6,167.2l0.29,0.51l0.41-0.16C140.05,167.47,139.82,167.35,139.6,167.2z
				 M140.69,169.13l-0.33,0.13c0.15,0.05,0.3,0.09,0.46,0.11L140.69,169.13z M136.18,142.68l7.06,17.99h0.01L136.18,142.68z
				 M137.27,163.41l-0.09,0.03c0.06,0.05,0.12,0.12,0.17,0.17L137.27,163.41z M136.18,142.68l7.06,17.99h0.01L136.18,142.68z
				 M137.27,163.41l-0.09,0.03c0.06,0.05,0.12,0.12,0.17,0.17L137.27,163.41z M136.18,142.68l7.06,17.99h0.01L136.18,142.68z
				 M137.27,163.41l-0.09,0.03c0.06,0.05,0.12,0.12,0.17,0.17L137.27,163.41z M136.18,142.68l7.06,17.99h0.01L136.18,142.68z
				 M136.18,142.68l7.06,17.99h0.01L136.18,142.68z M136.18,142.68l7.06,17.99h0.01L136.18,142.68z M136.18,142.68l7.06,17.99h0.01
				L136.18,142.68z M136.18,142.68l7.06,17.99h0.01L136.18,142.68z M136.18,142.68l7.06,17.99h0.01L136.18,142.68z M136.18,142.68
				l7.06,17.99h0.01L136.18,142.68z M136.18,142.68l7.06,17.99h0.01L136.18,142.68z M136.18,142.68l7.06,17.99h0.01L136.18,142.68z
				 M136.18,142.68l7.06,17.99h0.01L136.18,142.68z M136.18,142.68l7.06,17.99h0.01L136.18,142.68z M136.18,142.68l7.06,17.99h0.01
				L136.18,142.68z M136.18,142.68l7.06,17.99h0.01L136.18,142.68z M136.18,142.68l7.06,17.99h0.01L136.18,142.68z M136.18,142.68
				l7.06,17.99h0.01L136.18,142.68z M136.18,142.68l7.06,17.99h0.01L136.18,142.68z M136.18,142.68l7.06,17.99h0.01L136.18,142.68z
				 M136.18,142.68l7.06,17.99h0.01L136.18,142.68z M136.18,142.68l7.06,17.99h0.01L136.18,142.68z M136.18,142.68l7.06,17.99h0.01
				L136.18,142.68z M136.18,142.68l7.06,17.99h0.01L136.18,142.68z M136.18,142.68l7.06,17.99h0.01L136.18,142.68z M136.18,142.68
				l7.06,17.99h0.01L136.18,142.68z M136.18,142.68l7.06,17.99h0.01L136.18,142.68z M136.18,142.68l7.06,17.99h0.01L136.18,142.68z
				 M136.18,142.68l7.06,17.99h0.01L136.18,142.68z M136.18,142.68l7.06,17.99h0.01L136.18,142.68z M136.18,142.68l7.06,17.99h0.01
				L136.18,142.68z M136.18,142.68l7.06,17.99h0.01L136.18,142.68z M136.18,142.68l7.06,17.99h0.01L136.18,142.68z M136.18,142.68
				l7.06,17.99h0.01L136.18,142.68z M136.18,142.68l7.06,17.99h0.01L136.18,142.68z M136.18,142.68l7.06,17.99h0.01L136.18,142.68z
				 M136.18,142.68l7.06,17.99h0.01L136.18,142.68z M136.18,142.68l7.06,17.99h0.01L136.18,142.68z M136.18,142.68l7.06,17.99h0.01
				L136.18,142.68z M136.18,142.68l7.06,17.99h0.01L136.18,142.68z M136.18,142.68l7.06,17.99h0.01L136.18,142.68z M136.18,142.68
				l7.06,17.99h0.01L136.18,142.68z M136.18,142.68l7.06,17.99h0.01L136.18,142.68z M136.18,142.68l7.06,17.99h0.01L136.18,142.68z
				 M136.18,142.68l7.06,17.99h0.01L136.18,142.68z M136.18,142.68l7.06,17.99h0.01L136.18,142.68z M136.18,142.68l7.06,17.99h0.01
				L136.18,142.68z M136.18,142.68l7.06,17.99h0.01L136.18,142.68z M136.18,142.68l7.06,17.99h0.01L136.18,142.68z M136.18,142.68
				l7.06,17.99h0.01L136.18,142.68z M136.18,142.68l7.06,17.99h0.01L136.18,142.68z M136.18,142.68l7.06,17.99h0.01L136.18,142.68z
				 M136.18,142.68l7.06,17.99h0.01L136.18,142.68z M136.18,142.68l7.06,17.99h0.01L136.18,142.68z M136.18,142.68l7.06,17.99h0.01
				L136.18,142.68z"/>
			<path class="st1" d="M141.5,169.84l-0.73-0.1c-0.2-0.03-0.37-0.07-0.54-0.13l-0.94-0.34l1.58-0.61L141.5,169.84z M139.1,168.71
				h-0.86l-0.41-0.4l0.59-0.59L139.1,168.71z M139.73,168.19l-1.25-2.23l1.34,0.94c0.18,0.13,0.39,0.23,0.61,0.31l0.95,0.33
				L139.73,168.19z M138.45,165.24l-1.36-1.36c-0.09-0.09-0.11-0.12-0.14-0.15l-0.5-0.41l0.95-0.36l0.23,0.3L138.45,165.24z
				 M143.81,161.05H143l-0.1-0.24l-7.06-18l0.7-0.27L143.81,161.05z"/>
		</g>
		<path class="st1" d="M193.5,161.53l-21.05-53.63c-0.31-0.78-0.99-1.35-1.82-1.51c-0.16-0.03-0.32-0.05-0.49-0.05
			c-0.48,0-0.95,0.14-1.36,0.42c-0.56,0.36-0.92,0.93-1.06,1.58c-2.42,12.25-22.13,23.86-31.19,28.61c-0.61,0.31-1.16,0.6-1.66,0.86
			c-1.41,0.72-2.39,1.18-2.73,1.34c-0.08,0.03-0.12,0.05-0.13,0.05l-2.89,1.14l-1.76,0.69l-11.68,4.59
			c-5.59,2.23-9.24,7.58-9.27,13.6c-0.02,3.93,1.49,7.64,4.25,10.44c2.26,2.28,5.12,3.74,8.24,4.21c0.63,0.09,1.28,0.15,1.93,0.15
			c0.07,0.01,0.14,0.01,0.21,0.01h0.04c0.51,0,1.03-0.03,1.53-0.09l0.85,1.52l0.84,1.49l7.2,12.82c1.34,2.4,3.88,3.89,6.62,3.91
			c0.89-0.01,1.78-0.18,2.62-0.51c1.98-0.78,3.53-2.38,4.23-4.39c0.75-2.11,0.55-4.44-0.55-6.38l-5.97-10.64l-0.79-1.41l-0.79-1.41
			l1.5-0.59l0.01-0.01l1.51-0.59l-0.29-0.51c0.21,0.15,0.45,0.27,0.7,0.35l2.6-1.02c0.45-0.18,0.84-0.48,1.11-0.88
			c0.53-0.17,1.19-0.36,1.97-0.59c0.51-0.14,1.07-0.3,1.67-0.46c10-2.7,32.02-7.46,42.08-0.17c0.69,0.5,1.56,0.61,2.36,0.3
			c0.62-0.24,1.1-0.71,1.37-1.31C193.73,162.82,193.74,162.14,193.5,161.53z M140.11,184.79c0.4,0.68,0.48,1.51,0.21,2.28
			c-0.2,0.64-0.71,1.19-1.38,1.46l-0.13,0.04c-0.24,0.08-0.48,0.12-0.73,0.12c-0.95,0-1.85-0.54-2.29-1.43l-6.66-11.88l-0.79-1.4
			l-0.79-1.43l-0.02-0.03l4.67-1.83l0.02,0.03l0.79,1.41l0.79,1.41L140.11,184.79z M137.27,163.41l0.09,0.2
			c-0.05-0.05-0.11-0.12-0.17-0.17l-1.41,0.56l0.21,0.54c-0.17-0.16-0.35-0.3-0.55-0.41l-2.74,1.07l-8.08,3.17
			c-0.28,0.13-0.64,0.28-1.02,0.4l-0.1,0.03c-0.98,0.31-1.97,0.46-2.97,0.46h-0.09c-0.58-0.01-1.15-0.06-1.71-0.17
			c-0.92-0.17-1.82-0.48-2.68-0.92c-2.32-1.2-4.03-3.24-4.82-5.72c-0.79-2.49-0.57-5.13,0.63-7.45c1.2-2.33,3.23-4.04,5.72-4.82
			l11.06-4.34l1.49-0.59l1.5-0.59l7.14,18.17L137.27,163.41z M183.57,156.59c-12.57-2.74-29.15,0.98-37.2,3.19
			c-0.57,0.15-1.08,0.3-1.55,0.44c-0.05,0.01-0.11,0.03-0.15,0.04l-1.4,0.41h-0.01l-7.06-17.99l1.32-0.65
			c0.04-0.02,0.09-0.04,0.14-0.06c0.43-0.23,0.91-0.46,1.43-0.74c7.41-3.83,22.11-12.37,29.44-22.96l1.73-2.48l16.27,41.45
			L183.57,156.59z M143.31,161.05H143l-0.1-0.24l-7.19-18.32l1.63-0.81c0.05-0.03,0.1-0.05,0.17-0.08l0.51-0.26
			c0.28-0.14,0.57-0.29,0.88-0.46c7.85-4.06,22.09-12.42,29.31-22.84l2.13-3.05l16.78,42.75l-3.62-0.79
			c-12.36-2.7-28.5,0.84-37.02,3.19c-0.57,0.15-1.08,0.3-1.55,0.44L143.31,161.05z M136.66,142.86l6.81,17.36l1.08-0.32
			c0.09-0.03,0.13-0.04,0.18-0.05c0.44-0.13,0.96-0.28,1.53-0.43c8.58-2.37,24.86-5.93,37.38-3.2l2.25,0.49l-15.76-40.14l-1.33,1.9
			c-7.31,10.56-21.67,18.99-29.58,23.08c-0.31,0.17-0.61,0.32-0.89,0.46l-0.53,0.27c-0.08,0.03-0.11,0.05-0.15,0.07L136.66,142.86z"
			/>
	</g>
</g>
</svg>
