<?xml version="1.0" encoding="utf-8"?>
<!-- Generator: Adobe Illustrator 26.3.1, SVG Export Plug-In . SVG Version: 6.00 Build 0)  -->
<svg version="1.1" id="Layer_1" xmlns="http://www.w3.org/2000/svg" xmlns:xlink="http://www.w3.org/1999/xlink" x="0px" y="0px"
	 viewBox="0 0 300 300" style="enable-background:new 0 0 300 300;" xml:space="preserve">
<style type="text/css">
	.st0{fill:#FFFFFF;stroke:#FFFFFF;stroke-width:3;stroke-miterlimit:10;}
	.st1{fill:#FFFFFF;stroke:#FFFFFF;stroke-miterlimit:10;}
	.st2{fill:#00457F;}
	.st3{fill:#00457F;stroke:#00457F;stroke-width:2;stroke-miterlimit:10;}
</style>
<g>
	<g>
		<g>
			<g>
				<path class="st2" d="M247.88,220.78c-6.19,0-11.92,2.09-16.49,5.61c-0.43,0.32-0.84,0.66-1.24,1.02
					c-0.41,0.34-0.8,0.72-1.19,1.09l-1.05-1.24l-1.02-1.2l-14.91-17.61l-1.02-1.19l-1.07-1.28c0.38-0.4,0.74-0.79,1.09-1.19
					c0.36-0.4,0.73-0.8,1.08-1.22c12.44-14.38,19.99-33.12,20.01-53.57c0-20.44-7.51-39.17-19.93-53.56
					c-0.35-0.41-0.71-0.81-1.07-1.21c-0.36-0.41-0.73-0.8-1.09-1.2l1.07-1.26l1.02-1.2l14.89-17.56l1.02-1.21l1.05-1.23
					c0.39,0.37,0.78,0.74,1.19,1.08c0.41,0.35,0.81,0.69,1.24,1.01c4.57,3.48,10.27,5.56,16.43,5.56
					c14.93-0.01,27.09-12.18,27.12-27.1C275,37.16,262.84,25,247.88,25c-14.95,0-27.1,12.16-27.1,27.12c0,4.61,1.16,8.95,3.19,12.75
					c0.27,0.5,0.56,1.01,0.86,1.49c0.29,0.47,0.6,0.94,0.93,1.39l-1.08,1.28l-1.06,1.24l-15.07,17.78l-1.01,1.19l-1.07,1.26
					c-0.39-0.38-0.77-0.74-1.17-1.09c-0.4-0.36-0.79-0.72-1.2-1.08c-14.45-12.7-33.4-20.41-54.1-20.41
					c-20.36,0-39.01,7.46-53.37,19.78c-0.41,0.34-0.81,0.7-1.21,1.06c-0.4,0.35-0.79,0.72-1.19,1.09l-1.07-1.26l-1.02-1.2
					L76.93,69.47l-1.05-1.24l-1.09-1.29c0.31-0.47,0.61-0.94,0.88-1.44c0.3-0.49,0.57-1.01,0.81-1.53
					c1.76-3.58,2.74-7.61,2.74-11.85C79.22,37.16,67.07,25,52.12,25S25,37.16,25,52.12c0,14.95,12.16,27.1,27.12,27.1
					c6.51,0,12.49-2.3,17.16-6.15c0.42-0.33,0.83-0.69,1.21-1.05c0.4-0.38,0.78-0.75,1.15-1.14l1.05,1.24l1.03,1.21L88.6,90.88
					l1.01,1.19l1.07,1.26c-0.36,0.4-0.73,0.78-1.1,1.18c-0.36,0.4-0.73,0.8-1.08,1.21c-12.8,14.47-20.57,33.48-20.57,54.27
					c0,20.81,7.79,39.85,20.62,54.33c0.35,0.41,0.72,0.81,1.09,1.21c0.36,0.4,0.73,0.79,1.1,1.18l-1.07,1.26l-1.02,1.2l-14.88,17.52
					l-1.03,1.21l-1.05,1.24c-0.36-0.39-0.75-0.76-1.15-1.14c-0.39-0.36-0.78-0.71-1.2-1.05h-0.01c-4.68-3.87-10.7-6.19-17.22-6.19
					c-14.95,0-27.12,12.15-27.12,27.1C25,262.84,37.16,275,52.12,275c14.93-0.01,27.09-12.18,27.1-27.12c0-4.22-0.98-8.22-2.7-11.79
					c-0.25-0.51-0.51-1.03-0.81-1.52c-0.26-0.49-0.56-0.98-0.87-1.45l1.09-1.3l1.06-1.24l15.21-17.93l1.01-1.2l1.07-1.25
					c0.39,0.36,0.79,0.72,1.19,1.08c0.4,0.35,0.8,0.71,1.21,1.06c14.35,12.28,32.99,19.73,53.32,19.73
					c20.66-0.02,39.56-7.72,54.01-20.4c0.41-0.35,0.8-0.71,1.2-1.07c0.4-0.35,0.78-0.72,1.17-1.09l1.08,1.26l1.01,1.19l15.11,17.82
					l1.05,1.25l1.08,1.26c-0.32,0.46-0.63,0.91-0.92,1.39v0.01c-0.3,0.48-0.59,0.99-0.85,1.49c-2.01,3.78-3.16,8.1-3.16,12.68
					c0,14.95,12.15,27.12,27.1,27.12c14.94-0.01,27.1-12.18,27.12-27.12C275,232.93,262.84,220.78,247.88,220.78z M225.73,52.12
					c0-12.22,9.94-22.16,22.15-22.16c6.1,0.01,11.64,2.5,15.66,6.51c4.01,4.02,6.49,9.56,6.51,15.66c0,12.22-9.95,22.15-22.16,22.15
					c-5.09,0-9.79-1.73-13.53-4.62c0-0.01,0-0.01,0-0.01c-0.47-0.35-0.93-0.74-1.37-1.15c-0.66-0.6-1.29-1.24-1.86-1.92
					c-0.2-0.23-0.4-0.46-0.58-0.7c-0.01-0.01-0.01-0.01-0.02-0.02c-0.55-0.69-1.05-1.4-1.5-2.15c-0.32-0.5-0.61-1.02-0.88-1.54
					C226.6,59.15,225.73,55.73,225.73,52.12z M72.2,61.46c-0.26,0.55-0.54,1.08-0.84,1.6c-1,1.77-2.24,3.38-3.68,4.8
					c-0.43,0.42-0.87,0.83-1.34,1.2c0,0.01,0,0.01,0,0.01c-3.85,3.25-8.82,5.2-14.23,5.2c-12.22,0-22.16-9.94-22.16-22.15
					c0-12.22,9.95-22.16,22.16-22.16c6.1,0.01,11.64,2.5,15.65,6.51c4.02,4.02,6.51,9.56,6.51,15.66
					C74.27,55.45,73.53,58.62,72.2,61.46z M52.12,270.05c-12.22,0-22.16-9.95-22.16-22.16c0-12.22,9.95-22.15,22.16-22.15
					c5.42,0,10.41,1.97,14.27,5.24c0.46,0.37,0.9,0.78,1.32,1.2c0.02,0.02,0.04,0.04,0.06,0.06c0.73,0.72,1.4,1.5,2.01,2.32
					c0.61,0.79,1.16,1.63,1.65,2.51c0.29,0.51,0.57,1.04,0.81,1.59c1.3,2.82,2.03,5.95,2.03,9.24
					C74.27,260.1,64.33,270.05,52.12,270.05z M208.23,200.52c-0.42,0.47-0.84,0.94-1.25,1.4c-1.41,1.54-2.88,3.02-4.4,4.45
					c-0.45,0.43-0.91,0.85-1.37,1.24c-13.62,12.12-31.56,19.5-51.2,19.5c-19.28,0-36.94-7.12-50.48-18.85
					c-0.46-0.4-0.92-0.81-1.38-1.23c-1.56-1.43-3.08-2.93-4.52-4.47c-0.43-0.45-0.84-0.9-1.24-1.36
					c-12.11-13.62-19.48-31.56-19.48-51.2c0-19.58,7.34-37.49,19.4-51.1c0.41-0.46,0.81-0.91,1.23-1.36
					c0.62-0.66,1.24-1.32,1.89-1.96c0.25-0.24,0.49-0.48,0.74-0.72c0-0.01,0-0.01,0.01-0.02c0.64-0.63,1.3-1.24,1.96-1.85
					c0.45-0.41,0.91-0.81,1.37-1.22C113.03,80.01,130.7,72.89,150,72.89c19.63,0.02,37.58,7.42,51.21,19.58
					c0.46,0.41,0.92,0.81,1.37,1.24c0.64,0.6,1.26,1.2,1.89,1.82c0.87,0.87,1.71,1.75,2.54,2.66c0.42,0.46,0.83,0.92,1.23,1.39
					c11.74,13.54,18.85,31.16,18.87,50.42C227.11,169.3,219.99,186.98,208.23,200.52z M247.88,270.05
					c-12.22,0-22.15-9.95-22.15-22.16c0-3.59,0.86-7,2.39-10c0.27-0.53,0.56-1.04,0.87-1.54c0.48-0.8,1.03-1.58,1.62-2.3
					c0.14-0.13,0.27-0.28,0.38-0.44c0-0.01,0.01-0.01,0.01-0.02c0.59-0.72,1.24-1.39,1.94-2.01v-0.01c0.43-0.4,0.88-0.78,1.35-1.14
					c3.75-2.94,8.48-4.68,13.6-4.68c6.1,0,11.64,2.49,15.66,6.51c4.01,4.01,6.49,9.55,6.51,15.65
					C270.05,260.1,260.1,270.05,247.88,270.05z"/>
			</g>
			<g>
				<path class="st2" d="M247.89,276.5c-15.77,0-28.61-12.84-28.61-28.62c0-4.66,1.15-9.29,3.34-13.38c0.22-0.43,0.48-0.9,0.78-1.38
					l0.11-0.18c0.11-0.18,0.21-0.35,0.32-0.52l-1.4-1.66l-16.17-19.07c-0.02,0.02-0.03,0.03-0.05,0.04
					c-0.39,0.36-0.8,0.72-1.22,1.08c-15.23,13.37-34.76,20.74-54.99,20.76c-19.88,0-39.16-7.14-54.3-20.09
					c-0.42-0.37-0.83-0.72-1.24-1.08l-0.05-0.05l-1.07,1.27l-16.66,19.64c0.13,0.22,0.24,0.42,0.35,0.62
					c0.25,0.41,0.54,0.95,0.84,1.57c1.89,3.91,2.85,8.09,2.85,12.44c-0.01,15.77-12.84,28.6-28.6,28.62
					c-15.78,0-28.62-12.84-28.62-28.62c0-15.77,12.84-28.61,28.62-28.61c6.44,0,12.72,2.2,17.75,6.2h0l0.43,0.34
					c0.45,0.37,0.87,0.73,1.28,1.12c0.01,0.01,0.01,0.01,0.02,0.02l0,0l17.13-20.18c-0.05-0.05-0.1-0.11-0.15-0.16
					c-0.43-0.45-0.8-0.88-1.17-1.3C73.88,190.04,66.42,170.39,66.42,150c0-20.37,7.44-40,20.94-55.27c0.35-0.41,0.73-0.83,1.1-1.23
					c0.07-0.07,0.13-0.14,0.2-0.21l-17.14-20.2c-0.01,0.01-0.01,0.01-0.02,0.02c-0.42,0.4-0.86,0.78-1.31,1.13
					c-5.07,4.17-11.5,6.48-18.09,6.48c-15.78,0-28.62-12.83-28.62-28.61c0-15.78,12.84-28.62,28.62-28.62
					c15.77,0,28.61,12.84,28.61,28.62c0,4.39-0.97,8.6-2.9,12.52c-0.28,0.6-0.57,1.15-0.88,1.65c-0.09,0.17-0.2,0.35-0.3,0.53
					L94.36,87.7c0.02-0.02,0.04-0.03,0.06-0.05c0.39-0.36,0.82-0.73,1.24-1.09c15.13-12.98,34.43-20.14,54.34-20.14
					c20.28,0,39.85,7.38,55.09,20.78l0.13,0.11c0.37,0.33,0.74,0.66,1.1,0.99c0.01,0.01,0.02,0.02,0.03,0.03l1.06-1.25l16.47-19.42
					c-0.11-0.17-0.21-0.34-0.32-0.51c-0.31-0.5-0.62-1.04-0.9-1.57c-2.2-4.12-3.37-8.77-3.37-13.46c0-15.78,12.83-28.62,28.61-28.62
					c15.78,0,28.62,12.84,28.62,28.62c-0.02,15.76-12.86,28.59-28.61,28.61c-6.31,0-12.31-2.03-17.34-5.87
					c-0.45-0.33-0.88-0.69-1.32-1.07c-0.02-0.02-0.05-0.04-0.07-0.06L211.97,94c0.07,0.08,0.14,0.16,0.21,0.24
					c0.36,0.39,0.72,0.81,1.09,1.23c13.09,15.16,20.3,34.53,20.3,54.54c-0.02,20.01-7.26,39.38-20.38,54.55
					c-0.36,0.42-0.73,0.84-1.11,1.26c-0.07,0.07-0.13,0.15-0.2,0.22l1.23,1.44l15.97,18.86c0.03-0.03,0.06-0.05,0.09-0.08
					c0.42-0.36,0.85-0.73,1.31-1.07c5.02-3.86,11.04-5.91,17.39-5.91c15.78,0,28.62,12.83,28.62,28.61
					C276.49,263.65,263.65,276.49,247.89,276.5z M226.29,234.13L226.29,234.13l-0.23,0.38c-0.3,0.47-0.56,0.94-0.78,1.38
					c-1.97,3.69-3,7.83-3,12c0,14.12,11.49,25.62,25.61,25.62c14.11-0.01,25.61-11.5,25.62-25.62c0-14.12-11.49-25.6-25.62-25.6
					c-5.68,0-11.07,1.83-15.58,5.29c-0.41,0.31-0.79,0.63-1.17,0.96c-0.4,0.34-0.77,0.69-1.13,1.04l-1.15,1.12l-20.97-24.77
					l0.92-0.97c0.37-0.39,0.72-0.77,1.06-1.16c0.37-0.4,0.72-0.79,1.06-1.19c12.66-14.63,19.64-33.31,19.66-52.6
					c0-19.29-6.95-37.96-19.57-52.57c-0.34-0.4-0.69-0.79-1.04-1.18c-0.37-0.42-0.73-0.81-1.09-1.2l-0.9-0.98l20.95-24.7l1.15,1.12
					c0.36,0.35,0.73,0.69,1.11,1.01c0.4,0.34,0.78,0.66,1.18,0.96c4.52,3.45,9.88,5.26,15.53,5.26c14.1-0.01,25.59-11.5,25.62-25.61
					c0-14.12-11.49-25.61-25.62-25.61c-14.12,0-25.61,11.49-25.61,25.62c0,4.19,1.04,8.36,3.02,12.05c0.25,0.48,0.53,0.95,0.81,1.4
					c0.3,0.49,0.58,0.91,0.87,1.3l0.71,0.96l-21.1,24.88l-1.15-1.12c-0.37-0.36-0.74-0.71-1.12-1.05c-0.37-0.34-0.72-0.66-1.08-0.98
					l-0.12-0.1c-14.69-12.91-33.55-20.03-53.1-20.03c-19.19,0-37.8,6.9-52.4,19.42c-0.4,0.34-0.79,0.68-1.17,1.03
					c-0.4,0.36-0.79,0.71-1.18,1.08l-1.15,1.09l-21.2-24.99l0.62-0.94c0.26-0.39,0.56-0.85,0.81-1.33c0.29-0.47,0.53-0.93,0.77-1.45
					c1.73-3.52,2.6-7.29,2.6-11.22c0-14.12-11.49-25.62-25.61-25.62c-14.12,0-25.62,11.49-25.62,25.62
					c0,14.12,11.49,25.61,25.62,25.61c5.9,0,11.66-2.06,16.21-5.81c0.4-0.32,0.78-0.64,1.13-0.98c0.38-0.35,0.74-0.71,1.09-1.07
					l1.15-1.22l3.16,3.74l17.82,21.01l-0.9,0.97c-0.37,0.4-0.74,0.79-1.12,1.19c-0.34,0.37-0.7,0.77-1.04,1.16
					c-13.03,14.73-20.2,33.65-20.2,53.29c0,19.66,7.19,38.6,20.24,53.33c0.35,0.4,0.7,0.79,1.06,1.18c0.4,0.44,0.74,0.8,1.09,1.16
					l0.95,0.98l-21.01,24.76l-1.15-1.22c-0.35-0.37-0.71-0.72-1.09-1.08c-0.26-0.25-0.53-0.48-0.8-0.72l-0.33-0.27
					c-4.57-3.77-10.35-5.85-16.27-5.85c-14.12,0-25.62,11.49-25.62,25.61c0,14.12,11.49,25.62,25.62,25.62
					c14.11-0.01,25.6-11.5,25.61-25.62c0-3.89-0.86-7.63-2.55-11.14c-0.25-0.53-0.5-0.99-0.75-1.4c-0.25-0.46-0.49-0.87-0.84-1.4
					l-0.62-0.94l2.88-3.4l18.31-21.58l1.15,1.08c0.22,0.21,0.45,0.41,0.68,0.62l0.5,0.45c0.38,0.34,0.78,0.68,1.18,1.03
					c14.59,12.48,33.18,19.36,52.34,19.36c19.5-0.02,38.33-7.13,53.02-20.02c0.4-0.35,0.79-0.69,1.18-1.05
					c0.4-0.35,0.77-0.7,1.14-1.06l1.15-1.11l3.13,3.67l18,21.22l-0.67,0.95C226.71,233.49,226.5,233.81,226.29,234.13z
					 M247.88,271.55c-13.04,0-23.65-10.62-23.65-23.66c0-3.72,0.88-7.41,2.55-10.68c0.28-0.55,0.59-1.11,0.93-1.65
					c0.5-0.83,1.08-1.66,1.73-2.46l0.41-0.49c0.54-0.66,1.14-1.29,1.78-1.88l0.29-0.27c0.51-0.47,0.99-0.88,1.47-1.23
					c4.16-3.25,9.18-4.99,14.5-4.99c6.3,0,12.24,2.47,16.72,6.95c4.47,4.47,6.93,10.4,6.95,16.71
					C271.55,260.93,260.93,271.55,247.88,271.55z M231.71,235.05c-0.54,0.67-1.02,1.36-1.44,2.06c-0.3,0.49-0.57,0.97-0.82,1.45
					c-1.46,2.85-2.23,6.07-2.23,9.32c0,11.39,9.27,20.66,20.65,20.66c11.39,0,20.66-9.27,20.66-20.66
					c-0.01-5.5-2.16-10.68-6.07-14.59c-3.91-3.91-9.1-6.07-14.6-6.07c-4.65,0-9.03,1.51-12.68,4.37c-0.26,0.2-0.51,0.4-0.77,0.63v0
					l-0.5,0.46c-0.51,0.46-1,0.94-1.44,1.45v0.07l-0.34,0.34C232.02,234.72,231.88,234.9,231.71,235.05z M52.12,271.55
					c-13.05,0-23.66-10.62-23.66-23.66c0-13.04,10.62-23.65,23.66-23.65c5.56,0,10.97,1.99,15.24,5.6c0.44,0.36,0.91,0.79,1.41,1.28
					c0.81,0.8,1.54,1.64,2.22,2.54c0.63,0.81,1.22,1.72,1.76,2.67c0.36,0.64,0.64,1.19,0.87,1.71c1.43,3.11,2.16,6.43,2.16,9.85
					C75.77,260.93,65.16,271.55,52.12,271.55z M52.12,227.23c-11.39,0-20.66,9.27-20.66,20.65c0,11.39,9.27,20.66,20.66,20.66
					c11.39,0,20.65-9.27,20.65-20.66c0-2.99-0.64-5.89-1.89-8.61c-0.2-0.45-0.44-0.91-0.76-1.48c-0.47-0.83-0.98-1.62-1.53-2.33
					c-0.6-0.8-1.23-1.52-1.88-2.16l-0.07-0.07c-0.42-0.42-0.82-0.78-1.2-1.1C61.69,228.97,56.97,227.23,52.12,227.23z M150,228.61
					c-18.89,0-37.17-6.83-51.46-19.22c-0.47-0.4-0.94-0.83-1.41-1.26c-1.54-1.4-3.09-2.93-4.61-4.55c-0.43-0.46-0.85-0.92-1.27-1.39
					c-12.81-14.4-19.86-32.94-19.86-52.19c0-19.2,7.02-37.7,19.78-52.1c0.41-0.47,0.83-0.93,1.26-1.39c0.64-0.68,1.27-1.35,1.93-2
					l0.75-0.74c0.67-0.65,1.33-1.28,2.01-1.9c0.46-0.41,0.92-0.82,1.37-1.22C112.81,78.22,131.1,71.39,150,71.39
					c19.26,0.02,37.81,7.11,52.21,19.96c0.47,0.41,0.94,0.83,1.41,1.28c0.65,0.6,1.28,1.21,1.91,1.85c0.96,0.96,1.81,1.85,2.59,2.71
					c0.43,0.47,0.84,0.94,1.26,1.42c12.39,14.29,19.22,32.54,19.24,51.4c0,18.91-6.84,37.2-19.25,51.51l-0.22,0.24
					c-0.35,0.4-0.71,0.8-1.06,1.19c-1.41,1.54-2.92,3.06-4.49,4.54c-0.46,0.44-0.94,0.87-1.42,1.29
					C187.79,221.55,169.26,228.61,150,228.61z M97.64,95.48v0.02l-1.2,1.16c-0.61,0.61-1.22,1.25-1.83,1.9
					c-0.41,0.44-0.8,0.88-1.2,1.33C81.14,113.74,74.39,131.54,74.39,150c0,18.52,6.79,36.34,19.11,50.2
					c0.4,0.45,0.79,0.89,1.21,1.32c1.48,1.57,2.97,3.05,4.45,4.39c0.45,0.41,0.9,0.82,1.35,1.21c13.75,11.92,31.33,18.49,49.5,18.49
					c18.52,0,36.35-6.79,50.2-19.12c0.46-0.4,0.9-0.8,1.33-1.21c1.53-1.43,2.98-2.9,4.33-4.38c0.34-0.38,0.69-0.77,1.04-1.16
					l0.2-0.22c11.94-13.76,18.51-31.35,18.51-49.53c-0.02-18.13-6.59-35.69-18.51-49.43c-0.4-0.46-0.8-0.92-1.21-1.37
					c-0.75-0.83-1.56-1.68-2.49-2.6c-0.61-0.61-1.22-1.2-1.85-1.79c-0.45-0.42-0.89-0.82-1.34-1.21
					C186.36,81.23,168.53,74.41,150,74.39c-18.17,0-35.76,6.57-49.53,18.51c-0.46,0.4-0.91,0.8-1.35,1.2
					C98.63,94.55,98.13,95.01,97.64,95.48z M247.88,75.77c-5.28,0-10.27-1.71-14.44-4.93l-0.58-0.47c-0.3-0.25-0.6-0.51-0.89-0.78
					c-0.69-0.62-1.36-1.31-1.98-2.04c-0.19-0.2-0.39-0.45-0.58-0.69l-0.06-0.07c-0.6-0.75-1.14-1.53-1.61-2.32
					c-0.32-0.5-0.63-1.04-0.93-1.63c-1.68-3.29-2.58-7-2.58-10.72c0-13.05,10.61-23.66,23.65-23.66c6.3,0.01,12.24,2.48,16.72,6.94
					c4.47,4.48,6.94,10.42,6.95,16.72C271.55,65.16,260.93,75.77,247.88,75.77z M235.86,68.9c3.52,2.54,7.66,3.87,12.03,3.87
					c11.39,0,20.66-9.26,20.66-20.65c-0.01-5.5-2.17-10.68-6.07-14.6c-3.91-3.9-9.1-6.06-14.6-6.07c-11.39,0-20.65,9.27-20.65,20.66
					c0,3.25,0.78,6.49,2.25,9.36c0.26,0.51,0.52,0.97,0.81,1.42c0.41,0.68,0.86,1.33,1.36,1.96l0.09,0.1
					c0.16,0.21,0.33,0.41,0.5,0.6c0.57,0.67,1.15,1.27,1.76,1.82c0.42,0.39,0.84,0.74,1.27,1.06L235.86,68.9z M52.12,75.77
					c-13.05,0-23.66-10.61-23.66-23.65c0-13.05,10.62-23.66,23.66-23.66c6.31,0.01,12.24,2.48,16.71,6.95
					c4.48,4.48,6.95,10.42,6.95,16.72c0,3.49-0.74,6.85-2.21,9.98l0,0c-0.29,0.61-0.59,1.18-0.9,1.71
					c-1.03,1.83-2.35,3.56-3.91,5.11c-0.47,0.45-0.85,0.81-1.22,1.12l-0.21,0.18C63.07,73.8,57.68,75.77,52.12,75.77z M52.11,31.45
					c-11.39,0-20.66,9.27-20.66,20.66c0,11.39,9.27,20.65,20.66,20.65c4.62,0,9.12-1.56,12.73-4.41v-0.01l0.57-0.46
					c0.37-0.29,0.75-0.63,1.23-1.1c1.35-1.34,2.51-2.85,3.42-4.46c0.28-0.47,0.54-0.97,0.78-1.5l0,0c1.28-2.73,1.93-5.67,1.93-8.71
					c0-5.5-2.15-10.68-6.07-14.6C62.8,33.62,57.62,31.46,52.11,31.45z"/>
			</g>
		</g>
		<g>
			<g>
				<path class="st2" d="M247.88,275.38c-15.15,0-27.48-12.33-27.48-27.49c0-4.47,1.11-8.92,3.21-12.86
					c0.23-0.46,0.51-0.94,0.82-1.44l0.04-0.08c0.24-0.41,0.5-0.79,0.77-1.18l-1.95-2.3l-16.94-19.97c-0.29,0.28-0.59,0.56-0.89,0.83
					c-0.4,0.36-0.8,0.72-1.21,1.07c-15.03,13.19-34.3,20.47-54.25,20.49c-19.61,0-38.63-7.04-53.56-19.82
					c-0.41-0.36-0.82-0.71-1.22-1.07l-0.48-0.44c-0.14-0.13-0.28-0.25-0.42-0.38l-1.82,2.16L75.3,233.15
					c0.31,0.48,0.54,0.87,0.73,1.25c0.27,0.44,0.54,0.95,0.82,1.53c1.82,3.76,2.74,7.78,2.74,11.95
					c-0.01,15.15-12.34,27.48-27.48,27.49c-15.16,0-27.49-12.33-27.49-27.49c0-15.15,12.33-27.48,27.49-27.48
					c6.31,0,12.47,2.2,17.36,6.2l0.11,0.08c0.42,0.35,0.83,0.7,1.22,1.07c0.3,0.28,0.59,0.56,0.87,0.85l1.81-2.14l16.75-19.73
					c-0.28-0.29-0.55-0.59-0.83-0.89c-0.42-0.45-0.79-0.86-1.15-1.27C74.91,189.5,67.55,170.12,67.55,150
					c0-20.09,7.34-39.46,20.66-54.52c0.35-0.41,0.72-0.82,1.09-1.22c0.3-0.32,0.59-0.62,0.88-0.94L71.61,71.44
					c-0.28,0.29-0.57,0.57-0.87,0.85c-0.4,0.38-0.81,0.74-1.24,1.07c-4.88,4.02-11.06,6.23-17.39,6.23
					c-15.16,0-27.49-12.33-27.49-27.48c0-15.16,12.33-27.49,27.49-27.49c15.15,0,27.48,12.33,27.48,27.49
					c0,4.21-0.94,8.26-2.78,12.02c-0.27,0.58-0.55,1.09-0.83,1.56c-0.23,0.42-0.49,0.84-0.73,1.21l19.01,22.41
					c0.3-0.28,0.61-0.56,0.91-0.83c0.4-0.36,0.81-0.72,1.22-1.07c14.93-12.81,33.97-19.87,53.62-19.87
					c20.01,0,39.31,7.28,54.35,20.5l0.12,0.11c0.37,0.33,0.73,0.65,1.09,0.98c0.3,0.27,0.59,0.54,0.89,0.82l18.84-22.22
					c-0.26-0.36-0.51-0.75-0.77-1.18c-0.3-0.49-0.6-1-0.87-1.51c-2.12-3.96-3.24-8.43-3.24-12.93c0-15.16,12.33-27.49,27.48-27.49
					c15.16,0,27.49,12.33,27.49,27.49c-0.02,15.14-12.35,27.47-27.49,27.48c-6.06,0-11.82-1.95-16.66-5.64
					c-0.43-0.32-0.85-0.66-1.26-1.02c-0.31-0.26-0.62-0.54-0.92-0.82l-1.81,2.14l-16.76,19.77c0.29,0.32,0.58,0.63,0.87,0.96
					c0.36,0.4,0.72,0.81,1.08,1.22c12.92,14.95,20.03,34.06,20.03,53.8c-0.02,19.74-7.16,38.85-20.1,53.81
					c-0.35,0.42-0.72,0.83-1.09,1.23c-0.28,0.31-0.57,0.63-0.87,0.95l1.87,2.21l16.72,19.75c0.3-0.29,0.61-0.57,0.92-0.83
					c0.41-0.36,0.82-0.71,1.26-1.03c4.84-3.72,10.62-5.68,16.72-5.68c15.16,0,27.49,12.33,27.49,27.48
					C275.36,263.03,263.03,275.36,247.88,275.38z M225.16,233.81L225.16,233.81l-0.06,0.1c-0.31,0.5-0.59,0.99-0.83,1.46
					c-2.04,3.83-3.12,8.16-3.12,12.51c0,14.74,11.99,26.74,26.73,26.74c14.73-0.01,26.73-12.01,26.74-26.74
					c0-14.74-12-26.73-26.74-26.73c-5.93,0-11.56,1.91-16.27,5.53c-0.42,0.32-0.83,0.66-1.23,1c-0.41,0.34-0.79,0.71-1.17,1.08
					l-0.29,0.28l-19.54-23.08l0.23-0.24c0.37-0.39,0.73-0.79,1.08-1.18c0.37-0.4,0.73-0.8,1.08-1.21
					c12.83-14.83,19.9-33.76,19.92-53.32c0-19.56-7.05-38.49-19.84-53.31c-0.35-0.41-0.7-0.81-1.06-1.2
					c-0.37-0.41-0.73-0.8-1.09-1.2l-0.22-0.24L229,71.02l0.29,0.28c0.38,0.37,0.77,0.73,1.17,1.06c0.41,0.35,0.81,0.68,1.23,1
					c4.71,3.59,10.31,5.49,16.21,5.49c14.72-0.01,26.72-12,26.74-26.73c0-14.74-12-26.74-26.74-26.74c-14.74,0-26.73,12-26.73,26.74
					c0,4.38,1.09,8.73,3.15,12.58c0.26,0.5,0.55,0.99,0.84,1.47c0.31,0.51,0.61,0.96,0.92,1.37l0.18,0.24L206.5,91.05l-0.29-0.28
					c-0.38-0.37-0.76-0.73-1.16-1.08c-0.36-0.33-0.72-0.65-1.08-0.98l-0.12-0.1C188.95,75.51,169.83,68.3,150,68.3
					c-19.46,0-38.33,6.99-53.13,19.69c-0.41,0.34-0.81,0.69-1.2,1.05c-0.4,0.36-0.79,0.72-1.19,1.09l-0.29,0.27L74.32,66.97
					l0.16-0.24c0.27-0.41,0.58-0.9,0.86-1.41c0.28-0.46,0.54-0.95,0.8-1.51c1.8-3.66,2.71-7.6,2.71-11.7
					c0-14.74-11.99-26.74-26.73-26.74c-14.74,0-26.74,12-26.74,26.74c0,14.74,12,26.73,26.74,26.73c6.16,0,12.17-2.15,16.92-6.07
					c0.41-0.33,0.81-0.67,1.19-1.03c0.39-0.37,0.77-0.74,1.13-1.12l0.29-0.31L74,73.09l17.18,20.25l-0.22,0.24
					c-0.37,0.4-0.73,0.78-1.11,1.18c-0.36,0.39-0.72,0.79-1.07,1.2C75.57,110.9,68.3,130.09,68.3,150
					c0,19.93,7.29,39.14,20.53,54.08c0.35,0.41,0.71,0.81,1.08,1.2c0.4,0.43,0.75,0.81,1.1,1.17l0.24,0.24l-19.54,23.02l-0.29-0.3
					c-0.36-0.38-0.74-0.75-1.13-1.12c-0.35-0.33-0.7-0.64-1.08-0.95l-0.12-0.09c-4.77-3.94-10.8-6.11-16.98-6.11
					c-14.74,0-26.74,11.99-26.74,26.73c0,14.74,12,26.74,26.74,26.74c14.73-0.01,26.72-12.01,26.73-26.74
					c0-4.06-0.9-7.97-2.66-11.63c-0.27-0.56-0.53-1.05-0.8-1.49c-0.23-0.44-0.49-0.87-0.86-1.44l-0.15-0.23l2.34-2.76l17.54-20.68
					l0.29,0.27c0.23,0.21,0.46,0.43,0.7,0.64l0.49,0.44c0.39,0.35,0.8,0.7,1.2,1.05c14.8,12.66,33.65,19.64,53.07,19.64
					c19.77-0.02,38.86-7.23,53.76-20.3c0.41-0.35,0.8-0.7,1.19-1.07c0.4-0.35,0.78-0.71,1.16-1.08l0.29-0.28l2.35,2.76l17.43,20.56
					l-0.17,0.24C225.72,232.95,225.43,233.37,225.16,233.81z M247.88,270.42c-12.42,0-22.53-10.11-22.53-22.54
					c0-3.54,0.84-7.06,2.43-10.17c0.27-0.53,0.57-1.06,0.88-1.57c0.48-0.8,1.03-1.59,1.65-2.34c0.12-0.12,0.21-0.22,0.29-0.32v-0.04
					l0.1-0.1c0.57-0.69,1.2-1.35,1.88-1.97l0.09-0.09c0.48-0.45,0.93-0.83,1.38-1.16c3.98-3.11,8.76-4.76,13.83-4.76
					c6,0,11.66,2.35,15.92,6.62c4.26,4.26,6.61,9.91,6.62,15.91C270.42,260.31,260.31,270.42,247.88,270.42z M231.29,233.82
					c-0.12,0.18-0.27,0.35-0.43,0.5c-0.55,0.69-1.09,1.45-1.55,2.22c-0.31,0.5-0.6,1.01-0.86,1.52c-1.54,3.01-2.35,6.41-2.35,9.83
					c0,12.01,9.77,21.79,21.78,21.79c12.01,0,21.79-9.77,21.79-21.79c-0.01-5.8-2.28-11.27-6.4-15.38c-4.12-4.12-9.59-6.4-15.39-6.4
					c-4.9,0-9.52,1.59-13.37,4.6c-0.39,0.3-0.79,0.62-1.21,1.01v0l-0.13,0.12c-0.66,0.58-1.27,1.21-1.81,1.87v0.02L231.29,233.82z
					 M52.12,270.42c-12.43,0-22.54-10.11-22.54-22.54c0-12.42,10.11-22.53,22.54-22.53c5.3,0,10.45,1.89,14.51,5.33
					c0.43,0.35,0.87,0.75,1.34,1.22c0.78,0.77,1.47,1.56,2.11,2.42c0.6,0.78,1.17,1.64,1.68,2.55c0.35,0.62,0.61,1.13,0.83,1.62
					c1.37,2.97,2.06,6.13,2.06,9.39C74.64,260.31,64.54,270.42,52.12,270.42z M52.12,226.11c-12.01,0-21.79,9.77-21.79,21.78
					c0,12.01,9.77,21.79,21.79,21.79c12.01,0,21.78-9.77,21.78-21.79c0-3.15-0.67-6.21-1.99-9.08c-0.21-0.47-0.46-0.96-0.8-1.56
					c-0.49-0.88-1.04-1.71-1.62-2.46c-0.62-0.83-1.29-1.6-1.98-2.28l-0.07-0.07c-0.45-0.45-0.87-0.84-1.29-1.17
					C62.22,227.94,57.24,226.11,52.12,226.11z M150,227.49c-18.62,0-36.64-6.73-50.73-18.94c-0.46-0.4-0.93-0.82-1.39-1.24
					c-1.51-1.38-3.04-2.89-4.54-4.49c-0.43-0.45-0.84-0.91-1.25-1.37c-12.62-14.2-19.58-32.47-19.58-51.45
					c0-18.92,6.92-37.16,19.49-51.35c0.41-0.46,0.82-0.92,1.24-1.37c0.63-0.67,1.25-1.33,1.9-1.97l0.75-0.74
					c0.65-0.64,1.31-1.25,1.97-1.86c0.45-0.4,0.9-0.81,1.36-1.21c14.13-12.25,32.15-18.98,50.78-18.98
					c18.99,0.02,37.26,7.01,51.46,19.68c0.46,0.41,0.93,0.82,1.38,1.25c0.64,0.6,1.27,1.2,1.89,1.83c0.95,0.95,1.78,1.82,2.55,2.67
					c0.42,0.46,0.83,0.93,1.24,1.4c12.21,14.08,18.94,32.07,18.96,50.66c0,18.64-6.74,36.67-18.98,50.77l-0.21,0.23
					c-0.35,0.4-0.7,0.79-1.05,1.18c-1.38,1.51-2.87,3.01-4.42,4.47c-0.45,0.43-0.92,0.85-1.38,1.25
					C187.25,220.53,168.98,227.49,150,227.49z M96.52,95v0.01l-0.85,0.83c-0.63,0.63-1.25,1.28-1.87,1.95
					c-0.41,0.45-0.82,0.9-1.22,1.35c-12.45,14.05-19.3,32.11-19.3,50.85c0,18.79,6.89,36.89,19.39,50.95
					c0.41,0.46,0.81,0.91,1.23,1.35c1.49,1.59,3.01,3.09,4.5,4.45c0.46,0.42,0.92,0.83,1.37,1.23c13.96,12.1,31.8,18.76,50.24,18.76
					c18.8,0,36.89-6.89,50.95-19.4c0.46-0.4,0.92-0.81,1.36-1.23c1.54-1.44,3.02-2.93,4.39-4.43c0.35-0.38,0.7-0.78,1.05-1.17
					l0.2-0.23c12.12-13.96,18.79-31.82,18.79-50.28c-0.02-18.41-6.69-36.22-18.78-50.17c-0.41-0.47-0.81-0.93-1.23-1.39
					c-0.76-0.84-1.59-1.71-2.53-2.64c-0.62-0.62-1.24-1.22-1.88-1.81c-0.45-0.43-0.91-0.83-1.36-1.24
					C186.9,80.2,168.8,73.28,150,73.26c-18.45,0-36.3,6.67-50.27,18.78c-0.47,0.42-0.92,0.82-1.37,1.22
					C97.74,93.83,97.13,94.41,96.52,95z M247.88,74.64c-5.03,0-9.78-1.62-13.76-4.7l-0.15-0.12c-0.43-0.33-0.85-0.68-1.25-1.06
					c-0.66-0.6-1.3-1.26-1.89-1.95c-0.2-0.22-0.4-0.47-0.59-0.71c-0.59-0.73-1.1-1.47-1.55-2.21c-0.31-0.49-0.61-1-0.89-1.57
					c-1.6-3.13-2.45-6.66-2.45-10.21c0-12.43,10.11-22.54,22.53-22.54c6,0.01,11.66,2.36,15.92,6.62c4.26,4.27,6.61,9.92,6.62,15.92
					C270.42,64.54,260.31,74.64,247.88,74.64z M234.73,69.46c3.81,2.9,8.35,4.43,13.15,4.43c12.01,0,21.79-9.77,21.79-21.78
					c-0.01-5.8-2.28-11.27-6.4-15.39c-4.13-4.11-9.59-6.39-15.39-6.4c-12.01,0-21.78,9.77-21.78,21.79c0,3.43,0.82,6.85,2.37,9.87
					c0.27,0.54,0.56,1.03,0.86,1.51c0.43,0.72,0.93,1.43,1.48,2.12c0.2,0.25,0.39,0.48,0.58,0.7c0.58,0.68,1.2,1.31,1.84,1.89
					c0.44,0.4,0.89,0.78,1.34,1.12L234.73,69.46z M52.12,74.64c-12.43,0-22.54-10.11-22.54-22.53c0-12.43,10.11-22.54,22.54-22.54
					c6.01,0.01,11.66,2.36,15.91,6.62c4.27,4.27,6.62,9.92,6.62,15.92c0,3.32-0.71,6.52-2.1,9.51h0c-0.27,0.58-0.56,1.12-0.85,1.63
					c-0.99,1.76-2.25,3.4-3.74,4.88c-0.49,0.48-0.89,0.84-1.28,1.15l-0.09,0.08C62.55,72.77,57.41,74.64,52.12,74.64z M52.11,30.33
					c-12.01,0-21.79,9.77-21.79,21.79c0,12.01,9.77,21.78,21.79,21.78c5.06,0,9.97-1.77,13.86-5v-0.01l0.14-0.12
					c0.4-0.32,0.8-0.68,1.31-1.17c1.43-1.42,2.65-3.01,3.61-4.72c0.29-0.49,0.56-1.02,0.82-1.57l0,0c1.35-2.88,2.03-5.98,2.03-9.19
					c0-5.8-2.27-11.27-6.4-15.39C63.38,32.61,57.92,30.34,52.11,30.33z"/>
			</g>
			<g>
				<path class="st2" d="M247.89,276.88L247.89,276.88c-15.98,0-28.98-13-28.98-28.99c0-4.72,1.17-9.41,3.38-13.56
					c0.24-0.47,0.54-0.99,0.86-1.52c0.07-0.12,0.14-0.24,0.21-0.35l-17.15-20.22c-0.32,0.29-0.65,0.58-0.98,0.87
					c-15.3,13.43-34.92,20.83-55.23,20.86c-19.97,0-39.34-7.17-54.54-20.18l-0.11-0.1c-0.3-0.26-0.6-0.52-0.89-0.78L77.15,233.3
					c0.08,0.14,0.15,0.27,0.22,0.41c0.25,0.4,0.54,0.96,0.84,1.58c1.91,3.96,2.88,8.2,2.88,12.6
					c-0.01,15.97-13.01,28.98-28.98,28.99c-15.99,0-28.99-13-28.99-28.99c0-15.98,13-28.98,28.99-28.98
					c6.65,0,13.16,2.32,18.31,6.54l0.05,0.04c0.4,0.33,0.75,0.63,1.09,0.93l16.66-19.63c-0.4-0.43-0.75-0.82-1.1-1.22
					C73.54,190.22,66.05,170.48,66.05,150c0-20.46,7.47-40.18,21.04-55.52c0.35-0.4,0.71-0.81,1.08-1.21L71.5,73.63
					c-0.34,0.31-0.7,0.62-1.06,0.91c-5.13,4.22-11.64,6.56-18.33,6.56c-15.99,0-28.99-13-28.99-28.98c0-15.99,13-28.99,28.99-28.99
					c15.98,0,28.98,13,28.98,28.99c0,4.45-0.99,8.71-2.94,12.68c-0.28,0.6-0.58,1.16-0.9,1.68c-0.05,0.1-0.11,0.19-0.16,0.29
					l17.29,20.39c0.33-0.3,0.68-0.6,1.02-0.89C110.61,73.24,130,66.05,150,66.05c20.38,0,40.03,7.41,55.34,20.87l0.13,0.12
					c0.28,0.25,0.56,0.5,0.84,0.75l17.1-20.17c-0.06-0.09-0.12-0.19-0.18-0.29c-0.32-0.51-0.63-1.05-0.92-1.59
					c-2.23-4.17-3.41-8.89-3.41-13.63c0-15.99,13-28.99,28.98-28.99c15.99,0,28.99,13,28.99,28.99
					c-0.02,15.97-13.03,28.97-28.99,28.98c-6.4,0-12.47-2.06-17.57-5.95c-0.38-0.28-0.75-0.58-1.11-0.89l-16.73,19.73
					c0.36,0.39,0.72,0.81,1.09,1.23c13.15,15.23,20.39,34.68,20.39,54.78c-0.02,20.1-7.29,39.56-20.47,54.79
					c-0.35,0.41-0.72,0.83-1.09,1.24l16.74,19.77c0.36-0.31,0.74-0.62,1.13-0.92c5.09-3.91,11.18-5.98,17.62-5.98
					c15.99,0,28.99,13,28.99,28.98C276.86,263.86,263.86,276.86,247.89,276.88z M226.48,234.54l-0.06,0.11
					c-0.33,0.53-0.58,0.98-0.8,1.41c-1.94,3.64-2.96,7.72-2.96,11.83c0,13.92,11.32,25.24,25.23,25.24
					c13.91-0.01,25.23-11.33,25.24-25.24c0-13.91-11.32-25.23-25.24-25.23c-5.6,0-10.91,1.8-15.35,5.22
					c-0.41,0.31-0.78,0.62-1.15,0.95c-0.4,0.33-0.76,0.68-1.11,1.02l-1.44,1.4l-21.44-25.33l1.15-1.22
					c0.36-0.38,0.71-0.77,1.05-1.15c0.37-0.4,0.72-0.79,1.05-1.19c12.6-14.57,19.55-33.16,19.57-52.36
					c0-19.2-6.92-37.78-19.48-52.33c-0.34-0.39-0.68-0.79-1.03-1.17c-0.35-0.39-0.68-0.75-1.01-1.11l-1.2-1.3l21.42-25.26l1.44,1.4
					c0.35,0.34,0.72,0.68,1.09,0.99c0.4,0.34,0.77,0.65,1.16,0.94c4.45,3.4,9.74,5.19,15.3,5.19c13.9-0.01,25.22-11.33,25.24-25.23
					c0-13.92-11.32-25.24-25.24-25.24c-13.91,0-25.23,11.32-25.23,25.24c0,4.13,1.03,8.24,2.97,11.87c0.25,0.47,0.52,0.94,0.79,1.38
					c0.3,0.49,0.57,0.9,0.85,1.27l0.88,1.2L206.6,93.25l-1.44-1.4c-0.37-0.36-0.73-0.7-1.11-1.04c-0.37-0.34-0.73-0.66-1.08-0.98
					l-0.12-0.11C188.24,76.88,169.46,69.8,150,69.8c-19.1,0-37.63,6.87-52.15,19.33c-0.4,0.34-0.79,0.67-1.16,1.02
					c-0.4,0.36-0.79,0.71-1.17,1.08l-1.44,1.36L72.44,67.08l0.77-1.17c0.25-0.39,0.55-0.84,0.79-1.3c0.29-0.48,0.52-0.91,0.77-1.44
					c1.71-3.48,2.57-7.19,2.57-11.06c0-13.92-11.32-25.24-25.23-25.24c-13.92,0-25.24,11.32-25.24,25.24
					c0,13.91,11.32,25.23,25.24,25.23c5.81,0,11.48-2.03,15.97-5.72c0.4-0.32,0.76-0.64,1.12-0.97c0.37-0.35,0.73-0.7,1.07-1.06
					l1.44-1.53l21.47,25.32l-1.12,1.22c-0.33,0.36-0.67,0.71-1.01,1.07l-0.12,0.12c-0.34,0.37-0.69,0.76-1.03,1.15
					C76.94,111.62,69.8,130.45,69.8,150c0,19.57,7.16,38.42,20.15,53.08c0.35,0.4,0.7,0.79,1.05,1.17c0.42,0.46,0.75,0.81,1.09,1.16
					l1.19,1.22l-21.5,25.34l-1.44-1.52c-0.34-0.36-0.7-0.71-1.07-1.06c-0.32-0.31-0.65-0.59-1-0.88l-0.06-0.04
					c-4.56-3.76-10.25-5.81-16.09-5.81c-13.92,0-25.24,11.32-25.24,25.23c0,13.92,11.32,25.24,25.24,25.24
					c13.9-0.01,25.22-11.33,25.23-25.24c0-3.83-0.85-7.52-2.51-10.97c-0.25-0.52-0.49-0.97-0.73-1.36
					c-0.25-0.47-0.48-0.86-0.83-1.39l-0.77-1.17l21.63-25.5l1.44,1.35c0.22,0.21,0.44,0.41,0.67,0.61l0.49,0.44
					c0.38,0.34,0.77,0.68,1.17,1.02c14.53,12.44,33.04,19.29,52.11,19.29c19.41-0.02,38.15-7.1,52.77-19.93
					c0.4-0.35,0.79-0.69,1.17-1.04c0.4-0.36,0.76-0.7,1.13-1.06l1.44-1.39l3.39,3.98l18.18,21.44l-0.83,1.19
					C226.98,233.77,226.72,234.14,226.48,234.54z M247.88,271.92c-13.25,0-24.03-10.78-24.03-24.04c0-3.78,0.9-7.53,2.6-10.85
					c0.29-0.57,0.61-1.13,0.94-1.67c0.5-0.83,1.08-1.66,1.71-2.45v-0.01l0.49-0.57c0.56-0.69,1.25-1.4,1.99-2.07l0.02-0.03
					c0.57-0.53,1.06-0.94,1.55-1.31c4.22-3.3,9.32-5.06,14.73-5.06c6.4,0,12.43,2.5,16.98,7.05c4.54,4.54,7.04,10.57,7.06,16.97
					C271.92,261.14,261.14,271.92,247.88,271.92z M231.97,235.33c-0.5,0.63-0.97,1.31-1.37,1.98c-0.3,0.48-0.56,0.96-0.8,1.43
					c-1.43,2.8-2.19,5.96-2.19,9.15c0,11.19,9.1,20.29,20.28,20.29c11.19,0,20.29-9.1,20.29-20.29c-0.01-5.4-2.12-10.49-5.96-14.32
					c-3.84-3.84-8.93-5.96-14.33-5.96c-4.56,0-8.86,1.48-12.45,4.29c-0.36,0.27-0.7,0.55-1.06,0.88l-0.15,0.14
					c-0.51,0.45-0.95,0.9-1.36,1.35v0.04l-0.42,0.46C232.3,234.97,232.14,235.16,231.97,235.33z M52.12,271.92
					c-13.25,0-24.04-10.78-24.04-24.04c0-13.25,10.78-24.03,24.04-24.03c5.65,0,11.15,2.02,15.48,5.69c0.45,0.37,0.93,0.8,1.43,1.3
					c0.82,0.81,1.56,1.66,2.25,2.58c0.63,0.82,1.24,1.74,1.79,2.72c0.37,0.65,0.65,1.21,0.89,1.73c1.45,3.16,2.19,6.53,2.19,10.01
					C76.14,261.14,65.37,271.92,52.12,271.92z M52.12,227.61c-11.19,0-20.29,9.1-20.29,20.28c0,11.19,9.1,20.29,20.29,20.29
					c11.18,0,20.28-9.1,20.28-20.29c0-2.94-0.62-5.78-1.85-8.46c-0.2-0.44-0.43-0.89-0.74-1.45c-0.46-0.82-0.97-1.59-1.5-2.29
					c-0.59-0.79-1.21-1.5-1.85-2.12l-0.08-0.08c-0.41-0.41-0.8-0.76-1.18-1.07C61.52,229.31,56.88,227.61,52.12,227.61z M150,228.99
					c-18.98,0-37.35-6.86-51.71-19.31c-0.47-0.4-0.94-0.83-1.42-1.26c-1.54-1.4-3.1-2.94-4.63-4.57c-0.44-0.46-0.86-0.93-1.28-1.4
					C78.1,187.97,71.01,169.34,71.01,150c0-19.29,7.06-37.88,19.87-52.34c0.42-0.47,0.83-0.93,1.26-1.4
					c0.64-0.68,1.28-1.35,1.93-2.01l0.76-0.75c0.67-0.65,1.33-1.28,2.01-1.9c0.46-0.42,0.92-0.82,1.38-1.23
					c14.4-12.49,32.79-19.36,51.77-19.36c19.36,0.02,37.99,7.14,52.46,20.06c0.47,0.42,0.95,0.84,1.42,1.28
					c0.65,0.61,1.29,1.22,1.92,1.86c0.97,0.97,1.82,1.86,2.6,2.72c0.43,0.47,0.84,0.94,1.26,1.43
					c12.44,14.35,19.31,32.69,19.33,51.64c0,19-6.87,37.38-19.34,51.75l-0.22,0.25c-0.35,0.4-0.71,0.8-1.06,1.19
					c-1.42,1.55-2.93,3.08-4.51,4.56c-0.46,0.44-0.95,0.88-1.43,1.3C187.97,221.9,169.35,228.99,150,228.99z M98.02,95.64v0.01
					l-1.31,1.27c-0.61,0.61-1.21,1.25-1.82,1.9c-0.4,0.43-0.8,0.87-1.2,1.32C81.48,113.92,74.76,131.63,74.76,150
					c0,18.42,6.75,36.16,19.01,49.95c0.4,0.45,0.79,0.88,1.2,1.31c1.48,1.57,2.96,3.04,4.43,4.38c0.49,0.44,0.91,0.83,1.34,1.2
					c13.69,11.87,31.18,18.4,49.26,18.4c18.43,0,36.17-6.75,49.95-19.02c0.46-0.4,0.9-0.79,1.33-1.2c1.51-1.42,2.96-2.88,4.32-4.36
					c0.33-0.37,0.67-0.75,1.01-1.13l0.22-0.25c11.87-13.68,18.41-31.18,18.41-49.28c-0.02-18.04-6.56-35.51-18.42-49.19
					c-0.4-0.46-0.8-0.91-1.21-1.36c-0.76-0.84-1.57-1.68-2.48-2.59c-0.61-0.61-1.21-1.19-1.84-1.78c-0.42-0.4-0.84-0.77-1.26-1.14
					l-0.08-0.07c-13.78-12.3-31.53-19.09-49.96-19.11c-18.08,0-35.59,6.54-49.28,18.42c-0.45,0.4-0.9,0.8-1.34,1.2
					C98.92,94.79,98.47,95.21,98.02,95.64z M247.88,76.14c-5.36,0-10.44-1.73-14.67-5.01l-0.19-0.15c-0.42-0.33-0.88-0.71-1.31-1.11
					c-0.7-0.63-1.38-1.33-2.01-2.07c-0.2-0.22-0.43-0.49-0.64-0.77c-0.6-0.75-1.16-1.55-1.64-2.36c-0.32-0.51-0.64-1.06-0.94-1.66
					c-1.71-3.34-2.62-7.1-2.62-10.89c0-13.25,10.78-24.04,24.03-24.04c6.4,0.01,12.43,2.52,16.98,7.05
					c4.54,4.55,7.05,10.58,7.06,16.98C271.92,65.36,261.14,76.14,247.88,76.14z M235.66,68.29c3.54,2.69,7.77,4.11,12.22,4.11
					c11.19,0,20.29-9.1,20.29-20.28c-0.01-5.4-2.12-10.49-5.96-14.33c-3.84-3.83-8.93-5.95-14.33-5.95
					c-11.18,0-20.28,9.1-20.28,20.29c0,3.2,0.76,6.37,2.21,9.19c0.25,0.49,0.51,0.95,0.79,1.39c0.42,0.7,0.88,1.36,1.38,1.99
					c0.18,0.23,0.35,0.43,0.52,0.63c0.57,0.66,1.14,1.25,1.73,1.79c0.41,0.38,0.82,0.73,1.24,1.04L235.66,68.29z M52.12,76.14
					c-13.25,0-24.04-10.78-24.04-24.03c0-13.25,10.78-24.04,24.04-24.04c6.41,0.01,12.43,2.52,16.97,7.05
					c4.55,4.55,7.05,10.58,7.05,16.98c0,3.54-0.76,6.96-2.25,10.14c-0.29,0.62-0.6,1.21-0.92,1.75c-1.05,1.86-2.39,3.61-3.97,5.19
					c-0.54,0.53-0.97,0.91-1.39,1.25l-0.01,0.02C63.25,74.14,57.76,76.14,52.12,76.14z M52.11,31.83c-11.19,0-20.29,9.1-20.29,20.29
					c0,11.18,9.1,20.28,20.29,20.28c4.66,0,9.19-1.62,12.79-4.56l0.22-0.19c0.41-0.33,0.78-0.66,1.25-1.12
					c1.33-1.32,2.46-2.79,3.35-4.38c0.27-0.46,0.53-0.95,0.77-1.48c1.25-2.68,1.89-5.56,1.89-8.55c0-5.4-2.12-10.49-5.96-14.33
					C62.6,33.95,57.52,31.84,52.11,31.83z"/>
			</g>
		</g>
	</g>
	<g>
		<g>
			<g>
				<path class="st2" d="M194.1,161.29l-21.05-53.63c-0.39-1-1.25-1.71-2.3-1.91c-0.78-0.14-1.67,0.01-2.33,0.46
					c-0.68,0.45-1.15,1.15-1.34,1.99c-2.39,12.06-22.37,23.71-30.84,28.16l-0.79,0.41c-0.31,0.15-0.6,0.3-0.87,0.44
					c-1.41,0.71-2.37,1.17-2.71,1.32c-0.05,0.02-0.09,0.05-0.13,0.07l-16.31,6.4c-5.85,2.32-9.65,7.89-9.68,14.2
					c-0.02,4.11,1.56,7.98,4.45,10.89c2.36,2.39,5.33,3.91,8.62,4.4c0.59,0.08,1.31,0.16,1.92,0.15c0.39,0.06,1,0.02,1.52-0.03
					l8.67,15.46c1.45,2.59,4.2,4.22,7.2,4.24c0.98-0.01,1.94-0.2,2.85-0.56c2.17-0.85,3.84-2.6,4.6-4.78
					c0.81-2.28,0.6-4.8-0.58-6.91l-7.2-12.82l5.34-2.09c0.17-0.07,0.55-0.27,0.99-0.5c0.68-0.35,1.6-0.83,2.03-0.95l0.68-0.19
					c0.31-0.09,0.64-0.18,0.99-0.27c9.18-2.48,31.61-7.47,41.53-0.27c0.87,0.62,1.98,0.77,2.97,0.38c0.78-0.3,1.39-0.89,1.74-1.66
					C194.4,162.92,194.41,162.07,194.1,161.29z M139.54,185.11l0.01,0.01c0.3,0.51,0.36,1.16,0.15,1.76
					c-0.14,0.46-0.52,0.85-0.95,1.03l-0.15,0.05c-0.16,0.05-0.34,0.08-0.52,0.08c-0.72,0-1.39-0.42-1.72-1.09l-7.9-14.08l3.45-1.36
					L139.54,185.11z M137.93,162.45l-13.59,5.33c-0.23,0.1-0.57,0.25-1.04,0.4c-0.9,0.28-1.83,0.43-2.85,0.43
					c-0.58-0.01-1.11-0.06-1.6-0.16c-0.87-0.16-1.71-0.45-2.5-0.86c-2.16-1.11-3.76-3.01-4.51-5.35c-0.74-2.31-0.53-4.78,0.6-6.95
					c1.12-2.18,3.02-3.78,5.38-4.51l13.44-5.29L137.93,162.45z M187.27,157.89l-3.8-0.83c-12.35-2.7-28.47,0.84-36.97,3.18
					c-0.34,0.09-0.65,0.18-0.94,0.26l-6.96-19.57c0.07-0.04,0.15-0.07,0.22-0.11c7.85-4.06,22.1-12.42,29.29-22.82l2.24-3.21
					L187.27,157.89z"/>
			</g>
		</g>
	</g>
</g>
</svg>
