<?xml version="1.0" encoding="utf-8"?>
<!-- Generator: Adobe Illustrator 26.3.1, SVG Export Plug-In . SVG Version: 6.00 Build 0)  -->
<svg version="1.1" id="Layer_1" xmlns="http://www.w3.org/2000/svg" xmlns:xlink="http://www.w3.org/1999/xlink" x="0px" y="0px"
	 viewBox="0 0 300 300" style="enable-background:new 0 0 300 300;" xml:space="preserve">
<style type="text/css">
	.st0{fill:#00457F;}
</style>
<g>
	<g>
		<g>
			<path class="st0" d="M187.5,211.1H158c-1,0-1.5,0.5-1.5,1.5v18.8c0,1,0.5,1.5,1.5,1.5h29.5c1,0,1.5-0.5,1.5-1.5v-18.8
				C189.1,211.6,188.6,211.1,187.5,211.1z M185,228.9h-24.5v-13.7H185V228.9z"/>
		</g>
		<g>
			<path class="st0" d="M223,23.5c-29.3,0-53,23.8-53,53.1c0,19.3,22.7,62.6,41.8,95.6c2.2,4,6.6,6.6,11.3,6.6
				c4.7,0,9.1-2.5,11.7-6.6c19-32.9,41.7-76.2,41.7-95.6C276.5,47.8,252,23.5,223,23.5z M231.4,170.1c-0.9,1.5-2,2.6-3.4,3.4
				c-1.3,0.8-2.9,1.2-4.5,1.2c-3.3,0-6.2-1.6-7.9-4.5C188.8,124.6,174,91.4,174,76.6c0-27,22-49,49-49c26.8,0,49.4,22.4,49.4,49
				C272.4,91.1,257.9,124.4,231.4,170.1z"/>
		</g>
		<g>
			<g>
				<path class="st0" d="M253.9,63.9c-1.6-4-4-7.6-7.1-10.7c-6.2-6.2-14.5-9.6-23.3-9.6s-17.2,3.4-23.3,9.6
					c-6.2,6.2-9.6,14.5-9.6,23.4s3.4,17.1,9.6,23.3c6.2,6.2,14.5,9.6,23.3,9.6s17.2-3.4,23.3-9.6c6.2-6.2,9.6-14.5,9.6-23.3
					C256.4,72.1,255.5,67.8,253.9,63.9z M223.4,104.9c-15.4,0-28.3-13-28.3-28.4c0-15.6,12.7-28.4,28.3-28.4
					c15.4,0,28.4,13,28.4,28.4S238.8,104.9,223.4,104.9z"/>
			</g>
		</g>
		<g>
			<path class="st0" d="M113.3,197.2H70.2c-5.4,0-9.5,4.1-9.5,9.5v29.5c0,5.4,4.1,9.5,9.5,9.5h43.1c5.4,0,9.5-4.1,9.5-9.5v-29.5
				C122.8,201.2,118.7,197.2,113.3,197.2z M118.8,236.2c0,3.2-2.2,5.5-5.5,5.5H70.2c-3.2,0-5.5-2.2-5.5-5.5v-29.5
				c0-3.2,2.2-5.5,5.5-5.5h43.1c3.2,0,5.5,2.2,5.5,5.5V236.2z"/>
		</g>
		<g>
			<g>
				<path class="st0" d="M160.1,247.8v5.2c0,1.6-0.9,2.5-2.5,2.5c-1.6,0-2.5-1-2.5-2.5v-5.2c0-1.6,1-2.5,2.5-2.5
					C159.2,245.3,160.1,246.2,160.1,247.8z"/>
			</g>
		</g>
	</g>
	<path class="st0" d="M243.4,271h-8.8v-80.2c0-1.7-1.1-2.8-2.8-2.8c-1.7,0-2.8,1.1-2.8,2.8V271h-25.6v-65.1c0-6.6-5.5-12-12.3-12
		H154c-6.9,0-12,5-12,12V271H42.6v-99.7l1.4,0.3c1.4,0.2,2.8,0.4,4.2,0.4c8.3,0,16.3-4.5,20.9-11.8l1-1.6l1,1.6
		c4.6,7.3,12.6,11.8,20.9,11.8c8.1,0,16.1-4.4,20.7-11.6l1-1.6l1,1.6c4.6,7.1,12.6,11.6,20.7,11.6c8.3,0,16.3-4.5,20.9-11.8l1-1.6
		l1,1.6c4.6,7.3,12.6,11.8,20.9,11.8c5,0,10-1.7,14.5-5c0.6-0.4,0.9-1,1-1.4c0.2-0.8,0-1.7-0.5-2.4l-0.1-0.1c-0.5-0.9-1.5-1-2-1
		c-0.7,0-1.3,0.2-1.8,0.6c-3.3,2.5-7.2,3.8-11.1,3.8c-10.2,0-19.2-9-19.2-19.2v-10.8h15.6c1,0,1.9-0.4,2.3-1.1
		c0.3-0.4,0.4-1,0.4-1.6c0-1.7-1-2.8-2.8-2.8h-15.8l-7-44.8h4.2c1.7,0,3.6-0.1,3.6-1.8c0-1.7-1.3-2.1-3-2.1l-9.1,0h-25.2l-55.7-0.1
		c-5.2,0-7.7,1.8-9.8,5.5l0,0l-33.5,43.8l-0.1,0.1c-0.4,0.3-0.6,0.8-0.8,1.4c-0.1,0.3-0.1,0.6-0.1,0.9l0,0.1v13.3
		c0,8.8,5,17.1,12.9,21.6l0.6,0.4V271h-9.2c-1.7,0-2.8,1-2.8,2.8c0,1.7,1,2.8,2.8,2.8h215.5c1.7,0,2.8-1.1,2.8-2.8
		C246.2,272,245.1,271,243.4,271z M111.1,150.1c-1.5,9.1-9.8,16.3-18.9,16.3c-10.2,0-19.2-9-19.2-19.2v-10.8h38v10.8
		c0,0.8,0,1.7,0.1,2.6l0,0.2L111.1,150.1z M154.8,147.2c0,10.2-9,19.2-19.2,19.2c-9.1,0-17.4-7.2-18.9-16.3l0-0.2l0-0.2
		c0.1-0.9,0.2-1.7,0.2-2.6v-10.8h38V147.2z M148.6,86.1l0.3,2.1l5.1,31.5l1.4,9.6l0.3,1.9l-39.4,0l7-45H148.6z M93,87.5l0.7-1.4
		h25.7l-0.4,2.8l-6.4,41.1l-0.2,1.1H73.2l1.1-2.5l3.5-7.8L93,87.5z M32.3,128.2l29.1-38.3c2.3-3.4,6.6-3.8,8.4-3.8H90l-1.6,3.5
		l-18.8,41.1l-0.2,0.5H30L32.3,128.2z M29.1,147.2v-10.8h38.4v10.8c0,10.2-9,19.2-19.2,19.2C38,166.4,29.1,157.4,29.1,147.2z
		 M198.2,271.2h-50.8v-65.3c0-4,2.6-6.7,6.7-6.7h37.1c4.4,0,7.1,3.5,7.1,6.7V271.2z"/>
</g>
</svg>
