<?xml version="1.0" encoding="utf-8"?>
<!-- Generator: Adobe Illustrator 26.3.1, SVG Export Plug-In . SVG Version: 6.00 Build 0)  -->
<svg version="1.1" id="Layer_1" xmlns="http://www.w3.org/2000/svg" xmlns:xlink="http://www.w3.org/1999/xlink" x="0px" y="0px"
	 viewBox="0 0 300 300" style="enable-background:new 0 0 300 300;" xml:space="preserve">
<style type="text/css">
	.st0{fill:#00457F;}
</style>
<g>
	<g>
		<g>
			<g>
				<path class="st0" d="M268.7,50.3v86.6c0,14.8-12.1,26.8-26.9,26.8h-11.6l-0.3,0.2L202,185.2c-0.5,0.3-1,0.5-1.5,0.5
					c-1.3,0-2.7-1-2.7-2.5v-19.5h-42.9c-3.5,0-6.9-0.6-10-1.9l-1.6-0.6v1.7c0,7.6,0,18.7,0,19.3l-0.1,1.2h34.6
					c8.9,0,16.2,7.3,16.2,16.1v18.4c0,1.7-1.3,2.5-2.6,2.5c-1.3,0-2.6-0.8-2.6-2.5v-18.4c0-6-4.9-11-11-11h-48.6
					c-6.1,0-11,4.9-11,11v48.4c0,6,4.9,11,11,11h26.7c1.4,0,2.6,1.2,2.6,2.6v7.2l12-9.3c0.5-0.3,1-0.5,1.6-0.5h5.7
					c6.1,0,11-4.9,11-11v-6.6c0-1.7,1.3-2.5,2.6-2.5c1.3,0,2.6,0.8,2.6,2.5v6.6c0,8.9-7.3,16.1-16.2,16.1h-4.9L157.5,276
					c-0.4,0.3-0.9,0.5-1.5,0.5c-1.3,0-2.7-1-2.7-2.5v-9.9h-24.1c-8.9,0-16.2-7.3-16.2-16.1v-44.4l-20.7,16c-0.4,0.3-0.9,0.5-1.5,0.5
					c-1.3,0-2.7-1-2.7-2.6v-15h-35c-12,0-21.8-9.7-21.8-21.7V143c0-1.7,1.3-2.5,2.6-2.5c1.3,0,2.6,0.8,2.6,2.5v37.7
					c0,9.1,7.4,16.5,16.6,16.5h37.6c1.4,0,2.6,1.2,2.6,2.6v12.3l18.6-14.4c0.3-0.2,0.5-0.3,0.7-0.4l0.6-0.2l0.1-0.6
					c1.4-7.7,8.1-13.3,15.9-13.3h8.8l0.1-1.1c0.1-0.5,0.1-1,0.1-1.5l0-24c0-0.2,0-0.4,0-0.6l0-0.2l0-43.5c0-9.1-7.4-16.5-16.6-16.5
					H53.1c-9.1,0-16.6,7.4-16.6,16.5v8.1c0,1.7-1.3,2.5-2.6,2.5c-1.3,0-2.6-0.8-2.6-2.5v-8.1c0-12,9.8-21.7,21.8-21.7h68.5
					c1.7,0,3.4,0.2,5.1,0.6l1.4,0.3V50.3c0-14.8,12.1-26.8,26.9-26.8h52.4c1.7,0,2.5,1.3,2.5,2.6c0,1.3-0.8,2.6-2.5,2.6h-52.4
					c-12,0-21.7,9.7-21.7,21.6v43.9l0.5,0.3c6,4.1,9.6,10.8,9.6,18v42.6l0.6,0.3c3.4,2,7.2,3,11.1,3h45.5c1.4,0,2.6,1.2,2.6,2.6
					v16.8l24.7-18.9c0.4-0.3,1-0.5,1.6-0.5h12.5c12,0,21.7-9.7,21.7-21.6V50.3c0-11.9-9.7-21.6-21.7-21.6h-11
					c-1.7,0-2.5-1.3-2.5-2.6c0-1.3,0.8-2.6,2.5-2.6h11C256.6,23.5,268.7,35.5,268.7,50.3z"/>
			</g>
		</g>
	</g>
	<g>
		<path class="st0" d="M239.4,90.9c0-4.2-3.4-7.6-7.6-7.6l-18.5-0.1l-3.1,0l1.2-2.8l0.8-1.8c3.3-7.7,2.7-16.6-1.4-23.9
			c-0.7-1.3-2-2.3-3.4-2.6h0c0,0,0,0,0,0c0,0,0,0,0,0l-0.1,0c-0.4-0.1-0.8-0.2-1.2-0.2c-3.1,0-5.7,2.6-5.7,5.6
			c0,5.9-2.1,11.5-6,15.9L183.8,85l-1.8,2l-1.5-2.3c-0.3-0.5-0.8-0.8-1.4-0.8h-20.1c-0.9,0-1.7,0.8-1.7,1.7v45.3
			c0,0.9,0.8,1.7,1.7,1.7h20.1c0.7,0,1.3-0.4,1.5-1l1-2.1l2,1.2c3.8,2.3,8.1,3.5,12.5,3.5h35.6c2,0,4-0.9,5.5-2.4
			c1.5-1.5,2.2-3.6,2.1-5.6c-0.1-1.4-0.1-12.8,0-33.9C239.4,91.5,239.4,90.9,239.4,90.9z M176.5,128.2h-14.7V88.4h14.7V128.2z
			 M235.4,93.5l0,2.6c-0.1,18.3-0.1,28.5,0,30.4c0.1,1.4-0.6,2.3-1,2.7c-0.7,0.8-1.7,1.2-2.7,1.2h-35.6c-4.6,0-9.1-1.6-12.6-4.5
			l-2.1-1.7V93.7l15.7-17.8c4.5-5.1,7-11.7,7-18.5c0-1,0.8-1.7,1.7-1.7c0.6,0,1.2,0.3,1.5,0.9c3.5,6.2,4,13.9,1.2,20.4l-3,7
			c-0.3,0.7-0.2,1.5,0.2,2.1c0.4,0.6,1.1,1,1.8,1l24.1,0.1c2.1,0,3.7,1.7,3.7,3.7C235.5,91.3,235.5,92.2,235.4,93.5z"/>
	</g>
	<g>
		<g>
			<path class="st0" d="M112.4,153.8H96.9l2-12.2h13.6c1.2,0,2.2-1,2.2-2.2s-1-2.2-2.2-2.2H99.6l2.4-14.2c0.1-0.6,0-1.2-0.4-1.6
				c-0.3-0.5-0.9-0.8-1.4-0.9c-0.1,0-0.2,0-0.4,0c-1.1,0-2,0.8-2.2,1.9l-2.5,15H83l2.4-14.2c0.1-0.6-0.1-1.2-0.4-1.6
				c-0.3-0.5-0.8-0.8-1.4-0.9c-0.1,0-0.3,0-0.4,0c-1.1,0-2,0.8-2.2,1.9l-2.5,15H62.2c-1.2,0-2.2,1-2.2,2.2s1,2.2,2.2,2.2h15.6
				l-2,12.2H62.2c-1.2,0-2.2,1-2.2,2.2s1,2.2,2.2,2.2h12.8l-2.4,14.2c-0.1,0.6,0,1.2,0.4,1.6c0.3,0.5,0.9,0.8,1.4,0.9
				c0.1,0,0.2,0,0.4,0c1.1,0,2-0.8,2.2-1.8l2.5-15h12.1l-2.4,14.2c-0.1,0.6,0,1.2,0.4,1.6c0.3,0.5,0.8,0.8,1.4,0.9
				c0.1,0,0.2,0,0.4,0c1.1,0,2-0.8,2.2-1.8l2.5-15h16.3c1.2,0,2.2-1,2.2-2.2S113.7,153.8,112.4,153.8z M92.4,153.8H80.3l2-12.2h12.1
				L92.4,153.8z"/>
		</g>
	</g>
	<g>
		<path class="st0" d="M163.8,208.6c-0.8-0.2-1.7-0.3-2.5-0.3c-2.4,0-4.7,0.8-6.5,2.3l-1.3,1.1l-1.3-1.1c-1.9-1.6-4.2-2.4-6.7-2.4
			c-0.9,0-1.7,0.1-2.6,0.3c-4.4,1.1-8.8,5.2-8.8,12.1c0,4.4,1.6,8.2,5,11.7c2.9,3,7.1,5.9,13.7,9.4c0.2,0.1,0.5,0.2,0.8,0.2
			c0.3,0,0.6-0.1,0.8-0.2c11.2-5.9,18.6-11.8,18.6-21.1C172.9,213.6,168.4,209.6,163.8,208.6z M154.2,237.3l-0.7,0.4l-0.7-0.4
			c-10.8-6-14.8-10.5-14.8-16.7c0-5.1,3-7.6,5.8-8.3c3.4-0.8,6.2,0.7,7.8,3.6c0.4,0.7,1.1,1.2,2,1.2c0.8,0,1.6-0.5,2-1.3
			c1.1-2.3,3.2-3.6,5.8-3.6c0.5,0,1.1,0.1,1.7,0.2c2.9,0.6,6.1,3.1,6.1,8.2C169,226.8,165,231.3,154.2,237.3z"/>
	</g>
</g>
</svg>
