<?xml version="1.0" encoding="utf-8"?>
<!-- Generator: Adobe Illustrator 26.3.1, SVG Export Plug-In . SVG Version: 6.00 Build 0)  -->
<svg version="1.1" id="Layer_1" xmlns="http://www.w3.org/2000/svg" xmlns:xlink="http://www.w3.org/1999/xlink" x="0px" y="0px"
	 viewBox="0 0 300 300" style="enable-background:new 0 0 300 300;" xml:space="preserve">
<style type="text/css">
	.st0{fill:#FFFFFF;}
</style>
<g>
	<g>
		<path class="st0" d="M255.4,49.8H42.6c-10.2,0-16.1,5.8-16.1,16v169.5c0,4.9,1.8,8.7,5.5,11.7c2.7,2.2,5.9,3.1,10.5,3.1
			c50.2,0,100.5,0,150.7,0h64.1c0.2,0,0.4,0,0.6,0h0.6c0.4,0,0.9,0,1.3-0.1c6.1-0.6,10.2-3.5,12.6-9.1c0.3-0.6,0.5-1.2,0.7-1.9
			c0.1-0.3,0.2-0.5,0.3-0.8V61.7C269.4,51.8,266.3,49.8,255.4,49.8z M268.3,234.3c0,7-3.6,10.6-10.5,10.6H42.3
			c-7,0-10.5-3.6-10.5-10.6V86.4h236.5V234.3z M268.3,81H32.2L32,80.2c0-0.1-0.1-0.2-0.1-0.3c-0.1-0.3-0.2-0.7-0.2-1.1l0-3.2
			c0-3.7,0-7.6,0-11.4c0.1-4.9,3.7-8.8,8.7-9.1c0.4,0,0.7,0,1,0h216.2c7,0,10.5,3.6,10.5,10.6V81z"/>
	</g>
	<g>
		<path class="st0" d="M152.5,220c-0.2-1.6-1-2.3-2.5-2.4c-0.5,0-0.9,0-1.4,0c-0.4,0-0.8,0-1.2,0c-0.5,0-1,0-1.5,0h-1v-77
			c0-2.4,0-4.8,0-7.3c0-5.8,0-11.9,0-17.8c0-4.5-2.6-7.1-7.2-7.2c-0.8,0-1.5,0-2.3,0h-2l-1.3,0c-5.6,0-8.1,2.5-8.1,8v78.6
			c0,4.5,1.9,4.5,2.6,4.5c0.9,0,2.6,0,2.6-4.5v-81.4h1c0.7,0,1.4,0,2,0c0.5,0,1.1,0,1.6,0c0.7,0,1.3,0,1.8-0.1c0.3,0,0.6,0,0.8,0
			c1,0,1.7,0.3,2.3,0.8c0.8,0.8,0.9,2,0.9,3.1c-0.1,25.9-0.1,52.3,0,77.7v22.3h-9.8l-0.2-0.7c-0.3-1-0.3-2.1-0.3-3.1
			c0-2.6-0.1-3.7-2.6-3.7c-2.5,0-2.6,1.2-2.6,3.8c0,1,0,2-0.3,3l-0.2,0.8h-9.9v-18.2c0-12.1,0-24.6,0-36.9c0-4.6-2.4-7.1-7.1-7.2
			c-0.8,0-1.5,0-2.3,0c-0.6,0-1.3,0-1.9,0l-1.4,0c-5.8,0-8.2,2.4-8.2,8.1v54.1H82.4v-3.4c0-1.7,0-3.2,0-4.8c0-4.7-2.5-7.1-7.1-7.2
			c-1.1,0-2.1,0-3.2,0c-1.1,0-2.2,0-3.3,0c-4.5,0-7.1,2.6-7.2,7.1c0,1.6,0,3.3,0,5v3.5h-1c-0.5,0-1,0-1.4,0c-0.4,0-0.8,0-1.1,0
			c-0.5,0-0.9,0-1.3,0c-1.7,0.1-2.9,1.1-2.9,2.5c0,1.4,1.1,2.5,2.8,2.7c0.2,0,0.4,0,0.7,0h0.4c0.1,0,0.3,0,0.4,0l37,0l53,0
			c0.2,0,0.3,0,0.5,0h0.5c0.3,0,0.7,0,1.1-0.1C151.7,222.5,152.7,221.4,152.5,220z M77,217.4h-10v-10h10V217.4z M108.2,217.4H98.1
			v-56.9h10.1V217.4z"/>
	</g>
	<g>
		<path class="st0" d="M245.1,140.7c-1.2-5.6-3.6-10.7-7.1-15.4c-0.6-0.9-1.4-1.3-2.1-1.3c-0.4,0-0.8,0.1-1.3,0.3
			c-1.3,0.6-1.7,1.6-1.3,3.1c0.1,0.5,0.5,1,0.9,1.6c0.1,0.1,0.2,0.3,0.3,0.4c10.3,15.2,8.2,34.6-5.2,47.2c-5.9,5.5-12.8,8.7-21,9.6
			l-1.1,0.1v-1.2c0-1.3,0-2.6,0-3.9c0-3.1,0-6.1-0.1-9c-0.1-2.4,0.5-4.1,3.5-5.1c7.8-2.6,13-10.8,12-18.8
			c-1.2-8.9-7.7-15.5-16.4-16.3c-0.6-0.1-1.2-0.1-1.8-0.1c-3.4,0-6.7,0.9-9.8,2.8L194,135l-5.7-5.7L182,123l-0.8-0.8l0.9-0.7
			c6.6-5.2,14.2-7.8,22.5-7.8c0.8,0,1.6,0,2.4,0.1c5.2,0.3,10.4,1.8,15.4,4.6c0.6,0.3,1.2,0.5,1.7,0.5c1.3,0,2.2-0.8,2.4-2.1
			c0.2-1.4-0.4-2.2-2.2-3.3c-6.2-3.4-12.8-5.1-19.6-5.1c-11,0-21.9,4.6-29.8,12.5c-7.8,7.9-12,18.3-11.9,29.4
			c0.2,22.8,18.8,41.4,41.4,41.4c2,0,4.1-0.2,6.1-0.5c11.7-1.7,21.7-8,28.3-17.7C245.5,163.8,247.7,152.1,245.1,140.7z M168.4,146.3
			c0.9-7.4,3.4-13.5,8-19.1l0.7-0.9l0.8,0.8l1.1,1.1l9.7,9.7c0.1,0.1,0.2,0.2,0.3,0.4c0.9,1.4-1.1,5.1-1.7,6.2c-1.5,2.7-2.3,3-3,3
			c-2.2,0-4.5,0-6.7,0h-4l-4.2,0h-1.2L168.4,146.3z M202,181.5v4.3l-1,0c-12.3-0.1-30.3-11.3-32.5-32l-0.1-1.1h7.7
			c2.6,0,5.6,0,8.6,0.1c1.1,0,2,1.2,2.3,2.1c2.1,6.6,6.3,10.8,12.8,12.8c0.9,0.3,2.1,1.3,2.2,2.4C202,173.9,202,177.7,202,181.5z
			 M204.5,163c-7.1,0-12.9-5.8-12.9-13c0-7.2,5.6-12.9,12.8-13h0.1c3.5,0,6.7,1.4,9.2,3.9c2.5,2.5,3.8,5.8,3.8,9.2
			C217.5,157.2,211.7,163,204.5,163L204.5,163z"/>
	</g>
	<g>
		<path class="st0" d="M238.4,220.2c0,2.4-2.5,2.6-3.5,2.6c-6.9,0-13.8,0-20.7,0c-6.8,0-13.6,0-20.4,0c-2.3,0-3.5-0.9-3.5-2.6
			c0-0.8,0.2-1.3,0.6-1.7c0.6-0.6,1.6-0.9,3-0.9h40.8c1.4,0,2.5,0.3,3.1,1C238.2,219,238.4,219.5,238.4,220.2z"/>
	</g>
	<g>
		<path class="st0" d="M238.4,204.6c0,0.7-0.2,1.3-0.7,1.7c-0.6,0.6-1.6,0.9-2.8,0.9c-6.9,0-13.9,0-20.8,0c-6.8,0-13.6,0-20.4,0
			c-1.2,0-2.2-0.3-2.7-0.9c-0.4-0.4-0.6-1.1-0.6-1.8c0-1.2,0.4-2.5,3.5-2.5c2.9,0,5.8,0,8.7,0h23.7c2.9,0,5.8,0,8.7,0
			C236.2,202,238.4,202.4,238.4,204.6z"/>
	</g>
	<g>
		<path class="st0" d="M179.9,204.4c0.1,1.5-1,2.6-2.6,2.8c-0.2,0-0.4,0-0.7,0c-0.2,0-0.4,0-0.7,0c-0.2,0-0.5,0-0.7,0h-0.9l0,0.1
			c-0.7-0.1-1.3-0.1-1.8-0.3c-1.2-0.4-1.7-1.3-1.5-2.7c0.2-1.3,0.8-2,2.1-2.1c0.6-0.1,1.3-0.1,2.2-0.1c0.7,0,1.4,0,2,0.1
			C178.8,202.1,179.8,203,179.9,204.4z"/>
	</g>
	<g>
		<path class="st0" d="M179.9,220.1c0,0.7-0.2,1.3-0.5,1.7c-0.7,0.7-2.1,1-4,1v0.5h0l0-0.5c-0.2,0-0.3,0-0.5,0h-0.5
			c-0.3,0-0.7,0-1-0.1c-1.6-0.2-2.5-1.2-2.4-2.7c0.1-2,1.7-2.4,2.7-2.4c0.2,0,0.4,0,0.7,0h0.6c0.2,0,0.4,0,0.7,0
			c2,0,3.1,0.3,3.7,0.8C179.8,218.9,179.9,219.5,179.9,220.1z"/>
	</g>
	<g>
		<path class="st0" d="M257.9,68.3c-0.1,1.4-1,2.2-2.4,2.3c-0.3,0-0.5,0-0.9,0H254c-0.2,0-0.4,0-0.6,0H85.6c-0.2,0-0.4,0-0.6,0
			c-0.2,0-0.4,0-0.6,0c-0.4,0-0.7,0-1-0.1c-1.1-0.2-2.2-0.8-2.1-2.1c0.1-0.8,0.9-2,1.9-2.9c0.1-0.1,0.3-0.2,1.2-0.2
			c0.2,0,0.4,0,0.6,0c0.2,0,0.4,0,0.6,0c33.6,0,67.2,0,100.8,0H254c0.2,0,0.3,0,0.5,0c0.4,0,0.8,0,1.2,0.1
			C257.3,65.9,258,66.9,257.9,68.3z"/>
	</g>
	<g>
		<path class="st0" d="M51.2,68.2c-0.1,1.5-0.9,2.3-2.5,2.4c-0.2,0-0.5,0-0.7,0c-0.2,0-0.4,0-0.7,0c-0.2,0-0.5,0-0.7,0h-0.1
			c-1.6,0-2.8-0.2-3.5-0.7c-0.6-0.4-0.9-1-0.9-1.8c0-0.8,0-2.7,4.5-2.7c0.2,0,0.4,0,0.6,0h0.6c0.4,0,0.8,0,1.2,0.1
			C50.6,65.9,51.3,66.8,51.2,68.2z"/>
	</g>
	<g>
		<path class="st0" d="M70.6,68.2c-0.1,1.5-0.9,2.3-2.5,2.4c-0.5,0-1,0.1-1.6,0.1c-0.6,0-1.3,0-1.9,0c-1.9-0.1-3-1-3-2.6
			c0-1.5,1.2-2.5,3-2.7c0.2,0,0.4,0,0.6,0c0.2,0,0.4,0,0.5,0c0.2,0,0.4,0,0.5,0l1,0v0c0.4,0,0.8,0,1.2,0.1
			C70.6,66,70.7,67.3,70.6,68.2z"/>
	</g>
</g>
</svg>
