<?xml version="1.0" encoding="utf-8"?>
<!-- Generator: Adobe Illustrator 26.3.1, SVG Export Plug-In . SVG Version: 6.00 Build 0)  -->
<svg version="1.1" id="Layer_1" xmlns="http://www.w3.org/2000/svg" xmlns:xlink="http://www.w3.org/1999/xlink" x="0px" y="0px"
	 viewBox="0 0 300 300" style="enable-background:new 0 0 300 300;" xml:space="preserve">
<style type="text/css">
	.st0{fill:#FFFFFF;stroke:#FFFFFF;stroke-width:3;stroke-miterlimit:10;}
	.st1{fill:#FFFFFF;stroke:#FFFFFF;stroke-miterlimit:10;}
	.st2{fill:#00457F;}
	.st3{fill:#00457F;stroke:#00457F;stroke-width:2;stroke-miterlimit:10;}
</style>
<g>
	<g>
		<g>
			<path class="st2" d="M155.92,274.3c-1.08,0-2.28-0.88-2.28-2.14v-10.11H129.5c-8.59,0-15.58-6.97-15.58-15.54v-44.54L92.9,218.21
				c-0.35,0.27-0.78,0.42-1.23,0.42c-1.08,0-2.28-0.88-2.28-2.14v-15.14H54.49c-11.62,0-21.06-9.42-21.06-21.01v-37.2
				c0-2,1.96-2.06,2.18-2.06s2.18,0.06,2.18,2.06v37.2c0,9.18,7.49,16.65,16.7,16.65h37.07c1.2,0,2.18,0.98,2.18,2.18v12.88
				l18.92-14.61c0.17-0.13,0.36-0.24,0.57-0.32l0.8-0.3l0.15-0.84c1.35-7.39,7.79-12.75,15.33-12.75h8.97l0.13-1.37
				c0.05-0.55,0.08-1.05,0.08-1.52v-23.51l-0.01-0.05c-0.03-0.27-0.03-0.47-0.01-0.66l0.01-0.06l0-42.99
				c0-9.18-7.49-16.65-16.71-16.65H54.49c-9.21,0-16.7,7.47-16.7,16.65v7.96c0,2-1.96,2.06-2.18,2.06s-2.18-0.06-2.18-2.06v-7.96
				c0-11.58,9.45-21.01,21.06-21.01h67.48c1.64,0,3.29,0.2,4.91,0.58l1.86,0.44V51.75c0-14.37,11.72-26.06,26.13-26.06h51.66
				c2,0,2.06,1.96,2.06,2.18c0,0.22-0.06,2.18-2.06,2.18h-51.66c-12,0-21.77,9.73-21.77,21.7v43.46l0.66,0.45
				c5.81,3.93,9.28,10.43,9.28,17.4v42.24l0.74,0.44c3.34,1.98,7.18,3.02,11.09,3.02h44.87c1.2,0,2.18,0.98,2.18,2.18v17.34
				l24.94-19.08c0.38-0.29,0.85-0.45,1.33-0.45h12.27c12,0,21.77-9.73,21.77-21.7V51.75c0-11.96-9.76-21.7-21.77-21.7h-10.82
				c-2,0-2.06-1.96-2.06-2.18c0-0.22,0.06-2.18,2.06-2.18h10.82c14.41,0,26.13,11.69,26.13,26.06v85.31
				c0,14.37-11.72,26.06-26.13,26.06h-11.53l-27.85,21.31c-0.35,0.27-0.78,0.41-1.22,0.41c-1.08,0-2.28-0.88-2.28-2.14v-19.57
				h-42.69c-3.38,0-6.66-0.63-9.76-1.88l-2.07-0.83v2.23c-0.01,8.48-0.02,18.55-0.04,19l-0.08,1.57l1.58,0.01h32.89
				c8.59,0,15.58,6.97,15.58,15.54v18.1c0,2-1.96,2.06-2.18,2.06c-0.22,0-2.18-0.06-2.18-2.06v-18.1c0-6.17-5.03-11.18-11.22-11.18
				H129.5c-6.19,0-11.22,5.02-11.22,11.18v47.74c0,6.17,5.03,11.18,11.22,11.18h26.31c1.2,0,2.18,0.98,2.18,2.18v7.85l12.4-9.58
				c0.38-0.29,0.85-0.45,1.33-0.45h5.66c6.19,0,11.22-5.02,11.22-11.18v-6.55c0-2,1.96-2.06,2.18-2.06c0.22,0,2.18,0.06,2.18,2.06
				v6.55c0,8.57-6.99,15.54-15.58,15.54h-4.92l-15.33,11.83C156.79,274.16,156.37,274.3,155.92,274.3z"/>
			<path class="st2" d="M155.92,275.3c-1.59,0-3.28-1.26-3.28-3.14v-9.11H129.5c-9.14,0-16.58-7.42-16.58-16.54v-42.5L93.51,219
				c-0.53,0.41-1.17,0.63-1.84,0.63c-1.59,0-3.28-1.26-3.28-3.14v-14.14H54.49c-12.17,0-22.06-9.87-22.06-22.01v-37.2
				c0-2.1,1.65-3.06,3.18-3.06c1.53,0,3.18,0.96,3.18,3.06v37.2c0,8.63,7.04,15.65,15.7,15.65h37.07c1.75,0,3.18,1.43,3.18,3.18
				v10.84l17.3-13.36c0.25-0.19,0.53-0.35,0.83-0.46l0.27-0.1l0.05-0.28c1.43-7.87,8.29-13.58,16.31-13.58h8.06l0.04-0.46
				c0.05-0.52,0.07-0.99,0.07-1.43v-23.45c-0.04-0.37-0.04-0.65,0-0.91l0-42.92c0-8.63-7.04-15.65-15.71-15.65H54.49
				c-8.66,0-15.7,7.02-15.7,15.65v7.96c0,2.1-1.65,3.06-3.18,3.06c-1.53,0-3.18-0.96-3.18-3.06v-7.96c0-12.13,9.9-22.01,22.06-22.01
				h67.48c1.72,0,3.44,0.21,5.14,0.61l0.62,0.15V51.75c0-14.92,12.17-27.06,27.13-27.06h51.66c2.1,0,3.06,1.65,3.06,3.18
				c0,1.53-0.96,3.18-3.06,3.18h-51.66c-11.45,0-20.77,9.28-20.77,20.7v42.93l0.22,0.15c6.09,4.11,9.72,10.93,9.72,18.23v41.67
				l0.25,0.15c3.19,1.89,6.84,2.89,10.58,2.89h44.87c1.75,0,3.18,1.43,3.18,3.18v15.32l23.33-17.84c0.55-0.42,1.24-0.65,1.93-0.65
				h12.27c11.45,0,20.77-9.28,20.77-20.7V51.75c0-11.41-9.32-20.7-20.77-20.7h-10.82c-2.1,0-3.06-1.65-3.06-3.18
				c0-1.53,0.96-3.18,3.06-3.18h10.82c14.96,0,27.13,12.14,27.13,27.06v85.31c0,14.92-12.17,27.05-27.13,27.05h-11.19l-27.58,21.1
				c-0.53,0.41-1.16,0.62-1.83,0.62c-1.59,0-3.28-1.26-3.28-3.14v-18.58h-41.69c-3.5,0-6.91-0.66-10.13-1.95l-0.7-0.28v0.75
				c0,1.88-0.02,18.41-0.04,19.04l-0.03,0.54l0.53,0h32.89c9.14,0,16.58,7.42,16.58,16.54v18.1c0,2.1-1.65,3.06-3.18,3.06
				c-1.53,0-3.18-0.96-3.18-3.06v-18.1c0-5.61-4.58-10.18-10.22-10.18H129.5c-5.64,0-10.22,4.57-10.22,10.18v47.74
				c0,5.61,4.59,10.18,10.22,10.18h26.31c1.75,0,3.18,1.43,3.18,3.18v5.82l10.79-8.33c0.55-0.43,1.25-0.66,1.94-0.66h5.67
				c5.64,0,10.22-4.57,10.22-10.18v-6.54c0-2.1,1.65-3.06,3.18-3.06c1.53,0,3.18,0.96,3.18,3.06v6.54c0,9.12-7.44,16.54-16.58,16.54
				h-4.58l-15.06,11.63C157.23,275.09,156.59,275.3,155.92,275.3z M114.92,199.94v46.58c0,8.02,6.54,14.54,14.58,14.54h25.13v11.11
				c0,0.7,0.76,1.14,1.28,1.14c0.23,0,0.44-0.07,0.62-0.21l15.6-12.04h5.26c8.04,0,14.58-6.52,14.58-14.54v-6.54
				c0-0.88-0.64-1.06-1.18-1.06c-0.54,0-1.18,0.18-1.18,1.06v6.54c0,6.72-5.48,12.18-12.22,12.18h-5.67c-0.26,0-0.52,0.09-0.72,0.25
				l-14.01,10.82v-9.89c0-0.65-0.53-1.18-1.18-1.18H129.5c-6.74,0-12.22-5.46-12.22-12.18v-47.74c0-6.72,5.48-12.18,12.22-12.18
				h47.89c6.74,0,12.22,5.46,12.22,12.18v18.1c0,0.88,0.64,1.06,1.18,1.06c0.54,0,1.18-0.18,1.18-1.06v-18.1
				c0-8.02-6.54-14.54-14.58-14.54l-35.52-0.02l0.13-2.61c0.02-0.43,0.03-10.13,0.04-18.96v-3.71l3.44,1.38
				c2.98,1.2,6.14,1.81,9.38,1.81h43.69v20.58c0,0.7,0.76,1.14,1.28,1.14c0.23,0,0.43-0.07,0.61-0.21l28.12-21.51h11.87
				c13.86,0,25.13-11.24,25.13-25.05V51.75c0-13.82-11.27-25.06-25.13-25.06h-10.82c-0.88,0-1.06,0.64-1.06,1.18
				c0,0.54,0.18,1.18,1.06,1.18h10.82c12.55,0,22.77,10.18,22.77,22.7v85.31c0,12.51-10.21,22.7-22.77,22.7h-12.27
				c-0.26,0-0.51,0.09-0.72,0.24l-26.54,20.31v-19.37c0-0.65-0.53-1.18-1.18-1.18h-44.87c-4.09,0-8.1-1.09-11.6-3.17l-1.23-0.73
				v-42.81c0-6.64-3.31-12.83-8.84-16.57l-1.1-0.75V51.75c0-12.51,10.21-22.7,22.77-22.7h51.66c0.88,0,1.06-0.64,1.06-1.18
				c0-0.54-0.18-1.18-1.06-1.18h-51.66c-13.86,0-25.13,11.24-25.13,25.06v42.59l-3.09-0.73c-1.54-0.37-3.12-0.56-4.67-0.56H54.49
				c-11.06,0-20.06,8.98-20.06,20.01v7.96c0,0.88,0.64,1.06,1.18,1.06c0.54,0,1.18-0.18,1.18-1.06v-7.96
				c0-9.73,7.94-17.65,17.7-17.65h67.48c9.76,0,17.71,7.92,17.71,17.65l-0.01,43.13c-0.02,0.17-0.02,0.29,0,0.47l0.01,0.17v23.5
				c0,0.51-0.03,1.03-0.08,1.62l-0.21,2.28h-9.89c-7.05,0-13.08,5.02-14.34,11.93l-0.25,1.4l-1.32,0.5
				c-0.11,0.04-0.22,0.1-0.31,0.17l-20.53,15.85v-14.92c0-0.65-0.53-1.18-1.18-1.18H54.49c-9.76,0-17.7-7.92-17.7-17.65v-37.2
				c0-0.88-0.64-1.06-1.18-1.06c-0.54,0-1.18,0.18-1.18,1.06v37.2c0,11.03,9,20.01,20.06,20.01h35.89v16.14
				c0,0.7,0.76,1.14,1.28,1.14c0.23,0,0.44-0.07,0.62-0.21L114.92,199.94z"/>
		</g>
		<g>
			<path class="st2" d="M155.92,275c-1.44,0-2.98-1.14-2.98-2.84v-9.41H129.5c-8.98,0-16.28-7.28-16.28-16.24v-43.12l-19.9,15.37
				c-0.48,0.37-1.05,0.56-1.65,0.56c-1.44,0-2.98-1.14-2.98-2.84v-14.44h-34.2c-12,0-21.76-9.74-21.76-21.7v-37.2
				c0-2.17,1.81-2.76,2.88-2.76c1.07,0,2.88,0.58,2.88,2.76v37.2c0,8.8,7.18,15.95,16.01,15.95h37.07c1.59,0,2.88,1.29,2.88,2.88
				v11.46l17.79-13.74c0.22-0.17,0.48-0.31,0.75-0.42l0.43-0.16l0.08-0.45c1.41-7.72,8.14-13.33,16.01-13.33h8.34l0.07-0.74
				c0.05-0.53,0.07-1,0.07-1.46v-23.51c-0.04-0.3-0.04-0.56-0.01-0.81l0.01-42.96c0-8.8-7.18-15.95-16.01-15.95H54.49
				c-8.83,0-16.01,7.16-16.01,15.95v7.96c0,2.18-1.81,2.76-2.88,2.76c-1.07,0-2.88-0.58-2.88-2.76v-7.96
				c0-11.97,9.76-21.7,21.76-21.7h67.48c1.69,0,3.4,0.2,5.07,0.6l1,0.24V51.75C128.04,37,140.08,25,154.87,25h51.66
				c2.18,0,2.76,1.81,2.76,2.88c0,1.07-0.58,2.88-2.76,2.88h-51.66c-11.62,0-21.07,9.42-21.07,21v43.09l0.36,0.24
				c6,4.06,9.59,10.78,9.59,17.98v41.84l0.4,0.24c3.23,1.92,6.94,2.93,10.73,2.93h44.87c1.59,0,2.88,1.29,2.88,2.88v15.94
				l23.82-18.22c0.5-0.38,1.12-0.59,1.75-0.59h12.27c11.62,0,21.07-9.42,21.07-21V51.75c0-11.58-9.45-21-21.07-21h-10.82
				c-2.18,0-2.76-1.81-2.76-2.88c0-1.07,0.58-2.88,2.76-2.88h10.82c14.79,0,26.82,12,26.82,26.75v85.31
				c0,14.75-12.03,26.75-26.82,26.75h-11.3l-27.67,21.16c-0.48,0.36-1.04,0.56-1.64,0.56c-1.44,0-2.98-1.14-2.98-2.84v-18.88h-41.99
				c-3.46,0-6.83-0.65-10.02-1.93l-1.11-0.45v1.2c-0.01,7.37-0.02,18.53-0.04,19.03l-0.04,0.85l0.85,0.01h32.89
				c8.98,0,16.28,7.28,16.28,16.24v18.1c0,2.18-1.81,2.76-2.88,2.76s-2.88-0.58-2.88-2.76v-18.1c0-5.78-4.72-10.49-10.53-10.49
				H129.5c-5.8,0-10.53,4.7-10.53,10.49v47.74c0,5.78,4.72,10.49,10.53,10.49h26.31c1.59,0,2.88,1.29,2.88,2.88v6.44l11.28-8.71
				c0.5-0.39,1.13-0.6,1.76-0.6h5.67c5.8,0,10.53-4.7,10.53-10.49v-6.54c0-2.18,1.81-2.76,2.88-2.76s2.88,0.58,2.88,2.76v6.54
				c0,8.95-7.3,16.24-16.28,16.24h-4.68l-15.14,11.69C157.09,274.8,156.52,275,155.92,275z M114.62,200.55v45.96
				c0,8.19,6.68,14.84,14.89,14.84h24.82v10.8c0,0.83,0.84,1.45,1.59,1.45c0.29,0,0.57-0.09,0.8-0.27l15.51-11.98h5.16
				c8.21,0,14.89-6.66,14.89-14.84v-6.54c0-1.23-1.04-1.36-1.48-1.36c-0.45,0-1.48,0.13-1.48,1.36v6.54
				c0,6.55-5.35,11.88-11.92,11.88h-5.67c-0.33,0-0.65,0.11-0.91,0.31l-13.52,10.44v-9.27c0-0.82-0.67-1.48-1.48-1.48H129.5
				c-6.57,0-11.92-5.33-11.92-11.88v-47.74c0-6.55,5.35-11.88,11.92-11.88h47.89c6.57,0,11.92,5.33,11.92,11.88v18.1
				c0,1.23,1.04,1.36,1.48,1.36c0.45,0,1.48-0.13,1.48-1.36v-18.1c0-8.19-6.68-14.84-14.89-14.84l-35.2-0.02l0.11-2.29
				c0.02-0.41,0.03-9.97,0.04-18.97v-3.26l3.03,1.22c3.02,1.21,6.21,1.83,9.5,1.83h43.38v20.27c0,0.83,0.84,1.45,1.59,1.45
				c0.29,0,0.57-0.09,0.8-0.27l28.04-21.45h11.77c14.02,0,25.43-11.38,25.43-25.36V51.75c0-13.98-11.41-25.36-25.43-25.36h-10.82
				c-1.23,0-1.36,1.04-1.36,1.48c0,0.45,0.13,1.48,1.36,1.48h10.82c12.39,0,22.46,10.04,22.46,22.39v85.31
				c0,12.35-10.08,22.39-22.46,22.39h-12.27c-0.32,0-0.64,0.11-0.9,0.3l-26.06,19.93v-18.75c0-0.82-0.67-1.48-1.48-1.48h-44.87
				c-4.04,0-7.99-1.08-11.44-3.12l-1.08-0.64v-42.64c0-6.74-3.36-13.03-8.98-16.83l-0.97-0.66V51.75
				c0-12.35,10.08-22.39,22.46-22.39h51.66c1.23,0,1.36-1.04,1.36-1.48c0-0.45-0.13-1.48-1.36-1.48h-51.66
				c-14.02,0-25.43,11.38-25.43,25.36v42.2l-2.71-0.64c-1.57-0.37-3.16-0.56-4.74-0.56H54.49c-11.23,0-20.37,9.11-20.37,20.31v7.96
				c0,1.23,1.04,1.36,1.48,1.36c0.45,0,1.48-0.13,1.48-1.36v-7.96c0-9.56,7.81-17.34,17.4-17.34h67.48c9.59,0,17.4,7.78,17.4,17.34
				l-0.02,43.15c-0.02,0.13-0.02,0.28,0.01,0.49l0.01,0.14v23.51c0,0.5-0.03,1.02-0.08,1.59l-0.19,2h-9.61
				c-7.2,0-13.36,5.12-14.64,12.18l-0.22,1.23l-1.16,0.44c-0.14,0.05-0.27,0.13-0.39,0.22l-20.04,15.47v-14.3
				c0-0.82-0.67-1.48-1.48-1.48H54.49c-9.59,0-17.4-7.78-17.4-17.34v-37.2c0-1.23-1.04-1.36-1.48-1.36c-0.45,0-1.48,0.13-1.48,1.36
				v37.2c0,11.2,9.14,20.31,20.37,20.31h35.59v15.83c0,0.83,0.84,1.45,1.59,1.45c0.29,0,0.57-0.09,0.8-0.27L114.62,200.55z"/>
			<path class="st2" d="M155.92,276c-1.92,0-3.98-1.54-3.98-3.84v-8.41H129.5c-9.53,0-17.28-7.73-17.28-17.24v-41.09l-18.29,14.12
				c-0.66,0.5-1.44,0.77-2.26,0.77c-1.92,0-3.98-1.54-3.98-3.84v-13.44h-33.2c-12.55,0-22.76-10.18-22.76-22.7v-37.2
				c0-2.58,2.01-3.76,3.88-3.76s3.88,1.18,3.88,3.76v37.2c0,8.24,6.73,14.95,15.01,14.95h37.07c2.14,0,3.88,1.74,3.88,3.88v9.43
				l16.18-12.5c0.27-0.21,0.58-0.39,0.9-0.52c1.53-8.14,8.66-14.04,16.98-14.04h7.43c0.04-0.43,0.05-0.82,0.05-1.19v-23.44
				c-0.04-0.34-0.04-0.64-0.01-0.94l0.01-42.9c0-8.24-6.73-14.95-15.01-14.95H54.49c-8.28,0-15.01,6.71-15.01,14.95v7.96
				c0,2.58-2.01,3.76-3.88,3.76s-3.88-1.18-3.88-3.76v-7.96c0-12.52,10.21-22.7,22.76-22.7h67.48c1.69,0,3.39,0.19,5.07,0.57V51.75
				c0-15.3,12.48-27.75,27.82-27.75h51.66c2.58,0,3.76,2.01,3.76,3.88c0,1.87-1.18,3.88-3.76,3.88h-51.66
				c-11.07,0-20.07,8.97-20.07,20v42.56c6.23,4.25,9.94,11.25,9.94,18.75v41.27c3.05,1.79,6.55,2.73,10.13,2.73h44.87
				c2.14,0,3.88,1.74,3.88,3.88v13.91l22.21-16.99c0.67-0.51,1.51-0.8,2.36-0.8h12.27c11.07,0,20.07-8.97,20.07-20V51.75
				c0-11.03-9-20-20.07-20h-10.82c-2.58,0-3.76-2.01-3.76-3.88c0-1.87,1.18-3.88,3.76-3.88h10.82c15.34,0,27.82,12.45,27.82,27.75
				v85.31c0,15.3-12.48,27.75-27.82,27.75h-10.96l-27.4,20.96c-0.65,0.5-1.43,0.76-2.25,0.76c-1.92,0-3.98-1.54-3.98-3.84v-17.88
				h-40.99c-3.5,0-6.9-0.64-10.13-1.9c0,5.03-0.02,16.93-0.04,18.61h32.69c9.53,0,17.28,7.73,17.28,17.24v18.1
				c0,2.58-2.01,3.76-3.88,3.76s-3.88-1.18-3.88-3.76v-18.1c0-5.23-4.27-9.49-9.53-9.49H129.5c-5.25,0-9.53,4.25-9.53,9.49v47.74
				c0,5.23,4.27,9.49,9.53,9.49h26.31c2.14,0,3.88,1.74,3.88,3.88v4.4l9.67-7.47c0.68-0.52,1.52-0.81,2.37-0.81h5.67
				c5.25,0,9.53-4.25,9.53-9.49v-6.54c0-2.58,2.01-3.76,3.88-3.76s3.88,1.18,3.88,3.76v6.54c0,9.5-7.75,17.24-17.28,17.24h-4.34
				l-14.87,11.48C157.53,275.73,156.74,276,155.92,276z M115.62,198.52v47.99c0,7.63,6.23,13.84,13.89,13.84h25.82v11.8
				c0,0.28,0.54,0.57,0.78,0.38l15.78-12.19h5.5c7.66,0,13.88-6.21,13.88-13.84v-6.54c0-0.22,0-0.36-0.48-0.36
				c-0.48,0-0.48,0.14-0.48,0.36v6.54c0,7.1-5.79,12.88-12.92,12.88h-5.67c-0.1,0-0.21,0.04-0.3,0.1l-15.13,11.69v-11.3
				c0-0.27-0.22-0.48-0.48-0.48H129.5c-7.12,0-12.92-5.78-12.92-12.88v-47.74c0-7.1,5.8-12.88,12.92-12.88h47.89
				c7.12,0,12.92,5.78,12.92,12.88v18.1c0,0.22,0,0.36,0.48,0.36c0.48,0,0.48-0.14,0.48-0.36v-18.1c0-7.63-6.23-13.84-13.88-13.84
				l-36.25-0.02l0.17-3.34c0.01-0.39,0.03-9.06,0.04-18.92v-4.74l4.4,1.77c2.9,1.17,5.97,1.76,9.12,1.76h44.38v21.27
				c0,0.28,0.53,0.57,0.78,0.38l28.31-21.65h12.11c13.47,0,24.43-10.93,24.43-24.36V51.75c0-13.43-10.96-24.36-24.43-24.36h-10.82
				c-0.22,0-0.36,0-0.36,0.48c0,0.48,0.14,0.48,0.36,0.48h10.82c12.94,0,23.46,10.49,23.46,23.39v85.31
				c0,12.9-10.53,23.39-23.46,23.39h-12.27c-0.11,0-0.21,0.04-0.29,0.1l-27.67,21.16v-20.78c0-0.27-0.22-0.48-0.48-0.48h-44.87
				c-4.22,0-8.35-1.13-11.95-3.26l-1.57-0.93v-43.2c0-6.41-3.19-12.39-8.54-16l-1.41-0.95V51.75c0-12.9,10.53-23.39,23.46-23.39
				h51.66c0.22,0,0.36,0,0.36-0.48c0-0.48-0.14-0.48-0.36-0.48h-51.66c-13.47,0-24.43,10.93-24.43,24.36v43.47l-3.95-0.94
				c-1.49-0.36-3.01-0.54-4.51-0.54H54.49c-10.68,0-19.37,8.66-19.37,19.31v7.96c0,0.22,0,0.36,0.48,0.36
				c0.48,0,0.48-0.14,0.48-0.36v-7.96c0-10.11,8.25-18.34,18.4-18.34h67.48c10.15,0,18.4,8.23,18.4,18.34l-0.03,43.28
				c0,0.03-0.01,0.1,0.01,0.24l0.01,0.17l0,23.58c0,0.53-0.03,1.08-0.08,1.68l-0.27,2.91H129.5c-6.71,0-12.46,4.78-13.66,11.36
				l-0.32,1.78l-1.69,0.64c-0.05,0.02-0.09,0.04-0.13,0.07L92.05,215.5v-16.33c0-0.27-0.22-0.48-0.48-0.48H54.49
				c-10.15,0-18.4-8.23-18.4-18.34v-37.2c0-0.22,0-0.36-0.48-0.36c-0.48,0-0.48,0.14-0.48,0.36v37.2c0,10.65,8.69,19.31,19.37,19.31
				h36.59v16.83c0,0.26,0.52,0.59,0.78,0.38L115.62,198.52z"/>
		</g>
	</g>
	<g>
		<g>
			<g>
				<g>
					<g>
						<g>
							<g>
								<g>
									<g>
										<path class="st2" d="M231.67,92.07c0-3.78-3.07-6.84-6.84-6.84l-16.61-0.05l1.23-2.92c2.72-6.44,2.27-13.92-1.2-20
											c-0.71-1.24-1.86-2.12-3.24-2.47c-0.4-0.11-0.81-0.16-1.23-0.16c-2.87,0-5.29,2.39-5.29,5.22c0,4.62-1.68,9.07-4.74,12.53
											l-9.28,10.52l-0.75-1.14c-0.37-0.58-1-0.92-1.68-0.92h-16.39c-1.1,0-2,0.9-2,2.01v36.86c0,1.11,0.9,2.01,2,2.01h16.39
											c0.78,0,1.5-0.46,1.83-1.18l0.48-1.06l0.99,0.6c3.19,1.95,6.83,2.98,10.53,2.98h28.96c1.82,0,3.61-0.78,4.91-2.15
											c1.31-1.36,2-3.19,1.92-5.02c-0.06-1.17-0.06-10.43,0-27.54L231.67,92.07z M180.02,122.7h-12.35V89.85h12.35V122.7z
											 M203.46,66.3c0-0.19,0.13-0.32,0.33-0.32c0.12,0,0.24,0.06,0.29,0.16c2.63,4.56,2.97,10.18,0.91,15.01l-2.32,5.46
											c-0.37,0.86-0.28,1.83,0.24,2.6c0.5,0.76,1.38,1.23,2.29,1.23l18.97,0.07c1.04,0,1.89,0.83,1.89,1.86
											c0,0.49-0.02,4.1-0.02,4.1c-0.03,11.96-0.06,22,0.02,23.73c0.03,0.67-0.26,1.12-0.52,1.38c-0.36,0.38-0.85,0.58-1.37,0.58
											h-27.95c-3.36,0-6.66-1.16-9.29-3.26l-1.3-1.04V94.95l12.07-13.54C201.41,77.24,203.46,71.87,203.46,66.3z"/>
									</g>
								</g>
							</g>
						</g>
					</g>
				</g>
			</g>
		</g>
	</g>
	<g>
		<g>
			<g>
				<g>
					<g>
						<path class="st2" d="M106.75,152.13H95.37l1.46-8.8h9.92c0.95,0,1.72-0.77,1.72-1.72s-0.77-1.72-1.72-1.72H97.4l1.71-10.39
							c0.16-0.93-0.48-1.83-1.41-1.98c-0.95-0.16-1.83,0.49-1.98,1.41l-1.82,10.96h-8.74l1.71-10.39c0.16-0.93-0.48-1.83-1.41-1.98
							c-0.95-0.16-1.83,0.49-1.98,1.41l-1.82,10.96H69.72c-0.95,0-1.72,0.77-1.72,1.72s0.77,1.72,1.72,1.72H81.1l-1.46,8.8h-9.92
							c-0.95,0-1.72,0.77-1.72,1.72s0.77,1.73,1.72,1.73h9.35l-1.72,10.38c-0.15,0.94,0.49,1.83,1.42,1.99
							c0.98,0.16,1.83-0.5,1.98-1.42l1.82-10.95h8.74l-1.71,10.38c-0.16,0.94,0.48,1.83,1.41,1.99c0.98,0.16,1.83-0.5,1.98-1.42
							l1.82-10.95h11.94c0.95,0,1.72-0.78,1.72-1.73S107.7,152.13,106.75,152.13z M92.47,152.82H82.31l1.68-10.18h10.17
							L92.47,152.82z"/>
						<path class="st2" d="M79.05,169.47c-0.17,0-0.35-0.01-0.52-0.04c-1.75-0.3-2.94-1.96-2.66-3.71l1.43-8.64h-7.58
							c-1.78,0-3.22-1.45-3.22-3.23c0-1.78,1.44-3.22,3.22-3.22h8.65l0.96-5.8h-9.61c-1.78,0-3.22-1.44-3.22-3.22
							s1.44-3.22,3.22-3.22h10.67l1.61-9.71c0.14-0.84,0.6-1.58,1.3-2.09c0.7-0.5,1.56-0.7,2.41-0.56c0.84,0.13,1.58,0.6,2.08,1.3
							c0.5,0.71,0.7,1.56,0.56,2.41l-1.42,8.64h5.7l1.61-9.71c0.14-0.84,0.6-1.59,1.3-2.09c0.7-0.5,1.56-0.7,2.41-0.56
							c0.84,0.13,1.58,0.6,2.08,1.3c0.5,0.71,0.7,1.56,0.56,2.41l-1.42,8.64h7.58c1.78,0,3.22,1.44,3.22,3.22s-1.44,3.22-3.22,3.22
							H98.1l-0.96,5.8h9.61c1.78,0,3.22,1.44,3.22,3.22c0,1.78-1.44,3.23-3.22,3.23H96.08l-1.61,9.7c-0.29,1.75-1.95,2.94-3.7,2.65
							c-1.76-0.3-2.94-1.97-2.65-3.72l1.42-8.63h-5.7l-1.61,9.7C81.97,168.35,80.6,169.47,79.05,169.47z M93.04,154.32l-1.96,11.88
							c-0.02,0.13,0.06,0.25,0.18,0.27c0.2,0.04,0.24-0.16,0.25-0.18l1.99-11.97H93.04z M80.8,154.32l-1.97,11.88
							c-0.02,0.12,0.07,0.25,0.2,0.27c0.19,0.04,0.24-0.16,0.25-0.18l1.99-11.97H80.8z M93.78,154.08h12.97
							c0.12,0,0.22-0.11,0.22-0.23c0-0.12-0.1-0.22-0.22-0.22H93.86L93.78,154.08z M69.72,153.63c-0.12,0-0.22,0.1-0.22,0.22
							c0,0.12,0.1,0.23,0.22,0.23h10.86l0.07-0.45H69.72z M84.08,151.32h7.12l1.19-7.18h-7.13L84.08,151.32z M95.82,141.83h10.93
							c0.12,0,0.22-0.1,0.22-0.22c0-0.12-0.1-0.22-0.22-0.22H95.89L95.82,141.83z M69.72,141.39c-0.12,0-0.22,0.1-0.22,0.22
							c0,0.12,0.1,0.22,0.22,0.22H82.6l0.07-0.44H69.72z M95.21,141.14h0.46l1.96-11.88c0.01-0.08-0.02-0.14-0.04-0.17
							c-0.02-0.03-0.06-0.08-0.13-0.09c-0.07-0.01-0.12,0-0.17,0.04c-0.03,0.02-0.08,0.06-0.09,0.14L95.21,141.14z M82.97,141.14
							h0.46l1.96-11.88c0.01-0.08-0.02-0.14-0.04-0.17c-0.02-0.03-0.06-0.08-0.13-0.09c-0.07-0.01-0.12,0-0.17,0.04
							c-0.03,0.02-0.07,0.06-0.09,0.13L82.97,141.14z"/>
					</g>
				</g>
			</g>
		</g>
	</g>
	<g>
		<g>
			<g>
				<g>
					<g>
						<g>
							<g>
								<g>
									<g>
										<g>
											<g>
												<path class="st2" d="M166.02,214.24c-1.36-1.59-3.18-2.6-4.99-3.01c-2.64-0.59-5.29,0-7.27,1.62l-0.35,0.28l-0.33-0.28
													c-2.05-1.69-4.85-2.31-7.46-1.68c-3.49,0.85-7.02,4.12-7.02,9.54c0,3.42,1.25,6.38,3.81,9.05
													c2.13,2.22,5.22,4.35,10.03,6.9c0.32,0.17,0.67,0.26,1.02,0.26c0.34,0,0.69-0.09,0.99-0.26
													c8.31-4.4,13.85-8.79,13.85-15.95C168.3,218,167.39,215.83,166.02,214.24z M147.69,216.02c1.36,0,2.47,0.71,3.13,1.98
													c0.49,1,1.53,1.62,2.73,1.62c1.12-0.04,2.12-0.7,2.56-1.69c0.68-1.45,2.06-2.11,3.81-1.73
													c0.99,0.22,3.29,1.09,3.29,4.51c0,3.28-1.64,6.22-9.77,10.71c-8.11-4.49-9.75-7.43-9.75-10.71
													c0-3.58,2.38-4.41,3.12-4.59C147.09,216.06,147.4,216.02,147.69,216.02z"/>
											</g>
										</g>
									</g>
								</g>
							</g>
						</g>
					</g>
				</g>
			</g>
		</g>
	</g>
</g>
</svg>
