<?xml version="1.0" encoding="utf-8"?>
<!-- Generator: Adobe Illustrator 26.3.1, SVG Export Plug-In . SVG Version: 6.00 Build 0)  -->
<svg version="1.1" id="Layer_1" xmlns="http://www.w3.org/2000/svg" xmlns:xlink="http://www.w3.org/1999/xlink" x="0px" y="0px"
	 viewBox="0 0 300 300" style="enable-background:new 0 0 300 300;" xml:space="preserve">
<style type="text/css">
	.st0{fill:#FFFFFF;}
</style>
<g>
	<g>
		<path class="st0" d="M266.6,228l-14.3-14.3l-7.2-7.2c-1.2-1.2-1.8-1.6-2.2-1.6c-0.4,0-1.2,0.3-1.7,0.5L240,206l-1-1c-1-1-2-2-3-3
			c-2-2-3.8-3.9-5.8-5.8l-1.2-1.1l0.9-1.4c5.4-8.4,8.6-17.9,9.5-28.2c0.1-1-0.1-1.9-0.5-2.3c-0.1-0.2-0.4-0.4-1-0.4h-0.1
			c-1,0-1.5,0.8-1.6,2.4c-2.3,28.5-25.4,51.6-53.8,53.8c-1.5,0.1-3.1,0.2-4.6,0.2c-17.3,0-33.6-7.6-44.7-20.9
			c-11.2-13.3-15.8-30.9-12.8-48.1c4.6-26.1,26.2-45.8,52.7-47.8c1.6-0.1,3.2-0.2,4.8-0.2c25.2,0,47.5,15.9,55.5,39.7
			c0.5,1.7,0.9,3.4,1.3,5c0.3,1.2,0.6,2.4,0.9,3.5c0.4,1.2,1.2,1.2,1.4,1.2c0.1,0,0.3,0,0.4,0c0.9-0.2,1.3-0.6,1.2-1.9v-0.1
			c0-0.5-0.1-1-0.2-1.5l0-0.1l0-0.1c-3.9-17.8-13.9-31.5-29.8-40.8c-1.9-1.1-2.8-2.6-2.8-4.9c0-4.2,0-8.5,0-12.6
			c0-4.2,0-8.5,0.1-12.7c0-1.7-0.5-2.8-1.7-4.1c-14.1-14-28.4-28.3-42.3-42.3l0,0l0,0c-1.3-1.4-2.5-1.9-4.4-1.9
			c-22.2,0.1-45.1,0.1-67.8,0.1c-18.2,0-34.4,0-49.6-0.1c-6.2,0-9.7,2.1-11.5,7.1c0,10.8,0,21.9-0.6,33.2c0.8,1.1,1.3,1.1,1.5,1.1
			c0.2,0,0.4,0,0.6-0.1c0.7-0.2,1.1-0.5,1.1-2.8V39.8c0-5.7,1.9-7.6,7.5-7.6h118.5v35c0,6.4,3.5,9.9,9.8,9.9h35V104l-2.6-0.9
			c-0.4-0.1-0.7-0.2-1-0.3l-0.3-0.1l-0.1,0l-0.1,0c-6.8-2.3-13.1-3.4-19.5-3.4H97.9c-0.2,0-0.4,0-0.6,0c-0.1,0-0.1,0-0.2,0l-0.1,0
			l-0.1,0c-0.9,0.1-1.2,0.5-1.3,1.3c-0.1,0.6,0,1.2,1.2,1.7c0.5,0.1,1.3,0.1,2,0.1c19.6,0,39.2,0,58.8,0c-1.9,0.3-4.2,0.9-6.9,2.1
			c-2.3,1-4.1,2.1-5.5,3.2c-1.4,0.9-2.9,1.9-4.5,3.2c-1.7,1.3-3.2,2.7-4.5,4c-0.3,0.4-1,1-1.9,1.4c-1.3,0.6-2.5,0.5-3,0.4
			c-22.3,0.1-31.9,0.1-32.3,0.1c-0.2,0-0.5,0-0.7,0c-0.2,0-0.4,0-0.6,0c-0.2,0-0.4,0-0.5,0c-0.8,0.7-1.3,1.4-1.4,1.7
			c0.1,0.2,0.5,0.7,1.7,1.5c0,0,0.1,0,0.2,0c0.2,0,0.4,0,0.6,0c0.3,0,0.5,0,0.8,0H131l-2.4,3.2c-5.8,7.7-9.5,15.8-11.5,24.9
			l-0.3,1.2l-1.2,0.3c-0.1,0-0.1,0-0.2,0.1c-0.2,0.1-0.5,0.2-1,0.2H99c-3.3,0-3.4,1-3.4,1.7c0,0.7,0.1,1.6,3.5,1.6h16.7v14.5H111
			c-1.5,0-3,0-4.5,0c-1.5,0-3,0-4.6,0c-1.7,0-3.2,0-4.6,0c-1.1,0-1.6,0.7-1.6,1.5c0,0.9,0.6,1.5,1.7,1.7c0.5,0.1,1.1,0.1,1.6,0.1
			c1.5,0,3,0,4.5,0c1.5,0,3,0,4.6,0c1.7,0,3.2,0,4.6,0c1.9,0,4,0.4,4.7,3.7c1.6,7.1,4.2,13.5,8.2,19.6c0.6,0.8,1.2,1.7,1.8,2.7
			c0.4,0.5,0.8,1.1,1.2,1.8l2.1,3.1h-6.7c-2.9,0-5.9,0-8.8,0c-2.9,0-5.8,0-8.7,0c-3.3,0-6.1,0-8.8,0c-0.9,0-2,0.3-2,1.5
			c0.1,1,0.7,1.5,1.9,1.7h34.2c1,0,1.9,0.1,2.9,0.1c1.1,1.1,2.4,2.1,3.7,3.2c5.9,4.8,11.9,8,17.2,10.2c-32.4,0.4-56.2,0.7-56.5,0.6
			c-0.4,0-0.6,0-0.6,0c-0.2,0-0.3,0-0.5,0c-0.3,0-0.6,0-0.8,0.1l-0.1,0l-0.1,0c-0.8,0.2-1.1,0.7-1.1,1.6c0,0.6,0.2,1.2,1.4,1.4h1.7
			c8.7,0,17.5,0,26.2,0c8.7,0,17.5,0,26.2,0c9.8,0,18.4,0,26.2,0c3.6,0,7.2-0.3,10.7-0.9c2.9-0.5,5.7-1.3,8.8-2
			c1-0.2,1.9-0.5,2.9-0.7l2.5-0.6v42.6c0,5.9-1.8,7.7-7.6,7.7H39.2c-6,0-7.8-1.8-7.8-7.7V83.8c0-2.2-0.3-2.6-1.2-3
			c-0.2-0.1-0.4-0.1-0.6-0.1c-0.4,0-0.9,0.3-1.5,1v182.6c1.2,3.5,3.5,5.8,7,7h163.4c5.1-1.7,7.2-5.2,7.1-11.4
			c-0.1-6.4-0.1-12.8-0.1-19.1c0-6.2,0-12.7-0.1-19c0-3.6,0.7-7.5,5.7-9.4c0.5-0.2,0.9-0.2,1.2-0.2h0.8l0.6,0.6l8.7,8.7l1.2,1.2
			l-1,1.4c-0.8,1.2-0.8,1.9,0.2,2.9c1.9,1.9,3.8,3.8,5.8,5.8c5.7,5.7,11.6,11.6,17.4,17.3c2.7,2.6,5.9,3.9,9.6,3.9
			c0.8,0,1.5,0,2.3-0.2c6.3-0.8,10.4-4.2,12.4-10C272.3,238,271.1,232.6,266.6,228z M194.6,73.4L194.6,73.4c-0.3,0-0.9,0.1-1.4,0.1
			h-25.5c-4.6,0-6.7-2.1-6.7-6.8V34.9l3.4,3.4c10.4,10.4,21.1,21.1,31.5,31.7l3.3,3.4H194.6z M225.1,218.7l-2.3-2.4
			c-1.6-1.6-3.2-3.3-4.6-4.8l-1.3-1.4l1.3-1.4c1.6-1.7,3.4-3.4,5.2-5.2c0.9-0.9,1.9-1.8,2.8-2.8l1.4-1.4l1.4,1.4
			c1,1,2.1,2.1,3.3,3.2c1.2,1.2,2.5,2.5,3.8,3.8l1.4,1.4l-1.4,1.4l-8.2,8.2l-1.4,1.4L225.1,218.7z M264.9,247.2
			c-2.3,2.3-5.6,3.8-8.8,3.8c-2.6,0-5.1-1-6.9-2.7c-5.5-5.3-10.8-10.8-15.9-16.2c-1.7-1.8-3.4-3.5-5.1-5.3l-1.4-1.4l1.4-1.4l8.9-8.9
			l4.5-4.5l1.4-1.4l1.4,1.4c2.8,2.8,5.7,5.6,8.5,8.3c4.2,4.1,8.5,8.3,12.7,12.6C269.6,235.7,269.3,242.7,264.9,247.2z"/>
	</g>
	<g>
		<path class="st0" d="M81.4,112.1c0-0.9,0-1.7,0-2.6c0-2.5,0-5.2-0.1-7.6c-0.1-4-2.5-6.5-6.3-6.6c-2.6,0-5.2-0.1-7.8-0.1
			s-5.2,0-7.8,0.1c-3.6,0.1-6,2.4-6.1,5.9c-0.2,5.4-0.2,10.9,0,16.2c0.2,3.5,2.6,5.9,6.1,6c2.6,0,5.3,0.1,7.9,0.1s5.3,0,7.9-0.1
			c3.6-0.1,6.1-2.6,6.1-6.2C81.5,115.5,81.4,113.8,81.4,112.1z M77.2,119c-0.7,0.8-1.7,1.1-3.1,1.1c-2.3,0-4.6-0.1-6.8-0.1
			c-2.2,0-4.5,0-6.8,0.1c-0.1,0-0.2,0-0.3,0c-1.1,0-3.6-0.4-3.6-4v-13.7c0-2.5,1.5-3.9,4-3.9h13.6c0.1,0,0.2,0,0.3,0
			c1.8,0,3.6,1,3.6,4v0.1c-0.1,1.4,0,2.9,0,4.4c0,0.8,0,1.5,0,2.2v6.6C78.1,116.4,78.2,117.9,77.2,119z"/>
	</g>
	<g>
		<path class="st0" d="M74.9,197.9c-2.5-0.1-5.1-0.1-7.6-0.1s-5,0-7.6,0.1c-3.8,0.1-6.4,2.5-6.4,6.1c-0.2,5.3-0.2,10.6,0,16
			c0.2,3.5,2.6,5.9,6.1,6c3,0.1,6.1,0.1,9.1,0.1c2.4,0,4.6,0,6.6-0.1c3.7-0.1,6.1-2.6,6.2-6.4v-15.2C81.3,200.5,78.8,198,74.9,197.9
			z M78.2,218.7c0,3.5-2.2,4.2-4.1,4.2c-2.3-0.1-4.5-0.1-6.8-0.1c-2.2,0-4.5,0-6.7,0.1c-2.7,0-4.1-1.5-4.1-4.1v-0.1
			c0.1-1.5,0-3.1,0-4.6c0-0.8,0-1.5,0-2.3c0-0.8,0-1.5,0-2.2c0-1.5,0-2.8,0-4.2v-0.1c0-3.6,2.6-4.2,4.1-4.2c2.3,0.1,4.5,0.1,6.8,0.1
			c2.2,0,4.5,0,6.7-0.1c2.7,0,4.1,1.5,4.1,4.1C78.1,209.7,78.1,214.2,78.2,218.7z"/>
	</g>
	<g>
		<path class="st0" d="M81.4,152.5c-0.1-3.8-2.5-6.3-6.2-6.3c-2.6,0-5.3-0.1-7.8-0.1c-2.6,0-5.2,0-7.8,0.1c-3.6,0-6.1,2.3-6.2,5.8
			c-0.2,5.5-0.2,10.8,0,16.2c0.2,3.5,2.6,5.8,6.4,5.9h7.5c0.9,0,1.8,0,2.6,0c0.9,0,1.8,0,2.7,0c1,0,1.8,0,2.6,0
			c3.7-0.1,6.2-2.5,6.3-6.2C81.5,162.8,81.5,157.6,81.4,152.5z M78.1,167.3c0,1.5-1.6,3.5-3.3,3.5c-5.3,0.1-10.6,0.1-16.3,0.1h-2v-2
			c0-3,0-5.5,0.1-8v-7.5c0-3.3,2-4,3.7-4c2.4,0,4.8,0,7.1,0c2.3,0,4.8,0,7.1,0c1.7,0,3.6,1.9,3.6,3.6
			C78.2,157.8,78.2,162.6,78.1,167.3z"/>
	</g>
	<g>
		<path class="st0" d="M223.3,160.7c-0.1,19-12.2,36.1-30.1,42.4c-5,1.8-10.2,2.7-15.4,2.7c-13.6,0-26.5-6.2-35.2-16.9
			c-1.1-1.4-1.2-2.2-1.1-2.5c0-0.2,0.1-0.5,0.5-0.8c0.4-0.3,0.7-0.3,0.8-0.3c0.6,0,1.5,0.6,2.4,1.6c9,10.4,19.6,15.7,31.6,15.7
			c3.5,0,7.2-0.5,11-1.4c16.8-4.1,27.6-15.5,31.3-32.8c2.5-11.9-0.6-24.3-8.5-34c-8.1-9.9-19.9-15.6-32.4-15.6c-1.5,0-3,0.1-4.5,0.2
			c-21.8,2.4-38,20.5-37.7,42c0.1,2.5,0.5,5,1,7.4c0.2,1.3,0.5,2.5,0.6,3.8c0.2,1.2,0.1,2.3-0.2,2.8c-0.2,0.2-0.7,0.4-1,0.5
			c-0.7-0.3-1.6-1.1-1.7-1.6c-2.7-8.1-2.9-16.4-0.6-24.8c5.4-19.8,23.1-33.7,43.3-33.7c0.7,0,1.5,0,2.2,0.1
			c21.8,1.1,39.4,16.7,42.8,38v0l0,0c0.4,1.8,0.5,3.8,0.7,5.6C223.2,159.7,223.3,160.2,223.3,160.7z"/>
	</g>
	<g>
		<path class="st0" d="M199.5,144.9c-1.8-1.7-3.9-2.6-6.2-2.6c-2.6,0-5.3,1.2-7.5,3.3c-3.5,3.5-7.2,6.9-11,10.4l-1.4,1.3L172,156
			c-0.2-0.2-0.6-0.6-1-1l0,0l-0.1-0.1c-2.1-1.9-4.5-2.9-7-2.9c-2.4,0-4.7,1-6.4,2.8c-3.7,3.8-3.5,9.5,0.6,13.5
			c2.8,2.8,5.7,5.6,8.6,8.4c2.4,2.4,4.9,3.6,7.4,3.6c2.5,0,5-1.2,7.3-3.6c5.8-5.9,11.8-12,17.7-18.1
			C203.1,154.3,203.3,148.7,199.5,144.9z M199,152.7l-0.2,0.4l-0.1,0.2c-0.4,0.7-0.9,1.9-2,3c-5.9,6.1-12,12.4-18.1,18.6
			c-1.7,1.8-3.4,2.2-4.6,2.2c-1.6,0-3.1-0.7-4.5-2c-3.1-3-6.2-6-9.3-9.1c-1.3-1.3-2.1-2.8-2.2-4.4c-0.1-1.6,0.5-3.2,1.8-4.4
			c1.2-1.2,2.6-1.8,4.1-1.8c1.6,0,3.2,0.7,4.7,2c1,0.9,1.9,1.8,2.8,2.7c1.3,1.2,2.1,1.8,2.6,1.8c0.5,0,1.3-0.7,2.6-2
			c3.7-3.9,7.6-8,11.6-11.9l0,0l0,0c1.1-1,2.9-2,4.7-2.2c0.2,0,0.3,0,0.5,0c1.4,0,2.8,0.6,3.8,1.6c1.2,1.3,1.9,3.1,1.8,5L199,152.7z
			"/>
	</g>
</g>
</svg>
