<?xml version="1.0" encoding="utf-8"?>
<!-- Generator: Adobe Illustrator 26.3.1, SVG Export Plug-In . SVG Version: 6.00 Build 0)  -->
<svg version="1.1" id="Layer_1" xmlns="http://www.w3.org/2000/svg" xmlns:xlink="http://www.w3.org/1999/xlink" x="0px" y="0px"
	 viewBox="0 0 300 300" style="enable-background:new 0 0 300 300;" xml:space="preserve">
<style type="text/css">
	.st0{fill:#00457F;}
</style>
<g>
	<g>
		<path class="st0" d="M247.4,27.5H52.6c-8.4,0-12.8,4.5-12.8,12.9v219.2c0,8.5,4.5,12.9,13,12.9h194.2c8.7,0,13.1-4.4,13.1-13.2
			V40.4C260.1,32,255.7,27.5,247.4,27.5z M254.9,258.9c0,6.5-1.9,8.4-8.5,8.4H53.5c-6.6,0-8.5-1.9-8.5-8.4V57.6h209.8V258.9z
			 M254.9,53H45.1v-2c0-1.2,0-2.5,0-3.7c0-2.9,0-5.7,0-8.6c0.1-3.4,2.4-5.8,6-6c0.3,0,0.6,0,1,0c0.2,0,0.4,0,0.6,0h194
			c6.2,0,8.2,2,8.2,8.1V53z"/>
	</g>
	<g>
		<path class="st0" d="M230.5,77.9H69.5c-3.6,0-3.9,0.3-3.9,3.9v91.1c0,3.6,0.3,3.9,3.9,3.9h161.1c3.6,0,3.9-0.3,3.9-3.9V81.8
			C234.5,78.2,234.2,77.9,230.5,77.9z M120.2,171.1c-0.1,0.1-0.2,0.2-0.4,0.3c-0.6,0.5-1.3,1.1-2.5,1.1c-2.9,0-5.9,0.1-8.1,0.1
			c-1.2,0-2.4,0-3.6,0h-6.3l0.7-2.5l0.7-2.6l1.2-4.3l0.5-2.1l2,0.7l5.4,1.8l9.7,3.2l0.9,0.3l0.3,0.9l0.2,0.5l0.1,0.3l0.6,1.5
			L120.2,171.1z M176.8,172.4h-52.4l1.1-2.7l2.2-5.6l2.9-7.3l-1.5-0.6l-2.4-1l-2.4,5.9l-0.3,0.7l-0.7,1.7l-1.8-0.6l-16-5.3l-1.7-0.5
			l0.3-1.7c2.8-15.5,7.4-23.9,23.2-23.9c1.9,0,4,0.1,6.2,0.3l1.9,0.2l-0.1,1.9c-0.2,4.9,1.3,8.6,4.6,11.3c2.3,1.9,4.9,2.8,7.8,2.8
			c0.3,0,0.5,0,0.8,0c7.1-0.4,11.2-5.7,11.8-14.9l0.1-2l2,0.1c1.8,0.1,3.6,0.2,5.4,0.3c4.2,0.2,8.5,0.4,12.8,1.1
			c5.1,0.9,9.3,4.6,11.5,10.1c1.1,2.8,1.9,5.7,2.7,8.7c0.3,1.3,0.7,2.6,1.1,4l0.5,1.7l-1.7,0.7l-4.2,1.7l-6.9,2.8l-2.8,1.1v-11.2
			h-4.2V172.4z M149.4,110.9h10.8v2c0,1,0,2,0,3c0,2.2,0.1,4.3-0.1,6.4c-0.4,5.1-4.9,9.1-10.1,9.1c-0.5,0-0.9,0-1.4-0.1
			c-2.7-0.4-5.3-2-7-4.3c-1.7-2.4-2.4-5.3-1.8-8C140.3,116.2,146.6,111,149.4,110.9z M142.6,97.7c2-2.1,4.8-3.2,8.4-3.2
			c0.7,0,1.3,0,2,0c0.9,0,1.8,0,2.8,0c1.3,0,2.4,0,3.5,0c2.4,0.1,3.6,1.1,4.2,2c0.6,0.9,1.1,2.4,0.2,4.9c-0.9,2.4-2.5,5.5-6.7,5.5
			c-0.5,0-1.1,0-1.6-0.1c-0.5-0.1-1.2-0.1-1.9-0.1c-0.6,0-1.2,0-1.9,0c-0.6,0-1.2,0-1.7,0.1h-0.3c-0.4,0-0.8,0-1.2,0
			c-0.4,0-0.7,0-1.1,0c-1.7,0-2.9,0.2-3.9,1.5l-3.2,3.9l-0.3-5.1C139.7,103,140.6,99.9,142.6,97.7z M142.2,134.3l11.4,1.8l2.2,0.4
			l-0.6,2.2c-0.9,3.1-3.8,5.2-7.3,5.2c-0.1,0-0.3,0-0.4,0c-4-0.2-6.9-3-7.6-7.2l-0.4-2.7L142.2,134.3z M180.1,172.4l1-2.7
			c0.9-2.4,3.8-3.9,14.5-7.6l2-0.7l0.6,2.1l1.2,4.3l0.6,2.1l0.7,2.5H180.1z M230,172.4h-24.9l-0.4-1.5c-0.7-2.7-1.5-5.4-2.2-8.1
			c-1.6-6-3.3-12.2-5-18.3c-2.7-9.6-10-16-19.6-17c-1.2-0.1-2.5-0.2-4.2-0.2c-1.2,0-2.5,0-3.6,0.1c-1.2,0-2.4,0.1-3.6,0.1h-2v-2
			c0-1.5,0-2.9,0-4.3c0-3.5-0.1-6.8,0.2-10.2c0.2-2.1,1.1-4,2-5.7c0.2-0.4,0.4-0.8,0.6-1.1c1.2-2.5,1.9-4.7,1.2-7
			c-0.7-2.8-2.5-6.2-6.9-6.6c-2.2-0.2-4.4-0.3-6.5-0.3c-3,0-5.8,0.2-8.4,0.6c-5.9,0.9-10.6,6.4-11,12.8c-0.1,2.5-0.1,5-0.1,7.5
			c0,1.1,0,2.2,0,3.2v13h-10.4c-11.2,0.1-19.7,6.5-22.7,17.3c-1.7,6-3.4,12.2-5,18.2c-0.7,2.7-1.5,5.5-2.2,8.2l-0.4,1.5h-25V82.3
			H230V172.4z"/>
	</g>
	<g>
		<path class="st0" d="M91.8,189.1c-1.7,0-3.3,0.4-4.9,1.2l-0.3,0.1c-0.7,0.3-1.5,0.8-2.6,0.8c-0.8,0-1.5-0.2-2.3-0.6
			c-1.8-1-3.7-1.5-5.6-1.5c-3.3,0-6.3,1.5-8.4,4.2c-3.4,4.5-3,10.3,1.1,14.5c4.1,4.2,8.3,8.4,13.2,13.2c0.5,0.5,1.3,1.2,2,1.2
			c0.5,0,1.2-0.4,1.9-1.1c4.8-4.7,9.3-9.2,13.6-13.6c1.9-1.9,3-4.5,3.1-6.8C102.7,193.4,97.1,189.1,91.8,189.1z M95.1,206
			c-2.1,2.2-4.2,4.3-6.4,6.5l-2.9,3l-1.4,1.4l-1.4-1.4c-1.2-1.2-2.3-2.3-3.5-3.4c-2.8-2.7-5.4-5.2-7.9-7.9c-2.4-2.5-2.3-6.5,0.4-9.1
			c1.2-1.2,2.8-1.9,4.5-1.9c1.5,0,2.9,0.5,4.2,1.5c0.4,0.3,0.8,0.7,1.1,1c0.2,0.2,0.3,0.3,0.5,0.5c0.8,0.7,1.5,1.1,2,1.1
			c0.5,0,1.1-0.3,1.9-1c2.3-2.1,4.3-3.1,6.2-3.1c1.5,0,3,0.7,4.3,1.9C98.6,197.4,100.1,201,95.1,206z"/>
	</g>
	<g>
		<path class="st0" d="M84.2,234.3L84.2,234.3c-2.9,0-5.5,1.1-7.4,3.1s-3,4.6-3,7.4c0.1,5.6,4.7,10.2,10.3,10.2
			c2.8,0,5.4-1.1,7.3-3.1c2-2,3-4.6,3-7.4C94.4,239,89.7,234.3,84.2,234.3z M84.1,250.8L84.1,250.8c-1.7,0-3.3-0.7-4.4-1.9
			c-1.2-1.2-1.8-2.9-1.7-4.5c0.2-3.2,2.9-5.8,6.1-5.8c0.1,0,0.2,0,0.2,0c3.3,0.1,6,2.9,5.9,6.2C90.2,248.1,87.4,250.8,84.1,250.8z"
			/>
	</g>
	<g>
		<rect x="126.4" y="241.8" class="st0" width="38.9" height="5.9"/>
	</g>
	<g>
		<rect x="111" y="242.7" class="st0" width="3.9" height="4"/>
	</g>
	<g>
		<path class="st0" d="M113.1,207.6h-0.1c-2.2,0-4,1.8-4.1,4c-0.1,2.2,1.7,4.1,4,4.2h0.1c2.2,0,4-1.8,4.1-4
			C117.1,209.6,115.3,207.7,113.1,207.6z M112.9,214.9L112.9,214.9c-1.8-0.1-3.1-1.5-3.1-3.2c0.1-1.6,1.4-3,3.1-3
			c0.9,0,1.7,0.4,2.2,1c0.6,0.6,0.9,1.4,0.8,2.2C116,213.5,114.6,214.9,112.9,214.9z"/>
	</g>
	<g>
		<path class="st0" d="M125.3,207.6C125.3,207.6,125.3,207.6,125.3,207.6c-2.2,0-4.1,1.9-4.1,4.1c0,2.2,1.8,4.1,4.1,4.1c0,0,0,0,0,0
			c2.2,0,4.1-1.9,4.1-4.1C129.4,209.5,127.5,207.7,125.3,207.6z M125.3,214.9L125.3,214.9c-1.7,0-3.1-1.4-3.1-3.1
			c0-1.7,1.4-3.1,3.1-3.1c1.7,0,3.1,1.4,3.1,3.1C128.4,213.4,127,214.9,125.3,214.9z"/>
	</g>
	<g>
		<path class="st0" d="M137.7,207.6L137.7,207.6c-2.3,0-4.1,1.8-4.2,4c0,2.2,1.8,4.1,4,4.2h0.1c2.2,0,4.1-1.8,4.1-4
			C141.8,209.6,139.9,207.7,137.7,207.6z M137.7,214.9L137.7,214.9c-0.9,0-1.6-0.3-2.2-1c-0.6-0.6-0.9-1.4-0.9-2.2
			c0-1.7,1.4-3.1,3.1-3.1c0.9,0,1.6,0.4,2.2,1c0.6,0.6,0.9,1.4,0.9,2.2C140.7,213.4,139.3,214.9,137.7,214.9z"/>
	</g>
	<g>
		<path class="st0" d="M59.4,46.1c-1.6,0-3.1-1.4-3.1-3c0-1.7,1.3-3.1,3-3.2c0,0,0,0,0,0c1.7,0,3.1,1.4,3.2,3c0,0.8-0.3,1.6-0.9,2.2
			C61.1,45.7,60.3,46,59.4,46.1L59.4,46.1z"/>
		<path class="st0" d="M59.4,38.9L59.4,38.9c-2.3,0.1-4.1,2-4.1,4.2c0.1,2.2,1.9,4,4.1,4h0.1c2.2-0.1,4-2,4-4.2
			C63.5,40.7,61.6,38.9,59.4,38.9z M59.4,45.1c-1.1,0-2.1-0.9-2.1-2.1c0-1.1,0.9-2.1,2-2.1h0c1.1,0,2.1,0.9,2.1,2
			c0,0.5-0.2,1.1-0.6,1.5C60.5,44.8,60,45.1,59.4,45.1L59.4,45.1z"/>
	</g>
	<g>
		<path class="st0" d="M71.8,46.1c-0.8,0-1.6-0.3-2.2-0.9c-0.6-0.6-0.9-1.4-0.9-2.2c0-1.7,1.4-3.1,3.1-3.1c0.8,0,1.6,0.3,2.2,0.9
			c0.6,0.6,0.9,1.4,0.9,2.2C74.9,44.6,73.5,46.1,71.8,46.1L71.8,46.1z"/>
		<path class="st0" d="M71.8,38.9c-2.2,0-4.1,1.8-4.1,4.1c0,2.2,1.9,4.1,4.1,4.1c0,0,0,0,0,0c2.2,0,4.1-1.9,4.1-4.1
			C75.9,40.7,74,38.9,71.8,38.9C71.8,38.9,71.8,38.9,71.8,38.9L71.8,38.9z"/>
	</g>
	<g>
		<path class="st0" d="M84.1,46.1c-1.7,0-3.1-1.5-3.1-3.1c0-1.7,1.4-3.1,3.1-3.1c0.9,0,1.6,0.3,2.2,0.9c0.6,0.6,0.9,1.4,0.9,2.2
			C87.2,44.7,85.8,46.1,84.1,46.1L84.1,46.1z"/>
		<path class="st0" d="M84.1,38.9c-2.2,0-4.1,1.8-4.1,4c0,2.2,1.8,4.1,4,4.2c0,0,0,0,0.1,0c2.2,0,4.1-1.8,4.1-4
			C88.3,40.8,86.4,38.9,84.1,38.9C84.2,38.9,84.1,38.9,84.1,38.9L84.1,38.9z"/>
	</g>
</g>
</svg>
