<?xml version="1.0" encoding="utf-8"?>
<!-- Generator: Adobe Illustrator 26.3.1, SVG Export Plug-In . SVG Version: 6.00 Build 0)  -->
<svg version="1.1" id="Layer_1" xmlns="http://www.w3.org/2000/svg" xmlns:xlink="http://www.w3.org/1999/xlink" x="0px" y="0px"
	 viewBox="0 0 300 300" style="enable-background:new 0 0 300 300;" xml:space="preserve">
<style type="text/css">
	.st0{fill:#FFFFFF;}
</style>
<g>
	<g>
		<path class="st0" d="M245.8,116.1c2.7-1.5,5.3-3,7.7-4.8c9.3-6.9,15.2-16.3,17.6-28l0,0l0,0c0.1-0.5,0.3-0.9,0.4-1.2V66.8
			c-0.2-0.7-0.4-1.4-0.5-2.1c-0.5-2.1-1-4.1-1.8-5.9c-6.1-15.8-17.6-25.8-34.1-29.8c-0.5-0.1-1-0.3-1.5-0.5h-16.2
			c-1,0.3-2,0.6-3,0.9c-1.4,0.4-2.7,0.7-4,1.2c-12.3,4.4-21.5,12.7-27.2,24.8c-0.2,0.4-0.4,0.8-0.5,1.2c-0.2,0.4-0.4,0.8-0.6,1.3
			l-0.1,0.3l-0.2,0.2c-0.2,0.2-0.3,0.3-0.5,0.4l-0.8,0.8l-1.1-0.4c-9.6-3-19.3-4.5-28.9-4.5c-9.6,0-19.3,1.5-29,4.5l-1.6,0.5
			l-0.8-1.5c-0.3-0.7-0.7-1.4-1-2.1c-0.8-1.7-1.6-3.4-2.5-4.9C108.8,39.5,98.6,32,85.4,29c-0.5-0.1-1-0.3-1.5-0.5H67.8
			c-0.3,0.2-0.8,0.3-1.2,0.4c-19.9,4.8-32,16.9-35.9,35.9c-2.1,9.6-1.5,18.5,1.7,26.6c3.2,7.9,8.9,14.9,17,20.9
			c2.1,1.6,4.5,2.9,7.1,4.2c1,0.5,2,1.1,3,1.6l1.4,0.8l-0.5,1.6c-6,19.1-5.9,38.5,0.1,57.8l0.5,1.8l-1.7,0.7
			c-0.2,0.1-0.4,0.2-0.6,0.3c-0.2,0.1-0.3,0.2-0.5,0.2l0,0l0,0c-20.4,8.9-31,27.3-28.3,49.1c0.5,3.7,1.8,7.5,3.1,11.1
			c0.3,0.8,0.6,1.7,0.9,2.5c0.3,0.8,0.8,0.9,1.2,0.9c0.2,0,0.4,0,0.7-0.1c0.9-0.4,1.2-0.8,1.1-1.7c-0.1-0.4-0.3-0.8-0.5-1.2
			c-0.1-0.2-0.2-0.4-0.3-0.6c-6.5-16.2-4.4-30.9,6.2-43.9c8.7-10.8,19.5-16.3,32.4-16.3c2.9,0,5.9,0.3,9,0.9
			c17.6,3.2,29.2,14.1,33.8,31.5c4.5,17.6-0.6,32.9-14.8,44.3c-8.1,6.5-16.9,9.8-26.2,9.8c-6.5,0-13.3-1.7-20.1-4.9
			c-2.5-1.2-4.7-2.8-6.8-4.4c-0.9-0.6-1.7-1.3-2.6-1.9c-0.5-0.3-1-0.5-1.5-0.5c-0.4,0-1.3,0.1-1.3,1.1c0,0.6,0.6,1.7,1.2,2.3
			c8.3,7.4,19.1,11.5,30.3,11.5c18.6,0,35.3-10.9,42.6-27.7c0.3-0.8,0.7-1.6,1.2-2.4l0.8-1.5l1.6,0.5c9.6,3,19.3,4.5,28.9,4.5
			c9.6,0,19.4-1.5,29.1-4.5l1.8-0.5l0.7,1.8c0.2,0.4,0.3,0.8,0.5,1.2c0.2,0.3,0.3,0.6,0.4,0.9c7.3,16.9,24.2,27.8,42.9,27.8
			c0.6,0,1.1,0,1.7,0c18.3-0.7,35.4-13.4,41.5-30.9c0.6-1.9,1.1-3.8,1.7-5.7c0.2-0.7,0.4-1.5,0.6-2.2c0-5,0-10.2,0.1-15.3
			c-0.5-1.5-1-3-1.5-4.5c-1-3.2-2-6.2-3.4-9.1c-4.7-9.6-12.4-16.7-22.7-21.2c-0.7-0.3-1.4-0.6-2-0.9l-1.4-0.7l0.3-1.5
			c2.2-7.1,4.7-17.8,4.5-30.8c-0.2-11.3-2.3-20.7-4.4-27.3l-0.3-1.4l1.2-0.7C243.3,117.5,244.6,116.8,245.8,116.1z M268.7,224.2
			c0,23.8-19.3,43.1-43,43.1h-0.2c-11.5,0-22.3-4.5-30.5-12.7c-8.1-8.2-12.6-19-12.5-30.4c0-23.7,19.3-43,43-43.1h0.2
			C249.4,181.1,268.7,200.4,268.7,224.2z M237.6,177.4l-0.5,1.7l-1.7-0.3c-3.4-0.6-6.8-0.9-10-0.9c-12.6,0-23.5,4.5-32.5,13.5
			c-11.3,11.4-15.6,25.7-12.7,42.5l0.3,1.7l-1.7,0.5c-9.3,2.9-18.7,4.4-28.1,4.4c-9.3,0-18.8-1.5-28.2-4.4l-1.7-0.5l0.3-1.7
			c2.8-17-1.5-31.2-12.8-42.5c-9-9-19.9-13.5-32.4-13.5c-3.2,0-6.5,0.3-9.9,0.9l-1.7,0.3l-0.5-1.7c-6-19-6-37.4-0.1-56.3l0.5-1.6
			l1.7,0.2c2.1,0.3,4.1,0.5,6.1,0.7c1.3,0.1,2.7,0.2,4,0.2c7.1,0,14.1-1.7,20.8-5.1c2-1,2.4-1.7,2.5-2c0-0.1,0.1-0.4-0.2-1
			c-0.4-0.8-0.8-0.8-1.1-0.8c-0.4,0-1.2,0.2-2.6,0.8c-6.1,3.1-12.9,4.7-19.7,4.7c-15.7,0-30-8.5-37.4-22.2
			c-8.8-16.1-7.7-32.2,3.2-46.7c8.6-11.4,20.1-17.4,33.1-17.4c3.6,0,7.3,0.5,11.2,1.4c17.5,4.1,28.7,15.8,32.4,33.8
			c2.5,12.1-0.1,23.5-7.9,34.1c-0.1,0.2-0.2,0.3-0.4,0.5c-0.1,0.1-0.1,0.2-0.2,0.3l0,0l0,0c-0.4,0.5-1.2,1.8,0,2.7
			c0.3,0.2,0.6,0.4,0.9,0.4c0.5,0,1.1-0.4,1.7-1c4.8-6,7.9-12.7,9.4-20.5c1-5.5,1-10.9,0.1-16.1c-0.1-0.5-0.1-0.9-0.1-1.3
			c0-0.3,0-0.6-0.1-1l-0.2-1.6l1.6-0.5c9.4-2.9,18.9-4.4,28.2-4.4c9.2,0,18.6,1.5,28,4.3l1.7,0.5l-0.3,1.7
			c-2.9,16.8,1.4,31.1,12.7,42.5c9,9,20,13.6,32.5,13.6c3.2,0,6.5-0.3,10-0.9l1.7-0.3l0.5,1.7c1.9,6.4,3.7,15,4,25.2
			C242,159.2,239.8,170,237.6,177.4z M225.7,117.4c-23.8,0-43.2-19.4-43.2-43.2c0-23.7,19.3-43,43-43c23.8,0.1,43.2,19.4,43.2,43.1
			C268.7,98.1,249.4,117.4,225.7,117.4z"/>
	</g>
	<g>
		<path class="st0" d="M93,220.7c-7.6-4.4-15.6-9-23.5-13.5c-0.7-0.4-1.5-0.6-2.2-0.6c-1.7,0-2.8,1.4-2.8,3.6v13.5
			c0,1.1,0,2.3,0,3.4c0,3.3,0,6.8,0.1,10.1v0.1c0,2.2,1,3.5,2.7,3.5c0.7,0,1.5-0.2,2.2-0.7c8.6-4.9,16.3-9.4,23.5-13.6
			c1.3-0.8,2.1-1.9,2.1-2.9C95.2,222.6,94.4,221.5,93,220.7z M88.6,225.5c-5.2,3-10.5,6-17.7,10.2l-3,1.8v-27.3l3,1.7l5.8,3.4
			c3.9,2.2,7.8,4.5,11.8,6.8l3,1.7L88.6,225.5z"/>
	</g>
	<g>
		<path class="st0" d="M178.5,115.5c-0.9-0.9-1.6-1.3-1.8-1.4c-0.3,0.1-0.8,0.5-1,0.7c-0.2,3.8-2.9,5.1-4.8,6l-0.2,0.1
			c-1.3,0.6-2.6,1.2-3.8,1.8c-2,1-4,2-6.1,2.8l-1,0.4c-4.2,2.2-10.5,4.7-18.1,4.6c-1.4,0-2.7-0.1-4-0.3c-2.5,0-4.9,0-7.4,0
			c-2.2,0-4.4,0-6.6,0c-0.1,0-2.2-0.2-3.4,1.3c-0.7,0.9-0.7,1.9-0.7,2.2c0,3.6,0,7.2,0,10.8c0,2.3,0,4.5,0,6.8c0,1.4,0,2.8,0,4.2
			c0,0.4,0.1,1.4,0.8,2.3c1.2,1.5,3.2,1.4,3.4,1.4c2,0,4,0,6,0l0,1.9c0,0.5,0.1,1,0.1,1.4c0,0.4,0,0.8,0.1,1.2l0,0.1v0.1
			c0.3,6.8,0.6,13.8,1,20.7c0.1,2.1,1.2,2.1,1.6,2.1h0.1c0.4,0,1.5-0.1,1.5-2.1c0-1.4-0.1-2.9-0.2-4.4c0-0.7-0.1-1.5-0.1-2.2
			c-0.2-4.9-0.4-9.7-0.7-14.9l-0.1-1.7l-0.1-2.3c1.7,0,4.3,0,7.6,0c3,0,2.9,0,3.1,0c3.3,0.3,8,1.8,9.8,1.8c0.3,0,0.9,0,1.3-0.5
			c0.1-0.2,0.2-0.4,0.2-0.5c0.2-0.8,0.1-1.1,0-1.2c-0.2-0.5-0.9-0.8-1.8-1.1c-2.2-0.7-4.3-1.3-6.4-2l-1.9-0.5l-1.4-0.4v-19.8
			l1.3-0.5c4.4-1.7,8.7-3.3,12.9-4.9c4.8-1.8,9.8-3.7,14.7-5.6l2.7-1v44.2l-2.9-1.4c-0.4-0.2-0.8-0.4-1.2-0.6c-1.1-0.5-2-1-3-1.4
			c-0.5-0.2-1-0.3-1.4-0.3c-0.4,0-0.9,0.1-1.3,0.8c-0.2,0.4-0.7,1.3,1,2.3c0.5,0.3,1.1,0.6,1.6,0.9c1.3,0.7,2.7,1.4,4.1,2.1l0,0l0,0
			c1.4,0.7,3.2,1.9,3.2,4.8c0,0.7,0.3,1.2,1.4,1.3c0,0,0.1,0,0.2,0c0.8,0,1.2-0.2,1.5-1.3c0.1-0.5,0.1-1.2,0.1-1.9v-56.1
			C178.5,116.3,178.5,115.8,178.5,115.5z M138.2,156.1h-13.7c-1,0-1.8-0.8-1.8-1.8v-19.1c0-1,0.8-1.8,1.8-1.8h13.7
			c1,0,1.8,0.8,1.8,1.8v19.1C140,155.3,139.2,156.1,138.2,156.1z"/>
	</g>
	<g>
		<path class="st0" d="M99.3,54.7c-0.1,0-0.2,0-0.5,0c-0.4,0-0.8,0-1.3,0.1c-0.2,0-0.3,0-0.5,0c-0.1,0.1-0.3,0.2-0.5,0.3
			c-0.2,0.2-0.5,0.4-0.8,0.6c-1,0.7-2,1-3,1c-1,0-1.9-0.3-3-0.9c-1.7-1-3.6-1.6-5.4-1.6c-1.4,0-2.9,0.3-4.4,0.9
			c-3.9,1.6-6.2,4.6-7.3,9.5l-0.4,1.9l-1.9-0.3c-5.9-1-10.5-3.9-13.9-8.7c-0.6-0.7-1.2-1.2-1.8-1.2c-0.7,0-1.2,0.8-1.4,1.3
			c-3,7.4-3.5,18.6,4.8,25.8l0,0l0,0.1c0.5,0.5,0.9,1,1.5,1.8l2.1,2.8l-3.5,0.4c-2.8,0.3-5.2,0.5-7.6,0.7c-1.4,0.2-1.6,0.7-1.8,1.2
			c-0.3,1.1,0.3,1.5,0.7,1.8c5.8,3,11.4,4.5,16.7,4.5c5.4,0,10.7-1.5,15.7-4.6c8.2-5,12.8-13,13.5-23.6c0.2-2.3,0.5-4.7,2.1-7
			c1.1-1.5,1.8-3.3,2.2-5.1C99.9,55.9,99.5,54.9,99.3,54.7z M92,70.1c-1.2,13.3-12.2,23.4-25.4,23.4c-0.7,0-1.3,0-2-0.1L58.8,93
			l4.8-3.2c0.4-0.2,0.7-0.5,1-0.6c0.6-0.4,1.1-0.7,1.4-1l0.1-0.1l0.1-0.1c0.5-0.4,0.8-0.9,0.8-1.4c0-0.5-0.4-1-0.9-1.4l0,0l0,0
			c-0.6-0.4-1.3-0.8-2-1.2c-0.8-0.4-1.7-0.9-2.5-1.5c-5.5-3.9-7.8-9.6-7-17l0.4-3.4l2.8,2c1,0.8,2,1.3,3,1.9
			c3.8,2.4,8.1,3.6,12.7,3.7c0.1,0,0.2,0,0.3,0c1.7,0,2.3-0.2,2.4-2.6c0-0.8,0-1.7,0.1-2.6c0.4-3.5,3.3-6.3,6.8-6.7
			c0.2,0,0.5,0,0.8,0c3.1,0,7.8,2,8.3,5C92.4,65.1,92.2,67.8,92,70.1z"/>
	</g>
	<g>
		<path class="st0" d="M238.6,49.9c-0.1,1.1-0.6,1.4-1.4,1.4c-0.7,0-1.5,0-2.3,0c-0.8,0-1.7,0-2.5,0.1c-4.9,0.3-8,3.4-8.3,8.1
			c-0.1,2.3-0.1,4.5,0,6.8c0,1.1,0,2.3,0,3.5v2h6.8c1.5,0.1,2.3,0.6,2.3,1.6c0,0.6-0.1,0.8-0.3,1c-0.3,0.4-1.1,0.6-2.2,0.7H224v22.7
			c0,2.4-1,2.5-1.6,2.5c-0.6,0-1.6,0-1.6-2.4V75.1h-2c-0.8,0-1.4,0-2.1,0c-0.5,0-1,0-1.5,0c-0.6,0-1,0-1.5,0c-0.9,0-1.4-0.3-1.5-1.5
			c-0.1-0.9,0.7-1.5,1.6-1.6c0.3,0,0.7,0,1.1,0c0.4,0,0.9,0,1.4,0h4.7V60.7c0-4,1.2-7.1,3.8-9.5c2.3-2.1,5.1-3,9-3
			c1.2,0,2.4,0.1,4,0.3C238.6,48.5,238.7,49.4,238.6,49.9z"/>
	</g>
	<g>
		<path class="st0" d="M240.4,200.7h-14.7c-2.5,0-5.1,0-7.6,0c-2.4,0-4.8-0.1-7.2-0.1c-5.8,0.1-8.8,3.1-8.8,8.8V239
			c0,5.6,3.2,8.8,8.8,8.8h29.6c5.6,0,8.8-3.2,8.8-8.8v-29.3C249.2,203.8,246.2,200.8,240.4,200.7z M246,239c0,3.8-1.9,5.6-5.7,5.6
			h-14.7c-1.6,0-3.3,0-4.9,0s-3.3,0-4.9,0c-1.8,0-3.5,0-4.9,0c-3.8,0-5.7-1.8-5.7-5.6v-29.7c0.1-3.7,1.9-5.4,5.5-5.4h29.9
			c3.6,0,5.4,1.8,5.4,5.5V239z"/>
	</g>
	<g>
		<path class="st0" d="M225.8,215.3h-0.1c-4.8,0-8.8,3.9-8.9,8.6c-0.1,2.5,0.8,4.7,2.4,6.4c1.6,1.7,3.9,2.7,6.3,2.7
			c4.9,0,8.9-3.8,9-8.7C234.5,219.5,230.7,215.5,225.8,215.3z M225.5,229.9c-3.1,0-5.6-2.5-5.6-5.7c0-3.1,2.6-5.6,5.7-5.6
			c3.1,0,5.6,2.6,5.6,5.7S228.7,229.9,225.5,229.9z"/>
	</g>
</g>
</svg>
