<?xml version="1.0" encoding="utf-8"?>
<!-- Generator: Adobe Illustrator 26.3.1, SVG Export Plug-In . SVG Version: 6.00 Build 0)  -->
<svg version="1.1" id="Layer_1" xmlns="http://www.w3.org/2000/svg" xmlns:xlink="http://www.w3.org/1999/xlink" x="0px" y="0px"
	 viewBox="0 0 300 300" style="enable-background:new 0 0 300 300;" xml:space="preserve">
<style type="text/css">
	.st0{fill:#FFFFFF;stroke:#FFFFFF;stroke-width:3;stroke-miterlimit:10;}
	.st1{fill:#FFFFFF;stroke:#FFFFFF;stroke-miterlimit:10;}
	.st2{fill:#00457F;}
	.st3{fill:#00457F;stroke:#00457F;stroke-width:2;stroke-miterlimit:10;}
</style>
<g>
	<g>
		<path class="st3" d="M206.84,229.55h-47.47l-5.42-5.43l12.75-12.75c1.25-1.25,1.77-3.03,1.39-4.74c-0.37-1.72-1.59-3.12-3.25-3.74
			l-64.76-24.1c-2.09-0.79-4.38-0.29-5.96,1.3c-1.58,1.58-2.07,3.86-1.3,5.95l16.18,43.5H43.37c-6.61,0-11.98-5.38-11.98-11.98
			v-79.31c0-1.77-1.43-3.2-3.2-3.2c-1.76,0-3.2,1.43-3.2,3.2v79.31c0,10.12,8.25,18.37,18.37,18.37h68.01l5.54,14.88
			c0.61,1.65,2.01,2.86,3.73,3.24c1.73,0.37,3.5-0.14,4.74-1.39l12.75-12.75l12.97,12.98c1.07,1.06,2.49,1.64,4,1.64
			c1.51,0,2.93-0.59,3.99-1.64l7.82-7.82c2.2-2.2,2.2-5.78,0-7.98l-1.15-1.15h41.07c1.76,0,3.19-1.43,3.19-3.2
			C210.02,230.98,208.59,229.55,206.84,229.55z M155.12,249.26l-15.41-15.41c-0.81-0.81-2.3-0.81-3.11,0l-14.75,14.75l-24.16-64.95
			l64.94,24.17l-14.74,14.75c-0.42,0.42-0.64,0.97-0.64,1.55s0.23,1.14,0.64,1.55l15.4,15.4L155.12,249.26z"/>
	</g>
	<g>
		<path class="st2" d="M275,63.83v153.74c0,10.12-8.24,18.37-18.37,18.37h-32.19c-1.76,0-3.19-1.44-3.19-3.2
			c0-1.77,1.43-3.2,3.19-3.2h32.19c6.61,0,11.99-5.38,11.99-11.98V93.73H31.4v27.99c0,1.77-1.43,3.2-3.2,3.2
			c-1.76,0-3.2-1.43-3.2-3.2V63.83c0-10.13,8.25-18.37,18.37-18.37h183.4c1.76,0,3.2,1.43,3.2,3.19c0,1.77-1.44,3.2-3.2,3.2H43.37
			c-6.61,0-11.98,5.38-11.98,11.99v23.51h237.22V63.83c0-6.61-5.38-11.99-11.99-11.99h-12.85c-1.76,0-3.2-1.43-3.2-3.2
			c0-1.76,1.44-3.19,3.2-3.19h12.85C266.76,45.46,275,53.7,275,63.83z"/>
		<path class="st2" d="M256.63,236.95h-32.18c-2.31,0-4.19-1.88-4.19-4.2s1.88-4.2,4.19-4.2h32.18c6.06,0,10.99-4.92,10.99-10.98
			V94.73H32.4v26.99c0,2.31-1.88,4.2-4.2,4.2s-4.2-1.88-4.2-4.2V63.83c0-10.68,8.69-19.37,19.37-19.37h183.4
			c2.32,0,4.2,1.88,4.2,4.19c0,2.32-1.88,4.2-4.2,4.2H43.37c-6.05,0-10.98,4.93-10.98,10.99v22.51h235.22V63.83
			c0-6.06-4.93-10.99-10.99-10.99h-12.85c-2.31,0-4.2-1.88-4.2-4.2c0-2.31,1.88-4.19,4.2-4.19h12.85c10.68,0,19.37,8.69,19.37,19.37
			v153.74C276,228.26,267.31,236.95,256.63,236.95z M224.44,230.55c-1.21,0-2.19,0.99-2.19,2.2s0.98,2.2,2.19,2.2h32.18
			c9.58,0,17.37-7.79,17.37-17.37V63.83c0-9.58-7.79-17.37-17.37-17.37h-12.85c-1.21,0-2.2,0.98-2.2,2.19c0,1.21,0.99,2.2,2.2,2.2
			h12.85c7.16,0,12.99,5.83,12.99,12.99v24.51H30.4V63.83c0-7.16,5.82-12.99,12.98-12.99h183.4c1.21,0,2.2-0.99,2.2-2.2
			c0-1.21-0.99-2.19-2.2-2.19H43.37C33.79,46.46,26,54.25,26,63.83v57.89c0,1.21,0.99,2.2,2.2,2.2s2.2-0.99,2.2-2.2V92.73h239.22
			v124.84c0,7.16-5.83,12.98-12.99,12.98H224.44z"/>
	</g>
	<g>
		<path class="st2" d="M62.02,69.59c0,3.49-2.83,6.33-6.32,6.33c-3.5,0-6.33-2.84-6.33-6.33c0-3.49,2.83-6.33,6.33-6.33
			C59.18,63.27,62.02,66.11,62.02,69.59z"/>
		<path class="st2" d="M55.7,76.92c-4.04,0-7.33-3.29-7.33-7.33s3.29-7.33,7.33-7.33c4.04,0,7.32,3.29,7.32,7.33
			S59.73,76.92,55.7,76.92z M55.7,64.27c-2.94,0-5.33,2.39-5.33,5.33c0,2.94,2.39,5.33,5.33,5.33c2.93,0,5.32-2.39,5.32-5.33
			C61.02,66.66,58.63,64.27,55.7,64.27z"/>
	</g>
	<g>
		<path class="st2" d="M82.96,69.59c0,3.49-2.83,6.33-6.32,6.33c-3.5,0-6.33-2.84-6.33-6.33c0-3.49,2.83-6.33,6.33-6.33
			C80.13,63.27,82.96,66.11,82.96,69.59z"/>
		<path class="st2" d="M76.64,76.92c-4.04,0-7.33-3.29-7.33-7.33s3.29-7.33,7.33-7.33c4.04,0,7.32,3.29,7.32,7.33
			S80.68,76.92,76.64,76.92z M76.64,64.27c-2.94,0-5.33,2.39-5.33,5.33c0,2.94,2.39,5.33,5.33,5.33c2.93,0,5.32-2.39,5.32-5.33
			C81.96,66.66,79.58,64.27,76.64,64.27z"/>
	</g>
	<g>
		<path class="st2" d="M103.91,69.59c0,3.49-2.83,6.33-6.33,6.33c-3.49,0-6.33-2.84-6.33-6.33c0-3.49,2.84-6.33,6.33-6.33
			C101.08,63.27,103.91,66.11,103.91,69.59z"/>
		<path class="st2" d="M97.58,76.92c-4.04,0-7.33-3.29-7.33-7.33s3.29-7.33,7.33-7.33c4.04,0,7.33,3.29,7.33,7.33
			S101.62,76.92,97.58,76.92z M97.58,64.27c-2.94,0-5.33,2.39-5.33,5.33c0,2.94,2.39,5.33,5.33,5.33c2.94,0,5.33-2.39,5.33-5.33
			C102.91,66.66,100.52,64.27,97.58,64.27z"/>
	</g>
	<g>
		<path class="st2" d="M109.66,137.32l-12.34,35.21c-0.45,1.29-1.66,2.14-3.04,2.14c-1.36-0.01-2.57-0.87-3.01-2.16l-9.15-26.82
			l-9.57,26.85c-0.45,1.27-1.66,2.12-3.01,2.12h-0.02c-1.35-0.01-2.56-0.87-3.01-2.16l-12.08-35.17c-0.28-0.81-0.23-1.67,0.14-2.44
			c0.37-0.77,1.03-1.34,1.83-1.62c0.81-0.28,1.67-0.22,2.44,0.15c0.77,0.37,1.34,1.03,1.62,1.83l9.11,26.54l9.59-26.89
			c0.49-1.54,1.91-2.11,3.03-2.06c1.09,0.01,2.53,0.57,3,2.11l9.12,26.74l9.29-26.49c0.28-0.81,0.85-1.46,1.63-1.82
			c0.77-0.37,1.63-0.42,2.44-0.13c0.81,0.28,1.45,0.86,1.82,1.63C109.89,135.65,109.93,136.51,109.66,137.32z"/>
		<path class="st2" d="M94.28,175.17c-1.58-0.01-2.98-1.02-3.48-2.5l-8.69-25.46l-9.09,25.5c-0.52,1.47-1.92,2.46-3.48,2.46
			c-1.59-0.01-2.99-1.02-3.5-2.5L53.97,137.5c-0.32-0.94-0.26-1.94,0.17-2.82c0.43-0.89,1.19-1.55,2.12-1.88
			c0.93-0.32,1.93-0.26,2.82,0.18c0.89,0.43,1.55,1.19,1.88,2.12l8.65,25.19l9.11-25.55c0.55-1.73,2.17-2.46,3.53-2.4
			c1.24,0.01,2.91,0.66,3.45,2.47l8.65,25.36l8.81-25.13c0.33-0.94,1-1.69,1.89-2.11c0.88-0.43,1.89-0.49,2.82-0.15
			c0.92,0.32,1.67,0.99,2.11,1.88c0.42,0.89,0.48,1.89,0.16,2.82l0,0l-12.34,35.21C97.27,174.17,95.86,175.17,94.28,175.17z
			 M82.13,144.17l9.62,28.17c0.36,1.08,1.38,1.81,2.54,1.82c1.15,0,2.18-0.73,2.56-1.81l12.34-35.21c0.24-0.68,0.2-1.41-0.11-2.06
			c-0.32-0.65-0.86-1.14-1.54-1.37c-0.68-0.24-1.41-0.2-2.06,0.11c-0.66,0.31-1.14,0.85-1.38,1.54l-9.77,27.86l-9.59-28.11
			c-0.4-1.3-1.61-1.77-2.53-1.77c-0.97-0.04-2.16,0.47-2.55,1.72l-10.07,28.26l-9.58-27.89c-0.24-0.68-0.72-1.23-1.37-1.55
			c-0.65-0.32-1.38-0.36-2.06-0.13c-0.68,0.24-1.23,0.72-1.55,1.37c-0.31,0.64-0.36,1.37-0.12,2.06l12.08,35.17
			c0.37,1.08,1.39,1.82,2.54,1.82c1.15,0,2.17-0.72,2.55-1.79L82.13,144.17z"/>
	</g>
	<g>
		<path class="st2" d="M177.68,137.32l-12.35,35.21c-0.44,1.29-1.66,2.14-3.03,2.14c-1.36-0.01-2.57-0.87-3.02-2.16l-9.14-26.82
			l-9.57,26.85c-0.45,1.27-1.66,2.12-3.02,2.12h-0.01c-1.36-0.01-2.56-0.87-3.01-2.15l-12.09-35.18c-0.57-1.66,0.32-3.49,1.99-4.06
			c0.81-0.28,1.67-0.22,2.44,0.15c0.77,0.37,1.34,1.03,1.62,1.83l9.11,26.54l9.59-26.89c0.49-1.54,1.96-2.11,3.03-2.06
			c1.09,0.01,2.54,0.57,3.01,2.11l9.11,26.74l9.29-26.49c0.29-0.81,0.86-1.46,1.63-1.82c0.77-0.37,1.64-0.42,2.45-0.13
			c0.8,0.28,1.45,0.86,1.82,1.63C177.91,135.65,177.95,136.51,177.68,137.32z"/>
		<path class="st2" d="M162.3,175.17c-1.58-0.01-2.98-1.02-3.49-2.5l-8.68-25.46l-9.08,25.5c-0.52,1.47-1.92,2.46-3.49,2.46
			c-1.58-0.01-2.98-1.01-3.49-2.49l-12.09-35.18c-0.66-1.93,0.37-4.03,2.3-4.7c0.93-0.32,1.93-0.26,2.82,0.18
			c0.89,0.43,1.55,1.19,1.88,2.12l8.65,25.19l9.11-25.55c0.55-1.72,2.19-2.44,3.52-2.4c1.25,0.01,2.91,0.66,3.46,2.47l8.64,25.35
			l8.81-25.12c0.34-0.94,1.01-1.69,1.89-2.11c0.89-0.43,1.9-0.49,2.83-0.15c0.93,0.32,1.67,1,2.1,1.89
			c0.43,0.88,0.49,1.88,0.17,2.82l0,0l-12.35,35.21C165.29,174.17,163.88,175.17,162.3,175.17z M150.15,144.17l9.61,28.17
			c0.37,1.08,1.39,1.81,2.55,1.82c1.15,0,2.18-0.73,2.55-1.8l12.35-35.21c0.23-0.68,0.19-1.41-0.12-2.06
			c-0.31-0.66-0.85-1.14-1.53-1.38c-0.69-0.24-1.42-0.2-2.06,0.11c-0.65,0.31-1.14,0.85-1.38,1.54l-9.77,27.85l-9.58-28.11
			c-0.4-1.3-1.61-1.77-2.54-1.77c-0.94-0.03-2.15,0.48-2.54,1.72l-10.07,28.26l-9.58-27.89c-0.24-0.68-0.72-1.23-1.37-1.55
			c-0.65-0.32-1.38-0.36-2.06-0.13c-1.41,0.48-2.16,2.02-1.68,3.43l12.09,35.18c0.37,1.08,1.39,1.81,2.54,1.81
			c1.15,0,2.17-0.72,2.55-1.79L150.15,144.17z"/>
	</g>
	<g>
		<path class="st2" d="M244.58,137.32l-12.34,35.21c-0.44,1.29-1.66,2.14-3.03,2.14c-1.36-0.01-2.57-0.87-3.02-2.16l-9.14-26.82
			l-9.57,26.85c-0.45,1.27-1.66,2.12-3.02,2.12h-0.01c-1.36-0.01-2.56-0.87-3.01-2.15l-12.09-35.18c-0.58-1.66,0.32-3.49,1.99-4.06
			c1.67-0.57,3.49,0.32,4.06,1.99l9.11,26.54l9.59-26.89c0.48-1.53,1.92-2.06,3.01-2.06c0.01,0,0.01,0,0.02,0
			c1.09,0.01,2.54,0.57,3.01,2.11l9.11,26.74l9.29-26.49c0.29-0.81,0.86-1.46,1.63-1.82c0.77-0.37,1.63-0.42,2.44-0.13
			c0.81,0.28,1.46,0.86,1.83,1.63C244.82,135.65,244.87,136.51,244.58,137.32z"/>
		<path class="st2" d="M229.21,175.17c-1.58-0.01-2.98-1.02-3.49-2.5l-8.68-25.46l-9.08,25.5c-0.52,1.47-1.92,2.46-3.49,2.46
			c-1.58-0.01-2.98-1.01-3.49-2.49l-12.09-35.18c-0.32-0.93-0.26-1.92,0.17-2.81c0.43-0.89,1.19-1.56,2.13-1.89
			c1.94-0.65,4.04,0.38,4.7,2.3l8.65,25.19l9.11-25.55c0.55-1.76,2.22-2.4,3.48-2.4c1.29,0.01,2.96,0.66,3.5,2.47l8.64,25.35
			l8.81-25.12c0.34-0.94,1.01-1.69,1.89-2.11c0.88-0.43,1.89-0.49,2.82-0.15c0.93,0.32,1.68,0.99,2.11,1.89
			c0.43,0.88,0.49,1.89,0.16,2.82l-12.34,35.21C232.2,174.17,230.8,175.17,229.21,175.17z M217.07,144.17l9.61,28.17
			c0.37,1.08,1.39,1.81,2.55,1.82c1.15,0,2.18-0.73,2.55-1.8l12.34-35.22c0.24-0.68,0.2-1.41-0.11-2.05
			c-0.31-0.66-0.86-1.14-1.54-1.38c-0.68-0.24-1.41-0.2-2.06,0.11c-0.65,0.31-1.13,0.85-1.38,1.54l-9.76,27.85l-9.58-28.11
			c-0.4-1.3-1.61-1.77-2.54-1.77c-0.93,0-2.15,0.45-2.54,1.71l-10.07,28.26l-9.58-27.89c-0.48-1.4-2.02-2.15-3.43-1.68
			c-0.68,0.24-1.23,0.72-1.55,1.38c-0.31,0.65-0.36,1.37-0.12,2.05l12.09,35.18c0.37,1.08,1.39,1.81,2.54,1.81
			c1.15,0,2.17-0.72,2.55-1.79L217.07,144.17z"/>
	</g>
</g>
</svg>
