<?xml version="1.0" encoding="utf-8"?>
<!-- Generator: Adobe Illustrator 26.3.1, SVG Export Plug-In . SVG Version: 6.00 Build 0)  -->
<svg version="1.1" id="Layer_1" xmlns="http://www.w3.org/2000/svg" xmlns:xlink="http://www.w3.org/1999/xlink" x="0px" y="0px"
	 viewBox="0 0 300 300" style="enable-background:new 0 0 300 300;" xml:space="preserve">
<style type="text/css">
	.st0{fill:#FFFFFF;}
	.st1{fill:#00457F;}
</style>
<g>
	<path class="st1" d="M206.84,229.55h-47.47l-5.42-5.43l12.75-12.75c1.25-1.25,1.77-3.03,1.39-4.74c-0.37-1.72-1.59-3.12-3.25-3.74
		l-64.76-24.1c-2.09-0.79-4.38-0.29-5.96,1.3c-1.58,1.58-2.07,3.86-1.3,5.95l16.18,43.5H43.37c-6.61,0-11.98-5.38-11.98-11.98
		v-79.31c0-1.77-1.43-3.2-3.2-3.2c-1.76,0-3.2,1.43-3.2,3.2v79.31c0,10.12,8.25,18.37,18.37,18.37h68.01l5.54,14.88
		c0.61,1.65,2.01,2.86,3.73,3.24c1.73,0.37,3.5-0.14,4.74-1.39l12.75-12.75l12.97,12.98c1.07,1.06,2.49,1.64,4,1.64
		c1.51,0,2.93-0.59,3.99-1.64l7.82-7.82c2.2-2.2,2.2-5.78,0-7.98l-1.15-1.15h41.07c1.76,0,3.19-1.43,3.19-3.2
		C210.02,230.98,208.59,229.55,206.84,229.55z M155.12,249.26l-15.41-15.41c-0.81-0.81-2.3-0.81-3.11,0l-14.75,14.75l-24.16-64.95
		l64.94,24.17l-14.74,14.75c-0.42,0.42-0.64,0.97-0.64,1.55s0.23,1.14,0.64,1.55l15.4,15.4L155.12,249.26z"/>
	<path class="st1" d="M275,63.83v153.74c0,10.12-8.24,18.37-18.37,18.37h-32.19c-1.76,0-3.19-1.44-3.19-3.2
		c0-1.77,1.43-3.2,3.19-3.2h32.19c6.61,0,11.99-5.38,11.99-11.98V93.73H31.4v27.99c0,1.77-1.43,3.2-3.2,3.2
		c-1.76,0-3.2-1.43-3.2-3.2V63.83c0-10.13,8.25-18.37,18.37-18.37h183.4c1.76,0,3.2,1.43,3.2,3.19c0,1.77-1.44,3.2-3.2,3.2H43.37
		c-6.61,0-11.98,5.38-11.98,11.99v23.51h237.22V63.83c0-6.61-5.38-11.99-11.99-11.99h-12.85c-1.76,0-3.2-1.43-3.2-3.2
		c0-1.76,1.44-3.19,3.2-3.19h12.85C266.76,45.46,275,53.7,275,63.83z"/>
	<path class="st1" d="M62.02,69.59c0,3.49-2.83,6.33-6.32,6.33c-3.5,0-6.33-2.84-6.33-6.33c0-3.49,2.83-6.33,6.33-6.33
		C59.18,63.27,62.02,66.11,62.02,69.59z"/>
	<path class="st1" d="M82.96,69.59c0,3.49-2.83,6.33-6.32,6.33c-3.5,0-6.33-2.84-6.33-6.33c0-3.49,2.83-6.33,6.33-6.33
		C80.13,63.27,82.96,66.11,82.96,69.59z"/>
	<path class="st1" d="M103.91,69.59c0,3.49-2.83,6.33-6.33,6.33c-3.49,0-6.33-2.84-6.33-6.33c0-3.49,2.84-6.33,6.33-6.33
		C101.08,63.27,103.91,66.11,103.91,69.59z"/>
	<path class="st1" d="M109.66,137.32l-12.34,35.21c-0.45,1.29-1.66,2.14-3.04,2.14c-1.36-0.01-2.57-0.87-3.01-2.16l-9.15-26.82
		l-9.57,26.85c-0.45,1.27-1.66,2.12-3.01,2.12h-0.02c-1.35-0.01-2.56-0.87-3.01-2.16l-12.08-35.17c-0.28-0.81-0.23-1.67,0.14-2.44
		c0.37-0.77,1.03-1.34,1.83-1.62c0.81-0.28,1.67-0.22,2.44,0.15c0.77,0.37,1.34,1.03,1.62,1.83l9.11,26.54l9.59-26.89
		c0.49-1.54,1.91-2.11,3.03-2.06c1.09,0.01,2.53,0.57,3,2.11l9.12,26.74l9.29-26.49c0.28-0.81,0.85-1.46,1.63-1.82
		c0.77-0.37,1.63-0.42,2.44-0.13c0.81,0.28,1.45,0.86,1.82,1.63C109.89,135.65,109.93,136.51,109.66,137.32z"/>
	<path class="st1" d="M177.68,137.32l-12.35,35.21c-0.44,1.29-1.66,2.14-3.03,2.14c-1.36-0.01-2.57-0.87-3.02-2.16l-9.14-26.82
		l-9.57,26.85c-0.45,1.27-1.66,2.12-3.02,2.12h-0.01c-1.36-0.01-2.56-0.87-3.01-2.15l-12.09-35.18c-0.57-1.66,0.32-3.49,1.99-4.06
		c0.81-0.28,1.67-0.22,2.44,0.15c0.77,0.37,1.34,1.03,1.62,1.83l9.11,26.54l9.59-26.89c0.49-1.54,1.96-2.11,3.03-2.06
		c1.09,0.01,2.54,0.57,3.01,2.11l9.11,26.74l9.29-26.49c0.29-0.81,0.86-1.46,1.63-1.82c0.77-0.37,1.64-0.42,2.45-0.13
		c0.8,0.28,1.45,0.86,1.82,1.63C177.91,135.65,177.95,136.51,177.68,137.32z"/>
	<path class="st1" d="M244.58,137.32l-12.34,35.21c-0.44,1.29-1.66,2.14-3.03,2.14c-1.36-0.01-2.57-0.87-3.02-2.16l-9.14-26.82
		l-9.57,26.85c-0.45,1.27-1.66,2.12-3.02,2.12h-0.01c-1.36-0.01-2.56-0.87-3.01-2.15l-12.09-35.18c-0.58-1.66,0.32-3.49,1.99-4.06
		c1.67-0.57,3.49,0.32,4.06,1.99l9.11,26.54l9.59-26.89c0.48-1.53,1.92-2.06,3.01-2.06c0.01,0,0.01,0,0.02,0
		c1.09,0.01,2.54,0.57,3.01,2.11l9.11,26.74l9.29-26.49c0.29-0.81,0.86-1.46,1.63-1.82c0.77-0.37,1.63-0.42,2.44-0.13
		c0.81,0.28,1.46,0.86,1.83,1.63C244.82,135.65,244.87,136.51,244.58,137.32z"/>
</g>
</svg>
